<?xml version="1.0" ?><svg viewBox="0 0 419.89 369.69" xmlns="http://www.w3.org/2000/svg"><defs><style>.cls-1{fill:none;stroke:#050505;stroke-miterlimit:10;stroke-width:10px;}</style></defs><title/><g data-name="Layer 2" id="Layer_2"><g data-name="Layer 1" id="Layer_1-2"><path class="cls-1" d="M71.09,172l7.71,5.74A21.33,21.33,0,0,0,91.59,182h60.18A21.39,21.39,0,0,0,170,171.89l17.23-27.66"/><path class="cls-1" d="M378.18,188.3h0L343,307.39a21.57,21.57,0,0,0-.53,10l4.1,22a21.42,21.42,0,0,1-21.05,25.33H135.76"/><path class="cls-1" d="M114.09,364.69H94.41a21.4,21.4,0,0,1-21-25.33l4.07-22a21.28,21.28,0,0,0,.37-4,20.68,20.68,0,0,0-.88-6L41.7,188.31h0"/><path class="cls-1" d="M232.71,144.23l17.23,27.66A21.39,21.39,0,0,0,268.12,182H328.3a21.37,21.37,0,0,0,12.79-4.24L348.8,172"/><circle class="cls-1" cx="40.96" cy="152.36" r="35.96"/><circle class="cls-1" cx="378.93" cy="152.36" r="35.96"/><circle class="cls-1" cx="209.94" cy="116.4" r="35.96"/><path class="cls-1" d="M202.77,210l-23.49,30.66a4.94,4.94,0,0,0,0,6.24l23.49,30.66c3.19,4.16,11.16,4.16,14.35,0l23.49-30.66a4.94,4.94,0,0,0,0-6.24L217.12,210C213.93,205.81,206,205.81,202.77,210Z"/><path class="cls-1" d="M285.58,224.34l-16.94,22.1a3.56,3.56,0,0,0,0,4.5L285.58,273c2.3,3,8,3,10.35,0l16.94-22.1a3.56,3.56,0,0,0,0-4.5l-16.94-22.1C293.63,221.34,287.88,221.34,285.58,224.34Z"/><path class="cls-1" d="M124,224.34,107,246.45a3.56,3.56,0,0,0,0,4.5L124,273c2.3,3,8,3,10.35,0l16.94-22.1a3.56,3.56,0,0,0,0-4.5l-16.94-22.1C132,221.34,126.26,221.34,124,224.34Z"/><path class="cls-1" d="M245.62,111.85c41.11,4.18,76.24,15.46,98.68,30.82"/><path class="cls-1" d="M75.59,142.68C98,127.31,133.16,116,174.27,111.85"/><line class="cls-1" x1="77.81" x2="342.97" y1="313.38" y2="313.38"/><line class="cls-1" x1="209.94" x2="209.94" y2="80.43"/><line class="cls-1" x1="250.16" x2="169.73" y1="35.74" y2="35.74"/><path class="cls-1" d="M206.92,104h0a14,14,0,0,1,14,14v5.33"/></g></g></svg>