<?xml version="1.0" ?><!DOCTYPE svg  PUBLIC '-//W3C//DTD SVG 1.1//EN'  'http://www.w3.org/Graphics/SVG/1.1/DTD/svg11.dtd'><svg height="512px" style="enable-background:new 0 0 512 512;" version="1.1" viewBox="0 0 512 512" width="512px" xml:space="preserve" xmlns="http://www.w3.org/2000/svg" xmlns:xlink="http://www.w3.org/1999/xlink"><g id="_x36_68_x2C__cake_x2C__plate__x2C__wedding_x2C__love"><g><path d="M251.47,446.75c-2.761,0-5-2.238-5-5v-54.359c0-2.762,2.239-5,5-5c2.762,0,5,2.238,5,5v54.359    C256.47,444.512,254.231,446.75,251.47,446.75z" style="fill:#415A6B;"/><polygon points="323.96,468.939 178.979,468.939 230.149,441.75 251.47,441.75 272.79,441.75   " style="fill:#415A6B;"/><polygon points="234.68,448.916 256,448.916 277.32,448.916 315.005,468.939 323.96,468.939 272.79,441.75     251.47,441.75 230.149,441.75 178.979,468.939 196.996,468.939   " style="fill:#324B59;"/><polygon points="468.94,342.08 414.57,387.391 251.47,387.391 97.43,387.391 43.06,342.08 88.37,342.08     133.67,342.08 378.33,342.08 423.63,342.08   " style="fill:#415A6B;"/><polygon points="63.06,349.33 108.37,349.33 153.67,349.33 398.33,349.33 443.63,349.33 460.241,349.33     468.94,342.08 423.63,342.08 378.33,342.08 133.67,342.08 88.37,342.08 43.06,342.08 97.43,387.391 108.73,387.391   " style="fill:#324B59;"/><path d="M378.33,317.92v24.16H133.67v-24.16v-18.119c0,0,32.62-27.191,65.24,0    C231.529,326.98,256,293,256,293s24.46,33.98,57.09,6.801c32.62-27.191,65.24,0,65.24,0V317.92z" style="fill:#743629;"/><path d="M378.33,260.93v38.871c0,0-32.62-27.191-65.24,0C280.46,326.98,256,293,256,293    s-24.471,33.98-57.09,6.801c-32.62-27.191-65.24,0-65.24,0V260.93c0-15.23,14.3-27.58,31.92-27.58h180.82    C364.04,233.35,378.33,245.7,378.33,260.93z" style="fill:#924B35;"/><path d="M140.92,268.93c0-15.23,14.3-27.58,31.92-27.58h180.82c8.083,0,15.458,2.601,21.082,6.88    c-5.318-8.838-16.005-14.88-28.332-14.88H165.59c-17.62,0-31.92,12.35-31.92,27.58v38.871c0,0,2.674-2.227,7.25-4.768V268.93z" style="fill:#743629;"/><path d="M423.63,237.88v104.2h-45.3v-24.16v-18.119V260.93c0-15.23-14.29-27.58-31.92-27.58H165.59    c-17.62,0-31.92,12.35-31.92,27.58v38.871v18.119v24.16h-45.3v-104.2c0-87.44,66.939-159.23,152.38-166.94    c-1.811-2.82-2.87-6.16-2.87-9.76c0-10.01,8.11-18.12,18.12-18.12s18.12,8.11,18.12,18.12c0,3.6-1.061,6.94-2.87,9.76    C356.68,78.65,423.63,150.44,423.63,237.88z M343.63,196.75c8.601-8.6,7.96-23.18-1.43-32.58c-8.49-8.49-16.63-8.84-28.67-5.3    c3.54-12.04,3.189-20.18-5.3-28.67c-9.381-9.38-23.961-10.01-32.561-1.41c-15.58,15.58-7.47,41.44-6.06,74    C302.17,204.2,328.05,212.33,343.63,196.75z M231.16,196.1c0.92-21.22,6.22-38.09-3.931-48.24c-5.609-5.61-15.109-5.2-21.239,0.93    c-5.53,5.53-5.771,10.84-3.461,18.68c-7.84-2.31-13.149-2.08-18.68,3.46c-6.12,6.11-6.53,15.62-0.92,21.23    C193.08,202.31,209.939,197.02,231.16,196.1z" style="fill:#DADCEC;"/><g><path d="M98.616,248.606c0-87.44,66.939-159.23,152.38-166.94c-1.811-2.82-2.87-6.16-2.87-9.76     c0-10.01,8.11-18.12,18.12-18.12c2.412,0,4.71,0.481,6.815,1.336c-2.495-7.025-9.18-12.062-17.062-12.062     c-10.01,0-18.12,8.11-18.12,18.12c0,3.6,1.06,6.94,2.87,9.76c-85.44,7.71-152.38,79.5-152.38,166.94v104.2h10.246V248.606z" style="fill:#C3C6D8;"/></g><path d="M227.229,147.86c10.15,10.15,4.851,27.02,3.931,48.24c-21.221,0.92-38.08,6.21-48.23-3.94    c-5.61-5.61-5.2-15.12,0.92-21.23c5.53-5.54,10.84-5.77,18.68-3.46c-2.31-7.84-2.069-13.15,3.461-18.68    C212.12,142.66,221.62,142.25,227.229,147.86z" style="fill:#EF3E5C;"/><g><g><g><path d="M227.229,147.86c-5.609-5.61-15.109-5.2-21.239,0.93c-3.339,3.338-4.74,6.601-4.825,10.384       c5.899-3.607,13.352-3.16,18.064,1.553c8.081,8.081,6.369,20.424,4.871,35.828c2.296-0.188,4.647-0.351,7.06-0.456       C232.08,174.88,237.38,158.01,227.229,147.86z" style="fill:#E42A53;"/></g></g></g><path d="M342.2,164.17c9.39,9.4,10.03,23.98,1.43,32.58c-15.58,15.58-41.46,7.45-74.02,6.04    c-1.41-32.56-9.521-58.42,6.06-74c8.6-8.6,23.18-7.97,32.561,1.41c8.489,8.49,8.84,16.63,5.3,28.67    C325.57,155.33,333.71,155.68,342.2,164.17z" style="fill:#EF3E5C;"/><g><g><g><path d="M283.003,142.457c8.567-8.568,23.067-7.969,32.451,1.31c-0.609-4.825-2.808-9.151-7.224-13.567       c-9.381-9.38-23.961-10.01-32.561-1.41c-15.58,15.58-7.47,41.44-6.06,74c2.173,0.094,4.313,0.22,6.425,0.364       C273.721,176.843,269.61,155.849,283.003,142.457z" style="fill:#E42A53;"/></g></g></g><g><path d="M323.336,299.801c9.008-7.51,18.015-10.865,26.336-11.799     c-10.862-1.186-23.722,1.078-36.582,11.799c-7.288,6.07-14.166,9.084-20.457,10.111     C301.383,311.352,311.852,309.367,323.336,299.801z" style="fill:#602920;"/><path d="M143.916,299.801c0,0,11.971-9.975,28.659-11.799c-21.813-2.443-38.905,11.799-38.905,11.799     v18.119v24.16h10.246v-24.16V299.801z" style="fill:#602920;"/><path d="M261.122,298.645C257.819,295.523,256,293,256,293s-10.279,14.266-26.391,16.912     C243.81,312.234,255.01,304.42,261.122,298.645z" style="fill:#602920;"/></g><path d="M468.94,428.629H387.39c-2.762,0-5-2.238-5-5s2.238-5,5-5h81.551c2.762,0,5,2.238,5,5    S471.702,428.629,468.94,428.629z" style="fill:#415A6B;"/><path d="M414.57,455.82H351.14c-2.762,0-5-2.238-5-5s2.238-5,5-5h63.431c2.762,0,5,2.238,5,5    S417.332,455.82,414.57,455.82z" style="fill:#415A6B;"/><path d="M124.609,428.629H43.06c-2.761,0-5-2.238-5-5s2.239-5,5-5h81.55c2.762,0,5,2.238,5,5    S127.371,428.629,124.609,428.629z" style="fill:#415A6B;"/><path d="M160.859,455.82H97.43c-2.761,0-5-2.238-5-5s2.239-5,5-5h63.43c2.762,0,5,2.238,5,5    S163.621,455.82,160.859,455.82z" style="fill:#415A6B;"/></g></g><g id="Layer_1"/></svg>