<?xml version="1.0" encoding="UTF-8"?>
<svg version="1.1" xmlns="http://www.w3.org/2000/svg" width="500" height="500">
<path d="M0 0 C165 0 330 0 500 0 C500 165 500 330 500 500 C335 500 170 500 0 500 C0 335 0 170 0 0 Z " fill="#FEFEFE" transform="translate(0,0)"/>
<path d="M0 0 C1.07515869 0.627854 2.15031738 1.25570801 3.25805664 1.90258789 C4.37946045 2.57410889 5.50086426 3.24562988 6.65625 3.9375 C7.81915218 4.62629261 8.98248473 5.3143591 10.14624023 6.00170898 C12.43766769 7.35661751 14.72522184 8.71744477 17.01123047 10.08154297 C19.70663425 11.67217017 22.41886493 13.21314967 25.16015625 14.72265625 C25.86140625 15.11646484 26.56265625 15.51027344 27.28515625 15.91601562 C29.08205459 16.92336773 30.88644394 17.91732546 32.69140625 18.91015625 C35.15625 20.9375 35.15625 20.9375 35.92602539 23.71020508 C36.18274667 27.30893105 35.64203612 29.27196355 34.3046875 32.6015625 C33.8713208 33.70733643 33.4379541 34.81311035 32.99145508 35.95239258 C32.26865356 37.73939575 32.26865356 37.73939575 31.53125 39.5625 C30.51509758 42.1391858 29.509854 44.72009737 28.50390625 47.30078125 C28.10394691 48.3209861 28.10394691 48.3209861 27.69590759 49.36180115 C24.28540585 58.09612634 21.13481215 66.92486311 17.96875 75.75 C17.38666491 77.36869152 16.80447336 78.98734475 16.22216797 80.60595703 C14.86433916 84.38223683 13.5093902 88.15953776 12.15625 91.9375 C12.71272217 91.9468457 13.26919434 91.95619141 13.8425293 91.96582031 C41.16010997 92.53557662 71.32367619 97.36059366 94.85546875 112.2734375 C97.86287509 114.2299432 97.86287509 114.2299432 100.16796875 113.4765625 C101.15216797 112.71472656 101.15216797 112.71472656 102.15625 111.9375 C103.19394531 111.24398437 104.23164063 110.55046875 105.30078125 109.8359375 C105.88722412 109.43213867 106.47366699 109.02833984 107.07788086 108.61230469 C136.88748353 88.12084896 171.91870975 78.57860655 208.15625 84.9375 C227.9271439 89.89768893 247.43080039 98.25159634 264.15625 109.9375 C265.13464844 110.618125 266.11304688 111.29875 267.12109375 112 C297.15528521 133.97804863 318.56718215 165.83225372 324.34375 202.875 C328.76844789 240.08784382 318.76419707 277.75250936 295.875 307.60546875 C274.95775421 333.72861117 246.86740181 353.94935143 212.921875 358.21850586 C187.51360108 360.90694424 162.97890649 358.22202724 139.15625 348.9375 C138.4751416 348.67598145 137.7940332 348.41446289 137.09228516 348.14501953 C125.86957868 343.76169504 114.04888657 338.12577955 105.015625 330.015625 C103.16609963 328.6572312 103.16609963 328.6572312 100.875 329.48828125 C98.14335795 330.94437206 95.43284139 332.43353511 92.73901367 333.95849609 C72.16890759 345.47929868 49.54344471 351.1256393 26.05664062 351.12280273 C24.05594786 351.12497321 22.05529433 351.14343966 20.0546875 351.16210938 C7.0373616 351.18132787 -5.50612792 349.85046129 -17.96875 346 C-18.93594971 345.70206543 -19.90314941 345.40413086 -20.8996582 345.09716797 C-36.18235381 340.12926675 -50.60423196 332.37761291 -62.84375 321.9375 C-63.82214844 321.12023437 -64.80054688 320.30296875 -65.80859375 319.4609375 C-84.33158591 303.53593667 -95.13656125 283.8014095 -102.84375 260.9375 C-103.10808838 260.19338867 -103.37242676 259.44927734 -103.64477539 258.68261719 C-113.20110587 231.34163329 -111.92843194 196.62751629 -99.62915039 170.38793945 C-98.72413158 168.55801394 -97.78919118 166.74681879 -96.84375 164.9375 C-96.25980469 163.77476562 -95.67585938 162.61203125 -95.07421875 161.4140625 C-85.41753099 143.32047911 -69.85428384 125.17075786 -51.84375 114.9375 C-51.18375 114.9375 -50.52375 114.9375 -49.84375 114.9375 C-49.84375 114.2775 -49.84375 113.6175 -49.84375 112.9375 C-50.38571518 112.76929245 -50.92768036 112.6010849 -51.48606873 112.42778015 C-57.23813282 110.58452513 -62.66346123 108.33102762 -68.12890625 105.76953125 C-68.98826279 105.37102463 -69.84761932 104.97251801 -70.73301697 104.56193542 C-72.5433722 103.72123213 -74.3526494 102.87820384 -76.16088867 102.03295898 C-78.87232986 100.76585152 -81.58718726 99.50632681 -84.30273438 98.24804688 C-92.61166201 94.38782223 -100.88950515 90.47326176 -109.08984375 86.38671875 C-109.76394791 86.05138626 -110.43805206 85.71605377 -111.13258362 85.37055969 C-115.71644044 83.06480956 -115.71644044 83.06480956 -116.84375 81.9375 C-116.45111103 75.8089363 -114.90173789 70.93027941 -112.45703125 65.3359375 C-112.11753952 64.5370108 -111.77804779 63.73808411 -111.42826843 62.91494751 C-110.3470487 60.37663332 -109.25197004 57.84458345 -108.15625 55.3125 C-107.43982623 53.63711569 -106.72432389 51.96133705 -106.00976562 50.28515625 C-104.61846896 47.02349813 -103.21472321 43.7676073 -101.80322266 40.51464844 C-100.54218769 37.5972179 -99.32749637 34.66861224 -98.16162109 31.71191406 C-97.77190376 30.74337997 -97.77190376 30.74337997 -97.37431335 29.75527954 C-96.68924536 28.04518181 -96.0200965 26.32873034 -95.35229492 24.61181641 C-92.08457906 18.81887911 -85.62327916 17.74577443 -79.625 15.94140625 C-78.73067261 15.6665892 -77.83634521 15.39177216 -76.91491699 15.10862732 C-74.05973427 14.23281993 -71.20184305 13.36625693 -68.34375 12.5 C-66.45293723 11.92183767 -64.56231025 11.34306739 -62.671875 10.76367188 C-59.02596954 9.64726308 -55.37903053 8.53435242 -51.73095703 7.42504883 C-47.71142476 6.20263069 -43.69464545 4.971732 -39.6796875 3.734375 C-38.68485352 3.42830322 -37.69001953 3.12223145 -36.66503906 2.80688477 C-34.77576114 2.22470073 -32.88709263 1.64053555 -30.99902344 1.05444336 C-28.32642963 0.23002489 -25.64863381 -0.57464548 -22.96875 -1.375 C-22.08445312 -1.65150391 -21.20015625 -1.92800781 -20.2890625 -2.21289062 C-19.4228125 -2.46876953 -18.5565625 -2.72464844 -17.6640625 -2.98828125 C-16.90367676 -3.21942627 -16.14329102 -3.45057129 -15.35986328 -3.6887207 C-9.50234052 -4.55888055 -4.98623143 -2.94808835 0 0 Z " fill="#828B6E" transform="translate(157.84375,70.0625)"/>
<path d="M0 0 C2.72544884 2.17364798 5.36827495 4.40678097 7.98046875 6.71484375 C8.67527344 7.32585937 9.37007812 7.936875 10.0859375 8.56640625 C24.35770232 21.95508782 33.39762385 39.91853785 37.98046875 58.71484375 C38.27824219 59.65457031 38.57601562 60.59429687 38.8828125 61.5625 C46.05335193 86.11416266 40.13815425 114.25229673 28.66796875 136.52734375 C12.32830457 165.23795717 -14.58994583 181.91999924 -45.6484375 190.74609375 C-73.20667663 197.28020972 -100.0576321 190.55311781 -124.1015625 176.70703125 C-127.12269939 174.64440767 -129.52439917 172.38062257 -132.01953125 169.71484375 C-131.47425781 169.04582031 -130.92898438 168.37679687 -130.3671875 167.6875 C-106.51305353 137.30915844 -98.90142719 99.25786004 -102.64453125 61.40234375 C-106.07614357 38.78706537 -114.83389167 16.08251988 -130.734375 -0.7265625 C-132.01953125 -2.28515625 -132.01953125 -2.28515625 -132.01953125 -4.28515625 C-129.56720038 -6.28192433 -126.7835821 -7.83551918 -124.08203125 -9.47265625 C-123.27096924 -9.96443359 -122.45990723 -10.45621094 -121.62426758 -10.96289062 C-113.73619984 -15.62982534 -105.67617133 -19.29740689 -97.01953125 -22.28515625 C-95.9934375 -22.64480469 -94.96734375 -23.00445312 -93.91015625 -23.375 C-61.47120503 -32.68618044 -25.82076203 -19.54093892 0 0 Z " fill="#FEFEFE" transform="translate(413.01953125,208.28515625)"/>
<path d="M0 0 C0.68368652 0.23025879 1.36737305 0.46051758 2.07177734 0.69775391 C9.89762688 3.33705308 17.21260788 6.19226392 24 11 C23.50693359 11.71349609 23.50693359 11.71349609 23.00390625 12.44140625 C1.97107642 43.39215584 -9.52285126 77.11135427 -2.875 115 C1.25051663 135.87892231 10.43354868 156.53552429 23.76171875 173.203125 C25 175 25 175 25 178 C-1.75125536 192.5368558 -31.16322608 197.35691267 -61 190 C-61.67611328 189.83902832 -62.35222656 189.67805664 -63.04882812 189.51220703 C-84.83187581 184.13871115 -101.2011238 169.89999177 -112.80859375 151.01123047 C-119.87915464 139.07531231 -123.60411122 126.37439857 -127 113 C-127.26941406 111.99453125 -127.53882812 110.9890625 -127.81640625 109.953125 C-133.36923169 85.5672902 -126.75593805 58.86797339 -114.62890625 37.55859375 C-111.76960021 33.06735764 -108.49631783 29.00763704 -105 25 C-104.49210937 24.39671875 -103.98421875 23.7934375 -103.4609375 23.171875 C-79.18761753 -3.46653769 -32.939355 -11.6997709 0 0 Z " fill="#FEFEFE" transform="translate(210,197)"/>
<path d="M0 0 C25.07730489 -0.75754359 55.46510941 5.05095836 76.6875 19.19921875 C75.27905282 22.4144618 73.58405214 24.52105743 71.0625 26.94921875 C70.43085938 27.5628125 69.79921875 28.17640625 69.1484375 28.80859375 C68.42527344 29.49695313 68.42527344 29.49695313 67.6875 30.19921875 C64.27569673 28.89489471 61.00560703 27.39730398 57.7277832 25.7878418 C30.05876814 12.33068873 -2.26522033 9.67718212 -31.62963867 19.45654297 C-45.29653371 24.33081743 -57.44598046 31.57016762 -68.3125 41.19921875 C-68.99570313 41.79992187 -69.67890625 42.400625 -70.3828125 43.01953125 C-80.95464797 52.92803587 -87.09941008 64.92435588 -92.3125 78.19921875 C-92.63992187 79.00875 -92.96734375 79.81828125 -93.3046875 80.65234375 C-94.10630311 82.81753229 -94.73274445 84.96406054 -95.3125 87.19921875 C-95.58964844 88.22660156 -95.86679688 89.25398438 -96.15234375 90.3125 C-103.3557008 121.74834852 -97.33687426 154.55051219 -81.3125 182.19921875 C-76.43529582 189.84822016 -70.60566799 196.6816954 -64.3125 203.19921875 C-63.72339844 203.81410156 -63.13429687 204.42898438 -62.52734375 205.0625 C-44.74283481 222.06527228 -17.80272749 227.77359282 6.04931641 227.48461914 C38.50753004 226.56894835 68.3652439 214.68607355 91.0625 191.1640625 C111.80243767 167.73904362 119.36330738 141.14001111 117.6875 110.19921875 C115.45823953 90.27724225 105.48644798 68.96741462 92.0234375 54.21484375 C90.6875 52.19921875 90.6875 52.19921875 90.73828125 50.203125 C91.9597957 47.62437227 93.49820734 45.91822262 95.5 43.88671875 C96.53060547 42.80970703 96.53060547 42.80970703 97.58203125 41.7109375 C99.6875 40.19921875 99.6875 40.19921875 101.74609375 40.26953125 C113.11810231 45.71528183 120.34823202 65.46574866 124.55078125 76.45703125 C132.59299733 99.47014189 133.82096069 126.56362766 127.6875 150.19921875 C127.38948486 151.38088623 127.38948486 151.38088623 127.08544922 152.58642578 C123.9950439 164.54756756 119.79174353 175.4590333 113.6875 186.19921875 C113.11 187.21628906 112.5325 188.23335937 111.9375 189.28125 C107.90194441 195.96046816 103.0617846 201.56726297 97.6875 207.19921875 C97.0584375 207.92625 96.429375 208.65328125 95.78125 209.40234375 C84.54292085 221.80018305 68.34566942 229.88870909 52.6875 235.19921875 C51.89585449 235.48555176 51.10420898 235.77188477 50.28857422 236.06689453 C37.25541359 240.66638637 24.75986744 241.73998212 11.0625 241.69921875 C10.29618256 241.69775848 9.52986511 241.69629822 8.74032593 241.6947937 C-0.77007323 241.63882993 -9.94691742 240.99343593 -19.3125 239.19921875 C-20.0540332 239.05887207 -20.79556641 238.91852539 -21.55957031 238.77392578 C-42.61586632 234.48817744 -62.01268563 224.29605051 -77.3125 209.19921875 C-78.20324219 208.38066406 -79.09398437 207.56210937 -80.01171875 206.71875 C-92.19684286 195.21340967 -99.77219965 181.4826568 -106.3125 166.19921875 C-106.92738281 164.80509766 -106.92738281 164.80509766 -107.5546875 163.3828125 C-108.64555346 160.68101658 -109.50992294 158.00107258 -110.3125 155.19921875 C-110.49296875 154.5743457 -110.6734375 153.94947266 -110.859375 153.30566406 C-114.01544937 141.84890086 -114.68954327 130.51934674 -114.6875 118.69921875 C-114.68931274 118.01953033 -114.69112549 117.33984192 -114.69299316 116.63955688 C-114.68941605 104.79413402 -113.52315123 93.62320987 -109.6875 82.38671875 C-109.42807617 81.62464111 -109.16865234 80.86256348 -108.90136719 80.07739258 C-104.23337799 66.89484846 -97.206763 55.90659797 -88.3125 45.19921875 C-87.64347656 44.37679687 -86.97445312 43.554375 -86.28515625 42.70703125 C-81.24280169 36.74694754 -75.4769025 31.9614548 -69.3125 27.19921875 C-68.51714844 26.55339844 -67.72179687 25.90757812 -66.90234375 25.2421875 C-53.85119957 15.0867013 -38.24684072 7.51271766 -22.3125 3.19921875 C-21.46558594 2.96847656 -20.61867188 2.73773438 -19.74609375 2.5 C-13.22532355 0.90099374 -6.68421026 0.40199849 0 0 Z " fill="#A9B396" transform="translate(172.3125,170.80078125)"/>
<path d="M0 0 C1.91792453 1.57768825 3.8156783 3.18037921 5.6875 4.8125 C6.57308594 5.57304687 7.45867187 6.33359375 8.37109375 7.1171875 C10.85641763 9.30366726 13.27702676 11.54405801 15.6875 13.8125 C16.77417969 14.78509766 16.77417969 14.78509766 17.8828125 15.77734375 C29.73981962 26.84813356 38.16036252 41.09598594 44.6875 55.8125 C45.16832031 56.87597656 45.64914062 57.93945312 46.14453125 59.03515625 C56.20035716 83.06584595 56.39139256 109.86983317 49.6875 134.8125 C49.50558105 135.51375 49.32366211 136.215 49.13623047 136.9375 C43.85063627 156.8895553 33.96633651 174.07555826 20.6875 189.8125 C20.01203125 190.62332031 19.3365625 191.43414062 18.640625 192.26953125 C4.89966135 208.19199825 -11.64353683 218.72252491 -31.3125 225.8125 C-32.13234375 226.12960937 -32.9521875 226.44671875 -33.796875 226.7734375 C-44.93560594 230.87932007 -56.82219567 231.17653713 -68.5625 231.125 C-69.24358826 231.12251251 -69.92467651 231.12002502 -70.62640381 231.11746216 C-100.17635619 230.95086776 -128.61095414 221.61957445 -152.3125 203.8125 C-150.77054411 200.517081 -149.55769555 198.62599163 -146.3125 196.8125 C-142.46478274 197.24568671 -139.68742854 199.36065977 -136.5 201.4375 C-111.53197136 217.1923652 -81.1948386 223.77398232 -51.96484375 217.71875 C-46.94243538 216.43394786 -42.1217407 214.73747675 -37.3125 212.8125 C-36.6004541 212.53986328 -35.8884082 212.26722656 -35.15478516 211.98632812 C-19.59270872 205.96229853 -4.04477751 197.84907289 7.6875 185.8125 C8.3475 185.1525 9.0075 184.4925 9.6875 183.8125 C10.3475 183.8125 11.0075 183.8125 11.6875 183.8125 C12.05681641 182.96945312 12.05681641 182.96945312 12.43359375 182.109375 C13.90784585 179.40887583 15.71645709 177.37220306 17.75 175.0625 C35.71473001 153.23376707 43.41048686 124.78638089 41.6875 96.8125 C41.02937649 90.42113292 39.90413871 84.11770792 38.6875 77.8125 C38.49414062 76.74515625 38.30078125 75.6778125 38.1015625 74.578125 C32.35687019 47.57061048 13.50412854 22.77632029 -9.3125 7.8125 C-37.95026297 -9.91148135 -69.50539216 -18.36773438 -103.1328125 -11.296875 C-110.53009145 -9.47975518 -117.45971402 -6.46460275 -124.3125 -3.1875 C-125.30765625 -2.713125 -126.3028125 -2.23875 -127.328125 -1.75 C-155.99279445 13.00140884 -179.19007763 38.10782846 -189.125 69 C-189.54523923 70.59794672 -189.94135055 72.20244323 -190.3125 73.8125 C-190.51617187 74.6271875 -190.71984375 75.441875 -190.9296875 76.28125 C-197.3830237 107.04509929 -188.13046443 140.35726104 -172.3125 166.8125 C-171.70921875 167.54339844 -171.1059375 168.27429688 -170.484375 169.02734375 C-169.3125 170.8125 -169.3125 170.8125 -169.40234375 172.890625 C-170.52473427 175.26065134 -171.69294901 176.13424845 -173.875 177.5625 C-174.51566406 177.99046875 -175.15632813 178.4184375 -175.81640625 178.859375 C-176.31011719 179.17390625 -176.80382812 179.4884375 -177.3125 179.8125 C-198.73570895 157.29066495 -208.13934521 124.36418853 -207.56640625 94.00390625 C-207.30037902 86.72224621 -206.04392292 79.88809842 -204.3125 72.8125 C-204.04566406 71.6575 -203.77882812 70.5025 -203.50390625 69.3125 C-198.68932108 50.48212245 -188.64924664 34.6269196 -176.3125 19.8125 C-175.79945313 19.17570312 -175.28640625 18.53890625 -174.7578125 17.8828125 C-171.02308821 13.34058025 -166.83168173 9.56228699 -162.3125 5.8125 C-161.57257813 5.18472656 -160.83265625 4.55695313 -160.0703125 3.91015625 C-113.30029439 -34.80928497 -48.83250687 -37.85488773 0 0 Z " fill="#A9B396" transform="translate(420.3125,189.1875)"/>
<path d="M0 0 C17.55529624 15.95936022 25.82398817 42.17930063 27.1875 65.16015625 C27.66474708 87.79956469 18.3018701 106.2641732 5 124 C4.34 124.99 3.68 125.98 3 127 C-0.95468242 125.68177253 -1.89450705 123.33964167 -3.8125 119.875 C-4.1621582 119.25044922 -4.51181641 118.62589844 -4.87207031 117.98242188 C-18.81748749 92.43492702 -25.63200023 60.00568834 -17.40966797 31.5534668 C-13.67454787 20.12460539 -7.67122706 9.2448121 0 0 Z " fill="#FDFDFD" transform="translate(256,228)"/>
<path d="M0 0 C0 14.52 0 29.04 0 44 C-11 48 -11 48 -16 47 C-17.9921875 45.43359375 -17.9921875 45.43359375 -19.875 43.4375 C-20.56980469 42.70660156 -21.26460937 41.97570312 -21.98046875 41.22265625 C-24.31345358 38.65501918 -26.60340277 36.05735657 -28.859375 33.421875 C-30.65019076 31.39576958 -32.4729654 29.41971799 -34.328125 27.453125 C-34.92085205 26.8235791 -35.5135791 26.1940332 -36.12426758 25.54541016 C-37.323184 24.27562739 -38.52609144 23.00959985 -39.7331543 21.74755859 C-44 17.22047088 -44 17.22047088 -44 15 C-38.21816422 12.85759452 -32.43404589 10.72151671 -26.64770508 8.59130859 C-24.6789627 7.86551244 -22.71085909 7.13798119 -20.7434082 6.40869141 C-17.91783513 5.36165525 -15.09003517 4.32084909 -12.26171875 3.28125 C-11.38037766 2.95314331 -10.49903656 2.62503662 -9.59098816 2.2869873 C-8.77036392 1.98667603 -7.94973969 1.68636475 -7.10424805 1.37695312 C-6.38254929 1.11047974 -5.66085052 0.84400635 -4.9172821 0.56945801 C-3 0 -3 0 0 0 Z " fill="#E9A887" transform="translate(143,124)"/>
<path d="M0 0 C1.86267821 1.91841189 3.52247555 3.79784079 5.1875 5.875 C5.66509766 6.45636719 6.14269531 7.03773437 6.63476562 7.63671875 C7.61768315 8.83501661 8.5966779 10.03654263 9.57177734 11.24121094 C10.90545223 12.88356887 12.25500243 14.51078517 13.61328125 16.1328125 C17.08359055 20.30172744 20.24502028 24.32276042 23 29 C14.55207196 32.61983084 6.01755957 35.92541861 -2.61279297 39.0769043 C-4.65886441 39.8248797 -6.70251318 40.57923361 -8.74609375 41.33398438 C-10.05194445 41.81287887 -11.35792893 42.2914088 -12.6640625 42.76953125 C-14.41904053 43.41305542 -14.41904053 43.41305542 -16.20947266 44.06958008 C-19 45 -19 45 -21 45 C-20.39584249 31.32972218 -19.74155424 17.66353137 -19 4 C-17.43979133 3.34865075 -15.87671421 2.70417036 -14.3125 2.0625 C-13.44238281 1.70285156 -12.57226562 1.34320313 -11.67578125 0.97265625 C-3.96242254 -1.83117779 -3.96242254 -1.83117779 0 0 Z " fill="#E9A887" transform="translate(117,86)"/>
<path d="M0 0 C0.14466549 9.48664016 -0.291933 18.85406442 -1 28.3125 C-1.09677928 29.65035994 -1.19313545 30.98825056 -1.2890625 32.32617188 C-1.52190972 35.55110586 -1.75895259 38.77567038 -2 42 C-6.35900989 43.00103953 -10.71896103 43.99783887 -15.07983398 44.99072266 C-16.563173 45.32907642 -18.04624868 45.66858682 -19.52905273 46.00927734 C-21.66061292 46.49881544 -23.79308595 46.98418429 -25.92578125 47.46875 C-27.20880127 47.76201172 -28.49182129 48.05527344 -29.8137207 48.35742188 C-33 49 -33 49 -36 49 C-33.44619013 40.77315121 -30.18385626 32.86110257 -26.90209961 24.90454102 C-25.93077078 22.54616151 -24.96813607 20.18435077 -24.00585938 17.82226562 C-23.38854313 16.32009776 -22.77072291 14.81813688 -22.15234375 13.31640625 C-21.72259499 12.2586776 -21.72259499 12.2586776 -21.28416443 11.17958069 C-20.10379876 8.33618525 -19.19931513 6.19931513 -17 4 C-14.89874224 3.22406384 -12.76848097 2.52526951 -10.625 1.875 C-9.48289062 1.52179688 -8.34078125 1.16859375 -7.1640625 0.8046875 C-4 0 -4 0 0 0 Z " fill="#E8A888" transform="translate(89,93)"/>
<path d="M0 0 C1.70349609 0.98323242 1.70349609 0.98323242 3.44140625 1.98632812 C4.0245459 2.32946045 4.60768555 2.67259277 5.20849609 3.02612305 C6.98782756 4.07165686 8.77617867 5.10021218 10.56640625 6.12695312 C20.10330068 11.6765794 20.10330068 11.6765794 23.8671875 15.76171875 C22.68364056 16.420657 21.50003337 17.07948703 20.31640625 17.73828125 C19.5598877 18.15940186 18.80336914 18.58052246 18.02392578 19.0144043 C16.37351035 19.93164625 14.7221365 20.84716575 13.06982422 21.76098633 C9.48379489 23.74463457 5.90129864 25.72854433 2.36328125 27.796875 C1.41582031 28.34214844 0.46835938 28.88742188 -0.5078125 29.44921875 C-1.31992188 29.92746094 -2.13203125 30.40570313 -2.96875 30.8984375 C-5.1328125 31.76171875 -5.1328125 31.76171875 -7.09765625 31.7734375 C-10.25420887 30.20424915 -12.15721772 27.58571022 -14.3203125 24.88671875 C-14.79718506 24.30535156 -15.27405762 23.72398438 -15.76538086 23.125 C-16.74732199 21.92649981 -17.72558305 20.72497534 -18.70019531 19.52050781 C-20.04200213 17.87320442 -21.40536562 16.24777701 -22.78125 14.62890625 C-23.97621094 13.20964844 -23.97621094 13.20964844 -25.1953125 11.76171875 C-25.90816406 10.91609375 -26.62101563 10.07046875 -27.35546875 9.19921875 C-29.11872564 6.78103787 -30.16141282 4.58028777 -31.1328125 1.76171875 C-28.09824478 0.71889499 -25.05433256 -0.29346413 -22.0078125 -1.30078125 C-21.151875 -1.59533203 -20.2959375 -1.88988281 -19.4140625 -2.19335938 C-18.15722656 -2.60424805 -18.15722656 -2.60424805 -16.875 -3.0234375 C-16.1104248 -3.2800415 -15.34584961 -3.53664551 -14.55810547 -3.80102539 C-8.92884663 -4.81592398 -4.79368064 -2.77542661 0 0 Z " fill="#E9A887" transform="translate(156.1328125,79.23828125)"/>
<path d="M0 0 C1.39537668 4.18613004 -0.20871351 6.99270043 -1.71875 10.9375 C-2.01430786 11.73164307 -2.30986572 12.52578613 -2.61437988 13.34399414 C-3.56760798 15.89932926 -4.53349478 18.44966088 -5.5 21 C-6.12064936 22.65592878 -6.74044967 24.31217606 -7.359375 25.96875 C-8.60006451 29.28671383 -9.84537009 32.60289136 -11.09375 35.91796875 C-14.10561087 43.92933158 -17.0506684 51.96545722 -20 60 C-22.64 60.33 -25.28 60.66 -28 61 C-28 45.82 -28 30.64 -28 15 C-16.8125 9.1875 -16.8125 9.1875 -13.31176758 7.37182617 C-12.39032959 6.89205322 -11.4688916 6.41228027 -10.51953125 5.91796875 C-9.58214111 5.43094482 -8.64475098 4.9439209 -7.67895508 4.44213867 C-5.06812448 3.03667286 -2.52936886 1.54650546 0 0 Z " fill="#E9A887" transform="translate(180,104)"/>
<path d="M0 0 C1.74829102 1.48364258 1.74829102 1.48364258 3.50390625 3.39453125 C4.1572998 4.09747314 4.81069336 4.80041504 5.48388672 5.5246582 C6.51280029 6.65713989 6.51280029 6.65713989 7.5625 7.8125 C8.26906738 8.57844482 8.97563477 9.34438965 9.70361328 10.13354492 C11.13312444 11.68485809 12.5592623 13.23928678 13.98193359 14.796875 C15.78310447 16.76321494 17.5991225 18.71362156 19.42578125 20.65625 C27.36717059 29.15118782 27.36717059 29.15118782 29 33 C24.99139866 34.34143299 22.63889211 33.7392952 18.86286926 31.95489502 C18.22105209 31.63462341 17.57923492 31.31435181 16.91796875 30.984375 C16.23445847 30.65717468 15.55094818 30.32997437 14.84672546 29.99285889 C12.62080039 28.92422882 10.40442529 27.83715924 8.1875 26.75 C6.66040536 26.01344317 5.13256778 25.27842477 3.60400391 24.54492188 C1.29374371 23.43599698 -1.01597094 22.32606987 -3.32324219 21.2109375 C-10.21559903 17.88044221 -17.15757312 14.67028953 -24.125 11.5 C-25.13667236 11.03819336 -26.14834473 10.57638672 -27.19067383 10.10058594 C-29.45966981 9.06533012 -31.7293756 8.03167789 -34 7 C-34 6.67 -34 6.34 -34 6 C-29.80355091 4.9729743 -25.60440009 3.95811673 -21.40234375 2.9543457 C-19.9738086 2.6113093 -18.54605926 2.2649829 -17.11914062 1.9152832 C-15.06579039 1.41266997 -13.00988803 0.92202713 -10.953125 0.43359375 C-9.71723633 0.13509521 -8.48134766 -0.16340332 -7.20800781 -0.47094727 C-2.70204596 -1.21405376 -2.70204596 -1.21405376 0 0 Z " fill="#E8A887" transform="translate(91,144)"/>
</svg>
