<?xml version="1.0" encoding="UTF-8"?>
<svg version="1.1" xmlns="http://www.w3.org/2000/svg" width="500" height="500">
<path d="M0 0 C165 0 330 0 500 0 C500 165 500 330 500 500 C335 500 170 500 0 500 C0 335 0 170 0 0 Z " fill="#FEFEFE" transform="translate(0,0)"/>
<path d="M0 0 C0.82580566 0.31614258 1.65161133 0.63228516 2.50244141 0.95800781 C9.5590203 3.76960269 15.63969583 7.3014117 21.625 12 C22.13691895 12.39670898 22.64883789 12.79341797 23.17626953 13.20214844 C34.95532394 22.418052 44.95708282 33.38894325 54.265625 45.05859375 C56.02031336 47.24614397 57.79698197 49.39650962 59.609375 51.53515625 C78.81969321 74.36434526 92.11440062 100.13657552 103.34960938 127.6184082 C103.61309677 128.26279846 103.87658417 128.90718872 104.14805603 129.57110596 C104.86284654 131.32530161 105.57235875 133.08164541 106.28149414 134.83813477 C107.58961892 138.04124472 107.58961892 138.04124472 109.29443359 141.15307617 C111.70459311 146.30993308 110.45884696 150.66538636 108.59326172 155.88867188 C107.30563361 159.0367646 105.95219008 162.14565793 104.5625 165.25 C103.62590459 167.35574248 102.6971857 169.46501044 101.77734375 171.578125 C101.36476318 172.50012695 100.95218262 173.42212891 100.52709961 174.37207031 C99.5825025 177.12380056 99.3601241 179.113937 99.625 182 C100.70833333 183.91666667 100.70833333 183.91666667 102.625 185 C105.08209375 185.58350505 105.08209375 185.58350505 107.625 185 C111.01114431 182.1593642 112.64685526 179.28233773 114.375 175.25 C114.80296875 174.26515625 115.2309375 173.2803125 115.671875 172.265625 C115.98640625 171.51796875 116.3009375 170.7703125 116.625 170 C117.615 170 118.605 170 119.625 170 C120.615 174.455 120.615 174.455 121.625 179 C125.60254128 179.73334429 125.60254128 179.73334429 129.625 180 C132.11532481 175.10167517 132.14403773 170.12742745 132.5 164.75 C133.1707902 156.13335102 134.11816935 147.6046069 135.4375 139.0625 C135.57849121 138.09473633 135.71948242 137.12697266 135.86474609 136.12988281 C138.21890848 121.48340126 143.31629022 108.62270083 150.25 95.625 C150.96531021 94.26391282 151.6803131 92.90266409 152.39501953 91.54125977 C157.72841719 81.44086901 163.29655604 71.51645708 169.625 62 C170.02315918 61.40058594 170.42131836 60.80117187 170.83154297 60.18359375 C177.31457696 50.54772452 184.68842025 41.63883302 192.16650391 32.76513672 C193.37951489 31.29709698 194.5337896 29.7807651 195.671875 28.25390625 C202.80732739 20.0195942 214.56201203 16.11080659 224.625 13 C226.02878906 12.52046875 226.02878906 12.52046875 227.4609375 12.03125 C234.86736523 9.68551922 241.90698707 9.63612346 249.625 10 C250.82125 10.04125 252.0175 10.0825 253.25 10.125 C268.20660369 14.00263799 278.82446903 24.60463794 287.05859375 37.19140625 C294.14652824 49.62158217 294.21094551 65.47919406 294.125 79.4375 C294.12323761 80.212146 294.12147522 80.98679199 294.11965942 81.78491211 C293.9463428 116.25066474 282.92862361 144.80544861 264.84082031 173.57666016 C260.465151 180.55737327 256.33085903 187.65613404 252.25 194.8125 C245.59245056 206.45977625 238.57307325 217.84456833 231.40527344 229.18310547 C223.13413554 242.27037769 215.13005495 255.47167023 207.43286133 268.90551758 C201.49183752 279.26893913 195.4066622 289.54184125 189.30078125 299.80859375 C186.59998574 304.35017819 183.92096042 308.9036298 181.25976562 313.46850586 C179.39795337 316.65559649 177.51393461 319.82890136 175.625 323 C174.75294922 324.48113281 174.75294922 324.48113281 173.86328125 325.9921875 C173.35152344 326.81976563 172.83976563 327.64734375 172.3125 328.5 C171.90386719 329.1703125 171.49523437 329.840625 171.07421875 330.53125 C169.03887425 332.59402502 167.48011475 332.70589644 164.625 333 C162.43115234 332.20239258 162.43115234 332.20239258 160.2109375 330.89453125 C159.37723633 330.41177734 158.54353516 329.92902344 157.68457031 329.43164062 C156.35570801 328.63016602 156.35570801 328.63016602 155 327.8125 C154.0728418 327.26658203 153.14568359 326.72066406 152.19042969 326.15820312 C149.32286744 324.45854561 146.47164028 322.73443919 143.625 321 C142.77905273 320.48614746 141.93310547 319.97229492 141.06152344 319.44287109 C130.33918691 312.89080808 119.97009331 305.90444916 109.78271484 298.55175781 C107.53669257 296.93649219 105.27914197 295.33837841 103.01953125 293.7421875 C86.64390095 282.12797303 73.66546235 270.79085764 62.375 254 C61.76785156 253.10265137 61.16070312 252.20530273 60.53515625 251.28076172 C58.68031467 248.53250478 56.83114572 245.78057682 54.98461914 243.0267334 C53.47230674 240.77238587 51.9578571 238.51948151 50.44335938 236.26660156 C30.99082844 207.3157375 12.23667233 178.10891501 -5.375 148 C-5.9122168 147.08686035 -6.44943359 146.1737207 -7.00292969 145.23291016 C-51.25011734 69.91038552 -51.25011734 69.91038552 -44.796875 28.26953125 C-41.45730815 15.80687495 -33.06610045 4.2604029 -22 -2.4375 C-14.2097387 -4.10684171 -7.31059491 -2.85862032 0 0 Z " fill="#FEFEFE" transform="translate(111.375,92)"/>
<path d="M0 0 C1.02480469 0.90878906 1.02480469 0.90878906 2.0703125 1.8359375 C3.28074219 2.86847656 3.28074219 2.86847656 4.515625 3.921875 C18.9346366 16.48890346 29.09453372 31.29727005 38.07861328 47.99902344 C38.94393715 49.60185377 39.8314481 51.1926662 40.72265625 52.78125 C48.69853276 67.63288212 52.88568976 84.38136133 56.0703125 100.8359375 C56.29589844 101.92261719 56.52148438 103.00929688 56.75390625 104.12890625 C58.20722565 111.71623581 58.27557383 119.1272343 58.0703125 126.8359375 C59.0603125 126.8359375 60.0503125 126.8359375 61.0703125 126.8359375 C61.1115625 125.7015625 61.1528125 124.5671875 61.1953125 123.3984375 C65.63183668 84.90859256 96.98566767 50.50740218 125.265625 26.4296875 C127.01006203 24.8891457 128.59479756 23.27404281 130.1953125 21.5859375 C149.67206589 1.84176873 173.48914287 -8.21285462 201.0703125 -8.7265625 C215.44753131 -8.71644087 227.40420521 -5.23496291 238.0703125 4.8359375 C238.9571875 5.6609375 239.8440625 6.4859375 240.7578125 7.3359375 C241.5209375 8.1609375 242.2840625 8.9859375 243.0703125 9.8359375 C243.52792969 10.28839844 243.98554688 10.74085937 244.45703125 11.20703125 C260.62122766 28.21974191 260.88151518 52.99281104 260.35331726 74.98675537 C259.3731557 103.30081543 246.62860089 130.48736354 235.0703125 155.8359375 C233.17485262 160.03101897 231.28583014 164.22896928 229.39984131 168.42831421 C228.56929756 170.27569503 227.73610854 172.12186807 226.90283203 173.96801758 C223.82016259 180.81531126 220.86088912 187.70120255 218.00830078 194.64746094 C204.56145639 227.30193989 186.33988883 257.70073803 168.0703125 287.8359375 C167.03290527 289.55096038 165.99549956 291.26598417 164.95823669 292.98109436 C155.73499346 308.22778891 146.42645555 323.42096008 137.07177734 338.58740234 C135.02212595 341.91414806 132.97722316 345.24377072 130.93359375 348.57421875 C127.60171343 354.0039788 124.25956295 359.42729871 120.91162109 364.84716797 C119.17075661 367.67289895 117.44209969 370.50578242 115.71484375 373.33984375 C102.98696085 394.06839275 102.98696085 394.06839275 93.0703125 400.8359375 C89.94295514 401.3841785 88.66468712 401.2265587 86.0078125 399.48046875 C85.3684375 398.87589844 84.7290625 398.27132813 84.0703125 397.6484375 C83.11125 396.76091797 83.11125 396.76091797 82.1328125 395.85546875 C79.7609221 393.53299274 77.4165076 391.1843933 75.0703125 388.8359375 C74.02023988 387.78574971 72.97010648 386.73562268 71.91992188 385.68554688 C64.35351562 378.11914062 56.78710938 370.55273438 49.22070312 362.98632812 C48.68492645 362.45068741 48.14914978 361.91504669 47.59713745 361.36317444 C46.17657516 359.94222884 44.75741985 358.51987702 43.33837891 357.09741211 C41.615442 355.37948266 39.88225635 353.67852621 38.125 351.99609375 C30.34164281 344.45066643 23.57440915 336.49507928 17.0703125 327.8359375 C11.04618321 319.86408935 4.92863829 312.12290865 -1.9296875 304.8359375 C-2.4659375 304.24683594 -3.0021875 303.65773438 -3.5546875 303.05078125 C-8.24286646 298.093032 -13.65399855 294.03487479 -19.03515625 289.87109375 C-23.13507529 286.69316108 -27.16091759 283.42805777 -31.1796875 280.1484375 C-35.47396137 276.64548174 -39.77391415 273.15317521 -44.1171875 269.7109375 C-65.99079062 252.23403852 -89.02561078 233.04649965 -104.9296875 209.8359375 C-105.33155273 209.26246582 -105.73341797 208.68899414 -106.14746094 208.09814453 C-131.61199121 171.71606278 -149.49374972 126.5004056 -142.05737305 81.37597656 C-141.44545588 78.17201465 -140.69384942 75.00653914 -139.9296875 71.8359375 C-139.69765625 70.67835938 -139.465625 69.52078125 -139.2265625 68.328125 C-133.46288143 42.6175869 -118.39569073 15.0041939 -96.30810547 0.34179688 C-66.17311135 -18.73771901 -29.36585837 -24.67625361 0 0 Z M-105.7265625 32.32421875 C-114.79835849 46.40346649 -114.76899174 64.08127876 -111.80859375 80.1875 C-103.62505356 114.1582846 -86.71544815 144.03573349 -68.9296875 173.8359375 C-68.30771484 174.88346191 -67.68574219 175.93098633 -67.04492188 177.01025391 C-65.13574669 180.22552722 -63.22151207 183.43771921 -61.3046875 186.6484375 C-60.74410645 187.58880859 -60.18352539 188.52917969 -59.60595703 189.49804688 C-50.06374897 205.39357822 -39.97344952 220.9272291 -29.66577148 236.3347168 C-27.86239016 239.03060909 -26.06276209 241.72897701 -24.26367188 244.42773438 C-2.6289308 278.286142 -2.6289308 278.286142 26.0703125 305.8359375 C27.40249392 306.82271397 28.73451962 307.80970069 30.06640625 308.796875 C47.16194718 321.3798074 64.77676291 333.2941866 83.2421875 343.77636719 C85.05303168 344.82592164 86.82902173 345.91842176 88.6015625 347.03125 C90.19484375 348.01738281 90.19484375 348.01738281 91.8203125 349.0234375 C93.17382812 349.88001953 93.17382812 349.88001953 94.5546875 350.75390625 C97.64790648 352.08437466 98.89573704 351.84760864 102.0703125 350.8359375 C103.70908385 349.22784663 103.70908385 349.22784663 104.92578125 347.0625 C105.43028809 346.2468457 105.93479492 345.43119141 106.45458984 344.59082031 C106.98777832 343.68170898 107.5209668 342.77259766 108.0703125 341.8359375 C108.64346191 340.8675293 109.21661133 339.89912109 109.80712891 338.90136719 C111.68746668 335.6832817 113.53807246 332.44954924 115.3828125 329.2109375 C116.71940112 326.8764817 118.05864308 324.54355462 119.3984375 322.2109375 C120.03587891 321.10105469 120.67332031 319.99117188 121.33007812 318.84765625 C123.39260149 315.27817137 125.49522745 311.73584303 127.6328125 308.2109375 C130.80369923 302.98146462 133.8969313 297.71045236 136.96704102 292.42114258 C146.30613339 276.33142066 155.86392058 260.38747613 165.8828125 244.7109375 C172.15274106 234.88556559 177.99655077 224.81480216 183.8651886 214.74740601 C184.39984993 213.830233 184.39984993 213.830233 184.9453125 212.89453125 C185.47544197 211.98497177 185.47544197 211.98497177 186.01628113 211.05703735 C189.16105605 205.66749603 192.35390614 200.30795699 195.5703125 194.9609375 C196.05008545 194.16083252 196.5298584 193.36072754 197.02416992 192.53637695 C199.17560893 188.95489243 201.34376444 185.38641674 203.55859375 181.84375 C211.92764556 168.37966644 218.10144842 154.19906195 222.0703125 138.8359375 C222.26786133 138.08795898 222.46541016 137.33998047 222.66894531 136.56933594 C225.8506872 123.95172448 226.46284005 111.46814682 226.5078125 98.5234375 C226.5139859 97.77251831 226.5201593 97.02159912 226.52651978 96.2479248 C226.63569267 75.60380993 223.79676502 57.68705589 208.8046875 42.46875 C201.18814861 35.13511113 192.89501783 29.54575424 182.0703125 28.8359375 C181.131875 28.74957031 180.1934375 28.66320312 179.2265625 28.57421875 C162.70381019 27.70561612 143.5201562 34.31413846 130.3828125 44.3984375 C125.48389095 49.02656439 121.52546489 54.67240698 117.45800781 60.02636719 C116.18057114 61.69215899 114.87929193 63.33400354 113.5625 64.96875 C102.09734949 79.38313537 93.1854428 95.17178668 84.5703125 111.3984375 C84.177229 112.13645599 83.78414551 112.87447449 83.37915039 113.63485718 C77.61321106 124.49155846 72.26736893 134.89559929 70.0078125 147.0859375 C69.84498779 147.93365723 69.68216309 148.78137695 69.5144043 149.65478516 C66.96274874 163.33105945 64.94632264 177.14829502 64.37890625 191.05859375 C64.05641174 193.9610443 63.27914609 196.1900969 62.0703125 198.8359375 C56.3203125 198.9609375 56.3203125 198.9609375 54.0703125 197.8359375 C53.4375 195.76953125 53.4375 195.76953125 52.9453125 193.2734375 C52.77773437 192.44714844 52.61015625 191.62085938 52.4375 190.76953125 C52.31632813 190.13144531 52.19515625 189.49335938 52.0703125 188.8359375 C51.0803125 188.8359375 50.0903125 188.8359375 49.0703125 188.8359375 C48.67199219 189.75117188 48.27367187 190.66640625 47.86328125 191.609375 C47.33347656 192.79789063 46.80367187 193.98640625 46.2578125 195.2109375 C45.47470703 196.98597656 45.47470703 196.98597656 44.67578125 198.796875 C43.0703125 201.8359375 43.0703125 201.8359375 40.0703125 203.8359375 C37.25092353 204.18836112 35.68171173 204.18239707 33.1953125 202.7734375 C31.43760835 199.74628035 32.24429135 197.0825628 33.0703125 193.8359375 C35.03088119 188.4443736 37.31918524 183.18596105 39.56445312 177.90820312 C40.01111328 176.83119141 40.45777344 175.75417969 40.91796875 174.64453125 C41.33054932 173.67314209 41.74312988 172.70175293 42.16821289 171.70092773 C43.74578751 166.69068738 43.44748878 162.87916817 41.19921875 158.17578125 C40.79445312 157.31057861 40.3896875 156.44537598 39.97265625 155.55395508 C39.53050781 154.63638428 39.08835938 153.71881348 38.6328125 152.7734375 C37.70478882 150.79792686 36.77906064 148.82133647 35.85546875 146.84375 C35.38641113 145.8424707 34.91735352 144.84119141 34.43408203 143.80957031 C32.75917107 140.15750882 31.20094857 136.46450165 29.65698242 132.75561523 C19.28493995 107.87063624 5.46487347 86.38925223 -11.9296875 65.8359375 C-12.44418457 65.22379395 -12.95868164 64.61165039 -13.48876953 63.98095703 C-16.46185187 60.44741423 -19.46586113 56.94348477 -22.50634766 53.46777344 C-23.43553182 52.40247893 -24.35992525 51.33298132 -25.27880859 50.25878906 C-39.50191548 33.6502444 -57.88313303 19.0716456 -79.96484375 15.3203125 C-92.18958539 14.79126649 -99.04107412 23.06627071 -105.7265625 32.32421875 Z " fill="#818B6D" transform="translate(178.9296875,73.1640625)"/>
<path d="M0 0 C0.88695557 0.01087646 1.77391113 0.02175293 2.68774414 0.03295898 C18.01006389 0.40674291 30.5809031 7.54431266 42.125 17.375 C42.85074219 17.95636719 43.57648438 18.53773437 44.32421875 19.13671875 C70.37681271 40.82448021 83.19929171 77.58456051 89.58837891 109.68554688 C89.95067762 111.50132604 90.32300105 113.31512965 90.70458984 115.12695312 C90.88715332 116.00158203 91.0697168 116.87621094 91.2578125 117.77734375 C91.42168457 118.55198975 91.58555664 119.32663574 91.75439453 120.12475586 C92.3232703 123.5788586 92.2543715 126.88196943 92.125 130.375 C91.465 130.375 90.805 130.375 90.125 130.375 C89.60292969 129.16328125 89.08085937 127.9515625 88.54296875 126.703125 C77.04251142 100.36859058 62.8276037 76.17001198 43.375 54.91015625 C41.20625366 52.46655143 39.19914097 49.948486 37.1875 47.375 C21.53735939 28.13437179 4.63869577 15.37910136 -17.875 5.375 C-17.875 4.715 -17.875 4.055 -17.875 3.375 C-11.71061583 0.68431038 -6.69783125 -0.11140771 0 0 Z " fill="#FDFDFC" transform="translate(131.875,71.625)"/>
<path d="M0 0 C0.33 0 0.66 0 1 0 C1.21914063 0.969375 1.43828125 1.93875 1.6640625 2.9375 C10.13762936 39.28488339 30.54490142 71.27883451 49.81552124 102.77333069 C52.85257519 107.74352883 55.84115351 112.74189482 58.82226562 117.74584961 C73.07180672 142.08027738 73.07180672 142.08027738 89.62109375 164.85546875 C90.07613281 165.56316406 90.53117187 166.27085937 91 167 C90.67 167.99 90.34 168.98 90 170 C81.5495165 163.3590795 73.72981692 156.1873367 65.92724609 148.80957031 C64.02343623 147.02200524 62.10344779 145.25397469 60.17578125 143.4921875 C54.09116141 137.92787339 48.18937551 132.42862937 43 126 C42.06666791 124.8786884 41.13304545 123.75761847 40.19921875 122.63671875 C33.74123315 114.81169942 27.97091218 106.86758264 23 98 C22.37593262 96.91501221 22.37593262 96.91501221 21.73925781 95.80810547 C7.69516062 71.22335217 -1.42468509 44.37558938 -2 16 C-2.03996094 14.70707031 -2.07992187 13.41414062 -2.12109375 12.08203125 C-2.28440367 3.4266055 -2.28440367 3.4266055 0 0 Z " fill="#FCFCFC" transform="translate(53,160)"/>
<path d="M0 0 C12.36001233 -0.50869906 23.26760472 2.68688949 32.64453125 10.95703125 C44.64411065 23.47272159 47.50049713 39.19580004 47.26367188 55.85546875 C47.22192494 57.64714881 47.17960062 59.4388155 47.13671875 61.23046875 C47.11156197 63.08460477 47.08876204 64.93877432 47.06835938 66.79296875 C47.01404607 71.27298546 46.9281985 75.75134098 46.82421875 80.23046875 C45.33921875 80.72546875 45.33921875 80.72546875 43.82421875 81.23046875 C43.7984375 80.23789063 43.77265625 79.2453125 43.74609375 78.22265625 C42.95054469 56.68943916 35.31958938 37.91482068 19.51171875 22.98046875 C14.68351169 18.87855609 9.54131562 15.9253453 3.82421875 13.23046875 C2.82519531 12.75351563 1.82617188 12.2765625 0.796875 11.78515625 C-7.86492955 8.0377748 -15.87547172 7.36179533 -25.17578125 7.23046875 C-24.84578125 6.24046875 -24.51578125 5.25046875 -24.17578125 4.23046875 C-16.4482622 1.29501509 -8.16785997 0.59274753 0 0 Z " fill="#FBFCFB" transform="translate(376.17578125,79.76953125)"/>
<path d="M0 0 C4.47424525 0.57993701 7.54123218 2.29729028 11.3671875 4.640625 C11.96500031 5.00468445 12.56281311 5.3687439 13.17874146 5.74383545 C14.4398185 6.51372501 15.69872573 7.28717867 16.95556641 8.06396484 C18.85763061 9.2392673 20.76596191 10.40375752 22.67578125 11.56640625 C28.59525872 15.18473701 34.43532112 18.84725457 40 23 C39.67226629 26.03153686 39.35865103 27.61573103 37.25 29.875 C34.29534917 31.35232542 33.12335922 30.98388136 30 30 C27.82421875 28.1796875 27.82421875 28.1796875 25.6875 25.875 C22.84521404 22.89602036 20.00585584 20.04990596 16.875 17.375 C13.61830924 14.58447571 10.60233895 11.63185471 7.60546875 8.56640625 C5.85888581 6.80548249 5.85888581 6.80548249 3.125 4.75 C1 3 1 3 0 0 Z " fill="#F9FAF9" transform="translate(229,415)"/>
</svg>
