<?xml version="1.0" encoding="UTF-8"?>
<svg version="1.1" xmlns="http://www.w3.org/2000/svg" width="500" height="500">
<path d="M0 0 C165 0 330 0 500 0 C500 165 500 330 500 500 C335 500 170 500 0 500 C0 335 0 170 0 0 Z " fill="#FEFEFE" transform="translate(0,0)"/>
<path d="M0 0 C0.7729541 0.21430664 1.5459082 0.42861328 2.34228516 0.64941406 C30.26475757 8.67734398 53.05127121 24.20050726 74 44 C74.85722656 44.80308594 75.71445312 45.60617187 76.59765625 46.43359375 C93.27406637 62.52857594 107.57797914 83.24796274 116.9375 104.4375 C117.36119873 105.39426636 117.36119873 105.39426636 117.79345703 106.37036133 C122.96417076 118.54896144 123.61244431 130.29211965 119.2578125 142.9296875 C113.94701024 155.89332283 104.99830047 165.27320233 92.08789062 170.82177734 C78.50390299 176.36867899 62.92233009 180.57670729 48.625 175 C43.60359523 172.58481347 39.33185796 169.42604879 34.9140625 166.05859375 C21.64609426 156.68564568 7.26620584 152.21563647 -8.875 154.5625 C-19.21355616 156.92559855 -27.62039167 162.96990935 -35.07421875 170.27734375 C-37 172 -37 172 -39 172 C-39.25523437 172.57234375 -39.51046875 173.1446875 -39.7734375 173.734375 C-41.13157685 176.24304003 -42.7439643 178.10666849 -44.625 180.25 C-52.07584185 189.43485595 -56.59613593 200.17383457 -60.0859375 211.38671875 C-62.84489868 219.27451803 -68.31568563 226.3883911 -75.6484375 230.4765625 C-88.53225841 236.51254435 -103.98885826 238.82393252 -118.0078125 235.125 C-121.18483556 233.96136746 -124.04468021 232.6436891 -127 231 C-127.9590625 230.46890625 -128.918125 229.9378125 -129.90625 229.390625 C-149.35375252 217.74349437 -161.17033688 198.60332569 -167 177 C-169.25984867 167.08429883 -169.39917208 157.2373704 -169.375 147.125 C-169.37478851 146.30874146 -169.37457703 145.49248291 -169.37435913 144.65148926 C-169.34014366 131.39794187 -168.32517263 118.8763774 -165 106 C-164.82871582 105.28150879 -164.65743164 104.56301758 -164.48095703 103.82275391 C-158.87481071 80.48804494 -147.72088692 58.13472389 -132 40 C-131.30390625 39.18273437 -130.6078125 38.36546875 -129.890625 37.5234375 C-114.69869438 20.12275101 -95.33267184 6.57839765 -73 0 C-71.76378906 -0.37253906 -70.52757812 -0.74507812 -69.25390625 -1.12890625 C-47.52804117 -6.97711708 -21.5545727 -5.99422403 0 0 Z " fill="#808A6C" transform="translate(327,221)"/>
<path d="M0 0 C1.00289063 0.49628906 2.00578125 0.99257812 3.0390625 1.50390625 C26.76858954 14.22710227 43.42545594 38.8591149 51.3515625 64.12890625 C53.357309 71.00819727 54.77493507 77.83543306 55 85 C55.02578125 85.72380859 55.0515625 86.44761719 55.078125 87.19335938 C55.7001957 106.92855247 55.7001957 106.92855247 52 116 C51.6596875 116.845625 51.319375 117.69125 50.96875 118.5625 C46.33575851 128.83021086 39.1058715 136.44378284 28.80078125 140.96484375 C17.2503021 145.10774288 5.05975375 143.91375579 -6 139 C-13.38462093 135.51365515 -19.74523808 131.22197192 -26 126 C-26.64324219 125.50242188 -27.28648437 125.00484375 -27.94921875 124.4921875 C-42.89540433 112.42609853 -52.98166681 93.93606018 -59 76 C-59.44279297 74.72769531 -59.44279297 74.72769531 -59.89453125 73.4296875 C-64.57373029 59.09243723 -66.8562946 40.62406898 -62 26 C-61.731875 25.11054687 -61.46375 24.22109375 -61.1875 23.3046875 C-57.50108019 12.03038692 -50.39969255 3.12800098 -39.75 -2.375 C-27.47405995 -8.20860787 -11.64665509 -6.00673944 0 0 Z " fill="#808A6C" transform="translate(157,90)"/>
<path d="M0 0 C16.72544508 12.03162568 26.04444266 31.91467233 29.54125977 51.89648438 C30.59947414 59.43130801 30.60022416 67.02900591 30.625 74.625 C30.63063965 75.89682129 30.6362793 77.16864258 30.64208984 78.47900391 C30.55883732 89.26373384 29.0379804 99.05192479 25.5625 109.25 C25.29864502 110.02472656 25.03479004 110.79945313 24.76293945 111.59765625 C20.88933177 122.63024348 15.58415206 130.94911948 7.3125 139.25 C6.74789062 139.8378125 6.18328125 140.425625 5.6015625 141.03125 C-1.86496866 148.16998223 -12.7087201 151.66231106 -22.90625 151.52734375 C-31.56142489 150.66425749 -38.86631299 146.39806567 -45.6875 141.25 C-46.51765625 140.62867188 -47.3478125 140.00734375 -48.203125 139.3671875 C-63.28208143 126.51688186 -70.56832024 103.33870267 -72.6875 84.25 C-72.94012858 79.7448448 -72.96864787 75.26124946 -72.9375 70.75 C-72.94523438 69.62980469 -72.95296875 68.50960937 -72.9609375 67.35546875 C-72.93535129 56.26384803 -71.59798756 45.6204725 -67.9375 35.125 C-67.67437012 34.35929687 -67.41124023 33.59359375 -67.14013672 32.8046875 C-61.41720128 16.66185114 -52.26780914 4.39836185 -37.25390625 -4.1328125 C-24.71391666 -10.02187165 -11.31423933 -7.06657269 0 0 Z " fill="#808A6C" transform="translate(308.6875,46.75)"/>
<path d="M0 0 C1.34964844 -0.01836914 1.34964844 -0.01836914 2.7265625 -0.03710938 C21.67780033 -0.07795256 37.81583261 7.98409864 51.52734375 20.8046875 C55.34470554 24.67921444 58.69843133 28.77598023 61.875 33.1875 C62.42027344 33.94417969 62.96554688 34.70085937 63.52734375 35.48046875 C71.105328 46.99206314 75.25425504 61.55372479 72.45898438 75.22167969 C70.4928794 83.43908753 67.92346854 91.06998502 61.875 97.1875 C60.90433594 98.21423828 60.90433594 98.21423828 59.9140625 99.26171875 C50.65267196 108.30578424 38.47435441 112.08204326 25.75 112.5625 C6.0368246 112.15037787 -11.37057456 102.45480511 -25.29296875 89.109375 C-37.44034438 76.42159388 -44.90637398 59.49841252 -44.57861328 41.95458984 C-44.06174533 29.77975283 -39.9482825 19.46430543 -31 10.9375 C-21.44989803 2.94395115 -12.11981242 0.00846356 0 0 Z " fill="#808A6C" transform="translate(80.125,235.8125)"/>
<path d="M0 0 C9.06813739 6.83237248 14.15381914 18.3075651 16.46875 29.20703125 C16.7724096 31.48026077 16.91337006 33.70791617 17 36 C17.0515625 37.01449219 17.103125 38.02898437 17.15625 39.07421875 C17.81717118 63.22538003 9.50026307 85.78330531 -7.04248047 103.50390625 C-16.92870821 113.66350186 -28.45118186 119.63991804 -42.6875 120.3125 C-52.63519866 120.13353091 -59.80161665 116.19312876 -66.84375 109.3515625 C-79.60333705 95.43621575 -79.66169382 78.10678811 -79.17041016 60.27294922 C-78.49562173 47.31275784 -73.29094699 36.14413656 -67 25 C-66.41992188 23.96617187 -65.83984375 22.93234375 -65.2421875 21.8671875 C-57.40360645 8.77858007 -45.66893827 -1.41441594 -31 -6 C-19.03104517 -8.78259141 -10.16321006 -6.43417154 0 0 Z " fill="#808A6C" transform="translate(450,126)"/>
</svg>
