<?xml version="1.0" encoding="UTF-8"?>
<svg version="1.1" xmlns="http://www.w3.org/2000/svg" width="500" height="500">
<path d="M0 0 C165 0 330 0 500 0 C500 165 500 330 500 500 C335 500 170 500 0 500 C0 335 0 170 0 0 Z " fill="#FEFEFE" transform="translate(0,0)"/>
<path d="M0 0 C10.55014843 6.70616691 18.2599202 16.77378526 21.59643555 28.87207031 C22.43839301 33.31157501 22.28506154 37.8100136 22.25 42.3125 C22.25773437 43.29412109 22.26546875 44.27574219 22.2734375 45.28710938 C22.20911877 69.58350974 10.09316201 87.83942346 -6.45800781 104.47460938 C-9.5151636 107.49885088 -12.64857816 110.30710315 -16 113 C-17.09667064 113.90847227 -18.19298962 114.81736912 -19.2890625 115.7265625 C-26.24986649 121.44584378 -33.35126413 126.72074006 -40.91601562 131.61450195 C-44.16794334 133.72938291 -47.19292241 135.88899973 -50.0625 138.5 C-53 141 -53 141 -55.9375 141.9375 C-64.64671191 144.95906332 -69.80642582 153.15515669 -74.03515625 160.89453125 C-78.5652154 170.90280146 -75.96596583 181.55693435 -72.8671875 191.55615234 C-67.84631168 207.76879255 -68.15292528 225.91148262 -75.375 241.3125 C-81.47104183 252.69537457 -91.04086093 257.99672887 -103 262 C-105.3300252 262.6576684 -107.66360551 263.30283007 -110 263.9375 C-125.40065436 268.24234163 -138.70180724 277.32595443 -146.9453125 291.296875 C-149.90189292 297.05644725 -152.32206544 302.82312104 -154.4375 308.9375 C-156.63555103 314.91824349 -159.59631808 318.60856783 -165 322 C-169.16898831 323.38966277 -172.85512374 323.97762533 -176.98828125 322.09375 C-180.54213782 319.94073398 -183.58271012 317.50865427 -186.625 314.6875 C-189.00002828 312.60329151 -189.85985178 312.02860168 -193.0625 311.375 C-196.18673598 311.84846164 -196.18673598 311.84846164 -199.0625 314.0625 C-202 316 -202 316 -204.625 316.3125 C-208.03153861 314.42993919 -208.63689763 311.88761602 -210.03515625 308.35546875 C-212.02042531 303.50884024 -214.59202616 299.81859784 -219 297 C-221.53999542 296.25738431 -221.53999542 296.25738431 -224.1875 295.875 C-228.91388401 295.08611599 -228.91388401 295.08611599 -230 294 C-230.64852706 287.2567925 -229.26234678 283.7007092 -225.5 278.1875 C-224.82312134 277.15036865 -224.82312134 277.15036865 -224.13256836 276.09228516 C-220.82753551 271.07682943 -217.34149346 266.19994761 -213.69140625 261.4296875 C-210.87935338 257.39020277 -209.00340902 254.52724177 -208.9921875 249.5 C-210.18267235 245.36560301 -212.14757465 242.96026298 -215.125 240 C-215.87813477 239.21919067 -215.87813477 239.21919067 -216.64648438 238.42260742 C-217.64222693 237.39434625 -218.64433546 236.37220392 -219.65332031 235.35693359 C-220.75161824 234.25027299 -221.82833948 233.12223286 -222.8984375 231.98828125 C-227.00269284 227.69382871 -231.56363468 224.03169602 -236.1875 220.3125 C-238.80965894 218.15650265 -241.31608568 215.92432897 -243.8125 213.625 C-247.72278694 210.06229412 -251.7679092 206.7491414 -255.9375 203.5 C-256.53651123 203.03279541 -257.13552246 202.56559082 -257.75268555 202.08422852 C-258.9411227 201.15849003 -260.12983856 200.23310923 -261.31884766 199.30810547 C-278.69057242 185.79115785 -294.68653832 171.24177678 -300 149 C-300.42864598 142.6104958 -300.42864598 142.6104958 -297.9375 139.0625 C-294.16839435 136.41610667 -292.57132902 136.62359096 -288 137 C-284.61513084 137.84376764 -281.35109056 138.9663256 -278.0625 140.125 C-277.22654297 140.40859375 -276.39058594 140.6921875 -275.52929688 140.984375 C-267.28823175 143.81128772 -259.14857324 146.9191065 -251 150 C-251.21297729 149.44289841 -251.42595459 148.88579681 -251.64538574 148.31181335 C-253.85728999 142.52304573 -256.06225866 136.73167139 -258.26318359 130.9387207 C-259.0859432 128.77593157 -259.91048028 126.61381776 -260.73681641 124.45239258 C-261.92295675 121.34891974 -263.10272357 118.24308958 -264.28125 115.13671875 C-264.65310425 114.16788254 -265.0249585 113.19904633 -265.40808105 112.20085144 C-265.74843384 111.3001442 -266.08878662 110.39943695 -266.43945312 109.47143555 C-266.7414563 108.67867722 -267.04345947 107.88591888 -267.35461426 107.06913757 C-268 105 -268 105 -268 102 C-263.96192936 101.64821716 -261.75470453 101.45638576 -258.40234375 103.87109375 C-257.58894531 104.71800781 -256.77554688 105.56492187 -255.9375 106.4375 C-238.71053134 123.12095662 -217.1210976 129.57169671 -194 133.4375 C-173.4998137 136.92651834 -152.46438308 143.70585603 -136.59375 157.8203125 C-134.92859205 159.29747242 -134.92859205 159.29747242 -132 159 C-131.87044922 157.98292969 -131.87044922 157.98292969 -131.73828125 156.9453125 C-130.29618439 147.39307461 -127.53717951 139.45250543 -119.94140625 133.15625 C-113.76215601 129.47605267 -107.41846562 129.65488073 -100.4375 129.5 C-91.7820152 129.23392883 -83.5145879 128.62082728 -75 127 C-76.99704391 125.69552698 -78.99483178 124.39221235 -80.9934082 123.09008789 C-82.77426102 121.9294523 -84.55401635 120.76713131 -86.33276367 119.60327148 C-91.08290116 116.5053916 -95.85395305 113.45894238 -100.69921875 110.51171875 C-117.48103664 100.2471964 -135.27555792 87.91773084 -143 69 C-143.2990625 68.28714844 -143.598125 67.57429688 -143.90625 66.83984375 C-148.49527312 54.11380277 -146.96704497 39.08970017 -141.35424805 27.01342773 C-135.13279757 14.24246811 -127.33801351 5.69650764 -113.9375 0.0625 C-101.92526825 -3.36648536 -88.93194655 -1.71282368 -78 4 C-74.93437896 5.85441862 -71.90954731 7.72358971 -68.94921875 9.7421875 C-65.05845981 11.40155754 -61.95535329 11.24011931 -58 10 C-55.53339646 8.66405161 -53.4272235 7.00986436 -51.25 5.25 C-36.20125102 -5.99949091 -17.02491797 -10.34591169 0 0 Z " fill="#838C6F" transform="translate(309,80)"/>
<path d="M0 0 C0.969375 0.185625 1.93875 0.37125 2.9375 0.5625 C2.793125 1.15675781 2.64875 1.75101563 2.5 2.36328125 C-0.16145048 14.24739692 0.98717139 23.08845393 4.9375 34.5625 C5.36605218 35.99650153 5.78557403 37.43330902 6.1875 38.875 C6.55875 40.2053125 6.55875 40.2053125 6.9375 41.5625 C16.97427909 40.09493734 25.50045097 36.87200664 34.65112305 32.61157227 C42.85198314 28.86976132 42.85198314 28.86976132 47.9375 29.5625 C49.56794393 31.19294393 49.09827609 33.18778283 49.1875 35.4375 C49.53307976 39.94760868 50.50615066 43.25740359 52.5 47.3125 C55.48413454 53.41916372 55.62798335 57.6459417 53.6875 64.125 C52.65385881 67.02997264 51.65073768 68.97960883 49.875 71.5625 C47.7648619 74.82981061 47.21466027 77.26346963 46.484375 81.015625 C43.85464683 93.26264476 38.99016844 104.38253972 29.671875 112.90625 C26.05290391 116.36220438 25.53235662 119.34159814 24.75 124.125 C23.25670629 131.34630092 20.74332046 136.03674145 15.9375 141.5625 C15.25429688 142.35527344 14.57109375 143.14804687 13.8671875 143.96484375 C5.38529056 153.10036357 -4.95208066 158.48077815 -17.4375 159.1875 C-19.30535156 159.29964844 -19.30535156 159.29964844 -21.2109375 159.4140625 C-22.15195312 159.46304688 -23.09296875 159.51203125 -24.0625 159.5625 C-21.93814389 163.63593532 -19.80976911 165.72294452 -16 168.25 C-1.53432269 178.47114305 13.08816954 195.50482497 17.6015625 213.16015625 C18.47107037 219.37814856 19.06019043 225.4047965 15.37109375 230.85546875 C4.74187111 243.51206356 -9.59609842 249.29779992 -25.0625 253.5625 C-26.0525 253.8925 -27.0425 254.2225 -28.0625 254.5625 C-29.54373547 254.6431622 -31.02832204 254.67011193 -32.51171875 254.66015625 C-33.35927734 254.65693359 -34.20683594 254.65371094 -35.08007812 254.65039062 C-35.96115234 254.64201172 -36.84222656 254.63363281 -37.75 254.625 C-38.64267578 254.62048828 -39.53535156 254.61597656 -40.45507812 254.61132812 C-42.65761987 254.59954983 -44.86002599 254.58310164 -47.0625 254.5625 C-46.43021484 253.31533203 -46.43021484 253.31533203 -45.78515625 252.04296875 C-45.23730469 250.95628906 -44.68945312 249.86960937 -44.125 248.75 C-43.30708984 247.13158203 -43.30708984 247.13158203 -42.47265625 245.48046875 C-39.78218255 239.91320045 -39.84531075 235.25748842 -39.8125 229.1875 C-39.791875 228.24132812 -39.77125 227.29515625 -39.75 226.3203125 C-39.72783157 222.37433129 -39.85517608 219.17383976 -41.12890625 215.41796875 C-43.02827837 213.23552863 -43.02827837 213.23552863 -46.41796875 213.07421875 C-48.31482422 213.16123047 -48.31482422 213.16123047 -50.25 213.25 C-51.52230469 213.29511719 -52.79460937 213.34023438 -54.10546875 213.38671875 C-55.56919922 213.47373047 -55.56919922 213.47373047 -57.0625 213.5625 C-56.77955078 214.1292041 -56.49660156 214.6959082 -56.20507812 215.27978516 C-52.89073022 222.57688416 -52.53553735 229.00149253 -52.5625 236.9375 C-52.57015646 239.23699001 -52.56048987 241.53662065 -52.53125 243.8359375 C-52.53576172 244.84060059 -52.54027344 245.84526367 -52.54492188 246.88037109 C-51.9411558 250.23713937 -50.63860064 251.41596222 -48.0625 253.5625 C-48.3925 254.5525 -48.7225 255.5425 -49.0625 256.5625 C-50.7125 256.8925 -52.3625 257.2225 -54.0625 257.5625 C-57.13640953 253.68670103 -58.14795871 250.7120132 -58.45703125 245.80859375 C-58.52599609 244.87080078 -58.59496094 243.93300781 -58.66601562 242.96679688 C-58.80336578 241.01693809 -58.93125706 239.06638567 -59.04882812 237.11523438 C-59.65998457 229.17020065 -61.24988039 221.87994877 -66.5 215.6875 C-72.81700976 211.18444266 -81.35099949 209.73358398 -88.875 208.625 C-109.74277339 205.3746531 -131.49147863 195.53344503 -144.875 178.875 C-149.18424437 172.82533771 -151.99815249 166.68223868 -154.0625 159.5625 C-154.32071533 158.77705811 -154.57893066 157.99161621 -154.8449707 157.18237305 C-158.57484414 144.10513361 -157.50477432 130.16899702 -157.49829102 116.69946289 C-157.51806958 97.65798169 -158.14570659 81.77635819 -169.0625 65.5625 C-171.0625 62.5625 -171.0625 62.5625 -171.0625 60.0625 C-170.0625 57.5625 -170.0625 57.5625 -167.53125 56.03515625 C-163.58116375 54.35814891 -159.74552127 53.39321105 -155.5625 52.5 C-154.09315259 52.17849956 -152.62438724 51.85432602 -151.15625 51.52734375 C-150.45032715 51.37056152 -149.7444043 51.2137793 -149.01708984 51.05224609 C-146.87191152 50.55296977 -146.87191152 50.55296977 -144.1328125 49.47265625 C-135.0733155 46.78708017 -123.02264668 46.98028395 -114.4375 50.9375 C-109.25244637 53.97978817 -105.37418439 58.0156902 -101.51171875 62.5859375 C-99.11743557 64.8667029 -99.11743557 64.8667029 -95.51171875 65.046875 C-91.82131715 64.52863061 -90.72757784 64.04531325 -88.1875 61.4375 C-80.99575912 54.55297912 -73.80608936 50.20810092 -64 48.3125 C-49.73559306 45.07278724 -40.09912547 37.50985741 -30.8046875 26.56640625 C-26.01659228 21.05902318 -20.69393195 16.1480953 -15.1328125 11.4375 C-12.76652764 9.29444956 -10.66337212 6.97170874 -8.5 4.625 C-3.96912101 -0.01600452 -3.96912101 -0.01600452 0 0 Z " fill="#FDFDFD" transform="translate(436.0625,162.4375)"/>
<path d="M0 0 C6.23548191 3.22908884 9.46322968 9.57468556 12 16 C12.68345608 20.34808246 12.38727473 23.83817581 11 28 C10.06821465 38.76877642 11.60037043 47.79617742 14.80859375 58.0390625 C19.00421989 71.61615342 19.11901806 89.02084056 13 102 C8.71371704 109.74828073 2.26894809 114.1285065 -6 117 C-8.43174347 117.42978362 -10.87029981 117.82178359 -13.3125 118.1875 C-25.73711632 120.31570398 -37.79439099 125.20551527 -47 134 C-47.75667969 134.71671875 -48.51335937 135.4334375 -49.29296875 136.171875 C-58.23807309 145.34173071 -63.055967 156.41467814 -66.13964844 168.67041016 C-67.39114308 173.27903335 -68.9040368 175.52394405 -73 178 C-77.59700381 178.58374651 -79.90679198 178.48101153 -84.125 176.625 C-86.946044 174.04926417 -88.19273645 172.05551312 -90 168.75 C-91.40160653 166.12969183 -91.40160653 166.12969183 -93 164 C-96.13240408 162.99826464 -96.13240408 162.99826464 -99 164 C-99.99 164.66 -100.98 165.32 -102 166 C-104.1875 165.625 -104.1875 165.625 -106 165 C-106.0928125 163.14375 -106.0928125 163.14375 -106.1875 161.25 C-106.60412348 157.96909006 -106.81949178 157.19082298 -109.1875 154.6875 C-112.01038598 152.94487439 -112.01038598 152.94487439 -115.125 151.4375 C-119.69230769 149.15384615 -119.69230769 149.15384615 -121 147 C-120.71405165 140.96498474 -118.73935164 137.21705963 -115.4375 132.375 C-115.03208984 131.73304688 -114.62667969 131.09109375 -114.20898438 130.4296875 C-111.00920444 125.64716802 -107.5237479 121.93782671 -102 120 C-97.45266461 119.54376036 -92.9952158 119.7716131 -88.4375 120 C-71.97762547 120.39091538 -60.92308414 117.73643708 -48 107 C-47.37222656 106.52175781 -46.74445313 106.04351562 -46.09765625 105.55078125 C-41.13099941 101.70131861 -39.10513121 98.08329108 -38 92 C-38.66418945 92.39268066 -39.32837891 92.78536133 -40.01269531 93.18994141 C-43.08938306 95.00575278 -46.16966021 96.8153914 -49.25 98.625 C-50.29414063 99.24246094 -51.33828125 99.85992187 -52.4140625 100.49609375 C-78.85565871 116.00196807 -78.85565871 116.00196807 -94.75 112 C-95.8225 111.67 -96.895 111.34 -98 111 C-95.00155519 109.0010368 -92.53865487 108.08964545 -89.125 107 C-87.07990388 106.34392906 -85.03806709 105.67759114 -83 105 C-82.06929688 104.71125 -81.13859375 104.4225 -80.1796875 104.125 C-77.80906265 103.20794945 -77.80906265 103.20794945 -77.1875 100.875 C-77.125625 100.25625 -77.06375 99.6375 -77 99 C-78.89693861 99.28438952 -80.79252027 99.57783792 -82.6875 99.875 C-83.74324219 100.03742188 -84.79898438 100.19984375 -85.88671875 100.3671875 C-88.96147979 100.8902898 -88.96147979 100.8902898 -91.5546875 102.05078125 C-97.11892004 104.21069899 -103.25313435 103.71058942 -108.6875 101.5 C-109.450625 101.005 -110.21375 100.51 -111 100 C-111 98.68 -111 97.36 -111 96 C-110.22914062 95.75765625 -109.45828125 95.5153125 -108.6640625 95.265625 C-107.66117187 94.93046875 -106.65828125 94.5953125 -105.625 94.25 C-104.62726563 93.92515625 -103.62953125 93.6003125 -102.6015625 93.265625 C-99.70207827 91.8550651 -99.04162718 90.98683456 -98 88 C-98.55945313 88.0721875 -99.11890625 88.144375 -99.6953125 88.21875 C-121.18477833 90.70627659 -121.18477833 90.70627659 -129.22265625 85.4375 C-131.58723943 83.52504591 -133.39384221 81.58381905 -135 79 C-135 78.34 -135 77.68 -135 77 C-134.35973877 77.00523682 -133.71947754 77.01047363 -133.05981445 77.01586914 C-130.14405305 77.03672429 -127.22830738 77.04968729 -124.3125 77.0625 C-123.30509766 77.07087891 -122.29769531 77.07925781 -121.25976562 77.08789062 C-120.28330078 77.09111328 -119.30683594 77.09433594 -118.30078125 77.09765625 C-116.95753784 77.10551147 -116.95753784 77.10551147 -115.5871582 77.11352539 C-112.96358241 76.99840198 -110.55706947 76.58234285 -108 76 C-114.73272661 73.86550994 -121.46465031 71.85881726 -128.3125 70.125 C-146.42074 65.31849185 -162.51120022 58.42663941 -176 45 C-174 44 -174 44 -172.12744141 44.54150391 C-171.00088135 45.00435791 -171.00088135 45.00435791 -169.8515625 45.4765625 C-169.0164917 45.8154248 -168.1814209 46.15428711 -167.32104492 46.50341797 C-166.4313501 46.87354004 -165.54165527 47.24366211 -164.625 47.625 C-163.72048096 47.99383301 -162.81596191 48.36266602 -161.8840332 48.74267578 C-156.10249764 51.10613486 -150.33791793 53.51188422 -144.60546875 55.9921875 C-137.14792631 58.87681411 -130.53459975 59.39790161 -122.5625 59.625 C-120.8928418 59.68300781 -120.8928418 59.68300781 -119.18945312 59.7421875 C-116.45979524 59.83590966 -113.73013437 59.92162294 -111 60 C-111 59.34 -111 58.68 -111 58 C-111.87672363 57.86424561 -112.75344727 57.72849121 -113.65673828 57.58862305 C-144.79291354 52.10670991 -179.71853065 39.20145162 -199.125 13 C-201 10 -201 10 -201 8 C-197.76198103 6.38099052 -194.50940345 6.54623734 -191 7 C-187.97130068 8.09397359 -185.20717321 9.60159053 -182.375 11.125 C-175.31135661 14.68387873 -168.3178566 17.40838304 -160.6875 19.5 C-159.8301123 19.74250488 -158.97272461 19.98500977 -158.08935547 20.23486328 C-146.40778176 23.27751603 -134.54684145 23.06651173 -122.57666016 22.83203125 C-97.44167239 22.35909772 -76.40222239 25.41209068 -56.640625 42.36328125 C-50.87255758 48.12281603 -45.99473258 54.71479718 -41.33203125 61.38671875 C-40.08975123 63.23038156 -40.08975123 63.23038156 -37.6875 63.5 C-33.01121739 62.62999393 -29.95379477 60.31557899 -27.1875 56.5 C-22.98801275 47.65897422 -24.63894947 37.0040015 -26.54296875 27.73046875 C-27.56994803 21.59492589 -27.81953259 15.50412737 -25.875 9.5625 C-19.05767407 0.24548789 -11.10918972 -1.19119517 0 0 Z " fill="#FDFDFD" transform="translate(214,216)"/>
<path d="M0 0 C10.05755009 8.39403895 16.89580363 19.88757936 18.08984375 33.04296875 C18.64775258 49.63469219 12.90435109 67.18291284 1.8671875 79.58984375 C1.1246875 80.57984375 0.3821875 81.56984375 -0.3828125 82.58984375 C-3.46398953 86.23939325 -7.26029942 89.06705103 -10.9765625 92.0390625 C-14.40922609 94.79017767 -17.74001027 97.65381842 -21.0703125 100.52734375 C-25.61982994 104.43854083 -30.17076557 108.34766967 -34.7578125 112.21484375 C-35.69882812 113.01148438 -36.63984375 113.808125 -37.609375 114.62890625 C-42.33242126 118.29913725 -45.06518769 118.93870667 -51.1328125 118.58984375 C-54.3515625 117.44750977 -54.3515625 117.44750977 -57.6328125 115.84375 C-58.22639557 115.55734146 -58.81997864 115.27093292 -59.43154907 114.97584534 C-61.33955273 114.04930869 -63.23633763 113.10222727 -65.1328125 112.15234375 C-66.44565512 111.50540093 -67.75864402 110.85875489 -69.07177734 110.21240234 C-91.75026152 98.97437037 -122.91504667 82.28277783 -133.1328125 57.58984375 C-136.18171208 47.4478484 -135.77530262 32.41783789 -131.390625 22.8359375 C-130.97554687 22.09472656 -130.56046875 21.35351562 -130.1328125 20.58984375 C-129.69710937 19.79707031 -129.26140625 19.00429687 -128.8125 18.1875 C-123.95473936 10.2106854 -117.59005191 4.1207034 -108.57421875 1.26171875 C-96.33322563 -1.12812327 -85.1209497 -0.78480265 -74.18359375 5.5 C-70.37919349 8.10608725 -66.86705274 10.92267987 -63.51171875 14.0859375 C-60.13732826 16.21917287 -58.05046556 16.19089648 -54.1328125 15.58984375 C-51.34301511 13.42192777 -51.34301511 13.42192777 -48.9453125 10.46484375 C-38.11492024 -1.31528479 -14.89454958 -9.84786153 0 0 Z " fill="#EAA988" transform="translate(305.1328125,87.41015625)"/>
<path d="M0 0 C0.969375 0.185625 1.93875 0.37125 2.9375 0.5625 C2.793125 1.15675781 2.64875 1.75101563 2.5 2.36328125 C-0.16145048 14.24739692 0.98717139 23.08845393 4.9375 34.5625 C5.36605218 35.99650153 5.78557403 37.43330902 6.1875 38.875 C6.55875 40.2053125 6.55875 40.2053125 6.9375 41.5625 C16.97427909 40.09493734 25.50045097 36.87200664 34.65112305 32.61157227 C42.85198314 28.86976132 42.85198314 28.86976132 47.9375 29.5625 C49.56794393 31.19294393 49.09827609 33.18778283 49.1875 35.4375 C49.53307976 39.94760868 50.50615066 43.25740359 52.5 47.3125 C55.48413454 53.41916372 55.62798335 57.6459417 53.6875 64.125 C52.65385881 67.02997264 51.65073768 68.97960883 49.875 71.5625 C47.7648619 74.82981061 47.21466027 77.26346963 46.484375 81.015625 C43.85464683 93.26264476 38.99016844 104.38253972 29.671875 112.90625 C26.05290391 116.36220438 25.53235662 119.34159814 24.75 124.125 C23.25670629 131.34630092 20.74332046 136.03674145 15.9375 141.5625 C15.25429688 142.35527344 14.57109375 143.14804687 13.8671875 143.96484375 C5.38529056 153.10036357 -4.95208066 158.48077815 -17.4375 159.1875 C-19.30535156 159.29964844 -19.30535156 159.29964844 -21.2109375 159.4140625 C-22.15195312 159.46304688 -23.09296875 159.51203125 -24.0625 159.5625 C-21.93814389 163.63593532 -19.80976911 165.72294452 -16 168.25 C-1.53432269 178.47114305 13.08816954 195.50482497 17.6015625 213.16015625 C18.47107037 219.37814856 19.06019043 225.4047965 15.37109375 230.85546875 C4.74187111 243.51206356 -9.59609842 249.29779992 -25.0625 253.5625 C-26.0525 253.8925 -27.0425 254.2225 -28.0625 254.5625 C-29.54373547 254.6431622 -31.02832204 254.67011193 -32.51171875 254.66015625 C-33.35927734 254.65693359 -34.20683594 254.65371094 -35.08007812 254.65039062 C-35.96115234 254.64201172 -36.84222656 254.63363281 -37.75 254.625 C-38.64267578 254.62048828 -39.53535156 254.61597656 -40.45507812 254.61132812 C-42.65761987 254.59954983 -44.86002599 254.58310164 -47.0625 254.5625 C-46.43021484 253.31533203 -46.43021484 253.31533203 -45.78515625 252.04296875 C-45.23730469 250.95628906 -44.68945312 249.86960937 -44.125 248.75 C-43.30708984 247.13158203 -43.30708984 247.13158203 -42.47265625 245.48046875 C-39.78218255 239.91320045 -39.84531075 235.25748842 -39.8125 229.1875 C-39.791875 228.24132812 -39.77125 227.29515625 -39.75 226.3203125 C-39.72783157 222.37433129 -39.85517608 219.17383976 -41.12890625 215.41796875 C-43.02827837 213.23552863 -43.02827837 213.23552863 -46.41796875 213.07421875 C-48.31482422 213.16123047 -48.31482422 213.16123047 -50.25 213.25 C-51.52230469 213.29511719 -52.79460937 213.34023438 -54.10546875 213.38671875 C-55.56919922 213.47373047 -55.56919922 213.47373047 -57.0625 213.5625 C-56.77955078 214.1292041 -56.49660156 214.6959082 -56.20507812 215.27978516 C-52.89073022 222.57688416 -52.53553735 229.00149253 -52.5625 236.9375 C-52.57015646 239.23699001 -52.56048987 241.53662065 -52.53125 243.8359375 C-52.53576172 244.84060059 -52.54027344 245.84526367 -52.54492188 246.88037109 C-51.9411558 250.23713937 -50.63860064 251.41596222 -48.0625 253.5625 C-48.3925 254.5525 -48.7225 255.5425 -49.0625 256.5625 C-50.7125 256.8925 -52.3625 257.2225 -54.0625 257.5625 C-57.13640953 253.68670103 -58.14795871 250.7120132 -58.45703125 245.80859375 C-58.52599609 244.87080078 -58.59496094 243.93300781 -58.66601562 242.96679688 C-58.80336578 241.01693809 -58.93125706 239.06638567 -59.04882812 237.11523438 C-59.65998457 229.17020065 -61.24988039 221.87994877 -66.5 215.6875 C-72.81700976 211.18444266 -81.35099949 209.73358398 -88.875 208.625 C-109.74277339 205.3746531 -131.49147863 195.53344503 -144.875 178.875 C-149.18424437 172.82533771 -151.99815249 166.68223868 -154.0625 159.5625 C-154.32071533 158.77705811 -154.57893066 157.99161621 -154.8449707 157.18237305 C-158.57484414 144.10513361 -157.50477432 130.16899702 -157.49829102 116.69946289 C-157.51806958 97.65798169 -158.14570659 81.77635819 -169.0625 65.5625 C-171.0625 62.5625 -171.0625 62.5625 -171.0625 60.0625 C-170.0625 57.5625 -170.0625 57.5625 -167.53125 56.03515625 C-163.58116375 54.35814891 -159.74552127 53.39321105 -155.5625 52.5 C-154.09315259 52.17849956 -152.62438724 51.85432602 -151.15625 51.52734375 C-150.45032715 51.37056152 -149.7444043 51.2137793 -149.01708984 51.05224609 C-146.87191152 50.55296977 -146.87191152 50.55296977 -144.1328125 49.47265625 C-135.0733155 46.78708017 -123.02264668 46.98028395 -114.4375 50.9375 C-109.25244637 53.97978817 -105.37418439 58.0156902 -101.51171875 62.5859375 C-99.11743557 64.8667029 -99.11743557 64.8667029 -95.51171875 65.046875 C-91.82131715 64.52863061 -90.72757784 64.04531325 -88.1875 61.4375 C-80.99575912 54.55297912 -73.80608936 50.20810092 -64 48.3125 C-49.73559306 45.07278724 -40.09912547 37.50985741 -30.8046875 26.56640625 C-26.01659228 21.05902318 -20.69393195 16.1480953 -15.1328125 11.4375 C-12.76652764 9.29444956 -10.66337212 6.97170874 -8.5 4.625 C-3.96912101 -0.01600452 -3.96912101 -0.01600452 0 0 Z M-34.49609375 41.23046875 C-40.18347561 46.39845501 -45.99293538 50.98628244 -52.625 54.875 C-57.7383889 58.05475444 -61.03873992 61.71934955 -64.68359375 66.47265625 C-67.35901246 69.94762538 -70.18969503 73.2510197 -73.0625 76.5625 C-74.59102177 78.34232845 -76.11710743 80.12422427 -77.64306641 81.90625 C-78.93029755 83.40824107 -80.22082122 84.90740885 -81.51171875 86.40625 C-84.75058135 90.24992639 -87.80554758 94.04993293 -90.40625 98.35546875 C-90.79852783 99.00128906 -91.19080566 99.64710938 -91.5949707 100.3125 C-92.34906504 101.577453 -93.08309952 102.8546438 -93.79370117 104.14453125 C-94.82421875 105.88671875 -94.82421875 105.88671875 -97.0625 108.5625 C-100.28288907 109.03338713 -102.09378646 109.11143767 -104.9375 107.5 C-107.13411059 103.71694844 -106.44344483 100.01840985 -105.3828125 95.96484375 C-105.11210937 95.00707031 -104.84140625 94.04929687 -104.5625 93.0625 C-102.42566473 84.8849958 -100.7243367 74.73761904 -105 67 C-110.73989694 59.56715593 -120.51304857 54.71536247 -129.63671875 53.109375 C-135.38447149 52.72208385 -138.9283558 53.97740444 -143.3046875 57.70703125 C-148.52989976 63.22253308 -151.20683637 68.69397082 -151.1875 76.3125 C-151.19007813 77.31796875 -151.19265625 78.3234375 -151.1953125 79.359375 C-151.13071904 82.5299621 -151.13071904 82.5299621 -150.56958008 85.48999023 C-149.77014546 90.93822371 -149.86692395 96.43012356 -149.81640625 101.92578125 C-149.78346842 104.36393589 -149.75025676 106.80208684 -149.71679688 109.24023438 C-149.66944997 113.05816129 -149.62498895 116.87607319 -149.58569336 120.6940918 C-149.54576453 124.39647487 -149.4942765 128.09856343 -149.44140625 131.80078125 C-149.4329921 132.93026688 -149.42457794 134.0597525 -149.41590881 135.22346497 C-149.27030815 144.65305702 -148.15019612 153.01549902 -144.0625 161.5625 C-142.9796875 160.5725 -142.9796875 160.5725 -141.875 159.5625 C-139.0625 157.5625 -139.0625 157.5625 -136.5625 156.9375 C-132.78233839 157.8825404 -131.0557621 160.40478925 -129.0625 163.5625 C-127.9075317 165.86783513 -126.98069933 168.14618597 -126.0625 170.5625 C-122.26661134 170.02023019 -120.59038007 168.36122437 -118.0625 165.5625 C-116.03539502 167.99502597 -114.82216643 170.12327833 -113.5625 173.0625 C-109.74540909 180.99489204 -102.24403249 187.43928385 -96.0625 193.5625 C-106.52851789 194.2969574 -115.53170686 185.06287894 -123.0625 178.5625 C-125.90689643 175.99748689 -128.71993356 173.39940821 -131.50927734 170.7746582 C-136.6313759 165.1809378 -136.6313759 165.1809378 -143.0625 162.5625 C-142.65759578 170.45813238 -137.62380827 176.35396128 -132.0625 181.5625 C-115.46871586 195.55826743 -97.97629064 202.45137005 -76.30859375 202.73828125 C-75.12211494 202.75624252 -75.12211494 202.75624252 -73.91166687 202.77456665 C-70.60784411 202.82326557 -67.30439861 202.87067908 -64.00024414 202.88842773 C-44.5110397 203.01300225 -44.5110397 203.01300225 -39.0625 207.5625 C-34.21586508 213.24922975 -34.32792036 220.56069761 -34 227.6875 C-33.8908966 237.90649295 -33.8908966 237.90649295 -29.0625 246.5625 C-27.15009516 246.71502309 -25.23077201 246.78442773 -23.3125 246.8125 C-22.26578125 246.83828125 -21.2190625 246.8640625 -20.140625 246.890625 C-16.71427044 246.52537908 -14.85396786 245.52686627 -12.0625 243.5625 C-14.09243724 223.36462443 -17.5120301 201.83623416 -33.97265625 188.1875 C-36.70192595 186.0653015 -39.47359065 184.00946053 -42.30078125 182.01953125 C-44.28293907 180.38018565 -45.66033505 178.71536249 -47.0625 176.5625 C-47.0625 175.9025 -47.0625 175.2425 -47.0625 174.5625 C-32.70823817 180.59434407 -19.76024163 191.39119483 -13.60546875 206.02734375 C-11.06368054 213.34554365 -9.12731938 220.82221206 -7.40527344 228.37182617 C-6.64888928 231.62024072 -5.93978794 233.74656809 -4.0625 236.5625 C0.19241665 236.08973148 2.16292845 233.63702523 4.9375 230.5625 C7.38500961 225.66748079 6.85966258 219.53959249 5.27685547 214.4296875 C-2.54237247 193.63878148 -16.20519085 174.40033752 -36.69750977 164.70117188 C-43.90995321 161.48030399 -51.26780723 159.16991903 -58.94775391 157.33496094 C-63.72094926 156.15113058 -67.2393062 154.71633337 -71.0625 151.5625 C-71.0625 150.5725 -71.0625 149.5825 -71.0625 148.5625 C-65.89933861 148.99657109 -60.84482809 149.58325755 -55.7578125 150.578125 C-48.64174818 151.77764631 -41.59378829 151.93469809 -34.39990234 151.93310547 C-32.19680516 151.93748152 -29.99571458 151.97395179 -27.79296875 152.01171875 C-14.87432818 152.11531644 -3.67261049 150.04693331 7.14453125 142.44140625 C9.29545804 140.18738493 9.61775796 138.61839523 9.9375 135.5625 C7.52312158 133.27799034 6.31270644 132.58059992 2.94140625 132.41796875 C1.80574219 132.52753906 0.67007813 132.63710938 -0.5 132.75 C-1.73878906 132.86601562 -2.97757813 132.98203125 -4.25390625 133.1015625 C-7.83156616 133.53455108 -11.37984792 134.05212254 -14.9375 134.625 C-27.2496487 136.58715508 -27.2496487 136.58715508 -31.9375 133.9375 C-34.34889742 131.24240877 -35.02137747 128.98601101 -36.0625 125.5625 C-34.93199219 125.37816406 -33.80148437 125.19382812 -32.63671875 125.00390625 C-10.31390277 121.09535198 18.64322567 114.74068735 34.9375 97.5625 C36.62762202 94.63766348 37.17509809 92.69044258 37.0625 89.3125 C37.02125 88.075 36.98 86.8375 36.9375 85.5625 C32.32342403 87.92080549 28.57446979 90.63397461 24.625 94 C18.20549352 99.35252807 11.48277407 103.8878731 2.9375 104.5625 C7.12817813 100.81664245 11.37309475 97.19896832 15.8125 93.75 C25.05815761 86.38745489 32.6533481 77.81724372 39.9375 68.5625 C38.9475 67.5725 37.9575 66.5825 36.9375 65.5625 C36.46030518 65.90917725 35.98311035 66.25585449 35.49145508 66.61303711 C1.89662008 90.99983141 1.89662008 90.99983141 -10.0625 93.5625 C-9.375 91.1875 -9.375 91.1875 -8.0625 88.5625 C-6.40114093 87.88271455 -4.73305661 87.21935831 -3.0625 86.5625 C-0.57634424 85.10317931 1.80245484 83.49311188 4.1875 81.875 C4.85644287 81.42366699 5.52538574 80.97233398 6.21459961 80.50732422 C13.9074565 75.27688961 21.04378474 69.52267832 28.125 63.5 C28.70773682 63.00516113 29.29047363 62.51032227 29.89086914 62.00048828 C37.34187955 56.23833225 37.34187955 56.23833225 41.5625 48.4375 C41.09316441 45.5139944 41.09316441 45.5139944 39.4375 43.125 C35.84782312 40.88145195 32.89227826 41.68869531 28.9375 42.5625 C24.05832976 44.09982799 19.29023278 45.94005155 14.51367188 47.76757812 C8.34505245 50.02817888 3.50961524 50.99067297 -3.0625 50.5625 C-3.30484375 49.46550781 -3.5471875 48.36851562 -3.796875 47.23828125 C-4.1347153 45.78369109 -4.47329625 44.32927281 -4.8125 42.875 C-4.96976563 42.15376953 -5.12703125 41.43253906 -5.2890625 40.68945312 C-6.37037259 36.13547409 -7.59341149 32.90861709 -11.0625 29.5625 C-21.32961688 27.85131385 -27.40175586 34.69934547 -34.49609375 41.23046875 Z " fill="#838D70" transform="translate(436.0625,162.4375)"/>
<path d="M0 0 C0.69222656 0.42410156 1.38445313 0.84820312 2.09765625 1.28515625 C5.36814908 3.24572837 8.67480424 5.13453383 12 7 C13.02867188 7.58652344 14.05734375 8.17304688 15.1171875 8.77734375 C31.87022246 17.46921247 51.35894115 20.49769302 69.875 23.0625 C87.17403836 25.50459544 99.53862649 30.79076074 111.75 43.8125 C114 47 114 47 113.74609375 49.1171875 C113 51 113 51 111.3125 52.3125 C107.2993369 53.50560254 104.48813336 52.75984194 100.7890625 50.87109375 C94.64126388 47.12318329 90.73939049 42.74051502 88.24609375 35.9453125 C84.1819627 29.60068158 71.99717903 27.91456317 65.09765625 26.3359375 C54.75002805 24.34658 44.519766 23.83476807 34 24 C45.12323131 30.22605646 56.47520793 32.28289141 69 34 C69 34.33 69 34.66 69 35 C63.32577771 35.04973696 57.65168462 35.0858782 51.97729492 35.10986328 C50.05018908 35.11987087 48.12309822 35.1334811 46.19604492 35.15087891 C43.41321087 35.17535921 40.63057899 35.18653578 37.84765625 35.1953125 C36.99728287 35.20563507 36.14690948 35.21595764 35.27076721 35.22659302 C27.8541838 35.22795903 20.43841279 34.56417358 14.1875 30.25 C13.47980469 29.78078125 12.77210937 29.3115625 12.04296875 28.828125 C6.81498543 24.1499296 4.81195285 18.29818332 2.75 11.8125 C2.481875 11.00619141 2.21375 10.19988281 1.9375 9.36914062 C0 3.42319037 0 3.42319037 0 0 Z " fill="#FAFAF9" transform="translate(56,199)"/>
<path d="M0 0 C0.80824219 0.10183594 1.61648438 0.20367187 2.44921875 0.30859375 C3.06410156 0.39238281 3.67898438 0.47617188 4.3125 0.5625 C4.3125 1.2225 4.3125 1.8825 4.3125 2.5625 C3.56226563 2.89121094 2.81203125 3.21992188 2.0390625 3.55859375 C-10.39577342 9.33750364 -18.14259935 17.67671035 -26.2421875 28.42578125 C-28.26565506 31.02137942 -30.29727957 33.31124587 -32.6875 35.5625 C-31.48452983 23.60798391 -24.37848783 13.56774951 -15.6875 5.5625 C-10.65945251 1.77616163 -6.43165076 -0.83891097 0 0 Z " fill="#F7F7F5" transform="translate(372.6875,219.4375)"/>
<path d="M0 0 C4.56314876 2.74749588 7.80319586 7.26045119 9.85546875 12.1171875 C10.96168602 18.3120042 9.58018619 22.53011133 6.14453125 27.68359375 C5.71914063 28.15667969 5.29375 28.62976563 4.85546875 29.1171875 C4.19546875 29.1171875 3.53546875 29.1171875 2.85546875 29.1171875 C2.8414502 28.28525879 2.8414502 28.28525879 2.82714844 27.43652344 C2.77331153 24.91252269 2.68969621 22.39034936 2.60546875 19.8671875 C2.59128906 18.99449219 2.57710938 18.12179688 2.5625 17.22265625 C2.39781978 12.10465257 2.39781978 12.10465257 0.12109375 7.6328125 C-4.85318408 4.30519216 -9.63307919 3.62714921 -15.45703125 2.9921875 C-16.19759766 2.90582031 -16.93816406 2.81945312 -17.70117188 2.73046875 C-19.5149156 2.51984045 -21.32963668 2.31765764 -23.14453125 2.1171875 C-17.25710682 -3.77023693 -7.19700356 -3.01670808 0 0 Z " fill="#858B6D" transform="translate(290.14453125,102.8828125)"/>
<path d="M0 0 C2.75116865 3.04859229 3.87469657 5.26210201 4.5625 9.3125 C3.57779829 15.76776676 0.17070045 21.89909965 -5 26 C-5.66 26 -6.32 26 -7 26 C-6.57566971 22.95896628 -6.11716902 20.28258411 -4.9375 17.4375 C-3.9182262 14.78738813 -3.83921815 12.81368245 -4 10 C-8.455 10.495 -8.455 10.495 -13 11 C-13.375 8.8125 -13.375 8.8125 -13 6 C-5.72903226 -0.95483871 -5.72903226 -0.95483871 0 0 Z " fill="#858B6D" transform="translate(279,126)"/>
<path d="M0 0 C0.66 0.33 1.32 0.66 2 1 C-2.29 5.29 -6.58 9.58 -11 14 C-11 10.30159372 -10.17133056 9.68584567 -7.75 7 C-7.14671875 6.319375 -6.5434375 5.63875 -5.921875 4.9375 C-4.06233388 3.06284066 -2.15205789 1.52358081 0 0 Z " fill="#DFB79E" transform="translate(189,92)"/>
</svg>
