<?xml version="1.0" encoding="UTF-8"?>
<svg version="1.1" xmlns="http://www.w3.org/2000/svg" width="500" height="500">
<path d="M0 0 C165 0 330 0 500 0 C500 165 500 330 500 500 C335 500 170 500 0 500 C0 335 0 170 0 0 Z " fill="#FEFEFE" transform="translate(0,0)"/>
<path d="M0 0 C2.66534833 1.5594335 5.02928556 3.44860292 7.4375 5.375 C8.87524098 6.48965127 10.31406137 7.60291151 11.75390625 8.71484375 C12.47078613 9.27284668 13.18766602 9.83084961 13.92626953 10.40576172 C16.85682082 12.65870496 19.85553793 14.80598508 22.875 16.9375 C24.02364521 17.75231144 25.17207776 18.56742273 26.3203125 19.3828125 C26.91102539 19.80208008 27.50173828 20.22134766 28.11035156 20.65332031 C31.6690694 23.1894815 35.20873706 25.75205222 38.75 28.3125 C39.88671143 29.13415649 39.88671143 29.13415649 41.04638672 29.97241211 C42.59284925 31.09038993 44.13923554 32.20847322 45.68554688 33.32666016 C49.45593019 36.05263139 53.22803694 38.77621534 57 41.5 C58.50000859 42.58332144 60.00000858 43.66665479 61.5 44.75 C62.61375 45.554375 62.61375 45.554375 63.75 46.375 C78 56.66666667 92.25 66.95833333 106.5 77.25 C107.24362793 77.78705566 107.98725586 78.32411133 108.75341797 78.87744141 C110.24205913 79.95258911 111.73066632 81.02778384 113.21923828 82.10302734 C117.14274046 84.93700249 121.06696058 87.7699766 124.9921875 90.6015625 C125.80945313 91.19130859 126.62671875 91.78105469 127.46875 92.38867188 C129.03363654 93.51787978 130.59872956 94.64680161 132.1640625 95.77539062 C133.22367187 96.54012695 133.22367187 96.54012695 134.3046875 97.3203125 C134.92327637 97.76648926 135.54186523 98.21266602 136.17919922 98.67236328 C136.78006348 99.1104834 137.38092773 99.54860352 138 100 C138.73105957 100.49483887 139.46211914 100.98967773 140.21533203 101.49951172 C142 103 142 103 142.25 105.6875 C142.1675 106.450625 142.085 107.21375 142 108 C141.14277344 108.31453125 140.28554688 108.6290625 139.40234375 108.953125 C131.94535751 111.66584328 131.94535751 111.66584328 125 115.4375 C123.515 116.2109375 123.515 116.2109375 122 117 C119.71484375 116.27734375 119.71484375 116.27734375 117 115 C91.53691786 103.6180348 64.06514332 99.18533959 37.32592773 109.3581543 C13.13868963 119.1591505 -5.3328343 137.05967287 -15.8125 161.0625 C-25.12436977 184.76544122 -24.64244932 212.42711124 -14.93457031 235.89941406 C-10.1913716 246.56045945 -3.56590113 255.22093383 4.54980469 263.50537109 C7.06650725 266.09918475 9.49515155 268.77391426 11.9375 271.4375 C12.94613455 272.53039114 13.95525057 273.62283812 14.96484375 274.71484375 C17.4779306 277.43472913 19.99008339 280.15547421 22.50170898 282.87670898 C23.50244158 283.96093108 24.50325569 285.04507794 25.50415039 286.12915039 C27.98061326 288.81148255 30.45615272 291.49465476 32.9296875 294.1796875 C38.26711303 299.97136201 43.6228977 305.74513086 49 311.5 C50.17713043 312.76167481 51.35421405 314.0233933 52.53125 315.28515625 C54.7973535 317.71412009 57.06887724 320.1378441 59.34375 322.55859375 C60.39600478 323.68473566 61.44809589 324.81103053 62.5 325.9375 C63.20189453 326.68 63.20189453 326.68 63.91796875 327.4375 C66.52115986 330.23462511 68.8891129 333.12596266 71.16992188 336.19360352 C71.7022644 336.90815201 72.23460693 337.6227005 72.78308105 338.35890198 C73.18466431 338.90046432 73.58624756 339.44202667 74 340 C50.06898311 340.04677075 26.1379731 340.08201371 2.20691967 340.10362434 C-8.90528201 340.11392631 -20.01745525 340.127966 -31.12963867 340.15087891 C-40.81773593 340.17084584 -50.50581259 340.18372428 -60.19392985 340.18817699 C-65.3212204 340.19077877 -70.44845203 340.19687159 -75.57572365 340.21146011 C-80.40768707 340.22509622 -85.23956762 340.2292105 -90.07154846 340.22621536 C-91.83913308 340.22676284 -93.60672065 340.2307042 -95.37428856 340.23841095 C-114.25165274 340.31663857 -129.75866475 338.04387344 -143.8828125 324.3828125 C-153.05438691 314.06056086 -158.23830712 299.91572801 -158.35490417 286.17805481 C-158.36860764 285.43310168 -158.38231111 284.68814856 -158.39642984 283.9206211 C-158.43921808 281.446887 -158.4682234 278.97320337 -158.49682617 276.49926758 C-158.52411912 274.71623851 -158.55201279 272.93321855 -158.58045959 271.15020752 C-158.82601744 254.91340909 -158.9490634 238.67409285 -159.04506969 222.43579578 C-159.11722067 210.44704095 -159.24520595 198.46166488 -159.44712847 186.47437745 C-159.58459302 178.0265759 -159.65648133 169.57969397 -159.68084508 161.13081855 C-159.69722228 156.09236054 -159.74220739 151.05804707 -159.85854149 146.02082253 C-160.58807769 112.98614417 -160.58807769 112.98614417 -154.3944397 105.79086304 C-150.98956791 102.79961032 -147.41207088 100.80260859 -143.25281715 99.04637623 C-139.3379979 97.22804232 -136.00204903 94.58082854 -132.5625 92 C-131.14735924 91.00693657 -129.73111384 90.01543945 -128.3125 89.02734375 C-123.86461455 85.91524175 -119.45974885 82.74561509 -115.0625 79.5625 C-113.94307007 78.75232422 -113.94307007 78.75232422 -112.80102539 77.92578125 C-111.28921067 76.83113682 -109.77757355 75.73624707 -108.26611328 74.64111328 C-104.513552 71.92351827 -100.75656581 69.21205527 -97 66.5 C-95.49997854 65.41669638 -93.99997854 64.33336304 -92.5 63.25 C-47.5 30.75 -47.5 30.75 -45.24829102 29.1237793 C-43.75397045 28.04453876 -42.25966696 26.96527458 -40.76538086 25.88598633 C-36.9286279 23.11483531 -33.09154488 20.34414313 -29.25390625 17.57421875 C-28.47426514 17.01114014 -27.69462402 16.44806152 -26.89135742 15.86791992 C-25.35744992 14.76110733 -23.82248165 13.65576312 -22.28637695 12.55200195 C-19.02784762 10.20743713 -15.78428904 7.85303077 -12.6015625 5.40625 C-11.63992187 4.6740625 -10.67828125 3.941875 -9.6875 3.1875 C-8.48673828 2.24970703 -8.48673828 2.24970703 -7.26171875 1.29296875 C-4.40447038 -0.34044957 -3.24707536 -0.65036451 0 0 Z " fill="#AAB497" transform="translate(230,87)"/>
<path d="M0 0 C2.69625689 2.26730693 5.27845365 4.59593204 7.80859375 7.046875 C9.82050166 8.8400193 11.53910184 9.94613017 14 11 C14.65484375 10.35933594 15.3096875 9.71867187 15.984375 9.05859375 C30.77867019 -4.96255324 47.03505912 -11.74723981 67.59375 -11.34765625 C82.7525542 -10.53896112 98.15531907 -3.42957353 109 7 C121.81741583 21.63960095 127.94909632 37.83352575 127.28515625 57.24609375 C126.88650246 62.4941252 125.79948279 67.06970976 124 72 C123.68289063 72.95132813 123.36578125 73.90265625 123.0390625 74.8828125 C118.93793259 86.02276111 111.53035909 94.93318294 102.98608398 103.046875 C101.12346737 104.87858157 99.4146091 106.76383718 97.71484375 108.74609375 C94.15893555 112.84485267 90.47737627 116.8074229 86.75 120.75 C81.34763096 126.48814337 75.98740086 132.25935409 70.671875 138.078125 C67.81122345 141.20643985 64.9389025 144.3236772 62.0625 147.4375 C61.56339111 147.97785889 61.06428223 148.51821777 60.55004883 149.07495117 C59.53879388 150.16964892 58.52748188 151.26429396 57.51611328 152.35888672 C55.00985896 155.07177586 52.50499554 157.78594859 50 160.5 C49.00000676 161.58333957 48.00000676 162.66667291 47 163.75 C46.2575 164.554375 46.2575 164.554375 45.5 165.375 C44 167 42.5 168.625 41 170.25 C40.25641235 171.05570435 40.25641235 171.05570435 39.49780273 171.87768555 C38.50553308 172.95244216 37.51286232 174.02682859 36.51977539 175.10083008 C33.89795877 177.93735887 31.28501476 180.78146349 28.68359375 183.63671875 C28.14025391 184.23097656 27.59691406 184.82523438 27.03710938 185.4375 C25.99546715 186.5770744 24.95627331 187.71889318 23.91992188 188.86328125 C18.43519616 194.85209013 18.43519616 194.85209013 14.98876953 195.20727539 C8.31911525 194.69270915 5.2645057 192.31641036 0.875 187.4375 C0.30652344 186.84130859 -0.26195312 186.24511719 -0.84765625 185.63085938 C-4.41979842 181.85216476 -7.81918961 177.92424227 -11.23193359 174.00219727 C-14.16398546 170.68187727 -17.20716043 167.46851853 -20.25 164.25 C-25.65489 158.50917899 -31.01719522 152.73486895 -36.3359375 146.9140625 C-43.53055238 139.04429315 -50.78081278 131.22670476 -58.0625 123.4375 C-63.18980429 117.95205386 -68.29287477 112.44658775 -73.34375 106.890625 C-75.15744649 104.91689646 -76.9813376 102.97272107 -78.84375 101.046875 C-93.52573694 85.73766716 -100.54570614 69.78515889 -100.2109375 48.421875 C-99.58255991 30.50147711 -91.61511316 16.2257965 -79 3.875 C-56.97953439 -14.87472287 -23.73607147 -16.61525003 0 0 Z " fill="#EAA887" transform="translate(338,232)"/>
<path d="M0 0 C2.69625689 2.26730693 5.27845365 4.59593204 7.80859375 7.046875 C9.82050166 8.8400193 11.53910184 9.94613017 14 11 C14.65484375 10.35933594 15.3096875 9.71867187 15.984375 9.05859375 C30.77867019 -4.96255324 47.03505912 -11.74723981 67.59375 -11.34765625 C82.7525542 -10.53896112 98.15531907 -3.42957353 109 7 C121.81741583 21.63960095 127.94909632 37.83352575 127.28515625 57.24609375 C126.88650246 62.4941252 125.79948279 67.06970976 124 72 C123.68289063 72.95132813 123.36578125 73.90265625 123.0390625 74.8828125 C118.93793259 86.02276111 111.53035909 94.93318294 102.98608398 103.046875 C101.12346737 104.87858157 99.4146091 106.76383718 97.71484375 108.74609375 C94.15893555 112.84485267 90.47737627 116.8074229 86.75 120.75 C81.34763096 126.48814337 75.98740086 132.25935409 70.671875 138.078125 C67.81122345 141.20643985 64.9389025 144.3236772 62.0625 147.4375 C61.56339111 147.97785889 61.06428223 148.51821777 60.55004883 149.07495117 C59.53879388 150.16964892 58.52748188 151.26429396 57.51611328 152.35888672 C55.00985896 155.07177586 52.50499554 157.78594859 50 160.5 C49.00000676 161.58333957 48.00000676 162.66667291 47 163.75 C46.2575 164.554375 46.2575 164.554375 45.5 165.375 C44 167 42.5 168.625 41 170.25 C40.25641235 171.05570435 40.25641235 171.05570435 39.49780273 171.87768555 C38.50553308 172.95244216 37.51286232 174.02682859 36.51977539 175.10083008 C33.89795877 177.93735887 31.28501476 180.78146349 28.68359375 183.63671875 C28.14025391 184.23097656 27.59691406 184.82523438 27.03710938 185.4375 C25.99546715 186.5770744 24.95627331 187.71889318 23.91992188 188.86328125 C18.43519616 194.85209013 18.43519616 194.85209013 14.98876953 195.20727539 C8.31911525 194.69270915 5.2645057 192.31641036 0.875 187.4375 C0.30652344 186.84130859 -0.26195312 186.24511719 -0.84765625 185.63085938 C-4.41979842 181.85216476 -7.81918961 177.92424227 -11.23193359 174.00219727 C-14.16398546 170.68187727 -17.20716043 167.46851853 -20.25 164.25 C-25.65489 158.50917899 -31.01719522 152.73486895 -36.3359375 146.9140625 C-43.53055238 139.04429315 -50.78081278 131.22670476 -58.0625 123.4375 C-63.18980429 117.95205386 -68.29287477 112.44658775 -73.34375 106.890625 C-75.15744649 104.91689646 -76.9813376 102.97272107 -78.84375 101.046875 C-93.52573694 85.73766716 -100.54570614 69.78515889 -100.2109375 48.421875 C-99.58255991 30.50147711 -91.61511316 16.2257965 -79 3.875 C-56.97953439 -14.87472287 -23.73607147 -16.61525003 0 0 Z M-63 18 C-64.2684375 18.8353125 -64.2684375 18.8353125 -65.5625 19.6875 C-73.24726546 26.97817492 -78.7545927 36.35165314 -79.23828125 47.00390625 C-79.76473528 68.53658414 -71.03794103 78.97252646 -56.77734375 94.0078125 C-52.68960016 98.31770494 -48.6782392 102.69246005 -44.671875 107.078125 C-40.30134281 111.85759587 -35.9025899 116.61096197 -31.50732422 121.36767578 C-30.02589866 122.97195361 -28.54591008 124.57754366 -27.06640625 126.18359375 C-21.71047874 131.99579995 -16.33504743 137.78890898 -10.9375 143.5625 C-6.58986414 148.21602972 -2.24922382 152.87564951 2.0625 157.5625 C2.89910156 158.47128906 3.73570312 159.38007813 4.59765625 160.31640625 C7.13994999 163.15633438 9.57669425 166.05834008 12 169 C14.97636205 167.66420352 17.03951858 166.20765397 19.3125 163.875 C19.84488281 163.33617187 20.37726563 162.79734375 20.92578125 162.2421875 C22.74893724 160.27139365 24.51636172 158.26827952 26.27734375 156.2421875 C29.84056153 152.15253698 33.52398648 148.19107924 37.25 144.25 C42.60874384 138.55893096 47.92029879 132.83096552 53.19140625 127.05859375 C56.43556339 123.51537135 59.71824097 120.00836194 63 116.5 C68.12629338 111.01859064 73.2219097 105.51167492 78.27734375 99.96484375 C80.18702374 97.87501844 82.11966588 95.80923947 84.06640625 93.75390625 C92.82464432 84.47750205 101.08460413 75.40981403 105 63 C105.18949219 62.40058594 105.37898437 61.80117188 105.57421875 61.18359375 C107.87541669 49.38203734 105.85517733 38.94607896 99.61328125 28.73046875 C92.48792682 18.52071432 83.62046036 13.87348679 72 10 C59.21200077 9.20724802 47.73392071 9.50225335 37.3125 17.8828125 C33.35605767 21.50509585 29.57940976 25.30997605 25.8347168 29.14990234 C25.25375244 29.74496582 24.67278809 30.3400293 24.07421875 30.953125 C23.55432373 31.49098633 23.03442871 32.02884766 22.4987793 32.58300781 C19.71278639 35.21697146 17.5785546 36.35586692 13.8125 36.5625 C7.78495254 36.38778848 4.9926924 33.1872821 1 29 C-10.15884868 17.53027431 -20.17659462 9.03635406 -37.0625 8.5 C-46.97927373 8.81707435 -54.98608821 12.34420478 -63 18 Z " fill="#818B6D" transform="translate(338,232)"/>
<path d="M0 0 C6.63463352 4.01610339 12.80985128 8.68049446 19.02832031 13.30517578 C22.78473657 16.08692473 26.58099472 18.81284266 30.375 21.54296875 C31.87000656 22.62209819 33.36479776 23.70152604 34.859375 24.78125 C35.60123047 25.3170166 36.34308594 25.8527832 37.10742188 26.40478516 C39.41061684 28.06869969 41.71318908 29.73347282 44.015625 31.3984375 C50.79040742 36.29642209 57.56758102 41.19040963 64.375 46.04296875 C71.96159358 51.45094994 79.51090141 56.91024002 87.06054688 62.36962891 C90.83093019 65.09560014 94.60303694 67.81918409 98.375 70.54296875 C99.87500859 71.62629019 101.37500858 72.70962354 102.875 73.79296875 C103.6175 74.32921875 104.36 74.86546875 105.125 75.41796875 C111.875 80.29296875 111.875 80.29296875 114.12597656 81.91870117 C115.62268701 82.99964066 117.11943168 84.08053276 118.61621094 85.16137695 C122.41682637 87.90594415 126.21680298 90.65138841 130.015625 93.3984375 C131.55205549 94.5091531 133.08851358 95.61983052 134.625 96.73046875 C135.74442993 97.53991943 135.74442993 97.53991943 136.88647461 98.36572266 C140.96389913 101.31130186 145.05251653 104.24006045 149.15429688 107.15161133 C168.10229939 120.60770238 168.10229939 120.60770238 168.74609375 123.99609375 C168.86272128 128.03003406 168.78693095 131.2109461 166.4375 134.60546875 C162.7975239 137.50259258 161.23960769 137.58175129 156.76293945 137.4465332 C152.56042167 136.73630297 149.73192594 134.43879295 146.4375 131.85546875 C145.35069946 131.04613892 145.35069946 131.04613892 144.24194336 130.22045898 C142.71261114 129.08138489 141.18932208 127.93415669 139.671875 126.77929688 C136.70845273 124.53909076 133.69478176 122.37377865 130.67553711 120.2097168 C128.415263 118.58952904 126.16184006 116.9602261 123.91015625 115.328125 C119.40187648 112.06163522 114.88885435 108.80174901 110.375 105.54296875 C108.87497854 104.45966513 107.37497854 103.37633179 105.875 102.29296875 C105.1325 101.75671875 104.39 101.22046875 103.625 100.66796875 C42.875 56.79296875 42.875 56.79296875 40.62402344 55.16723633 C39.12731299 54.08629684 37.63056832 53.00540474 36.13378906 51.92456055 C32.33317363 49.17999335 28.53319702 46.43454909 24.734375 43.6875 C20.9803052 40.97303704 17.22400968 38.26167961 13.46630859 35.55224609 C11.48237607 34.12046103 9.50089 32.68534329 7.51953125 31.25 C-11.55922759 17.35558964 -11.55922759 17.35558964 -34.625 15.04296875 C-43.10428238 16.80163473 -49.84767899 22.49329223 -56.63867188 27.56738281 C-60.18795881 30.20404582 -63.78601224 32.77327102 -67.375 35.35546875 C-68.91177533 36.46570718 -70.44823098 37.57638824 -71.984375 38.6875 C-76.52990628 41.97451832 -81.07727044 45.2589928 -85.625 48.54296875 C-87.12500859 49.62629019 -88.62500858 50.70962354 -90.125 51.79296875 C-93.125 53.95963542 -96.125 56.12630208 -99.125 58.29296875 C-99.86782227 58.82946045 -100.61064453 59.36595215 -101.37597656 59.91870117 C-102.87268701 60.99964066 -104.36943168 62.08053276 -105.86621094 63.16137695 C-109.66682637 65.90594415 -113.46680298 68.65138841 -117.265625 71.3984375 C-124.59833833 76.69979106 -131.93861844 81.98952312 -139.30664062 87.24169922 C-146.33064895 92.25282745 -153.31878507 97.31366346 -160.31054688 102.36962891 C-164.8243904 105.63311873 -169.34044896 108.8935429 -173.85644531 112.15405273 C-178.50125263 115.50790368 -183.14367844 118.8650116 -187.78344727 122.22583008 C-189.32606625 123.34061396 -190.87077958 124.45250632 -192.41772461 125.5612793 C-195.54089753 127.79992812 -198.63135988 130.04793715 -201.66015625 132.4140625 C-206.25780683 135.94579718 -209.70185175 138.09711002 -215.64453125 137.61328125 C-218.93974754 136.66436295 -220.59700305 134.70471475 -222.625 132.04296875 C-224.10396861 129.08503152 -224.0605582 127.34076651 -223.625 124.04296875 C-219.14315983 117.18838967 -212.30972261 113.04495202 -205.67578125 108.47021484 C-202.03992174 105.93982976 -198.46087027 103.33096237 -194.875 100.73046875 C-193.33868194 99.61959765 -191.80222231 98.50892231 -190.265625 97.3984375 C-189.49798828 96.84333496 -188.73035156 96.28823242 -187.93945312 95.71630859 C-184.16906981 92.99033736 -180.39696306 90.26675341 -176.625 87.54296875 C-175.12499141 86.45964731 -173.62499142 85.37631396 -172.125 84.29296875 C-169.125 82.12630208 -166.125 79.95963542 -163.125 77.79296875 C-162.38217773 77.25647705 -161.63935547 76.71998535 -160.87402344 76.16723633 C-159.37731299 75.08629684 -157.88056832 74.00540474 -156.38378906 72.92456055 C-152.58317363 70.17999335 -148.78319702 67.43454909 -144.984375 64.6875 C-137.65166167 59.38614644 -130.31138156 54.09641438 -122.94335938 48.84423828 C-115.91935105 43.83311005 -108.93121493 38.77227404 -101.93945312 33.71630859 C-99.66324376 32.07061883 -97.38644646 30.42574666 -95.109375 28.78125 C-94.36856689 28.2462085 -93.62775879 27.71116699 -92.86450195 27.15991211 C-91.37371142 26.08354607 -89.88266392 25.00753583 -88.39135742 23.93188477 C-84.54689708 21.15805486 -80.70831455 18.37661276 -76.87890625 15.58203125 C-52.78432843 -1.97821265 -29.41126852 -15.50984863 0 0 Z " fill="#818B6D" transform="translate(254.625,41.95703125)"/>
<path d="M0 0 C0.00146656 1.01729659 0.00293312 2.03459318 0.00444412 3.08271694 C0.04105387 27.84616859 0.10052292 52.60948514 0.18390274 77.37282467 C0.22369664 89.34824279 0.2560874 101.32359517 0.27099609 113.29907227 C0.28401073 123.73800537 0.31097077 134.17679383 0.35461307 144.61564547 C0.37723191 150.14195327 0.39291041 155.66808264 0.39188385 161.19444084 C0.3911375 166.39917397 0.40907856 171.60351258 0.44116783 176.80814362 C0.44966577 178.71522535 0.45141749 180.62235134 0.44580269 182.52944374 C0.15239729 195.84997208 0.15239729 195.84997208 5 208 C5.57612219 209.02847502 5.57612219 209.02847502 6.16388321 210.07772732 C10.22099077 216.48403458 15.93961095 219.55393453 23 222 C28.61575114 222.76973688 34.12122045 222.68916416 39.77734375 222.56665039 C41.43447936 222.5535101 43.09163977 222.54323619 44.74880981 222.5355835 C48.29468533 222.51423907 51.83974032 222.4750572 55.38528442 222.42222786 C61.00156647 222.34086398 66.61733443 222.31362561 72.23413086 222.29576111 C88.197465 222.23714564 104.15976644 222.11167949 120.12207031 221.92163086 C128.9559364 221.8169262 137.78888437 221.75931608 146.62337971 221.75183862 C152.19835746 221.74437692 157.76864271 221.6793197 163.34251404 221.57040131 C166.8200857 221.51626563 170.29609238 221.51714023 173.773983 221.53295898 C175.37527386 221.5294466 176.97670638 221.50392613 178.57721329 221.45370293 C185.18613697 221.25619854 191.25280858 221.13250876 196.49240112 225.7118206 C199.66026083 228.8946811 202.35535702 232.37994493 205 236 C205.68220108 236.87079728 206.36440216 237.74159456 207.067276 238.63877964 C208.42397402 240.39134399 209.72188069 242.18933097 211 244 C187.06898311 244.04677075 163.1379731 244.08201371 139.20691967 244.10362434 C128.09471799 244.11392631 116.98254475 244.127966 105.87036133 244.15087891 C96.18226407 244.17084584 86.49418741 244.18372428 76.80607015 244.18817699 C71.6787796 244.19077877 66.55154797 244.19687159 61.42427635 244.21146011 C56.59231293 244.22509622 51.76043238 244.2292105 46.92845154 244.22621536 C45.16086692 244.22676284 43.39327935 244.2307042 41.62571144 244.23841095 C22.74834726 244.31663857 7.24133525 242.04387344 -6.8828125 228.3828125 C-16.05438691 218.06056086 -21.23830712 203.91572801 -21.35490417 190.17805481 C-21.36860764 189.43310168 -21.38231111 188.68814856 -21.39642984 187.9206211 C-21.43921808 185.446887 -21.4682234 182.97320337 -21.49682617 180.49926758 C-21.52411912 178.71623851 -21.55201279 176.93321855 -21.58045959 175.15020752 C-21.82601744 158.91340909 -21.9490634 142.67409285 -22.04506969 126.43579578 C-22.11722067 114.44704095 -22.24520595 102.46166488 -22.44712847 90.47437745 C-22.58459302 82.0265759 -22.65648133 73.57969397 -22.68084508 65.13081855 C-22.69722228 60.09236054 -22.74220739 55.05804707 -22.85854149 50.02082253 C-23.5901461 16.93531798 -23.5901461 16.93531798 -17.20327759 9.65023804 C-13.75185966 6.6343161 -10.1277097 4.46415461 -5.87366199 2.76946545 C-3.84910585 1.9380316 -2.15754006 0 0 0 Z " fill="#818B6E" transform="translate(93,183)"/>
</svg>
