<?xml version="1.0" encoding="UTF-8"?>
<svg version="1.1" xmlns="http://www.w3.org/2000/svg" width="500" height="500">
<path d="M0 0 C165 0 330 0 500 0 C500 165 500 330 500 500 C335 500 170 500 0 500 C0 335 0 170 0 0 Z " fill="#FEFEFE" transform="translate(0,0)"/>
<path d="M0 0 C1.83936891 -0.00486473 3.6787325 -0.01231197 5.51808167 -0.02212524 C10.48091351 -0.0408258 15.44294838 -0.02219527 20.40571761 0.00453901 C25.6144981 0.02728711 30.82324277 0.01894411 36.03205872 0.01504517 C44.77345699 0.01328342 53.51454382 0.03535674 62.25585938 0.07226562 C72.34780825 0.11463457 82.43930187 0.12160981 92.5313217 0.10914171 C102.26289361 0.09773674 111.99430598 0.1090639 121.72585487 0.1314888 C125.85762814 0.14075338 129.98930341 0.14254047 134.12108421 0.13831711 C138.98783978 0.13453842 143.85413462 0.15085699 148.72078514 0.1824379 C150.50209649 0.19089175 152.28345473 0.19264617 154.06477737 0.1870575 C171.26987524 0.14128297 171.26987524 0.14128297 178.52270508 4.74462891 C179.33223633 5.22544922 180.14176758 5.70626953 180.97583008 6.20166016 C187.92470034 11.44352534 192.18590509 17.31585357 194.52270508 25.74462891 C194.88363938 28.71594089 194.87594369 31.63008707 194.81567383 34.61962891 C194.81142899 35.42956299 194.80718414 36.23949707 194.80281067 37.07397461 C194.78617452 39.63121451 194.7485528 42.18763195 194.71020508 44.74462891 C194.69513868 46.49071118 194.68145372 48.23680595 194.66918945 49.98291016 C194.63632074 54.23712765 194.58464567 58.49073941 194.52270508 62.74462891 C195.2315686 62.74018768 195.94043213 62.73574646 196.67077637 62.73117065 C203.37882788 62.69095565 210.08684532 62.66057458 216.79499054 62.64100456 C220.24301838 62.63060492 223.69094589 62.61651632 227.13891602 62.59375 C231.11058314 62.56769244 235.08221083 62.55812453 239.05395508 62.54931641 C240.28134399 62.53899384 241.50873291 62.52867126 242.77331543 62.51803589 C249.06933194 62.51721641 254.50534322 62.86436715 260.52270508 64.74462891 C261.60293945 65.07720703 262.68317383 65.40978516 263.79614258 65.75244141 C271.62514626 68.57246036 277.428273 72.0993677 283.52270508 77.74462891 C284.28196289 78.44716797 285.0412207 79.14970703 285.82348633 79.87353516 C290.71795137 84.59893405 295.02269789 89.68559216 299.27270508 94.99072266 C301.44857224 97.6538934 303.70448717 100.20505338 306.02270508 102.74462891 C309.9416176 107.04454681 313.61441377 111.50382437 317.27270508 116.02587891 C319.45772077 118.6661062 321.71441898 121.21192611 324.02270508 123.74462891 C345.53571753 147.50247744 350.74726605 166.0107824 350.92773438 197.24829102 C350.94550816 200.02903694 350.98028392 202.80876126 351.03027344 205.58911133 C351.10268649 209.62418247 351.12477965 213.65816602 351.14379883 217.69384766 C351.17162949 218.92237961 351.19946014 220.15091156 351.22813416 221.41667175 C351.20785302 230.02577288 349.37662784 236.56183127 344.52270508 243.74462891 C342.02998387 246.21635293 339.61983674 248.09536548 336.52270508 249.74462891 C335.50950195 250.28603516 334.49629883 250.82744141 333.45239258 251.38525391 C328.62479055 253.40390508 323.73236933 253.06933971 318.58520508 252.93212891 C317.61518555 252.91859375 316.64516602 252.90505859 315.64575195 252.89111328 C313.27081378 252.85601567 310.8970613 252.80685165 308.52270508 252.74462891 C308.4751709 253.32470703 308.42763672 253.90478516 308.37866211 254.50244141 C307.03294193 268.77826516 299.85990564 279.66219716 289.12426758 288.88525391 C276.38421604 297.99075621 262.66187201 299.03862439 247.52270508 297.74462891 C236.75548549 295.42653535 225.86956577 288.76776499 218.99926758 280.04931641 C216.88431929 276.74820664 215.02018024 273.34606403 213.21020508 269.86962891 C212.85998291 269.20962891 212.50976074 268.54962891 212.14892578 267.86962891 C209.44661752 262.42900827 209.24632154 259.25717709 208.52270508 252.74462891 C179.48270508 252.74462891 150.44270508 252.74462891 120.52270508 252.74462891 C120.19270508 255.38462891 119.86270508 258.02462891 119.52270508 260.74462891 C116.28560426 272.83346303 108.04298409 283.15326395 97.52270508 289.74462891 C83.90070756 296.56307138 69.96005683 299.4894038 55.06958008 294.70947266 C41.33624779 289.50681456 30.42239388 280.41635467 24.20629883 266.87744141 C22.27423662 261.90928145 21.44857617 258.09111892 21.52270508 252.74462891 C20.43441406 252.77081299 19.34612305 252.79699707 18.22485352 252.82397461 C14.1322947 252.91544614 10.03982338 252.97222481 5.9465332 253.01928711 C4.18531021 253.04421311 2.42418828 253.07816717 0.66333008 253.12182617 C-11.42099556 253.41363517 -21.84670878 252.9947812 -31.91479492 245.36962891 C-41.89207363 235.14900193 -44.18085151 223.39702397 -44.05371094 209.44213867 C-44.03964608 207.28429372 -44.07428673 205.13063864 -44.11206055 202.97314453 C-44.11301033 201.58577369 -44.11116051 200.19839746 -44.10620117 198.81103516 C-44.10692627 197.57297119 -44.10765137 196.33490723 -44.10839844 195.05932617 C-43.29896849 190.80801846 -41.92361683 189.30259527 -38.47729492 186.74462891 C-36.82729492 186.74462891 -35.17729492 186.74462891 -33.47729492 186.74462891 C-33.47729492 182.45462891 -33.47729492 178.16462891 -33.47729492 173.74462891 C-34.94682617 173.76783203 -36.41635742 173.79103516 -37.93041992 173.81494141 C-39.86270651 173.83370147 -41.79499859 173.85190142 -43.72729492 173.86962891 C-45.17942383 173.89476562 -45.17942383 173.89476562 -46.66088867 173.92041016 C-48.06274414 173.93007813 -48.06274414 173.93007813 -49.49291992 173.93994141 C-50.35175781 173.95041504 -51.2105957 173.96088867 -52.09545898 173.97167969 C-54.69158152 173.72420183 -56.27094252 173.1118859 -58.47729492 171.74462891 C-60.38431267 169.20193857 -60.48317252 167.88862998 -60.35229492 164.68212891 C-59.31714159 161.20697128 -58.54772109 160.54957728 -55.47729492 158.74462891 C-53.00366211 158.40405273 -53.00366211 158.40405273 -50.27416992 158.45166016 C-49.39083984 158.45915283 -48.50750977 158.46664551 -47.59741211 158.47436523 C-45.9292041 158.51533325 -45.9292041 158.51533325 -44.22729492 158.55712891 C-38.90604492 158.64994141 -38.90604492 158.64994141 -33.47729492 158.74462891 C-33.47729492 151.15462891 -33.47729492 143.56462891 -33.47729492 135.74462891 C-38.8043457 135.81423828 -38.8043457 135.81423828 -44.23901367 135.88525391 C-47.68097505 135.9164545 -51.12292063 135.94073955 -54.56494141 135.96435547 C-56.95596373 135.98446308 -59.34693693 136.0117532 -61.73779297 136.04638672 C-65.17582323 136.09494042 -68.61320296 136.11760665 -72.05151367 136.13525391 C-73.65333748 136.16622162 -73.65333748 136.16622162 -75.28752136 136.19781494 C-82.67551285 136.20004556 -82.67551285 136.20004556 -86.65625 133.93896484 C-88.47729492 131.74462891 -88.47729492 131.74462891 -89.03979492 128.24462891 C-88.38687335 124.18200578 -87.64244887 123.25040043 -84.47729492 120.74462891 C-82.06011963 120.26361084 -82.06011963 120.26361084 -79.34155273 120.29052734 C-77.8104184 120.29098053 -77.8104184 120.29098053 -76.24835205 120.29144287 C-75.15343445 120.31208801 -74.05851685 120.33273315 -72.93041992 120.35400391 C-71.80408142 120.3596637 -70.67774292 120.36532349 -69.51727295 120.37115479 C-65.9201811 120.39354345 -62.32408566 120.44374677 -58.72729492 120.49462891 C-56.28850722 120.51469058 -53.84970391 120.53294192 -51.41088867 120.54931641 C-45.43233148 120.59001455 -39.45592833 120.66830593 -33.47729492 120.74462891 C-33.47729492 113.15462891 -33.47729492 105.56462891 -33.47729492 97.74462891 C-37.0277356 97.78390503 -37.0277356 97.78390503 -40.64990234 97.82397461 C-48.47288645 97.90684663 -56.29589001 97.9620617 -64.11919689 98.00368977 C-68.86225299 98.02977657 -73.60485912 98.06515766 -78.34765625 98.12182617 C-82.92532583 98.17617899 -87.5025628 98.20605634 -92.08053017 98.21901512 C-93.8264783 98.22824917 -95.57240292 98.24628152 -97.31816673 98.27327919 C-99.76520191 98.30961454 -102.21045302 98.31457262 -104.65771484 98.31225586 C-105.37844681 98.33023224 -106.09917877 98.34820862 -106.8417511 98.36672974 C-110.70129982 98.32722965 -112.37276439 97.8254888 -115.46211243 95.43571472 C-117.47729492 92.74462891 -117.47729492 92.74462891 -117.53979492 89.11962891 C-116.34287477 85.31764723 -115.89816208 84.6005775 -112.47729492 82.74462891 C-109.82694571 82.46988625 -107.41776555 82.3646438 -104.77124023 82.40405273 C-104.00012405 82.40361465 -103.22900787 82.40317657 -102.43452454 82.40272522 C-99.89123016 82.40481164 -97.34859883 82.42813526 -94.80541992 82.45166016 C-93.039941 82.45725664 -91.27445742 82.46152649 -89.50897217 82.46452332 C-84.86626279 82.47596794 -80.22383576 82.50543182 -75.58123779 82.53863525 C-70.84220194 82.56934438 -66.10312038 82.58303045 -61.36401367 82.59814453 C-52.06831682 82.6303019 -42.77282937 82.68149364 -33.47729492 82.74462891 C-33.47729492 78.45462891 -33.47729492 74.16462891 -33.47729492 69.74462891 C-35.45729492 69.74462891 -37.43729492 69.74462891 -39.47729492 69.74462891 C-42.75060147 66.96614039 -43.41295879 65.21567861 -43.99487305 60.95507812 C-44.02113833 59.48671871 -44.02441962 58.01782492 -44.00854492 56.54931641 C-44.01428528 55.36718063 -44.01428528 55.36718063 -44.0201416 54.16116333 C-44.02285713 52.49528729 -44.01552095 50.82936835 -43.9987793 49.16357422 C-43.97753388 46.647924 -43.99850097 44.13518573 -44.02416992 41.61962891 C-44.04518465 30.47912681 -43.37896042 20.09702346 -35.47729492 11.43212891 C-34.81729492 10.67287109 -34.15729492 9.91361328 -33.47729492 9.13134766 C-22.75208827 0.59866372 -13.10683018 -0.12218429 0 0 Z " fill="#BCC4AD" transform="translate(125.477294921875,108.25537109375)"/>
<path d="M0 0 C1.83936891 -0.00486473 3.6787325 -0.01231197 5.51808167 -0.02212524 C10.48091351 -0.0408258 15.44294838 -0.02219527 20.40571761 0.00453901 C25.6144981 0.02728711 30.82324277 0.01894411 36.03205872 0.01504517 C44.77345699 0.01328342 53.51454382 0.03535674 62.25585938 0.07226562 C72.34780825 0.11463457 82.43930187 0.12160981 92.5313217 0.10914171 C102.26289361 0.09773674 111.99430598 0.1090639 121.72585487 0.1314888 C125.85762814 0.14075338 129.98930341 0.14254047 134.12108421 0.13831711 C138.98783978 0.13453842 143.85413462 0.15085699 148.72078514 0.1824379 C150.50209649 0.19089175 152.28345473 0.19264617 154.06477737 0.1870575 C171.26987524 0.14128297 171.26987524 0.14128297 178.52270508 4.74462891 C179.33223633 5.22544922 180.14176758 5.70626953 180.97583008 6.20166016 C187.92470034 11.44352534 192.18590509 17.31585357 194.52270508 25.74462891 C194.88363938 28.71594089 194.87594369 31.63008707 194.81567383 34.61962891 C194.81142899 35.42956299 194.80718414 36.23949707 194.80281067 37.07397461 C194.78617452 39.63121451 194.7485528 42.18763195 194.71020508 44.74462891 C194.69513868 46.49071118 194.68145372 48.23680595 194.66918945 49.98291016 C194.63632074 54.23712765 194.58464567 58.49073941 194.52270508 62.74462891 C195.2315686 62.74018768 195.94043213 62.73574646 196.67077637 62.73117065 C203.37882788 62.69095565 210.08684532 62.66057458 216.79499054 62.64100456 C220.24301838 62.63060492 223.69094589 62.61651632 227.13891602 62.59375 C231.11058314 62.56769244 235.08221083 62.55812453 239.05395508 62.54931641 C240.28134399 62.53899384 241.50873291 62.52867126 242.77331543 62.51803589 C249.06933194 62.51721641 254.50534322 62.86436715 260.52270508 64.74462891 C261.60293945 65.07720703 262.68317383 65.40978516 263.79614258 65.75244141 C271.62514626 68.57246036 277.428273 72.0993677 283.52270508 77.74462891 C284.28196289 78.44716797 285.0412207 79.14970703 285.82348633 79.87353516 C290.71795137 84.59893405 295.02269789 89.68559216 299.27270508 94.99072266 C301.44857224 97.6538934 303.70448717 100.20505338 306.02270508 102.74462891 C309.9416176 107.04454681 313.61441377 111.50382437 317.27270508 116.02587891 C319.45772077 118.6661062 321.71441898 121.21192611 324.02270508 123.74462891 C345.53571753 147.50247744 350.74726605 166.0107824 350.92773438 197.24829102 C350.94550816 200.02903694 350.98028392 202.80876126 351.03027344 205.58911133 C351.10268649 209.62418247 351.12477965 213.65816602 351.14379883 217.69384766 C351.17162949 218.92237961 351.19946014 220.15091156 351.22813416 221.41667175 C351.20785302 230.02577288 349.37662784 236.56183127 344.52270508 243.74462891 C342.02998387 246.21635293 339.61983674 248.09536548 336.52270508 249.74462891 C335.50950195 250.28603516 334.49629883 250.82744141 333.45239258 251.38525391 C328.62479055 253.40390508 323.73236933 253.06933971 318.58520508 252.93212891 C317.61518555 252.91859375 316.64516602 252.90505859 315.64575195 252.89111328 C313.27081378 252.85601567 310.8970613 252.80685165 308.52270508 252.74462891 C308.4751709 253.32470703 308.42763672 253.90478516 308.37866211 254.50244141 C307.03294193 268.77826516 299.85990564 279.66219716 289.12426758 288.88525391 C276.38421604 297.99075621 262.66187201 299.03862439 247.52270508 297.74462891 C236.75548549 295.42653535 225.86956577 288.76776499 218.99926758 280.04931641 C216.88431929 276.74820664 215.02018024 273.34606403 213.21020508 269.86962891 C212.85998291 269.20962891 212.50976074 268.54962891 212.14892578 267.86962891 C209.44661752 262.42900827 209.24632154 259.25717709 208.52270508 252.74462891 C179.48270508 252.74462891 150.44270508 252.74462891 120.52270508 252.74462891 C120.19270508 255.38462891 119.86270508 258.02462891 119.52270508 260.74462891 C116.28560426 272.83346303 108.04298409 283.15326395 97.52270508 289.74462891 C83.90070756 296.56307138 69.96005683 299.4894038 55.06958008 294.70947266 C41.33624779 289.50681456 30.42239388 280.41635467 24.20629883 266.87744141 C22.27423662 261.90928145 21.44857617 258.09111892 21.52270508 252.74462891 C20.43441406 252.77081299 19.34612305 252.79699707 18.22485352 252.82397461 C14.1322947 252.91544614 10.03982338 252.97222481 5.9465332 253.01928711 C4.18531021 253.04421311 2.42418828 253.07816717 0.66333008 253.12182617 C-11.42099556 253.41363517 -21.84670878 252.9947812 -31.91479492 245.36962891 C-41.92377814 235.11652415 -44.16611776 223.37927733 -43.9987793 209.38720703 C-43.97703581 207.21878883 -43.99884354 205.05358155 -44.02416992 202.88525391 C-44.02153115 201.49462166 -44.01641553 200.10399139 -44.00854492 198.71337891 C-44.0040332 197.47007812 -43.99952148 196.22677734 -43.99487305 194.94580078 C-43.38870958 191.19673693 -42.45755328 190.01847882 -39.47729492 187.74462891 C-36.5181311 186.97217923 -34.60998114 187.34682748 -31.47729492 187.74462891 C-28.91985376 190.09995674 -28.49987894 191.55207725 -28.0925293 195.02514648 C-28.08543945 196.300271 -28.07834961 197.57539551 -28.07104492 198.88916016 C-28.06020874 199.57717209 -28.04937256 200.26518402 -28.03820801 200.9740448 C-28.00402958 203.1685017 -27.98838042 205.3624413 -27.97729492 207.55712891 C-27.96263149 210.43912988 -27.92874259 213.31999374 -27.88354492 216.20166016 C-27.87645508 217.48016846 -27.86936523 218.75867676 -27.86206055 220.07592773 C-27.37022886 224.76549298 -26.13705615 228.76289214 -23.04760742 232.45166016 C-17.21633368 236.91179656 -12.81340634 238.04435871 -5.55151367 237.93994141 C-4.80392288 237.93711151 -4.05633209 237.93428162 -3.28608704 237.93136597 C-0.91215612 237.92022359 1.46138933 237.89513052 3.83520508 237.86962891 C5.45043398 237.8595914 7.06566883 237.8504669 8.6809082 237.84228516 C12.62832102 237.8203038 16.57544782 237.78581547 20.52270508 237.74462891 C20.7730249 236.87435059 21.02334473 236.00407227 21.28125 235.10742188 C21.62260986 233.95387207 21.96396973 232.80032227 22.31567383 231.61181641 C22.64849365 230.47341309 22.98131348 229.33500977 23.32421875 228.16210938 C28.09825372 214.54896179 37.93289614 206.10436894 50.43676758 199.77587891 C62.80793714 194.12694303 75.77361971 194.41309646 88.52270508 198.74462891 C100.36223995 203.24400505 111.48749364 212.92375512 116.80395508 224.54541016 C118.62355807 229.34786234 119.67007463 233.62884619 120.52270508 238.74462891 C149.89270508 238.74462891 179.26270508 238.74462891 209.52270508 238.74462891 C209.85270508 236.10462891 210.18270508 233.46462891 210.52270508 230.74462891 C215.93623763 216.63199217 225.8592358 207.33454788 239.26098633 201.08447266 C245.61726718 198.47344951 250.57888358 197.42632685 257.39770508 197.49462891 C258.16211914 197.48689453 258.9265332 197.47916016 259.71411133 197.47119141 C272.8069534 197.51564927 284.9480995 202.90350469 294.62036133 211.63916016 C300.67782056 217.93004749 307.2222969 227.2559212 307.71020508 236.17041016 C307.64833008 237.01990234 307.58645508 237.86939453 307.52270508 238.74462891 C310.5664055 238.68435761 313.6053792 238.59722934 316.64770508 238.49462891 C317.93161133 238.47335937 317.93161133 238.47335937 319.24145508 238.45166016 C324.76530257 238.23920448 328.22242961 237.53514527 332.52270508 233.74462891 C335.09295235 230.1317439 335.90339161 227.63399899 335.95507812 223.2199707 C335.98476936 221.59885628 335.98476936 221.59885628 336.01506042 219.94499207 C336.02145035 218.78961441 336.02784027 217.63423676 336.03442383 216.44384766 C336.05237503 215.25233597 336.07032623 214.06082428 336.08882141 212.83320618 C336.14294198 209.03288293 336.17682684 205.23268543 336.21020508 201.43212891 C336.24337648 198.85333536 336.27786597 196.27455841 336.3137207 193.69580078 C336.3986697 187.37885624 336.46701244 181.06189547 336.52270508 174.74462891 C335.42515648 174.75462166 335.42515648 174.75462166 334.30543518 174.76481628 C327.37698519 174.82517057 320.448575 174.87072618 313.51992893 174.90006542 C309.95864622 174.91565667 306.3975825 174.93677346 302.83642578 174.97094727 C298.73313409 175.01007275 294.63006894 175.02439208 290.52661133 175.03759766 C289.26063614 175.05308151 287.99466095 175.06856537 286.69032288 175.08451843 C275.81407534 175.0865712 268.4623128 173.50807915 260.47192383 165.93603516 C255.54165188 160.39318433 253.43084954 154.20389648 253.34570312 146.85595703 C253.33286789 145.88815308 253.32003265 144.92034912 253.30680847 143.92321777 C253.29572807 142.36528503 253.29572807 142.36528503 253.28442383 140.77587891 C253.27635208 139.70341919 253.26828033 138.63095947 253.25996399 137.52600098 C253.24614532 135.25986336 253.23541327 132.99370513 253.22753906 130.72753906 C253.21026953 127.25757866 253.16635629 123.78855732 253.12231445 120.31884766 C253.11219206 118.11703174 253.10367454 115.91520774 253.09692383 113.71337891 C253.07941574 112.67475708 253.06190765 111.63613525 253.04386902 110.56604004 C253.06548306 103.41592097 253.06548306 103.41592097 255.33056641 100.09033203 C258.5733385 98.0996694 260.79958894 98.21275517 264.52270508 98.74462891 C266.70996094 100.0925293 266.70996094 100.0925293 268.52270508 102.74462891 C269.11562654 106.38536155 269.05570379 109.99662118 269.02661133 113.67822266 C269.04074318 115.28335472 269.04074318 115.28335472 269.05516052 116.9209137 C269.08385162 120.34151322 269.0868872 123.76141865 269.08520508 127.18212891 C269.08881132 130.5991674 269.09833674 134.01569972 269.1259613 137.43263245 C269.14276078 139.55833028 269.14561683 141.68419479 269.13294983 143.80992126 C269.11569723 150.79771117 269.11569723 150.79771117 272.52270508 156.74462891 C275.8836463 158.98525638 277.06669066 159.01039051 281.00390625 159.06347656 C282.12484177 159.08334625 283.24577728 159.10321594 284.40068054 159.12368774 C285.61012833 159.13523895 286.81957611 159.14679016 288.06567383 159.15869141 C289.3044075 159.17805756 290.54314117 159.19742371 291.81941223 159.21737671 C295.10895683 159.26706298 298.39846633 159.30832173 301.68817139 159.34552002 C305.04653033 159.38556203 308.40471914 159.43665342 311.76293945 159.48681641 C318.34941866 159.58295043 324.9359719 159.66797738 331.52270508 159.74462891 C330.73775178 158.13397408 329.94811187 156.5256027 329.15649414 154.91821289 C328.71726624 154.02230942 328.27803833 153.12640594 327.82550049 152.20335388 C326.30287569 149.32975179 324.54204578 147.13110188 322.27270508 144.80712891 C319.03796499 141.38494527 315.97500268 137.91435547 313.02270508 134.24462891 C310.11457128 130.6498524 307.13729176 127.16202263 304.02270508 123.74462891 C300.9081184 120.32723519 297.93083888 116.83940541 295.02270508 113.24462891 C291.36602418 108.72792725 287.5651817 104.38382638 283.64770508 100.09228516 C281.68740024 97.92658073 279.7895117 95.72003535 277.89770508 93.49462891 C270.26095482 84.86857237 261.98741148 80.1381375 250.52270508 77.74462891 C248.65996811 77.63157949 246.79391093 77.56872449 244.92797852 77.53930664 C243.80711853 77.51936142 242.68625854 77.4994162 241.53143311 77.47886658 C240.32714661 77.46215408 239.12286011 77.44544159 237.88208008 77.42822266 C236.02610199 77.39705101 236.02610199 77.39705101 234.13262939 77.36524963 C230.85131817 77.31097018 227.56997775 77.26071112 224.28857422 77.21240234 C220.93687403 77.16206798 217.58526788 77.1063653 214.23364258 77.05126953 C207.66340044 76.94418381 201.09309209 76.84239854 194.52270508 76.74462891 C194.52639225 77.43669559 194.53007942 78.12876228 194.53387833 78.84180069 C194.62218666 95.67544006 194.68839378 112.50900613 194.72995377 129.34282303 C194.75058569 137.48351608 194.77871818 145.62405458 194.82446289 153.76464844 C194.86431155 160.85937532 194.89013331 167.9539903 194.89905906 175.04882598 C194.90427721 178.80611126 194.91655438 182.56307636 194.94562531 186.32025909 C194.97780343 190.51296742 194.97866577 194.70511786 194.97680664 198.89794922 C194.99118774 200.14591782 195.00556885 201.39388641 195.02038574 202.67967224 C195.01488708 203.8210817 195.00938843 204.96249115 195.00372314 206.13848877 C195.00741032 207.13033802 195.01109749 208.12218727 195.01489639 209.14409256 C194.38144714 212.4909777 193.17656622 213.67219131 190.52270508 215.74462891 C187.52270508 216.30712891 187.52270508 216.30712891 184.52270508 215.74462891 C181.63309668 212.97244545 180.60334949 211.30245066 180.02606964 207.30937481 C180.00723098 205.96896989 180.01020878 204.6281471 180.03063965 203.2877655 C180.02596066 202.54593138 180.02128167 201.80409725 180.0164609 201.0397833 C180.00554369 198.55847475 180.02300749 196.07818414 180.0402832 193.59692383 C180.03809695 191.81608277 180.03409961 190.03524315 180.02842712 188.25440979 C180.01986309 184.42112285 180.02364477 180.5881159 180.03684998 176.75484276 C180.05718589 170.69066072 180.04720912 164.62676094 180.03259277 158.56257629 C180.00355398 144.59158371 180.01428321 130.62067392 180.02529144 116.64966583 C180.03496901 103.85238078 180.03622691 91.05524295 180.00541067 78.25798303 C179.99204791 72.23292084 179.9979823 66.20828191 180.01877594 60.18324506 C180.0277749 56.42980006 180.0202759 52.67651746 180.00836372 48.92308617 C180.00623664 47.1864873 180.01093245 45.44986418 180.02306938 43.71330643 C180.30911327 31.60323256 180.30911327 31.60323256 175.52270508 20.74462891 C169.83772715 16.12558434 165.33362321 15.59587875 158.22406006 15.59072876 C157.48716391 15.58634651 156.75026776 15.58196425 155.99104142 15.5774492 C153.52079907 15.56409028 151.05059237 15.55788892 148.58032227 15.55175781 C146.80948222 15.54385463 145.03864377 15.53558554 143.26780701 15.52697754 C137.45174695 15.50078507 131.63567979 15.48545385 125.81958008 15.47119141 C123.81630702 15.46583081 121.81303401 15.4604533 119.80976105 15.45505905 C111.47660317 15.43343547 103.14344722 15.41469876 94.8102684 15.40343666 C82.87266761 15.3871962 70.93539221 15.35401 58.99791408 15.29703581 C50.60117487 15.25832802 42.20452267 15.23880304 33.80769658 15.2335161 C28.79389858 15.22986415 23.78044786 15.21785915 18.76674652 15.18541336 C14.04868856 15.15531761 9.33118777 15.14902628 4.61305428 15.16079712 C2.88450353 15.16101772 1.1559268 15.15272386 -0.57253456 15.13514328 C-12.9096527 14.89336801 -12.9096527 14.89336801 -23.47729492 20.74462891 C-27.93307172 25.48787517 -27.61852336 30.60205583 -27.65307617 36.83447266 C-27.67626836 38.43930357 -27.70038545 40.04412133 -27.7253418 41.64892578 C-27.76047078 44.16814068 -27.78982014 46.68686856 -27.80322266 49.20629883 C-27.81872219 51.64544822 -27.85892994 54.08319528 -27.90307617 56.52197266 C-27.90116776 57.27107407 -27.89925934 58.02017548 -27.89729309 58.79197693 C-27.98188752 62.42106503 -28.38752995 64.5976739 -30.29443359 67.71948242 C-32.47729492 69.74462891 -32.47729492 69.74462891 -35.97729492 70.36962891 C-39.47729492 69.74462891 -39.47729492 69.74462891 -41.6628418 67.71777344 C-43.95623423 63.95984381 -44.05474292 60.82291845 -44.00854492 56.54931641 C-44.01237183 55.76122589 -44.01619873 54.97313538 -44.0201416 54.16116333 C-44.02285713 52.49528729 -44.01552095 50.82936835 -43.9987793 49.16357422 C-43.97753388 46.647924 -43.99850097 44.13518573 -44.02416992 41.61962891 C-44.04518465 30.47912681 -43.37896042 20.09702346 -35.47729492 11.43212891 C-34.48729492 10.29324219 -34.48729492 10.29324219 -33.47729492 9.13134766 C-22.75208827 0.59866372 -13.10683018 -0.12218429 0 0 Z " fill="#828B6E" transform="translate(125.477294921875,108.25537109375)"/>
<path d="M0 0 C7.70041942 -0.12794093 15.40055965 -0.21482503 23.10180664 -0.2746582 C25.7155176 -0.29963048 28.32915997 -0.3336203 30.94262695 -0.37719727 C66.3119356 -0.95170352 66.3119356 -0.95170352 79 11 C79.9590625 11.87785156 79.9590625 11.87785156 80.9375 12.7734375 C85.61733376 17.25218465 89.66360083 22.16599349 93.71484375 27.2109375 C95.90460801 29.88357285 98.17111198 32.44834878 100.5 35 C104.41891252 39.29991791 108.09170869 43.75919547 111.75 48.28125 C113.93501569 50.92147729 116.19171391 53.4672972 118.5 56 C137 76.37587413 137 76.37587413 137 83 C129.11640408 83.10141744 121.23297638 83.17147331 113.34887695 83.21972656 C110.66672177 83.23758325 107.9849454 83.26541436 105.30297852 83.30175781 C101.44796934 83.35027542 97.59354002 83.37296994 93.73828125 83.390625 C92.53915604 83.41127014 91.34003082 83.43191528 90.10456848 83.45318604 C81.81390508 83.45542091 81.81390508 83.45542091 77.82885742 81.22558594 C74.80831333 77.54980434 73.75264445 74.85863922 73.72875977 70.09545898 C73.71347984 68.63891151 73.71347984 68.63891151 73.69789124 67.15293884 C73.69575119 66.11117996 73.69361115 65.06942108 73.69140625 63.99609375 C73.66625748 61.78971077 73.6408593 59.58333062 73.61523438 57.37695312 C73.58642599 53.89852563 73.56240669 50.42014708 73.54370117 46.94165039 C73.52211589 43.58454624 73.48269374 40.22800476 73.44140625 36.87109375 C73.44123253 35.30541908 73.44123253 35.30541908 73.4410553 33.70811462 C73.42104713 32.25629539 73.42104713 32.25629539 73.40063477 30.77514648 C73.39556412 29.9233934 73.39049347 29.07164032 73.38526917 28.19407654 C72.91016371 25.48838964 72.21057709 24.59881926 70 23 C65.38619778 22.40950609 65.38619778 22.40950609 61.3065033 24.23094177 C59.62173503 26.51218604 59.61423586 27.8580857 59.59594727 30.67993164 C59.58326309 31.62844498 59.57057892 32.57695831 59.55751038 33.55421448 C59.56044601 34.57917526 59.56338165 35.60413605 59.56640625 36.66015625 C59.5611644 37.71980087 59.55592255 38.7794455 59.55052185 39.87120056 C59.54409231 42.11814498 59.54545064 44.36512302 59.55395508 46.61206055 C59.56240763 50.02520141 59.53380853 53.43663641 59.50195312 56.84960938 C59.50033942 59.03645783 59.50092187 61.22330923 59.50390625 63.41015625 C59.49267227 64.42094742 59.48143829 65.43173859 59.46986389 66.47315979 C59.55849421 75.64309092 61.94706221 83.70635629 68.2890625 90.53125 C74.0617614 95.48680887 80.51604688 97.09582422 87.96191406 97.20532227 C89.16285706 97.22526749 90.36380005 97.24521271 91.60113525 97.26576233 C92.89291687 97.28247482 94.18469849 97.29918732 95.515625 97.31640625 C96.85512921 97.33698963 98.19462713 97.35798646 99.53411865 97.37937927 C103.05215341 97.43445709 106.5702454 97.48392906 110.08837891 97.53222656 C113.68136664 97.58254625 117.27427173 97.63817756 120.8671875 97.69335938 C127.91138655 97.800766 134.9556598 97.90224949 142 98 C142.10152851 105.58044988 142.17151993 113.160724 142.21972656 120.74169922 C142.23982563 123.31989088 142.26710941 125.89803704 142.30175781 128.47607422 C142.35034847 132.18468461 142.37298658 135.89269156 142.390625 139.6015625 C142.41127014 140.75177887 142.43191528 141.90199524 142.45318604 143.08706665 C142.45494638 149.38364837 142.28796389 153.24635717 138 158 C132.90904619 162.56221974 128.61116724 162.50397643 122.125 162.25 C121.24585938 162.23195313 120.36671875 162.21390625 119.4609375 162.1953125 C117.3068168 162.14848379 115.15326226 162.07674994 113 162 C112.72414063 160.80246094 112.44828125 159.60492188 112.1640625 158.37109375 C108.97648421 145.68497876 101.46242385 135.18227131 90.36328125 128.28125 C78.22438366 121.70016172 63.75830034 119.64174408 50.25 122.90625 C43.58391922 125.35886462 37.55844356 128.57658213 32 133 C31.32453125 133.52722656 30.6490625 134.05445313 29.953125 134.59765625 C22.2112221 141.42433419 17.00684089 151.96579557 15 162 C4.11 162 -6.78 162 -18 162 C-16.02 159.69 -14.04 157.38 -12 155 C-9.16724783 149.7252201 -8.3865758 144.87861821 -8 139 C-6.5459375 138.566875 -6.5459375 138.566875 -5.0625 138.125 C-1.89335797 137.35785318 -1.89335797 137.35785318 -1 135 C-0.89479991 133.2137741 -0.85340034 131.42365228 -0.84178162 129.6343689 C-0.82709839 127.92637871 -0.82709839 127.92637871 -0.81211853 126.18388367 C-0.80636307 124.92872452 -0.8006076 123.67356537 -0.79467773 122.38037109 C-0.78477814 121.06334702 -0.77487854 119.74632294 -0.76467896 118.38938904 C-0.7375992 114.77187377 -0.7166063 111.15434542 -0.69667697 107.53678465 C-0.67483632 103.75843631 -0.64743825 99.98012845 -0.62062073 96.20181274 C-0.57066781 89.04433449 -0.52573864 81.88683379 -0.48259836 74.72931159 C-0.43324818 66.58187238 -0.37832184 58.43447379 -0.32291877 50.28707385 C-0.20905883 33.52475332 -0.10222855 16.76239559 0 0 Z " fill="#FDFDFD" transform="translate(320,185)"/>
<path d="M0 0 C7.40148906 6.06679431 11.87536013 13.40718395 14.12109375 22.7109375 C14.16234375 23.8246875 14.20359375 24.9384375 14.24609375 26.0859375 C14.30667969 26.83101563 14.36726563 27.57609375 14.4296875 28.34375 C14.93993004 38.20843909 11.53257612 46.5659084 5.2265625 54.08203125 C-2.67595018 62.07806479 -11.59701457 65.34227835 -22.69140625 65.5234375 C-33.79756505 65.40671958 -40.58391322 62.09500605 -48.55859375 54.4453125 C-55.76745742 46.69770813 -59.45437153 37.60761138 -59.09765625 26.98046875 C-57.70706759 15.27108015 -52.30620604 6.67372389 -43.37890625 -0.7890625 C-30.10021702 -10.39160454 -13.22033592 -9.18860227 0 0 Z " fill="#FEFEFD" transform="translate(218.75390625,325.9140625)"/>
<path d="M0 0 C7.18397617 5.51517717 11.95757452 12.75004751 14.3125 21.5 C15.69479844 33.43914406 14.32119234 42.42824953 7.3125 52.5 C0.87052507 60.26971023 -7.63829824 64.82786647 -17.66015625 65.94140625 C-29.08245954 66.47948169 -37.80006908 63.81242067 -46.6484375 56.48046875 C-54.614842 48.74298392 -57.78715645 39.91997544 -58.125 29 C-57.87771222 18.2376057 -53.5782431 10.26041692 -45.921875 2.7734375 C-32.48618131 -9.08502259 -14.96736548 -9.93751613 0 0 Z " fill="#FEFEFD" transform="translate(405.6875,326.5)"/>
<path d="M0 0 C0.77340225 0.3593161 1.5468045 0.7186322 2.34364319 1.08883667 C4.80745448 2.23549043 7.26517979 3.39452832 9.72265625 4.5546875 C12.9386164 6.06048392 16.15683222 7.56142881 19.375 9.0625 C20.15878021 9.42925842 20.94256042 9.79601685 21.75009155 10.17388916 C29.36954475 13.72883878 37.0638179 17.10293712 44.78515625 20.4296875 C44.78515625 21.0896875 44.78515625 21.7496875 44.78515625 22.4296875 C42.44409454 23.50278801 40.10294962 24.57570612 37.76171875 25.6484375 C36.66821106 26.14948753 36.66821106 26.14948753 35.5526123 26.66065979 C31.55596 28.49122255 27.55811087 30.31910874 23.55810547 32.14233398 C22.762341 32.50504898 21.96657654 32.86776398 21.146698 33.24147034 C19.55406839 33.96734195 17.96139681 34.69312146 16.36868286 35.41880798 C12.11173997 37.3605306 7.86464119 39.32088688 3.62890625 41.30859375 C2.05600326 42.03648788 0.48308831 42.76435617 -1.08984375 43.4921875 C-1.76966309 43.81960937 -2.44948242 44.14703125 -3.14990234 44.484375 C-7.06392582 46.2752784 -9.10815814 46.56886707 -13.21484375 45.4296875 C-15.58555228 44.45549625 -17.89784496 43.44727407 -20.21875 42.3671875 C-21.22699074 41.9059272 -21.22699074 41.9059272 -22.25559998 41.43534851 C-24.43185603 40.43847375 -26.60464505 39.43428885 -28.77734375 38.4296875 C-31.01453441 37.40112888 -33.25240499 36.37406022 -35.49032593 35.34709167 C-36.97355423 34.6662724 -38.45648598 33.98480666 -39.93911743 33.3026886 C-44.21398999 31.33796535 -48.50015852 29.40310265 -52.8046875 27.50390625 C-53.73659912 27.09205078 -54.66851074 26.68019531 -55.62866211 26.25585938 C-57.31354309 25.51402185 -59.00046824 24.77680447 -60.68969727 24.04492188 C-66.1045532 21.65026861 -66.1045532 21.65026861 -67.21484375 19.4296875 C-55.21777344 13.89257812 -55.21777344 13.89257812 -43.22070312 8.35546875 C-42.35758514 7.95676575 -41.49446716 7.55806274 -40.60519409 7.14727783 C-38.88270937 6.35297193 -37.15918 5.56092737 -35.43460083 4.7711792 C-31.6923352 3.054725 -27.96679114 1.3239003 -24.29052734 -0.53027344 C-23.16598145 -1.0874707 -22.04143555 -1.64466797 -20.8828125 -2.21875 C-19.94074951 -2.70263184 -18.99868652 -3.18651367 -18.02807617 -3.68505859 C-11.50500255 -5.73770677 -5.82081837 -2.77539344 0 0 Z " fill="#EBA989" transform="translate(212.21484375,188.5703125)"/>
<path d="M0 0 C9.25425405 3.50905331 18.20104418 7.67977803 27.1875 11.8125 C28.7010767 12.50606711 30.21474808 13.19942764 31.72851562 13.89257812 C41.17165057 18.22053813 50.59284635 22.5944245 60 27 C57.72298373 31.09819308 55.45525806 34.93175598 52.546875 38.62109375 C51.928125 39.41064453 51.309375 40.20019531 50.671875 41.01367188 C50.03765625 41.81353516 49.4034375 42.61339844 48.75 43.4375 C48.1003125 44.26443359 47.450625 45.09136719 46.78125 45.94335938 C45.1915801 47.96551299 43.59778133 49.98425389 42 52 C21.81078075 43.41400335 1.91093225 34.20742313 -18 25 C-16.47911106 21.66080383 -14.5372896 18.92155154 -12.3046875 16.015625 C-11.23154297 14.61376953 -11.23154297 14.61376953 -10.13671875 13.18359375 C-9.39035156 12.21550781 -8.64398438 11.24742187 -7.875 10.25 C-6.74384766 8.77466797 -6.74384766 8.77466797 -5.58984375 7.26953125 C-3.72952593 4.84405359 -1.86615282 2.42098928 0 0 Z " fill="#ABB498" transform="translate(137,213)"/>
<path d="M0 0 C9.28314662 3.51199957 18.2444787 7.71758102 27.25 11.875 C37.77481923 16.73001898 48.31704622 21.50135126 59 26 C59 30.40797384 58.6299176 30.95956758 56.0078125 34.22265625 C55.38519531 35.00833984 54.76257813 35.79402344 54.12109375 36.60351562 C53.46238281 37.41498047 52.80367188 38.22644531 52.125 39.0625 C50.83527107 40.67785356 49.54618159 42.29371791 48.2578125 43.91015625 C47.6817627 44.62308838 47.10571289 45.33602051 46.51220703 46.07055664 C45.26764027 47.65851453 44.11914207 49.32128689 43 51 C38.04507567 50.42213279 33.93155827 48.82539652 29.4609375 46.71875 C28.74566391 46.38891113 28.03039032 46.05907227 27.29344177 45.71923828 C24.98418731 44.652729 22.67965428 43.57640852 20.375 42.5 C18.79422907 41.76809106 17.21309166 41.03697314 15.6315918 40.30664062 C12.51510155 38.86710202 9.39994196 37.42474443 6.28564453 35.98046875 C0.81279197 33.44645765 -4.68318815 30.96483438 -10.1875 28.5 C-11.41364014 27.94989258 -11.41364014 27.94989258 -12.66455078 27.38867188 C-14.44256397 26.59139919 -16.22118976 25.79549278 -18 25 C-15.10467354 19.60098543 -11.7645705 14.97237391 -7.875 10.25 C-6.80887071 8.94354421 -5.74372704 7.63628334 -4.6796875 6.328125 C-4.21288574 5.7599707 -3.74608398 5.19181641 -3.26513672 4.60644531 C-2.10067275 3.12783225 -1.04399719 1.56599578 0 0 Z " fill="#AAB498" transform="translate(223,154)"/>
<path d="M0 0 C4.25073211 3.77613581 7.14155568 8.4177147 10.25 13.125 C10.80429688 13.94871094 11.35859375 14.77242187 11.9296875 15.62109375 C12.71472656 16.80251953 12.71472656 16.80251953 13.515625 18.0078125 C13.99290039 18.72598145 14.47017578 19.44415039 14.96191406 20.18408203 C16 22 16 22 16 24 C3.52913318 30.06528213 -9.00213951 36.00746707 -21.60592651 41.79168701 C-22.99219349 42.4298954 -24.37658857 43.07218578 -25.75906372 43.71856689 C-27.71329221 44.63101215 -29.6738638 45.52816906 -31.63671875 46.421875 C-32.76811279 46.94362305 -33.89950684 47.46537109 -35.06518555 48.00292969 C-38 49 -38 49 -40.21362305 48.88867188 C-42.51961761 47.74150497 -43.47787193 46.47156187 -44.9453125 44.359375 C-45.46480469 43.61816406 -45.98429688 42.87695312 -46.51953125 42.11328125 C-47.04933594 41.33339844 -47.57914063 40.55351562 -48.125 39.75 C-48.66253906 38.98558594 -49.20007813 38.22117188 -49.75390625 37.43359375 C-52.33833824 33.70195753 -54.41070655 30.27477992 -56 26 C-44.5793111 20.14832011 -32.99899316 14.78174341 -21.25 9.625 C-18.83033166 8.55909021 -16.41115862 7.4920697 -13.99237061 6.42416382 C-12.50604233 5.76833985 -11.01913607 5.11382367 -9.53155518 4.46084595 C-6.31540604 3.04532384 -3.12080375 1.61659641 0 0 Z " fill="#AAB498" transform="translate(178,155)"/>
<path d="M0 0 C4.12771343 3.96062207 7.14221376 8.32775459 10.3125 13.0625 C10.87517578 13.87783203 11.43785156 14.69316406 12.01757812 15.53320312 C12.80745117 16.70979492 12.80745117 16.70979492 13.61328125 17.91015625 C14.33704956 18.97955444 14.33704956 18.97955444 15.07543945 20.07055664 C16 22 16 22 15 25 C12.80280343 26.22456735 10.68465377 27.25844386 8.38671875 28.2578125 C7.70903442 28.56262543 7.0313501 28.86743835 6.33312988 29.18148804 C4.1223713 30.17299217 1.90528931 31.14933591 -0.3125 32.125 C-1.82484246 32.7979758 -3.33680513 33.47180569 -4.84838867 34.14648438 C-7.10946382 35.15501821 -9.37103785 36.16230751 -11.63471985 37.16497803 C-15.94427713 39.07449936 -20.23193269 41.0222673 -24.5 43.0234375 C-25.41612061 43.44995605 -26.33224121 43.87647461 -27.27612305 44.31591797 C-28.92461647 45.08550052 -30.56955397 45.86276306 -32.21020508 46.64892578 C-37.39963867 49.04208583 -37.39963867 49.04208583 -40.00952148 48.85913086 C-42.76549185 47.66959821 -43.75603754 46.05794957 -45.453125 43.59765625 C-46.071875 42.70755859 -46.690625 41.81746094 -47.328125 40.90039062 C-47.96234375 39.96388672 -48.5965625 39.02738281 -49.25 38.0625 C-49.8996875 37.12986328 -50.549375 36.19722656 -51.21875 35.23632812 C-56 28.29045759 -56 28.29045759 -56 26 C-37.49020052 16.97192989 -18.79952125 8.403654 0 0 Z " fill="#AAB498" transform="translate(264,214)"/>
<path d="M0 0 C1.20774834 -0.0076664 1.20774834 -0.0076664 2.43989563 -0.01548767 C5.10388603 -0.02939868 7.7676182 -0.02842597 10.43164062 -0.02612305 C12.28104753 -0.03000878 14.13045355 -0.03434319 15.9798584 -0.03910828 C19.85688164 -0.04657346 23.73381382 -0.04627678 27.61083984 -0.04101562 C32.5844925 -0.03521657 37.5577733 -0.05216102 42.53136444 -0.0753603 C46.35058784 -0.09007499 50.16972117 -0.09097251 53.9889679 -0.08785057 C55.82303098 -0.08836479 57.65709897 -0.09362138 59.49113464 -0.10366249 C62.05293123 -0.11596767 64.6139968 -0.10927152 67.17578125 -0.09765625 C67.93639359 -0.10529999 68.69700592 -0.11294373 69.48066711 -0.12081909 C74.56756301 -0.06971202 74.56756301 -0.06971202 77.05895996 1.57917786 C78.81280109 4.46917158 78.43851293 7.00218338 78.08789062 10.2746582 C77.06469727 11.96815491 77.06469727 11.96815491 75.08789062 13.2746582 C72.34505073 13.57592806 69.82818556 13.69475512 67.08398438 13.67871094 C65.86160568 13.68900581 65.86160568 13.68900581 64.61453247 13.69950867 C61.91797517 13.71782608 59.22199685 13.71393259 56.52539062 13.70825195 C54.65356252 13.71281107 52.78173609 13.71811584 50.90991211 13.72413635 C46.98577069 13.73307692 43.06183269 13.73063322 39.13769531 13.72070312 C34.1033887 13.70920649 29.06978277 13.72943067 24.03556824 13.75862026 C20.16999842 13.77694531 16.3045977 13.77669731 12.43899536 13.77098274 C10.58260108 13.7708291 8.72619563 13.77690836 6.86984253 13.78927422 C4.27671017 13.8041147 1.68488759 13.7935596 -0.90820312 13.77636719 C-1.6781662 13.78603516 -2.44812927 13.79570312 -3.24142456 13.80566406 C-6.53740285 13.75979067 -8.41673959 13.71988497 -10.92016602 11.46986389 C-12.42947436 8.12971121 -11.81359852 5.75183062 -10.91210938 2.2746582 C-7.18805152 -0.20804703 -4.31033915 -0.01403936 0 0 Z " fill="#808A6C" transform="translate(19.912109375,191.725341796875)"/>
<path d="M0 0 C5.625 5.625 5.625 5.625 7.45703125 8.55078125 C7.84697266 9.16630859 8.23691406 9.78183594 8.63867188 10.41601562 C9.02603516 11.04185547 9.41339844 11.66769531 9.8125 12.3125 C10.21919922 12.95767578 10.62589844 13.60285156 11.04492188 14.26757812 C12.0358257 15.84136655 13.01875372 17.42017212 14 19 C19.54420756 18.46810498 23.82280437 17.00206451 28.83203125 14.62109375 C29.54985275 14.28956802 30.26767426 13.9580423 31.00724792 13.61647034 C33.27977438 12.56540383 35.54635017 11.50223607 37.8125 10.4375 C40.0973267 9.37111942 42.38331832 8.30739024 44.67131042 7.24781799 C46.09011388 6.59005147 47.50694979 5.92802087 48.92158508 5.26133728 C53.77744843 3 53.77744843 3 56 3 C56 7.62 56 12.24 56 17 C46.5334139 21.79855842 37.00292492 26.38504461 27.33911133 30.77197266 C25.16961577 31.75812938 23.0037333 32.75194444 20.83789062 33.74609375 C19.42729492 34.38848565 18.01649482 35.03042895 16.60546875 35.671875 C15.65827217 36.10787018 15.65827217 36.10787018 14.69194031 36.55267334 C9.83346966 38.74548901 5.13002103 40.28999299 0 42 C0 28.14 0 14.28 0 0 Z " fill="#ABB598" transform="translate(206,251)"/>
<path d="M0 0 C0.33 0 0.66 0 1 0 C1 14.19 1 28.38 1 43 C-3.60261964 42.07947607 -7.31582695 40.64694347 -11.51171875 38.68359375 C-12.23383041 38.35106598 -12.95594208 38.01853821 -13.69993591 37.67593384 C-16.03137502 36.6012562 -18.3594143 35.51942015 -20.6875 34.4375 C-23.07021923 33.33688104 -25.45378126 32.23810393 -27.83746338 31.13957214 C-29.4010028 30.41896846 -30.9642781 29.69779139 -32.52728271 28.97602844 C-39.08242067 25.95176982 -45.66877708 23.00263453 -52.2878418 20.12084961 C-56.89966276 18.10033724 -56.89966276 18.10033724 -58 17 C-58.07244053 14.98035801 -58.08377188 12.95832876 -58.0625 10.9375 C-58.05347656 9.83277344 -58.04445312 8.72804688 -58.03515625 7.58984375 C-58.02355469 6.73519531 -58.01195312 5.88054687 -58 5 C-49.20083753 7.63784416 -41.08771157 11.61533494 -32.84570312 15.6105957 C-30.99999818 16.50273404 -29.14892741 17.38285085 -27.296875 18.26171875 C-26.20729492 18.78725342 -25.11771484 19.31278809 -23.99511719 19.85424805 C-20.97601457 21.00917538 -19.17765256 21.56148877 -16 21 C-14.07333722 19.41360899 -14.07333722 19.41360899 -12.51953125 17.16796875 C-11.91302734 16.36939453 -11.30652344 15.57082031 -10.68164062 14.74804688 C-10.06482422 13.90306641 -9.44800781 13.05808594 -8.8125 12.1875 C-8.18408203 11.35412109 -7.55566406 10.52074219 -6.90820312 9.66210938 C-4.52414103 6.48760959 -2.20247714 3.30371571 0 0 Z " fill="#ABB598" transform="translate(198,250)"/>
<path d="M0 0 C1.63684753 -0.01418472 1.63684753 -0.01418472 3.3067627 -0.02865601 C5.07400696 -0.01954697 5.07400696 -0.01954697 6.87695312 -0.01025391 C8.69108704 -0.01455917 8.69108704 -0.01455917 10.54187012 -0.01895142 C13.10067208 -0.02099426 15.65948957 -0.01544908 18.21826172 -0.00292969 C22.14260667 0.01311981 26.06592159 -0.00277203 29.99023438 -0.02197266 C32.47330957 -0.01999026 34.95638413 -0.01614668 37.43945312 -0.01025391 C38.61761597 -0.0163266 39.79577881 -0.02239929 41.00964355 -0.02865601 C42.10087524 -0.01919952 43.19210693 -0.00974304 44.31640625 0 C45.27776489 0.00238678 46.23912354 0.00477356 47.22961426 0.00723267 C49.65820312 0.38818359 49.65820312 0.38818359 51.46862793 1.69369507 C53.4605818 4.53113064 53.01594099 7.0492969 52.65820312 10.38818359 C51.46862793 12.08267212 51.46862793 12.08267212 49.65820312 13.38818359 C47.22961426 13.76913452 47.22961426 13.76913452 44.31640625 13.77636719 C42.67955872 13.79055191 42.67955872 13.79055191 41.00964355 13.80502319 C39.83148071 13.7989505 38.65331787 13.79287781 37.43945312 13.78662109 C35.62531921 13.79092636 35.62531921 13.79092636 33.77453613 13.7953186 C31.21573417 13.79736145 28.65691668 13.79181627 26.09814453 13.77929688 C22.17379958 13.76324738 18.25048466 13.77913922 14.32617188 13.79833984 C11.84309668 13.79635745 9.36002212 13.79251386 6.87695312 13.78662109 C5.10970886 13.79573013 5.10970886 13.79573013 3.3067627 13.80502319 C2.21553101 13.79556671 1.12429932 13.78611023 0 13.77636719 C-0.96135864 13.77398041 -1.92271729 13.77159363 -2.91320801 13.76913452 C-5.34179688 13.38818359 -5.34179688 13.38818359 -7.15222168 12.08267212 C-9.14417555 9.24523654 -8.69953474 6.72707029 -8.34179688 3.38818359 C-6.00785762 0.06360747 -3.91685869 0.00972444 0 0 Z " fill="#808A6C" transform="translate(45.341796875,229.61181640625)"/>
<path d="M0 0 C1.19496094 -0.00064453 2.38992187 -0.00128906 3.62109375 -0.00195312 C4.87019531 0.01802734 6.11929688 0.03800781 7.40625 0.05859375 C8.65535156 0.05150391 9.90445313 0.04441406 11.19140625 0.03710938 C20.36058187 0.10140241 20.36058187 0.10140241 22.76367188 1.83959961 C24.55887248 4.4422569 24.28263339 6.42229608 23.90625 9.49609375 C22.75 11.65649414 22.75 11.65649414 20.90625 13.49609375 C18.2265625 13.99780273 18.2265625 13.99780273 15.03125 13.9921875 C13.88140625 13.99283203 12.7315625 13.99347656 11.546875 13.99414062 C9.74476562 13.96416992 9.74476562 13.96416992 7.90625 13.93359375 C6.10414062 13.94422852 6.10414062 13.94422852 4.265625 13.95507812 C-4.56131782 13.89075623 -4.56131782 13.89075623 -6.90625 12.15258789 C-8.71322369 9.63196361 -8.9684477 7.56600004 -9.09375 4.49609375 C-6.8474865 0.12940094 -4.71902314 -0.00797601 0 0 Z " fill="#808A6C" transform="translate(74.09375,267.50390625)"/>
</svg>
