<?xml version="1.0" encoding="UTF-8"?>
<svg version="1.1" xmlns="http://www.w3.org/2000/svg" width="500" height="500">
<path d="M0 0 C165 0 330 0 500 0 C500 165 500 330 500 500 C335 500 170 500 0 500 C0 335 0 170 0 0 Z " fill="#FEFEFE" transform="translate(0,0)"/>
<path d="M0 0 C3.60847571 2.09379409 4.00001228 4.21479189 5.31762695 8.13476562 C5.81045215 9.54726198 6.3034621 10.95969388 6.79663086 12.37207031 C7.05051575 13.12178101 7.30440063 13.8714917 7.565979 14.6439209 C13.68841133 32.63171079 21.38378866 49.63316382 29.71020508 66.68652344 C31.40073626 70.15823621 33.03712025 73.65310689 34.6574707 77.15820312 C44.23260561 97.81450676 55.88790248 115.8702105 71.5480957 132.47851562 C72.53422852 131.61226562 73.52036133 130.74601563 74.53637695 129.85351562 C83.80964969 121.91497921 95.65283678 111.8991232 107.5480957 108.47851562 C110.46266662 109.38595929 111.37422554 110.16188379 112.85668945 112.86157227 C113.22922852 113.83989014 113.60176758 114.81820801 113.9855957 115.82617188 C114.4084082 116.91043457 114.8312207 117.99469727 115.2668457 119.11181641 C115.6896582 120.22282715 116.1124707 121.33383789 116.5480957 122.47851562 C117.3575401 124.47845297 118.17001887 126.477165 118.9855957 128.47460938 C126.48939141 147.24652941 133.25345372 166.25066469 139.8223877 185.36712646 C140.51363266 187.37824817 141.20694136 189.38864757 141.90063477 191.39892578 C143.06275625 194.77671048 144.2148 198.15766304 145.3605957 201.54101562 C145.85789185 202.99362793 145.85789185 202.99362793 146.36523438 204.47558594 C146.65889893 205.3544043 146.95256348 206.23322266 147.25512695 207.13867188 C147.5075415 207.88769775 147.75995605 208.63672363 148.02001953 209.40844727 C148.5480957 211.47851562 148.5480957 211.47851562 148.5480957 215.47851562 C149.2080957 215.47851562 149.8680957 215.47851562 150.5480957 215.47851562 C151.2080957 214.15851563 151.8680957 212.83851563 152.5480957 211.47851562 C154.3684082 211.67333984 154.3684082 211.67333984 156.5480957 212.47851562 C158.0402832 214.59228516 158.0402832 214.59228516 159.4230957 217.36132812 C159.93356445 218.36421875 160.4440332 219.36710938 160.9699707 220.40039062 C161.49075195 221.45742188 162.0115332 222.51445312 162.5480957 223.60351562 C163.58865405 225.66917847 164.6302962 227.73429577 165.6730957 229.79882812 C166.16269775 230.77932129 166.6522998 231.75981445 167.15673828 232.77001953 C168.34807812 235.08914993 169.60249845 237.33257385 170.93481445 239.57226562 C172.5480957 242.47851562 172.5480957 242.47851562 172.3605957 244.85351562 C171.5480957 246.47851563 171.5480957 246.47851563 170.5480957 247.47851562 C168.54851207 247.51932345 166.54764316 247.52105919 164.5480957 247.47851562 C165.0534082 248.64769531 165.5587207 249.816875 166.0793457 251.02148438 C166.73606388 252.56946292 167.39228801 254.11765113 168.0480957 255.66601562 C168.38196289 256.43494141 168.71583008 257.20386719 169.05981445 257.99609375 C172.13216855 265.30077236 172.13216855 265.30077236 171.5480957 269.47851562 C170.5480957 270.47851562 170.5480957 270.47851562 167.9855957 270.54101562 C167.1812207 270.52039063 166.3768457 270.49976563 165.5480957 270.47851562 C166.94142144 273.8457195 168.52702431 275.46446803 171.5480957 277.47851562 C171.2180957 278.79851562 170.8880957 280.11851562 170.5480957 281.47851562 C166.31855249 280.91416137 162.87001953 279.91967517 158.99731445 278.14257812 C157.92239746 277.66046875 156.84748047 277.17835938 155.73999023 276.68164062 C154.58354004 276.16085937 153.42708984 275.64007813 152.2355957 275.10351562 C141.39670472 270.30775888 130.43018562 266.18342964 119.1730957 262.47851562 C118.49266205 262.25367493 117.81222839 262.02883423 117.11117554 261.79718018 C103.10089965 257.18678277 89.11670021 253.16210282 74.6105957 250.41601562 C73.9410083 250.28811646 73.2714209 250.16021729 72.58154297 250.02844238 C61.16905205 247.85576021 49.74526773 246.02751706 38.19311523 244.77099609 C35.67085559 244.49209014 33.15541257 244.17619773 30.63793945 243.85742188 C0.45224858 240.35640645 -31.4295528 240.99593583 -61.4519043 245.47851562 C-62.67796387 245.65012207 -63.90402344 245.82172852 -65.16723633 245.99853516 C-116.20705694 253.18172711 -170.65235248 269.22748665 -213.98974609 297.97705078 C-217.96033612 300.53393753 -217.96033612 300.53393753 -220.8425293 300.20898438 C-221.37362305 299.96792969 -221.9047168 299.726875 -222.4519043 299.47851562 C-222.45581055 297.27929688 -222.45581055 297.27929688 -221.4519043 294.47851562 C-218.96253033 292.5022246 -216.2097619 291.11456009 -213.3894043 289.66601562 C-210.7700293 288.28414063 -208.1506543 286.90226562 -205.4519043 285.47851562 C-212.3819043 285.14851563 -219.3119043 284.81851562 -226.4519043 284.47851562 C-227.59635668 278.75625372 -226.48858011 276.94376642 -223.6394043 272.29101562 C-222.81032026 270.88142302 -221.98223577 269.47124214 -221.1550293 268.06054688 C-220.71610352 267.32143066 -220.27717773 266.58231445 -219.82495117 265.82080078 C-217.43790951 261.74873861 -215.16973188 257.61096542 -212.8894043 253.47851562 C-212.03424883 251.93667516 -211.1788078 250.39499302 -210.32299805 248.85351562 C-209.70553711 247.73976563 -209.08807617 246.62601563 -208.4519043 245.47851562 C-212.0819043 245.14851562 -215.7119043 244.81851563 -219.4519043 244.47851562 C-219.31884964 238.35800147 -217.04599762 235.21881766 -213.44018555 230.38867188 C-209.82247422 225.09359342 -207.19378821 219.26230722 -204.4519043 213.47851562 C-205.22276367 213.49011719 -205.99362305 213.50171875 -206.7878418 213.51367188 C-207.79073242 213.52269531 -208.79362305 213.53171875 -209.8269043 213.54101562 C-210.82463867 213.55261719 -211.82237305 213.56421875 -212.8503418 213.57617188 C-215.4519043 213.47851562 -215.4519043 213.47851562 -217.4519043 212.47851562 C-217.72143555 210.22851562 -217.72143555 210.22851562 -217.4519043 207.47851562 C-215.65112305 205.47851562 -215.65112305 205.47851562 -213.1394043 203.47851562 C-198.68831927 191.13275133 -189.59315819 175.44794172 -181.4519043 158.47851562 C-179.28316178 158.98455555 -177.45222803 159.47835376 -175.4519043 160.47851562 C-175.19248047 159.77251221 -174.93305664 159.06650879 -174.66577148 158.33911133 C-173.35861005 155.25865868 -171.7855638 152.55768773 -170.0300293 149.70898438 C-169.34126709 148.58500244 -168.65250488 147.46102051 -167.94287109 146.30297852 C-167.57769379 145.71050323 -167.21251648 145.11802795 -166.83627319 144.50759888 C-164.89776471 141.36054084 -162.97353131 138.20478828 -161.04956055 135.04882812 C-160.65964432 134.40951859 -160.26972809 133.77020905 -159.86799622 133.11152649 C-153.90955681 123.32388894 -148.17170895 113.40694119 -142.4519043 103.47851562 C-141.92226074 102.5595752 -141.39261719 101.64063477 -140.84692383 100.69384766 C-135.53998691 91.47359876 -130.29292236 82.22289481 -125.1394043 72.91601562 C-124.32836902 71.45759183 -123.51717687 69.99925527 -122.70581055 68.54101562 C-121.26126977 65.94463881 -119.83347603 63.34015007 -118.41674805 60.72851562 C-117.80959961 59.63539063 -117.20245117 58.54226562 -116.5769043 57.41601562 C-115.80733398 56.00642578 -115.80733398 56.00642578 -115.0222168 54.56835938 C-113.18915561 52.12883765 -112.34081353 52.03960929 -109.4519043 51.47851562 C-104.48640415 59.34942245 -100.29949452 67.54228031 -96.2644043 75.91601562 C-95.94196747 76.58150421 -95.61953064 77.2469928 -95.287323 77.93264771 C-88.71165597 91.53663025 -82.92327766 105.39418629 -77.4519043 119.47851562 C-72.40734451 115.52030702 -68.61124305 111.44108844 -65.0769043 106.10351562 C-64.61501709 105.4188623 -64.15312988 104.73420898 -63.67724609 104.02880859 C-55.00248351 92.44514338 -55.00248351 92.44514338 -50.4519043 79.47851562 C-51.6689745 78.43868866 -52.92688512 77.4464134 -54.2019043 76.47851562 C-58.90918517 72.50440416 -60.72696245 68.29653981 -62.4519043 62.47851562 C-62.74000977 61.51558594 -62.74000977 61.51558594 -63.03393555 60.53320312 C-65.3540572 49.12774527 -62.20440443 39.3686396 -56.1862793 29.77539062 C-52.00194625 24.23397659 -46.05455624 20.49288401 -39.4519043 18.47851562 C-31.5892551 17.49568448 -25.51533589 19.04639268 -18.4519043 22.47851562 C-18.19022461 21.76566406 -17.92854492 21.0528125 -17.65893555 20.31835938 C-15.17604371 14.4767336 -7.66223247 -1.62964538 0 0 Z " fill="#C4C78C" transform="translate(277.451904296875,101.521484375)"/>
<path d="M0 0 C3.60847571 2.09379409 4.00001228 4.21479189 5.31762695 8.13476562 C5.81045215 9.54726198 6.3034621 10.95969388 6.79663086 12.37207031 C7.05051575 13.12178101 7.30440063 13.8714917 7.565979 14.6439209 C13.68841133 32.63171079 21.38378866 49.63316382 29.71020508 66.68652344 C31.40073626 70.15823621 33.03712025 73.65310689 34.6574707 77.15820312 C44.23260561 97.81450676 55.88790248 115.8702105 71.5480957 132.47851562 C72.53422852 131.61226562 73.52036133 130.74601563 74.53637695 129.85351562 C83.80964969 121.91497921 95.65283678 111.8991232 107.5480957 108.47851562 C110.46266662 109.38595929 111.37422554 110.16188379 112.85668945 112.86157227 C113.22922852 113.83989014 113.60176758 114.81820801 113.9855957 115.82617188 C114.4084082 116.91043457 114.8312207 117.99469727 115.2668457 119.11181641 C115.6896582 120.22282715 116.1124707 121.33383789 116.5480957 122.47851562 C117.3575401 124.47845297 118.17001887 126.477165 118.9855957 128.47460938 C126.48939141 147.24652941 133.25345372 166.25066469 139.8223877 185.36712646 C140.51363266 187.37824817 141.20694136 189.38864757 141.90063477 191.39892578 C143.06275625 194.77671048 144.2148 198.15766304 145.3605957 201.54101562 C145.85789185 202.99362793 145.85789185 202.99362793 146.36523438 204.47558594 C146.65889893 205.3544043 146.95256348 206.23322266 147.25512695 207.13867188 C147.5075415 207.88769775 147.75995605 208.63672363 148.02001953 209.40844727 C148.5480957 211.47851562 148.5480957 211.47851562 148.5480957 215.47851562 C149.2080957 215.47851562 149.8680957 215.47851562 150.5480957 215.47851562 C151.2080957 214.15851563 151.8680957 212.83851563 152.5480957 211.47851562 C154.3684082 211.67333984 154.3684082 211.67333984 156.5480957 212.47851562 C158.0402832 214.59228516 158.0402832 214.59228516 159.4230957 217.36132812 C159.93356445 218.36421875 160.4440332 219.36710938 160.9699707 220.40039062 C161.49075195 221.45742188 162.0115332 222.51445312 162.5480957 223.60351562 C163.58865405 225.66917847 164.6302962 227.73429577 165.6730957 229.79882812 C166.16269775 230.77932129 166.6522998 231.75981445 167.15673828 232.77001953 C168.34807812 235.08914993 169.60249845 237.33257385 170.93481445 239.57226562 C172.5480957 242.47851562 172.5480957 242.47851562 172.3605957 244.85351562 C171.5480957 246.47851563 171.5480957 246.47851563 170.5480957 247.47851562 C168.54851207 247.51932345 166.54764316 247.52105919 164.5480957 247.47851562 C165.0534082 248.64769531 165.5587207 249.816875 166.0793457 251.02148438 C166.73606388 252.56946292 167.39228801 254.11765113 168.0480957 255.66601562 C168.38196289 256.43494141 168.71583008 257.20386719 169.05981445 257.99609375 C172.13216855 265.30077236 172.13216855 265.30077236 171.5480957 269.47851562 C170.5480957 270.47851562 170.5480957 270.47851562 167.9855957 270.54101562 C167.1812207 270.52039063 166.3768457 270.49976563 165.5480957 270.47851562 C166.94142144 273.8457195 168.52702431 275.46446803 171.5480957 277.47851562 C171.2180957 278.79851562 170.8880957 280.11851562 170.5480957 281.47851562 C166.31855249 280.91416137 162.87001953 279.91967517 158.99731445 278.14257812 C157.92239746 277.66046875 156.84748047 277.17835938 155.73999023 276.68164062 C154.58354004 276.16085937 153.42708984 275.64007813 152.2355957 275.10351562 C141.39670472 270.30775888 130.43018562 266.18342964 119.1730957 262.47851562 C118.49266205 262.25367493 117.81222839 262.02883423 117.11117554 261.79718018 C103.10089965 257.18678277 89.11670021 253.16210282 74.6105957 250.41601562 C73.9410083 250.28811646 73.2714209 250.16021729 72.58154297 250.02844238 C61.16905205 247.85576021 49.74526773 246.02751706 38.19311523 244.77099609 C35.67085559 244.49209014 33.15541257 244.17619773 30.63793945 243.85742188 C0.45224858 240.35640645 -31.4295528 240.99593583 -61.4519043 245.47851562 C-62.67796387 245.65012207 -63.90402344 245.82172852 -65.16723633 245.99853516 C-116.20705694 253.18172711 -170.65235248 269.22748665 -213.98974609 297.97705078 C-217.96033612 300.53393753 -217.96033612 300.53393753 -220.8425293 300.20898438 C-221.37362305 299.96792969 -221.9047168 299.726875 -222.4519043 299.47851562 C-222.45581055 297.27929688 -222.45581055 297.27929688 -221.4519043 294.47851562 C-218.96253033 292.5022246 -216.2097619 291.11456009 -213.3894043 289.66601562 C-210.7700293 288.28414063 -208.1506543 286.90226562 -205.4519043 285.47851562 C-212.3819043 285.14851563 -219.3119043 284.81851562 -226.4519043 284.47851562 C-227.59635668 278.75625372 -226.48858011 276.94376642 -223.6394043 272.29101562 C-222.81032026 270.88142302 -221.98223577 269.47124214 -221.1550293 268.06054688 C-220.71610352 267.32143066 -220.27717773 266.58231445 -219.82495117 265.82080078 C-217.43790951 261.74873861 -215.16973188 257.61096542 -212.8894043 253.47851562 C-212.03424883 251.93667516 -211.1788078 250.39499302 -210.32299805 248.85351562 C-209.70553711 247.73976563 -209.08807617 246.62601563 -208.4519043 245.47851562 C-212.0819043 245.14851562 -215.7119043 244.81851563 -219.4519043 244.47851562 C-219.31884964 238.35800147 -217.04599762 235.21881766 -213.44018555 230.38867188 C-209.82247422 225.09359342 -207.19378821 219.26230722 -204.4519043 213.47851562 C-205.22276367 213.49011719 -205.99362305 213.50171875 -206.7878418 213.51367188 C-207.79073242 213.52269531 -208.79362305 213.53171875 -209.8269043 213.54101562 C-210.82463867 213.55261719 -211.82237305 213.56421875 -212.8503418 213.57617188 C-215.4519043 213.47851562 -215.4519043 213.47851562 -217.4519043 212.47851562 C-217.72143555 210.22851562 -217.72143555 210.22851562 -217.4519043 207.47851562 C-215.65112305 205.47851562 -215.65112305 205.47851562 -213.1394043 203.47851562 C-198.68831927 191.13275133 -189.59315819 175.44794172 -181.4519043 158.47851562 C-179.28316178 158.98455555 -177.45222803 159.47835376 -175.4519043 160.47851562 C-175.19248047 159.77251221 -174.93305664 159.06650879 -174.66577148 158.33911133 C-173.35861005 155.25865868 -171.7855638 152.55768773 -170.0300293 149.70898438 C-169.34126709 148.58500244 -168.65250488 147.46102051 -167.94287109 146.30297852 C-167.57769379 145.71050323 -167.21251648 145.11802795 -166.83627319 144.50759888 C-164.89776471 141.36054084 -162.97353131 138.20478828 -161.04956055 135.04882812 C-160.65964432 134.40951859 -160.26972809 133.77020905 -159.86799622 133.11152649 C-153.90955681 123.32388894 -148.17170895 113.40694119 -142.4519043 103.47851562 C-141.92226074 102.5595752 -141.39261719 101.64063477 -140.84692383 100.69384766 C-135.53998691 91.47359876 -130.29292236 82.22289481 -125.1394043 72.91601562 C-124.32836902 71.45759183 -123.51717687 69.99925527 -122.70581055 68.54101562 C-121.26126977 65.94463881 -119.83347603 63.34015007 -118.41674805 60.72851562 C-117.80959961 59.63539063 -117.20245117 58.54226562 -116.5769043 57.41601562 C-115.80733398 56.00642578 -115.80733398 56.00642578 -115.0222168 54.56835938 C-113.18915561 52.12883765 -112.34081353 52.03960929 -109.4519043 51.47851562 C-104.48640415 59.34942245 -100.29949452 67.54228031 -96.2644043 75.91601562 C-95.94196747 76.58150421 -95.61953064 77.2469928 -95.287323 77.93264771 C-88.71165597 91.53663025 -82.92327766 105.39418629 -77.4519043 119.47851562 C-72.40734451 115.52030702 -68.61124305 111.44108844 -65.0769043 106.10351562 C-64.61501709 105.4188623 -64.15312988 104.73420898 -63.67724609 104.02880859 C-55.00248351 92.44514338 -55.00248351 92.44514338 -50.4519043 79.47851562 C-51.6689745 78.43868866 -52.92688512 77.4464134 -54.2019043 76.47851562 C-58.90918517 72.50440416 -60.72696245 68.29653981 -62.4519043 62.47851562 C-62.74000977 61.51558594 -62.74000977 61.51558594 -63.03393555 60.53320312 C-65.3540572 49.12774527 -62.20440443 39.3686396 -56.1862793 29.77539062 C-52.00194625 24.23397659 -46.05455624 20.49288401 -39.4519043 18.47851562 C-31.5892551 17.49568448 -25.51533589 19.04639268 -18.4519043 22.47851562 C-18.19022461 21.76566406 -17.92854492 21.0528125 -17.65893555 20.31835938 C-15.17604371 14.4767336 -7.66223247 -1.62964538 0 0 Z M-23.4519043 42.47851562 C-27.38049601 48.48033552 -30.50907749 54.59835672 -33.5144043 61.10351562 C-54.2842705 105.21502629 -54.2842705 105.21502629 -70.4519043 121.47851562 C-70.98041992 122.02121094 -71.50893555 122.56390625 -72.0534668 123.12304688 C-73.1709423 124.25685974 -74.30904766 125.370291 -75.4519043 126.47851562 C-76.1119043 127.13851562 -76.7719043 127.79851562 -77.4519043 128.47851562 C-78.4419043 128.47851562 -79.4319043 128.47851562 -80.4519043 128.47851562 C-80.74436035 127.73166504 -81.03681641 126.98481445 -81.33813477 126.21533203 C-82.662337 122.84258211 -83.99451154 119.47303781 -85.3269043 116.10351562 C-85.78709961 114.92789063 -86.24729492 113.75226563 -86.72143555 112.54101562 C-87.16616211 111.41953125 -87.61088867 110.29804688 -88.0690918 109.14257812 C-88.47756348 108.10568848 -88.88603516 107.06879883 -89.30688477 106.00048828 C-90.32036896 103.37569547 -90.32036896 103.37569547 -92.4519043 101.47851562 C-93.5037793 102.25195312 -93.5037793 102.25195312 -94.5769043 103.04101562 C-97.4519043 104.47851562 -97.4519043 104.47851562 -100.5144043 104.47851562 C-104.28364652 103.19536934 -105.33924311 101.82963337 -107.4519043 98.47851562 C-108.56457454 96.17199319 -109.5154236 93.86654141 -110.4519043 91.47851562 C-113.99709314 92.87611468 -113.99709314 92.87611468 -117.4519043 94.47851562 C-121.81985448 94.72117952 -124.64346182 94.6008415 -128.4519043 92.47851562 C-128.80792725 93.09033691 -129.1639502 93.7021582 -129.53076172 94.33251953 C-140.56617935 113.29021283 -151.62220907 132.23233663 -163.0144043 150.97851562 C-163.59834961 151.94023682 -164.18229492 152.90195801 -164.78393555 153.89282227 C-165.3356543 154.79766357 -165.88737305 155.70250488 -166.45581055 156.63476562 C-166.97030762 157.48167969 -167.48480469 158.32859375 -168.01489258 159.20117188 C-169.24337481 161.14804279 -170.54487382 162.97666333 -171.91674805 164.82226562 C-173.6573468 167.31110411 -173.6573468 167.31110411 -173.4206543 169.86132812 C-172.09527693 173.44198472 -170.59230161 176.90883772 -168.9519043 180.35351562 C-168.60240723 181.09077881 -168.25291016 181.82804199 -167.89282227 182.58764648 C-165.33867986 187.87030823 -162.56870527 192.99388165 -159.5769043 198.04101562 C-159.19598633 198.68989746 -158.81506836 199.3387793 -158.42260742 200.00732422 C-157.49236201 201.53588276 -156.47961455 203.01370869 -155.4519043 204.47851562 C-154.7919043 204.47851562 -154.1319043 204.47851562 -153.4519043 204.47851562 C-151.80954622 202.15540317 -150.30360886 199.84230785 -148.8269043 197.41601562 C-148.38540039 196.69953857 -147.94389648 195.98306152 -147.48901367 195.24487305 C-142.27699505 186.6928504 -136.99018405 177.87264837 -133.4519043 168.47851562 C-132.1319043 168.47851562 -130.8119043 168.47851562 -129.4519043 168.47851562 C-128.99041992 169.65285156 -128.52893555 170.8271875 -128.0534668 172.03710938 C-122.1988771 186.61032784 -115.15812177 200.12553858 -105.53393555 212.59570312 C-105.17686523 213.21703125 -104.81979492 213.83835937 -104.4519043 214.47851562 C-104.7819043 215.46851563 -105.1119043 216.45851563 -105.4519043 217.47851562 C-108.0919043 217.80851563 -110.7319043 218.13851562 -113.4519043 218.47851562 C-112.43888161 221.93967647 -111.2447904 224.96444812 -109.3894043 228.04101562 C-107.4519043 231.47851562 -107.4519043 231.47851562 -106.4519043 236.47851562 C-110.0819043 236.47851562 -113.7119043 236.47851562 -117.4519043 236.47851562 C-116.46619017 241.40708626 -115.71057117 243.62287175 -112.4362793 247.21679688 C-109.7675125 248.91367025 -108.41325683 248.65210141 -105.3269043 248.10351562 C-104.37557617 247.83925781 -103.42424805 247.575 -102.4440918 247.30273438 C-99.4519043 246.47851562 -99.4519043 246.47851562 -96.4597168 246.24804688 C-92.33228602 245.7924214 -89.0171964 245.10739772 -86.0456543 242.01513672 C-82.88744777 237.93840351 -80.3579917 233.49038189 -77.85375977 228.9921875 C-76.44648692 226.46880171 -74.9899952 223.98042884 -73.51831055 221.49414062 C-63.78870085 204.93222509 -54.77589786 187.90445971 -46.77319336 170.44042969 C-44.53938051 165.56599184 -44.53938051 165.56599184 -43.4519043 164.47851562 C-41.43862875 164.31776705 -39.41977721 164.22656013 -37.40112305 164.16210938 C-36.09860596 164.11989258 -34.79608887 164.07767578 -33.45410156 164.03417969 C-32.01589066 163.99401346 -30.57765727 163.95464585 -29.1394043 163.91601562 C-28.41792206 163.89583374 -27.69643982 163.87565186 -26.95309448 163.8548584 C-15.6118219 163.54369869 -4.26736858 163.32460353 7.07797241 163.24734497 C8.68269424 163.23479489 10.28738494 163.21727982 11.89199829 163.1947937 C14.14083947 163.16516028 16.38892618 163.15504799 18.63793945 163.15039062 C19.92563232 163.14104492 21.2133252 163.13169922 22.54003906 163.12207031 C23.53269775 163.23969727 24.52535645 163.35732422 25.5480957 163.47851562 C27.56537387 166.50443288 27.99348851 168.03800139 28.59106445 171.53710938 C28.77386963 172.55297119 28.9566748 173.56883301 29.14501953 174.61547852 C29.33990967 175.70465576 29.5347998 176.79383301 29.7355957 177.91601562 C33.64722633 198.4421166 40.76684166 227.50470409 59.13671875 240.1418457 C61.76996882 241.60150391 64.10077436 242.29015047 67.02856445 242.97851562 C68.61991211 243.35520386 68.61991211 243.35520386 70.2434082 243.73950195 C74.46769408 244.68416163 78.70027107 245.58354848 82.93701172 246.47045898 C94.83704287 248.97976168 106.34452611 252.08639743 117.85351562 256.02612305 C118.83682861 256.35974854 119.8201416 256.69337402 120.83325195 257.03710938 C121.69829346 257.33931396 122.56333496 257.64151855 123.45458984 257.95288086 C125.58778655 258.73015424 125.58778655 258.73015424 127.5480957 257.47851562 C127.2180957 256.15851563 126.8880957 254.83851563 126.5480957 253.47851562 C127.39114258 252.87523437 128.23418945 252.27195312 129.1027832 251.65039062 C130.20986926 250.8435313 131.31662277 250.03621555 132.4230957 249.22851562 C132.97868164 248.83277344 133.53426758 248.43703125 134.10668945 248.02929688 C137.1240354 245.81172938 139.25458361 244.04795405 140.5480957 240.47851562 C137.9080957 240.14851562 135.2680957 239.81851563 132.5480957 239.47851562 C132.84418065 235.14632537 134.39884688 233.39187809 137.5949707 230.56835938 C138.64396478 229.67775302 139.70396044 228.79993946 140.7746582 227.93554688 C142.55384424 226.43014222 142.55384424 226.43014222 144.5480957 223.47851562 C144.94178505 214.72787523 140.98385399 206.04840082 138.1730957 197.85351562 C137.6342627 196.26229587 137.09593943 194.67090342 136.55810547 193.0793457 C132.94277317 182.41557362 129.24003447 171.78155791 125.4855957 161.16601562 C125.25648499 160.51743591 125.02737427 159.8688562 124.7913208 159.20062256 C123.40414639 155.28295961 121.98762212 151.37721932 120.5480957 147.47851562 C120.27151123 146.69959961 119.99492676 145.92068359 119.70996094 145.11816406 C118.95589691 143.01908013 118.95589691 143.01908013 117.5480957 140.47851562 C114.04225986 139.35442372 114.04225986 139.35442372 111.5871582 139.01367188 C109.5480957 138.47851562 109.5480957 138.47851562 106.6105957 135.79101562 C103.90036524 133.26040604 103.90036524 133.26040604 101.38793945 133.48242188 C99.83062419 133.72940844 98.27576237 133.99240582 96.72387695 134.27148438 C93.37852763 134.58980307 91.32550554 133.22247064 88.5480957 131.47851562 C87.22006819 130.80134124 85.88765345 130.1325854 84.5480957 129.47851562 C83.80043945 130.21199219 83.0527832 130.94546875 82.2824707 131.70117188 C81.28830456 132.64844339 80.2934782 133.59502233 79.2980957 134.54101562 C78.80696289 135.02634766 78.31583008 135.51167969 77.80981445 136.01171875 C74.12397265 139.47641004 74.12397265 139.47641004 71.41137695 139.48632812 C44.99207926 125.1966451 23.53876437 74.45052162 14.5480957 47.47851562 C13.5890332 47.72601563 13.5890332 47.72601563 12.6105957 47.97851562 C2.3480957 49.65402583 2.3480957 49.65402583 -2.5144043 46.47851562 C-3.1537793 45.81851563 -3.7931543 45.15851563 -4.4519043 44.47851562 C-5.2975293 44.99414062 -6.1431543 45.50976562 -7.0144043 46.04101562 C-11.17404184 47.78050041 -13.12586882 47.63727513 -17.4519043 46.47851562 C-19.62881838 45.29197784 -21.46400479 43.98156159 -23.4519043 42.47851562 Z " fill="#22231F" transform="translate(277.451904296875,101.521484375)"/>
<path d="M0 0 C0.99313202 0.00182281 1.98626404 0.00364563 3.00949097 0.00552368 C30.034345 0.08835662 56.27256053 2.68995424 82.83056641 7.75878906 C85.23169852 8.21419696 87.63383675 8.6445466 90.04296875 9.0546875 C121.50774461 14.71206118 151.66179811 27.41187578 180.75 40.3125 C178.86198036 44.61849993 176.72496156 45.75778272 172.5 47.875 C170.82164062 48.74318359 170.82164062 48.74318359 169.109375 49.62890625 C154.99659344 55.51657172 139.66801052 55.03265298 124.64525986 55.38571167 C122.47070655 55.43820717 120.29635547 55.49608142 118.12197876 55.55541992 C95.74965124 56.16048909 73.37547929 56.41269473 50.99609375 56.5859375 C49.68767391 56.59614048 48.37925407 56.60634346 47.03118515 56.61685562 C33.81778876 56.71829261 20.6044374 56.80758246 7.39076996 56.86606121 C-19.21466719 56.98701314 -45.78877839 57.32319283 -72.37890625 58.27734375 C-73.56376932 58.31980225 -74.74863239 58.36226074 -75.96940041 58.40600586 C-103.81499036 59.05138747 -103.81499036 59.05138747 -131.48779297 61.80737305 C-135.89052572 62.3984992 -140.25230174 62.65984782 -144.6875 62.859375 C-146.05080444 62.92182404 -146.05080444 62.92182404 -147.44165039 62.98553467 C-157.36330183 63.40677665 -167.28309974 63.53340318 -177.21289062 63.55273438 C-180.30363682 63.56267247 -183.39377704 63.59395821 -186.484375 63.625 C-188.46874615 63.63151229 -190.45312191 63.63676967 -192.4375 63.640625 C-193.35200928 63.6529718 -194.26651855 63.6653186 -195.20874023 63.67803955 C-199.99153314 63.66120828 -203.43128737 63.55998698 -207.25 60.3125 C-207.25 59.6525 -207.25 58.9925 -207.25 58.3125 C-160.70626354 30.98083168 -112.20702634 13.05360407 -58.875 4.5625 C-57.62912109 4.36358154 -56.38324219 4.16466309 -55.09960938 3.9597168 C-36.75040086 1.17362996 -18.5537527 -0.07143662 0 0 Z " fill="#C4C78C" transform="translate(266.25,342.6875)"/>
<path d="M0 0 C2.16779698 2.73732609 3.79596453 5.41206507 5.27734375 8.5703125 C5.70297607 9.45887939 6.1286084 10.34744629 6.56713867 11.26293945 C7.01935791 12.20741943 7.47157715 13.15189941 7.9375 14.125 C12.52019804 23.53512983 17.78349765 32.15940995 23.76171875 40.73828125 C26 44 26 44 26 45 C22.37 45.33 18.74 45.66 15 46 C14.93718457 51.00350157 14.93718457 51.00350157 17.046875 54.92578125 C17.48 55.64056641 17.913125 56.35535156 18.359375 57.09179688 C19.04773438 58.19104492 19.04773438 58.19104492 19.75 59.3125 C23.10730186 64.77299533 26.20768062 70.22616204 29 76 C21.575 76.99 21.575 76.99 14 78 C14.80474811 82.82848868 15.39774547 85.26751704 17.5625 89.375 C18.01753906 90.24898438 18.47257812 91.12296875 18.94140625 92.0234375 C19.29074219 92.67570312 19.64007813 93.32796875 20 94 C-0.18897357 104.80467231 -15.71633936 110.48891474 -39 108 C-37.59360362 104.29092465 -35.92367121 100.85202618 -34.03125 97.3671875 C-33.46019531 96.31402344 -32.88914062 95.26085937 -32.30078125 94.17578125 C-31.70652344 93.08652344 -31.11226563 91.99726563 -30.5 90.875 C-29.90574219 89.77800781 -29.31148437 88.68101562 -28.69921875 87.55078125 C-24.27818729 79.41728094 -24.27818729 79.41728094 -22 76 C-22 74.68 -22 73.36 -22 72 C-24.97 70.68 -27.94 69.36 -31 68 C-30.6596875 67.40316406 -30.319375 66.80632812 -29.96875 66.19140625 C-26.63559426 60.22541206 -23.56275106 54.16914584 -20.625 48 C-20.26728516 47.2582251 -19.90957031 46.5164502 -19.54101562 45.75219727 C-17.54655862 41.55940521 -17.54655862 41.55940521 -17 37 C-19.97 36.67 -22.94 36.34 -26 36 C-24.20875654 32.41751309 -23.37459284 31.25223646 -20.5625 28.75 C-12.15289294 20.58592891 -6.12457845 9.91802529 0 0 Z " fill="#A3A464" transform="translate(97,272)"/>
<path d="M0 0 C2 1 2 1 2.74267578 3.12280273 C2.9745459 4.05036377 3.20641602 4.9779248 3.4453125 5.93359375 C3.71335693 6.96645508 3.98140137 7.99931641 4.25756836 9.06347656 C4.5438208 10.1769043 4.83007324 11.29033203 5.125 12.4375 C9.86673385 30.05144397 16.91513141 44.87269711 27 60 C26.23848633 59.93723877 25.47697266 59.87447754 24.69238281 59.80981445 C18.62543587 59.32465989 12.56323352 58.90972615 6.484375 58.60546875 C5.21335937 58.53650391 3.94234375 58.46753906 2.6328125 58.39648438 C0.02928976 58.25635513 -2.57494351 58.12889166 -5.1796875 58.01367188 C-18.82725465 57.22845034 -26.73371786 53.13499609 -36 43 C-41.44788112 35.71946769 -45.39303865 27.45861192 -49.5 19.375 C-50.16914429 18.05846436 -50.16914429 18.05846436 -50.85180664 16.71533203 C-51.4665686 15.47565674 -51.4665686 15.47565674 -52.09375 14.2109375 C-52.46177734 13.47149902 -52.82980469 12.73206055 -53.20898438 11.97021484 C-54 10 -54 10 -54 7 C-52.10489301 6.91839252 -50.20875496 6.86053541 -48.3125 6.8125 C-47.25675781 6.77769531 -46.20101562 6.74289062 -45.11328125 6.70703125 C-41.61168454 7.03654161 -39.94108493 8.16729088 -37 10 C-33.20568686 10.19458016 -29.58924988 9.19641663 -26 8 C-25.01 8.66 -24.02 9.32 -23 10 C-17.36000452 10.6587354 -17.36000452 10.6587354 -12.5625 8.1875 C-10.83534256 5.99617076 -10.83534256 5.99617076 -10 3 C-8.22265625 2.3046875 -8.22265625 2.3046875 -6.0625 1.875 C-3.81226851 1.40943487 -2.06266481 1.03133241 0 0 Z " fill="#BBCAAE" transform="translate(300,281)"/>
<path d="M0 0 C0.66 0 1.32 0 2 0 C2.39155273 0.81452637 2.39155273 0.81452637 2.79101562 1.64550781 C7.5374401 11.46669962 12.232691 20.99660048 18.6015625 29.8828125 C20 32 20 32 20 34 C16.535 34.495 16.535 34.495 13 35 C11.62549682 37.97557488 11.62549682 37.97557488 13.21484375 40.59375 C13.78332031 41.5528125 14.35179687 42.511875 14.9375 43.5 C18 48.69020501 18 48.69020501 18 52 C15.36 52.33 12.72 52.66 10 53 C10.4156295 59.650072 11.6878698 64.24517378 15 70 C15.33 70.66 15.66 71.32 16 72 C10.93181982 73.73877975 5.85983452 75.46576819 0.78393555 77.18188477 C-0.94275212 77.76751358 -2.66834963 78.35636681 -4.39282227 78.94848633 C-6.86977031 79.79835662 -9.35038956 80.63660658 -11.83203125 81.47265625 C-12.60400345 81.74030289 -13.37597565 82.00794952 -14.17134094 82.28370667 C-19.65838488 84.11387171 -19.65838488 84.11387171 -23 83 C-24.88579937 79.78715662 -26 77.75366417 -26 74 C-25.24074219 73.93941406 -24.48148437 73.87882812 -23.69921875 73.81640625 C-22.70535156 73.73261719 -21.71148437 73.64882813 -20.6875 73.5625 C-19.70136719 73.48128906 -18.71523437 73.40007812 -17.69921875 73.31640625 C-14.90624401 73.08187441 -14.90624401 73.08187441 -12 72 C-12.52960517 67.53618501 -13.60514011 64.4651244 -15.94140625 60.63671875 C-16.52470703 59.66798828 -17.10800781 58.69925781 -17.70898438 57.70117188 C-18.32064453 56.70666016 -18.93230469 55.71214844 -19.5625 54.6875 C-20.77376766 52.6923963 -21.98349317 50.69635522 -23.19140625 48.69921875 C-23.72967041 47.82096436 -24.26793457 46.94270996 -24.82250977 46.0378418 C-26 44 -26 44 -26 43 C-20.06 42.505 -20.06 42.505 -14 42 C-14.46206346 37.62333039 -14.46206346 37.62333039 -16.6875 33.9375 C-17.120625 33.298125 -17.55375 32.65875 -18 32 C-16.70031746 27.43884995 -13.92872036 23.78141919 -11.25 19.9375 C-6.86869513 13.53045609 -3.23782911 7.06794403 0 0 Z " fill="#A3A464" transform="translate(144,280)"/>
<path d="M0 0 C0.763125 0.495 1.52625 0.99 2.3125 1.5 C0.73369224 5.73144621 -1.28997716 9.66715133 -3.42578125 13.63671875 C-3.78842575 14.31620071 -4.15107025 14.99568268 -4.52470398 15.695755 C-5.68069569 17.86098496 -6.84009858 20.02436231 -8 22.1875 C-9.5186285 25.02383273 -11.03560681 27.86103934 -12.55078125 30.69921875 C-12.91325958 31.37806122 -13.27573792 32.05690369 -13.64920044 32.75631714 C-16.41921569 37.959777 -19.10027025 43.20294956 -21.6875 48.5 C-26.48212882 46.3475177 -29.42888806 42.98226244 -31.8125 38.28125 C-34.37407225 30.13910963 -33.7440329 19.37597166 -30.0859375 11.68359375 C-23.15731731 0.86488234 -12.55582248 -5.10745321 0 0 Z " fill="#D8C09C" transform="translate(252.6875,127.5)"/>
<path d="M0 0 C0.33 0 0.66 0 1 0 C1 17.16 1 34.32 1 52 C-3.351875 52.66 -7.70375 53.32 -12.1875 54 C-13.55156982 54.20882812 -14.91563965 54.41765625 -16.32104492 54.6328125 C-17.94683472 54.87644531 -17.94683472 54.87644531 -19.60546875 55.125 C-21.26292114 55.37636719 -21.26292114 55.37636719 -22.95385742 55.6328125 C-25.67689233 55.96105202 -28.26184109 56.07129462 -31 56 C-29.28722455 51.01104361 -26.50595089 46.77212961 -23.75 42.3125 C-16.8468952 30.9981585 -10.62515374 19.35198968 -4.43530273 7.63696289 C-3.02287889 5.04203349 -1.59121267 2.48977319 0 0 Z " fill="#BBCAAE" transform="translate(229,287)"/>
<path d="M0 0 C0.66 0 1.32 0 2 0 C2.4125 1.0415625 2.825 2.083125 3.25 3.15625 C13.42064409 30.02470655 13.42064409 30.02470655 31.25 51.75 C32.61125 52.86375 32.61125 52.86375 34 54 C34 54.33 34 54.66 34 55 C22.78 55 11.56 55 0 55 C0 36.85 0 18.7 0 0 Z " fill="#B8C7AB" transform="translate(236,283)"/>
<path d="M0 0 C0.66 0 1.32 0 2 0 C3.83663263 3.47743476 5.66875123 6.95722746 7.5 10.4375 C8.02464844 11.43072266 8.54929687 12.42394531 9.08984375 13.44726562 C9.58613281 14.39150391 10.08242188 15.33574219 10.59375 16.30859375 C11.05458984 17.18314209 11.51542969 18.05769043 11.99023438 18.95874023 C13 21 13 21 13 22 C10.69 22.33 8.38 22.66 6 23 C5.63221792 28.06466578 6.73807895 31.17936568 9 35.6875 C12 41.70833333 12 41.70833333 12 45 C9.525 45.495 9.525 45.495 7 46 C7 47.65 7 49.3 7 51 C-0.59 48.03 -8.18 45.06 -16 42 C-16 41.01 -16 40.02 -16 39 C-16.27585937 38.05382812 -16.55171875 37.10765625 -16.8359375 36.1328125 C-17 33 -17 33 -14.7265625 30.3671875 C-13.19128906 29.13355469 -13.19128906 29.13355469 -11.625 27.875 C-7.61715336 24.85686578 -7.61715336 24.85686578 -5.1484375 20.6953125 C-5.09945313 20.13585937 -5.05046875 19.57640625 -5 19 C-8.465 17.02 -8.465 17.02 -12 15 C-11.13375 14.01 -10.2675 13.02 -9.375 12 C-6.47414628 8.63858419 -3.856451 5.12997225 -1.296875 1.50390625 C-0.86890625 1.00761719 -0.4409375 0.51132812 0 0 Z " fill="#A2A363" transform="translate(430,322)"/>
<path d="M0 0 C2.40313714 2.40313714 2.97318139 4.32042788 4.09375 7.5234375 C4.67962891 9.17859375 4.67962891 9.17859375 5.27734375 10.8671875 C5.88255859 12.60355469 5.88255859 12.60355469 6.5 14.375 C7.29984563 16.65443227 8.10184275 18.93311102 8.90625 21.2109375 C9.26009766 22.22462402 9.61394531 23.23831055 9.97851562 24.28271484 C10.91209211 26.94720201 10.91209211 26.94720201 12.13085938 29.11181641 C13 31 13 31 13 35 C10.86219907 36.29795057 9.55951497 37.05328714 7.03125 36.8125 C4.3398794 35.73595176 3.67293937 34.42764391 2.25 31.9375 C1.82203125 31.20402344 1.3940625 30.47054687 0.953125 29.71484375 C0.63859375 29.14894531 0.3240625 28.58304688 0 28 C-1.98568544 28.30613349 -1.98568544 28.30613349 -4 29 C-4.433125 30.2375 -4.433125 30.2375 -4.875 31.5 C-5.24625 32.325 -5.6175 33.15 -6 34 C-8.8125 35.0625 -8.8125 35.0625 -12 35 C-15.37545234 32.89971854 -16.73400961 31.79797116 -18 28 C-16.99951172 25.84277344 -16.99951172 25.84277344 -15.4296875 23.359375 C-14.8625 22.45316406 -14.2953125 21.54695313 -13.7109375 20.61328125 C-13.10507812 19.66839844 -12.49921875 18.72351563 -11.875 17.75 C-11.29234375 16.82058594 -10.7096875 15.89117187 -10.109375 14.93359375 C-6.89293536 9.83488787 -3.5607797 4.86415944 0 0 Z " fill="#F7F7F7" transform="translate(275,109)"/>
<path d="M0 0 C4.01280228 4.95524321 6.53714228 10.77539623 9.31762695 16.47216797 C10.31277387 18.50055822 11.32901922 20.51749391 12.34570312 22.53515625 C12.97789864 23.82486673 13.60880348 25.11521086 14.23828125 26.40625 C14.81618408 27.57478516 15.39408691 28.74332031 15.98950195 29.94726562 C17 33 17 33 16.33666992 35.36523438 C14.48423408 37.63078878 12.83654274 37.70141655 10 38 C9.46890625 37.00097656 8.9378125 36.00195312 8.390625 34.97265625 C7.67777555 33.66889212 6.96419565 32.36552718 6.25 31.0625 C5.90195313 30.40314453 5.55390625 29.74378906 5.1953125 29.06445312 C3.19992045 25.29848394 3.19992045 25.29848394 -0.265625 23.05859375 C-1.12414062 23.02958984 -1.12414062 23.02958984 -2 23 C-2.53625 23.804375 -3.0725 24.60875 -3.625 25.4375 C-6.43105369 28.46508424 -7.96825194 28.72510809 -12 29 C-13.16333008 27.3503418 -13.16333008 27.3503418 -14 25 C-13.04956055 22.35864258 -13.04956055 22.35864258 -11.38671875 19.39453125 C-10.79826172 18.32912109 -10.20980469 17.26371094 -9.60351562 16.16601562 C-8.65508789 14.50602539 -8.65508789 14.50602539 -7.6875 12.8125 C-7.06681641 11.69423828 -6.44613281 10.57597656 -5.80664062 9.42382812 C-1.24043827 1.24043827 -1.24043827 1.24043827 0 0 Z " fill="#F6F6F6" transform="translate(166,162)"/>
<path d="M0 0 C0.80993408 0.00141495 1.61986816 0.0028299 2.4543457 0.00428772 C5.01126994 0.00983242 7.56810276 0.02237418 10.125 0.03515625 C11.87109247 0.04017841 13.61718634 0.04474006 15.36328125 0.04882812 C19.61722209 0.05978365 23.87109561 0.07700931 28.125 0.09765625 C21.48456193 6.88826799 14.562917 8.51877267 5.25 8.66015625 C-2.47095053 8.62325612 -9.19601164 7.21740608 -15.875 3.09765625 C-16.205 2.43765625 -16.535 1.77765625 -16.875 1.09765625 C-11.20004784 0.28413384 -5.72807186 -0.03849309 0 0 Z " fill="#B8C6AB" transform="translate(263.875,269.90234375)"/>
<path d="M0 0 C3.08150907 1.95976059 3.91755758 5.24739328 5.13671875 8.53515625 C5.55147461 9.56382812 5.55147461 9.56382812 5.97460938 10.61328125 C7.95973517 15.75360699 7.95973517 15.75360699 6.82421875 19.16015625 C2.02421875 15.7140024 2.02421875 15.7140024 1.01171875 12.91015625 C0.94984375 12.33265625 0.88796875 11.75515625 0.82421875 11.16015625 C-2.78570504 11.81600814 -2.78570504 11.81600814 -6.17578125 13.16015625 C-12.64636949 13.51309743 -12.64636949 13.51309743 -16.17578125 11.16015625 C-14.66646595 6.95829698 -12.07379507 5.53858726 -8.30078125 3.34765625 C-7.25148438 2.72246094 -6.2021875 2.09726563 -5.12109375 1.453125 C-2.17578125 0.16015625 -2.17578125 0.16015625 0 0 Z " fill="#F4F4F4" transform="translate(384.17578125,217.83984375)"/>
<path d="M0 0 C1.8125 0.0625 1.8125 0.0625 4 1 C5.3440093 2.99284138 6.67541292 4.99419671 8 7 C10.22985473 9.13353272 12.58167757 11.08436257 15 13 C14.6875 14.9375 14.6875 14.9375 14 17 C13.01 17.33 12.02 17.66 11 18 C5.80467213 15.25831773 1.6684242 11.22566405 -1 6 C-1.3125 3.1875 -1.3125 3.1875 -1 1 C-0.67 0.67 -0.34 0.34 0 0 Z " fill="#2D2D2B" transform="translate(205,106)"/>
<path d="M0 0 C1.65 0 3.3 0 5 0 C5.34855655 7.62951555 5.0017506 13.92444501 2 21 C0.35 21 -1.3 21 -3 21 C-2.17321655 13.97234063 -1.09751783 6.99001647 0 0 Z " fill="#242422" transform="translate(246,94)"/>
<path d="M0 0 C2.1875 0.3125 2.1875 0.3125 4 1 C4 5.9708309 2.8345788 6.73016682 -0.5 10.25 C-1.3353125 11.14203125 -2.170625 12.0340625 -3.03125 12.953125 C-3.6809375 13.62859375 -4.330625 14.3040625 -5 15 C-6.32 14.67 -7.64 14.34 -9 14 C-8.62367503 8.60600878 -7.00757621 6.53048381 -3 3 C-2.484375 2.38125 -1.96875 1.7625 -1.4375 1.125 C-0.963125 0.75375 -0.48875 0.3825 0 0 Z " fill="#272725" transform="translate(215,179)"/>
<path d="M0 0 C1.73030291 0.28484846 3.45920714 0.57819938 5.1875 0.875 C6.15042969 1.03742188 7.11335937 1.19984375 8.10546875 1.3671875 C10.91032604 1.98039517 13.37224747 2.85666343 16 4 C15.67 5.65 15.34 7.3 15 9 C13.08210287 8.71653722 11.16570817 8.4228972 9.25 8.125 C8.18265625 7.96257812 7.1153125 7.80015625 6.015625 7.6328125 C3.32291129 7.06776118 1.36427561 6.36577086 -1 5 C-0.67 3.35 -0.34 1.7 0 0 Z " fill="#262624" transform="translate(192,143)"/>
<path d="M0 0 C-0.66 1.65 -1.32 3.3 -2 5 C-3.65 4.67 -5.3 4.34 -7 4 C-7 3.01 -7 2.02 -7 1 C-4 0 -4 0 0 0 Z " fill="#C5997E" transform="translate(285,282)"/>
<path d="M0 0 C2.97 0.99 5.94 1.98 9 3 C9 3.66 9 4.32 9 5 C6.1875 5.3125 6.1875 5.3125 3 5 C1.125 2.5 1.125 2.5 0 0 Z " fill="#CE8E97" transform="translate(245,278)"/>
</svg>
