<?xml version="1.0" encoding="UTF-8"?>
<svg version="1.1" xmlns="http://www.w3.org/2000/svg" width="500" height="500">
<path d="M0 0 C165 0 330 0 500 0 C500 165 500 330 500 500 C335 500 170 500 0 500 C0 335 0 170 0 0 Z " fill="#FEFEFE" transform="translate(0,0)"/>
<path d="M0 0 C11.24997451 3.37499235 11.24997451 3.37499235 15.59008789 5.05859375 C16.57235855 5.43749756 17.55462921 5.81640137 18.56666565 6.20678711 C19.60814255 6.61292236 20.64961945 7.01905762 21.72265625 7.4375 C22.85746933 7.87650635 23.99228241 8.3155127 25.16148376 8.76782227 C28.79653442 10.17502046 32.42954997 11.58738878 36.0625 13 C38.3481737 13.88576147 40.63398036 14.77117992 42.91992188 15.65625 C50.9480899 18.76702858 58.97393418 21.88380158 67 25 C91.255 34.405 91.255 34.405 116 44 C116 146.96 116 249.92 116 356 C77.72 356 39.44 356 0 356 C0 238.52 0 121.04 0 0 Z " fill="#EAA989" transform="translate(183,50)"/>
<path d="M0 0 C1.65 0 3.3 0 5 0 C4.97474243 1.39907593 4.97474243 1.39907593 4.94897461 2.82641602 C4.90755471 6.31501209 4.90679111 9.79885602 4.93286133 13.28735352 C4.93592833 14.79163851 4.92317321 16.29604753 4.89379883 17.80004883 C4.52292672 26.53715763 4.52292672 26.53715763 7.71435547 34.36743164 C10.04533424 36.22825163 12.36159086 37.61267794 15 39 C16.67623191 40.03070814 18.34807896 41.06857894 20.015625 42.11328125 C20.86801758 42.62963135 21.72041016 43.14598145 22.59863281 43.67797852 C33.43192331 50.35651257 40.80401454 57.51392975 47.30403996 68.4535799 C48.95198646 71.07917682 48.95198646 71.07917682 51.22427273 73.37449169 C60.67965339 84.28463943 59.20447576 96.68584415 59.02172852 110.44458008 C59.01918711 113.12634938 59.02022468 115.80789698 59.02571106 118.48963928 C59.03040818 124.24273953 59.00240657 129.99491428 58.95157051 135.74778175 C58.87812173 144.06507754 58.85495679 152.38193027 58.84367859 160.69951519 C58.82402824 174.19714664 58.76426374 187.69428587 58.67895508 201.19165039 C58.59622042 214.29546666 58.53257548 227.39914876 58.49438477 240.50317383 C58.490838 241.71674492 58.490838 241.71674492 58.48721958 242.95483259 C58.47547341 247.01398089 58.46410024 251.07313012 58.45291245 255.13227999 C58.3597593 288.75528967 58.193925 322.377383 58 356 C21.04 356 -15.92 356 -54 356 C-54.26489224 321.62106212 -54.48632529 287.24312015 -54.61278395 252.86346775 C-54.62779119 248.79829962 -54.64332318 244.73313365 -54.65917969 240.66796875 C-54.66232741 239.8587185 -54.66547514 239.04946825 -54.66871825 238.21569526 C-54.72083604 225.1379165 -54.81539511 212.06077522 -54.92583355 198.98337376 C-55.03832825 185.54974888 -55.10476309 172.11645625 -55.12906194 158.68237972 C-55.14547154 150.40236854 -55.19715923 142.12415949 -55.2949976 133.84470356 C-55.35877323 128.15555162 -55.37752556 122.46732167 -55.36201653 116.77783883 C-55.35438034 113.5016312 -55.37219455 110.22918537 -55.4304657 106.95339966 C-55.69720357 91.17664491 -54.54625232 81.28161576 -43.43356657 69.66898632 C-41.06716009 66.91396948 -39.57757387 63.85647612 -37.9375 60.625 C-31.47775603 49.67333785 -18.3611087 43.31933605 -7.77392578 36.8684082 C-5.05268391 35.03548582 -2.9761501 33.62145315 -1 31 C-0.35789448 27.62078606 -0.35789448 27.62078606 -0.390625 23.828125 C-0.37408875 23.1457074 -0.35755249 22.46328979 -0.34051514 21.76019287 C-0.29210161 19.59003646 -0.27068135 17.42058028 -0.25 15.25 C-0.22183438 13.77470448 -0.19190611 12.29944149 -0.16015625 10.82421875 C-0.08634775 7.21629802 -0.03673106 3.60851028 0 0 Z " fill="#565C49" transform="translate(361,50)"/>
<path d="M0 0 C36.63 0 73.26 0 111 0 C111 88.11 111 176.22 111 267 C74.37 267 37.74 267 0 267 C0 178.89 0 90.78 0 0 Z " fill="#808A6C" transform="translate(63,139)"/>
<path d="M0 0 C7.59 0 15.18 0 23 0 C23 7.59 23 15.18 23 23 C17.5859375 23.0309375 17.5859375 23.0309375 12.0625 23.0625 C10.92304932 23.071604 9.78359863 23.08070801 8.60961914 23.09008789 C7.71879639 23.09258545 6.82797363 23.09508301 5.91015625 23.09765625 C4.53549194 23.10551147 4.53549194 23.10551147 3.13305664 23.11352539 C1 23 1 23 0 22 C-0.08700342 20.36527118 -0.10701063 18.72685945 -0.09765625 17.08984375 C-0.09515869 16.199021 -0.09266113 15.30819824 -0.09008789 14.39038086 C-0.08098389 13.25093018 -0.07187988 12.11147949 -0.0625 10.9375 C-0.041875 7.328125 -0.02125 3.71875 0 0 Z " fill="#F7F7F5" transform="translate(129,339)"/>
<path d="M0 0 C7.59 0 15.18 0 23 0 C23 7.59 23 15.18 23 23 C17.5859375 23.0309375 17.5859375 23.0309375 12.0625 23.0625 C10.92304932 23.071604 9.78359863 23.08070801 8.60961914 23.09008789 C7.71879639 23.09258545 6.82797363 23.09508301 5.91015625 23.09765625 C4.53549194 23.10551147 4.53549194 23.10551147 3.13305664 23.11352539 C1 23 1 23 0 22 C-0.08700342 20.36527118 -0.10701063 18.72685945 -0.09765625 17.08984375 C-0.09515869 16.199021 -0.09266113 15.30819824 -0.09008789 14.39038086 C-0.08098389 13.25093018 -0.07187988 12.11147949 -0.0625 10.9375 C-0.041875 7.328125 -0.02125 3.71875 0 0 Z " fill="#F7F7F5" transform="translate(129,250)"/>
<path d="M0 0 C7.59 0 15.18 0 23 0 C23 7.59 23 15.18 23 23 C17.5859375 23.0309375 17.5859375 23.0309375 12.0625 23.0625 C10.92304932 23.071604 9.78359863 23.08070801 8.60961914 23.09008789 C7.71879639 23.09258545 6.82797363 23.09508301 5.91015625 23.09765625 C4.53549194 23.10551147 4.53549194 23.10551147 3.13305664 23.11352539 C1 23 1 23 0 22 C-0.08700342 20.36527118 -0.10701063 18.72685945 -0.09765625 17.08984375 C-0.09515869 16.199021 -0.09266113 15.30819824 -0.09008789 14.39038086 C-0.08098389 13.25093018 -0.07187988 12.11147949 -0.0625 10.9375 C-0.041875 7.328125 -0.02125 3.71875 0 0 Z " fill="#F7F7F5" transform="translate(129,161)"/>
<path d="M0 0 C7.26 0 14.52 0 22 0 C22 7.26 22 14.52 22 22 C14.74 22 7.48 22 0 22 C0 14.74 0 7.48 0 0 Z " fill="#FBFCFB" transform="translate(330,339)"/>
<path d="M0 0 C7.26 0 14.52 0 22 0 C22 7.26 22 14.52 22 22 C14.74 22 7.48 22 0 22 C0 14.74 0 7.48 0 0 Z " fill="#FDFDFC" transform="translate(85,339)"/>
<path d="M0 0 C7.26 0 14.52 0 22 0 C22 7.26 22 14.52 22 22 C14.74 22 7.48 22 0 22 C0 14.74 0 7.48 0 0 Z " fill="#FBFBFA" transform="translate(374,295)"/>
<path d="M0 0 C7.26 0 14.52 0 22 0 C22 7.26 22 14.52 22 22 C14.74 22 7.48 22 0 22 C0 14.74 0 7.48 0 0 Z " fill="#FFFFFF" transform="translate(330,295)"/>
<path d="M0 0 C7.26 0 14.52 0 22 0 C22 7.26 22 14.52 22 22 C14.74 22 7.48 22 0 22 C0 14.74 0 7.48 0 0 Z " fill="#FEFEFE" transform="translate(263,295)"/>
<path d="M0 0 C7.26 0 14.52 0 22 0 C22 7.26 22 14.52 22 22 C14.74 22 7.48 22 0 22 C0 14.74 0 7.48 0 0 Z " fill="#FEFEFD" transform="translate(130,295)"/>
<path d="M0 0 C7.26 0 14.52 0 22 0 C22 7.26 22 14.52 22 22 C14.74 22 7.48 22 0 22 C0 14.74 0 7.48 0 0 Z " fill="#FEFEFE" transform="translate(85,295)"/>
<path d="M0 0 C7.26 0 14.52 0 22 0 C22 7.26 22 14.52 22 22 C14.74 22 7.48 22 0 22 C0 14.74 0 7.48 0 0 Z " fill="#F9F9F8" transform="translate(329,250)"/>
<path d="M0 0 C7.26 0 14.52 0 22 0 C22 7.26 22 14.52 22 22 C14.74 22 7.48 22 0 22 C0 14.74 0 7.48 0 0 Z " fill="#FDFDFC" transform="translate(85,250)"/>
<path d="M0 0 C7.26 0 14.52 0 22 0 C22 7.26 22 14.52 22 22 C14.74 22 7.48 22 0 22 C0 14.74 0 7.48 0 0 Z " fill="#FBFBFA" transform="translate(374,206)"/>
<path d="M0 0 C7.26 0 14.52 0 22 0 C22 7.26 22 14.52 22 22 C14.74 22 7.48 22 0 22 C0 14.74 0 7.48 0 0 Z " fill="#FFFFFF" transform="translate(330,206)"/>
<path d="M0 0 C7.26 0 14.52 0 22 0 C22 7.26 22 14.52 22 22 C14.74 22 7.48 22 0 22 C0 14.74 0 7.48 0 0 Z " fill="#FEFEFE" transform="translate(263,206)"/>
<path d="M0 0 C7.26 0 14.52 0 22 0 C22 7.26 22 14.52 22 22 C14.74 22 7.48 22 0 22 C0 14.74 0 7.48 0 0 Z " fill="#FEFEFD" transform="translate(130,206)"/>
<path d="M0 0 C7.26 0 14.52 0 22 0 C22 7.26 22 14.52 22 22 C14.74 22 7.48 22 0 22 C0 14.74 0 7.48 0 0 Z " fill="#FEFEFE" transform="translate(85,206)"/>
<path d="M0 0 C7.26 0 14.52 0 22 0 C22 7.26 22 14.52 22 22 C14.74 22 7.48 22 0 22 C0 14.74 0 7.48 0 0 Z " fill="#FBFCFB" transform="translate(330,161)"/>
<path d="M0 0 C7.26 0 14.52 0 22 0 C22 7.26 22 14.52 22 22 C14.74 22 7.48 22 0 22 C0 14.74 0 7.48 0 0 Z " fill="#FDFDFC" transform="translate(85,161)"/>
<path d="M0 0 C7.26 0 14.52 0 22 0 C22 7.26 22 14.52 22 22 C14.74 22 7.48 22 0 22 C0 14.74 0 7.48 0 0 Z " fill="#FEFEFE" transform="translate(263,117)"/>
<path d="M0 0 C7.26 0 14.52 0 22 0 C22 6.93 22 13.86 22 21 C14.74 21 7.48 21 0 21 C0 14.07 0 7.14 0 0 Z " fill="#FEFEFE" transform="translate(263,340)"/>
<path d="M0 0 C6.93 0 13.86 0 21 0 C21 7.26 21 14.52 21 22 C14.07 22 7.14 22 0 22 C0 14.74 0 7.48 0 0 Z " fill="#FFFFFF" transform="translate(197,295)"/>
<path d="M0 0 C7.26 0 14.52 0 22 0 C22 6.93 22 13.86 22 21 C14.74 21 7.48 21 0 21 C0 14.07 0 7.14 0 0 Z " fill="#FEFEFE" transform="translate(263,251)"/>
<path d="M0 0 C6.93 0 13.86 0 21 0 C21 7.26 21 14.52 21 22 C14.07 22 7.14 22 0 22 C0 14.74 0 7.48 0 0 Z " fill="#FFFFFF" transform="translate(197,206)"/>
<path d="M0 0 C7.26 0 14.52 0 22 0 C22 6.93 22 13.86 22 21 C14.74 21 7.48 21 0 21 C0 14.07 0 7.14 0 0 Z " fill="#FEFEFE" transform="translate(263,162)"/>
<path d="M0 0 C6.93 0 13.86 0 21 0 C21 7.26 21 14.52 21 22 C14.07 22 7.14 22 0 22 C0 14.74 0 7.48 0 0 Z " fill="#FFFFFF" transform="translate(197,117)"/>
<path d="M0 0 C6.93 0 13.86 0 21 0 C21 6.93 21 13.86 21 21 C14.07 21 7.14 21 0 21 C0 14.07 0 7.14 0 0 Z " fill="#FFFFFF" transform="translate(375,340)"/>
<path d="M0 0 C6.93 0 13.86 0 21 0 C21 6.93 21 13.86 21 21 C14.07 21 7.14 21 0 21 C0 14.07 0 7.14 0 0 Z " fill="#FFFFFF" transform="translate(197,340)"/>
<path d="M0 0 C6.93 0 13.86 0 21 0 C21 6.93 21 13.86 21 21 C14.07 21 7.14 21 0 21 C0 14.07 0 7.14 0 0 Z " fill="#FFFFFF" transform="translate(375,251)"/>
<path d="M0 0 C6.93 0 13.86 0 21 0 C21 6.93 21 13.86 21 21 C14.07 21 7.14 21 0 21 C0 14.07 0 7.14 0 0 Z " fill="#FFFFFF" transform="translate(197,251)"/>
<path d="M0 0 C6.93 0 13.86 0 21 0 C21 6.93 21 13.86 21 21 C14.07 21 7.14 21 0 21 C0 14.07 0 7.14 0 0 Z " fill="#FFFFFF" transform="translate(375,162)"/>
<path d="M0 0 C6.93 0 13.86 0 21 0 C21 6.93 21 13.86 21 21 C14.07 21 7.14 21 0 21 C0 14.07 0 7.14 0 0 Z " fill="#FFFFFF" transform="translate(197,162)"/>
<path d="M0 0 C5.61 0 11.22 0 17 0 C17 7.26 17 14.52 17 22 C11.39 22 5.78 22 0 22 C0 14.74 0 7.48 0 0 Z " fill="#FFFFFF" transform="translate(232,295)"/>
<path d="M0 0 C5.61 0 11.22 0 17 0 C17 7.26 17 14.52 17 22 C11.39 22 5.78 22 0 22 C0 14.74 0 7.48 0 0 Z " fill="#FFFFFF" transform="translate(232,206)"/>
<path d="M0 0 C5.61 0 11.22 0 17 0 C17 7.26 17 14.52 17 22 C11.39 22 5.78 22 0 22 C0 14.74 0 7.48 0 0 Z " fill="#FFFFFF" transform="translate(232,117)"/>
<path d="M0 0 C5.61 0 11.22 0 17 0 C17 6.93 17 13.86 17 21 C11.39 21 5.78 21 0 21 C0 14.07 0 7.14 0 0 Z " fill="#FFFFFF" transform="translate(232,340)"/>
<path d="M0 0 C5.61 0 11.22 0 17 0 C17 6.93 17 13.86 17 21 C11.39 21 5.78 21 0 21 C0 14.07 0 7.14 0 0 Z " fill="#FFFFFF" transform="translate(232,251)"/>
<path d="M0 0 C5.61 0 11.22 0 17 0 C17 6.93 17 13.86 17 21 C11.39 21 5.78 21 0 21 C0 14.07 0 7.14 0 0 Z " fill="#FFFFFF" transform="translate(232,162)"/>
<path d="M0 0 C7.88864358 6.76169449 7.88864358 6.76169449 10.96484375 9.83203125 C11.61904297 10.48494141 12.27324219 11.13785156 12.94726562 11.81054688 C13.60404297 12.47119141 14.26082031 13.13183594 14.9375 13.8125 C15.62134766 14.49248047 16.30519531 15.17246094 17.00976562 15.87304688 C17.65494141 16.51951172 18.30011719 17.16597656 18.96484375 17.83203125 C19.5487085 18.41702393 20.13257324 19.0020166 20.73413086 19.60473633 C22 21 22 21 22 22 C14.74 22 7.48 22 0 22 C0 14.74 0 7.48 0 0 Z " fill="#F5F6F4" transform="translate(374,117)"/>
<path d="M0 0 C0 7.26 0 14.52 0 22 C-7.26 22 -14.52 22 -22 22 C-15.23830551 14.11135642 -15.23830551 14.11135642 -12.16796875 11.03515625 C-11.51505859 10.38095703 -10.86214844 9.72675781 -10.18945312 9.05273438 C-9.52880859 8.39595703 -8.86816406 7.73917969 -8.1875 7.0625 C-7.50751953 6.37865234 -6.82753906 5.69480469 -6.12695312 4.99023438 C-5.48048828 4.34505859 -4.83402344 3.69988281 -4.16796875 3.03515625 C-3.58297607 2.4512915 -2.9979834 1.86742676 -2.39526367 1.26586914 C-1 0 -1 0 0 0 Z " fill="#F7F8F6" transform="translate(352,117)"/>
</svg>
