<?xml version="1.0" encoding="UTF-8"?>
<svg version="1.1" xmlns="http://www.w3.org/2000/svg" width="500" height="500">
<path d="M0 0 C165 0 330 0 500 0 C500 165 500 330 500 500 C335 500 170 500 0 500 C0 335 0 170 0 0 Z " fill="#FEFEFE" transform="translate(0,0)"/>
<path d="M0 0 C1.32 0 2.64 0 4 0 C4.07516846 0.84481934 4.15033691 1.68963867 4.2277832 2.56005859 C8.29868934 47.78619497 17.95904974 83.68256448 49 118 C49.78761719 118.87269531 50.57523437 119.74539062 51.38671875 120.64453125 C62.85962933 132.7018006 77.07696593 142.02197367 91 151 C90.80889648 150.29093506 90.61779297 149.58187012 90.42089844 148.85131836 C90.1530957 147.85753174 89.88529297 146.86374512 89.609375 145.83984375 C89.31361572 144.742771 89.01785645 143.64569824 88.71313477 142.51538086 C88.06887643 140.12207138 87.42614547 137.72835024 86.78491211 135.33422852 C84.76153175 127.77916165 84.76153175 127.77916165 82.64453125 120.25 C80.75701352 113.59939602 79.51427242 107.92161805 80 101 C81.65 100.67 83.3 100.34 85 100 C87.19255249 104.05586218 88.54044407 107.65877856 89.39453125 112.18359375 C89.6251123 113.35245117 89.85569336 114.52130859 90.09326172 115.72558594 C90.33061035 116.95051758 90.56795898 118.17544922 90.8125 119.4375 C92.91829278 129.8443306 95.40136164 139.4113498 100 149 C104.67984198 148.48501739 109.00051395 147.87483582 113.5 146.4375 C114.78390625 146.03337891 114.78390625 146.03337891 116.09375 145.62109375 C116.7228125 145.41613281 117.351875 145.21117187 118 145 C117.83886719 144.28199219 117.67773438 143.56398437 117.51171875 142.82421875 C117.01731492 140.09556251 116.83344814 137.5818442 116.8125 134.8125 C116.79832031 133.95269531 116.78414062 133.09289062 116.76953125 132.20703125 C117 130 117 130 119 128 C122.53571429 128.53571429 122.53571429 128.53571429 124 130 C124.23427778 132.01594582 124.41336124 134.038474 124.5625 136.0625 C124.64628906 137.16722656 124.73007813 138.27195313 124.81640625 139.41015625 C124.87699219 140.26480469 124.93757812 141.11945313 125 142 C125.54712646 141.80365967 126.09425293 141.60731934 126.65795898 141.4050293 C142.75590627 135.68493797 157.42928028 131.81737999 174.5625 131.625 C175.47894287 131.61090088 176.39538574 131.59680176 177.33959961 131.58227539 C187.45568899 131.6555065 193.27499994 134.61738456 200.6015625 141.515625 C203.50575848 144.52388012 206.06498692 147.67877814 208.52734375 151.0546875 C209.90583607 152.87561369 211.37159608 154.40576234 213 156 C213.07516846 154.88757935 213.07516846 154.88757935 213.15185547 153.75268555 C213.38375913 150.39691863 213.62921531 147.04227757 213.875 143.6875 C213.95363281 142.52025391 214.03226563 141.35300781 214.11328125 140.15039062 C214.19707031 139.03212891 214.28085937 137.91386719 214.3671875 136.76171875 C214.44050293 135.73006592 214.51381836 134.69841309 214.58935547 133.63549805 C215 131 215 131 217 128 C221.875 128.875 221.875 128.875 223 130 C223.81072453 141.35014346 220.80465415 153.0179576 218.234375 164.01953125 C217.96916663 166.26054198 218.32709863 167.86113494 219 170 C236.06891872 160.00769705 242.28965555 146.11533343 247.39404297 127.40917969 C248.88107399 121.49700319 250.11148677 115.51927173 251.30126953 109.54101562 C251.49446777 108.59162109 251.68766602 107.64222656 251.88671875 106.6640625 C252.05389404 105.81279785 252.22106934 104.9615332 252.39331055 104.08447266 C253 102 253 102 255 100 C258.53571429 100.53571429 258.53571429 100.53571429 260 102 C260.27273077 107.12344232 259.60346554 111.74051598 258.375 116.6875 C258.20186279 117.40647461 258.02872559 118.12544922 257.8503418 118.86621094 C256.14805679 125.75182511 254.11754774 132.5373059 252.01904297 139.3112793 C250.81967409 143.18871778 249.6767054 146.98868605 249 151 C288.86890008 125.08245776 319.64038225 92.47310706 331 45 C331.18038818 44.26305908 331.36077637 43.52611816 331.54663086 42.7668457 C333.25229899 35.14777377 333.63010656 27.46398777 334.0625 19.6875 C334.21562996 17.02443939 334.37446891 14.36184774 334.53515625 11.69921875 C334.600979 10.53221436 334.66680176 9.36520996 334.73461914 8.1628418 C334.96938856 5.36483095 335.38109974 2.73516056 336 0 C338.4375 0.375 338.4375 0.375 341 1 C349.00780785 17.01561569 340.03873443 47.69490765 334.75 63.875 C324.49874429 93.49219089 306.62927333 118.45410761 281.55712891 137.42260742 C278.28914544 139.77518277 278.28914544 139.77518277 276 143 C303.70515619 129.16614884 329.4197084 114.47799926 352 93 C352.64453125 92.40832031 353.2890625 91.81664062 353.953125 91.20703125 C360.54907119 84.96554011 366.31441568 77.32594122 371.09765625 69.62109375 C371.72542969 68.75613281 372.35320312 67.89117187 373 67 C376.25 66.625 376.25 66.625 379 67 C379.49405383 72.30127604 378.32975508 74.61706195 375.0625 78.75 C374.45668091 79.52380005 374.45668091 79.52380005 373.83862305 80.31323242 C370.42288933 84.61945182 366.78280251 88.72009624 363.0546875 92.7578125 C361.28310243 94.69106313 359.60217659 96.66289334 357.9375 98.6875 C332.33992132 128.72701145 290.36966946 145.76676416 255 161 C268.29170265 168.37395159 291.55550076 166.98328388 305.8125 163.3125 C320.10138979 159.06606247 332.07051436 153.20530165 342.87109375 142.85546875 C345 141 345 141 348 140 C348.268125 139.443125 348.53625 138.88625 348.8125 138.3125 C350.57902504 134.87242492 353.21136826 132.66738688 356 130 C357.32 130.66 358.64 131.32 360 132 C360.3359375 134.10546875 360.3359375 134.10546875 360 137 C358.27440105 139.31562333 356.62522603 141.26367204 354.625 143.3125 C354.0769873 143.88572998 353.52897461 144.45895996 352.96435547 145.04956055 C336.1331643 162.3665955 315.35821218 172.53251895 291.08984375 173.3359375 C288.70587203 173.36510478 286.32164857 173.37773319 283.9375 173.375 C282.05744263 173.37584595 282.05744263 173.37584595 280.1394043 173.37670898 C269.52465732 173.25253212 256.72201297 172.86100649 247 168 C241.48442906 166.95932624 238.58475411 167.93123271 233.84106445 171.02587891 C232.96067505 171.63181885 232.96067505 171.63181885 232.0625 172.25 C231.48266357 172.64493652 230.90282715 173.03987305 230.30541992 173.44677734 C228.04937732 175.08382265 226.26610039 176.46251945 225.015625 178.98828125 C224.99505504 181.63666422 225.69412376 183.48175577 226.6875 185.9375 C228.7288132 191.20971927 230.43284795 196.52285456 232.0546875 201.9375 C232.85736786 204.53791901 233.74844282 207.0722232 234.6875 209.625 C236.40501444 214.63752854 236.71476919 219.73798337 237 225 C240.08573945 223.63287354 242.11438695 222.09647897 244.43359375 219.65625 C245.39652344 218.65948242 245.39652344 218.65948242 246.37890625 217.64257812 C247.05824219 216.93552734 247.73757813 216.22847656 248.4375 215.5 C262.20421521 201.52129732 278.10287381 187.98923147 298.625 187.5625 C307.50375706 187.50680524 313.53611711 189.98725421 320.203125 195.98046875 C329.76292054 205.9963614 335.61989577 217.44302448 335.37109375 231.33203125 C334.36096701 241.31633658 329.48807344 249.47163217 322 256 C312.49693785 263.23751254 302.1786371 267.93251184 291 272 C289.94554687 272.38929688 288.89109375 272.77859375 287.8046875 273.1796875 C277.11510012 276.78009683 264.34262749 280 253 280 C253.02094727 280.58265625 253.04189453 281.1653125 253.06347656 281.765625 C253.77507395 304.68086252 249.78272755 326.39228896 234 344 C233.34644531 344.80566406 232.69289063 345.61132812 232.01953125 346.44140625 C218.18602364 362.94586432 197.72924642 371.83040025 176.53369141 373.72875977 C156.27660491 375.10107313 135.41677062 369.50888603 119.703125 356.3203125 C116.67905349 353.66259837 113.82956662 350.863403 111 348 C110.00033203 347.01580078 110.00033203 347.01580078 108.98046875 346.01171875 C93.21924782 329.39661678 87.36318309 305.74631009 87.89453125 283.4296875 C87.94673828 282.22699219 87.94673828 282.22699219 88 281 C86.73929687 280.87882812 85.47859375 280.75765625 84.1796875 280.6328125 C59.26198758 277.84039552 31.97468369 270.2776278 14 252 C13.47664063 251.47535156 12.95328125 250.95070313 12.4140625 250.41015625 C5.25458919 242.57812635 4.19700097 234.28206213 4.625 224.08984375 C5.46705329 212.55108222 12.66961552 202.73694869 21 195.0625 C22.3122558 194.01471034 23.6447322 192.99152794 25 192 C25.55558594 191.566875 26.11117187 191.13375 26.68359375 190.6875 C33.37297044 186.39676395 42.38081779 187.03565855 50 188 C63.2911432 191.15555588 73.84397999 199.56947687 83.6015625 208.75390625 C85.4395321 210.47513185 87.27386283 212.07232079 89.25 213.625 C92.20669454 216.17850892 94.67112641 218.90988222 97.1953125 221.8828125 C98.41614504 223.31504461 99.6619664 224.72628702 100.9296875 226.1171875 C104.14986509 229.65804668 106.34793497 232.45682117 108 237 C110.94729537 238.15811388 110.94729537 238.15811388 114 238 C114 238.66 114 239.32 114 240 C114.969375 239.855625 115.93875 239.71125 116.9375 239.5625 C121.28052169 238.93952558 125.63765234 238.46492141 130 238 C130 237.34 130 236.68 130 236 C130.721875 236.33 131.44375 236.66 132.1875 237 C135.06600869 238.02346976 136.97906721 238.15491963 140 238 C141.32 238 142.64 238 144 238 C144 239.32 144 240.64 144 242 C145.12148438 241.7834375 145.12148438 241.7834375 146.265625 241.5625 C147.25046875 241.376875 148.2353125 241.19125 149.25 241 C150.22453125 240.814375 151.1990625 240.62875 152.203125 240.4375 C155 240 155 240 159 240 C159 239.34 159 238.68 159 238 C165.8727829 237.5110273 169.25363041 237.95142143 175 242 C178.75748654 241.85548129 180.32551748 241.67448252 183 239 C185.6796875 238.953125 185.6796875 238.953125 188.875 239.25 C189.92429687 239.33765625 190.97359375 239.4253125 192.0546875 239.515625 C194.81883073 239.97020558 196.55574211 240.72171196 199 242 C202.31550202 241.72455805 202.31550202 241.72455805 205 240 C206.41589322 239.95319361 207.83383013 239.96248557 209.25 240 C212.66345638 240.04891896 215.65728956 239.73121791 219 239 C219.33 239.33 219.66 239.66 220 240 C222.71793945 240.07296482 225.42257315 239.99626869 228.140625 239.9375 C230.88970336 239.99758914 233.32828064 240.37594876 236 241 C236.103125 240.360625 236.20625 239.72125 236.3125 239.0625 C236.539375 238.381875 236.76625 237.70125 237 237 C237.99 236.67 238.98 236.34 240 236 C240.20970559 231.85906302 240.20970559 231.85906302 239 228 C236.87423218 227.53348793 236.87423218 227.53348793 234.4375 227.375 C233.61121094 227.30023438 232.78492188 227.22546875 231.93359375 227.1484375 C230.97646484 227.07496094 230.97646484 227.07496094 230 227 C229.67 227.66 229.34 228.32 229 229 C228.01 228.67 227.02 228.34 226 228 C224.43695441 228.00555256 222.8738249 228.05146822 221.3125 228.125 C216.25133341 228.18393644 212.57087546 227.04251702 208 225 C203.18705574 223.03553296 200.11036341 222.97792732 195 224 C195 223.34 195 222.68 195 222 C193.948125 221.855625 192.89625 221.71125 191.8125 221.5625 C188 221 188 221 185.1875 220.3125 C184.1046875 220.1578125 184.1046875 220.1578125 183 220 C182.34 220.66 181.68 221.32 181 222 C178.38419521 221.6730244 176.35921863 221.17960932 174 220 C171.99199544 220.28112064 169.98985949 220.61067967 168 221 C168 220.34 168 219.68 168 219 C166.824375 219.309375 165.64875 219.61875 164.4375 219.9375 C160.63567025 220.8930401 156.88790739 221.51401158 153 222 C153 221.34 153 220.68 153 220 C149.7 220 146.4 220 143 220 C143 218.35 143 216.7 143 215 C138.39257135 216.21044132 138.39257135 216.21044132 134 218 C132.60487587 218.07671762 131.20882009 218.1370306 129.8125 218.1875 C125.03827755 218.62500913 122.81944601 220.3761986 119.60546875 223.8203125 C118 225 118 225 115.80078125 224.6796875 C114.90939453 224.34324219 114.90939453 224.34324219 114 224 C114 224.66 114 225.32 114 226 C112.02 226.33 110.04 226.66 108 227 C108.66 226.67 109.32 226.34 110 226 C110.1546875 224.07414062 110.1546875 224.07414062 110.3125 222.109375 C110.84896569 216.1658999 113.30400725 211.499697 116 206.25 C116.92174604 204.42443076 117.83859677 202.59637975 118.75 200.765625 C119.15734375 199.96930664 119.5646875 199.17298828 119.984375 198.35253906 C121.04085012 195.90537699 121.57173715 193.62427373 122 191 C112.50736851 181.90163116 98.52933173 180.60578282 86 179 C85.70996094 179.78632813 85.41992188 180.57265625 85.12109375 181.3828125 C83.84899621 184.35251756 82.81820077 185.46279958 80 187 C79.01 186.67 78.02 186.34 77 186 C77.969375 185.4225 78.93875 184.845 79.9375 184.25 C82.99225186 182.33728882 82.99225186 182.33728882 84.0625 180.0625 C84.16406183 177.8317331 84.16406183 177.8317331 82.5625 175.625 C81 173 81 173 81.0625 170.0625 C80.9789246 165.96730551 79.49475038 164.18773659 77 161 C76.443125 160.175 75.88625 159.35 75.3125 158.5 C73.14110923 156.75351117 73.14110923 156.75351117 70.74609375 157.203125 C68.45577078 157.7049172 66.23488909 158.2932402 64 159 C65.39195915 156.2160817 67.15575779 156.02101003 70 155 C68.47688801 154.23844401 66.95373365 153.4769727 65.43041992 152.71582031 C64.02889278 152.01464056 62.62804103 151.31210959 61.2277832 150.60839844 C57.06887064 148.52114391 52.89843117 146.46270943 48.70703125 144.44140625 C36.25231495 138.39508241 24.48339226 131.73634636 13 124 C12.33468262 123.55237305 11.66936523 123.10474609 10.98388672 122.64355469 C3.99003027 117.89347922 -2.57727585 112.8562165 -8.76953125 107.078125 C-10.81782622 105.16973109 -12.92035597 103.36375274 -15.0625 101.5625 C-22.27241118 95.23219798 -28.27202304 87.86722901 -34.0625 80.25 C-34.55210205 79.62416016 -35.0417041 78.99832031 -35.54614258 78.35351562 C-38.43325226 74.46338466 -39.60889092 72.02527693 -39 67 C-36.29296875 66.609375 -36.29296875 66.609375 -33 67 C-31.11103485 69.08991889 -29.77272133 70.88920164 -28.3125 73.25 C-23.48077375 80.52025399 -18.04813579 86.72719349 -12 93 C-11.30777344 93.75539063 -10.61554688 94.51078125 -9.90234375 95.2890625 C6.55236285 112.72661285 28.26611035 124.01288997 49.125 135.25 C49.75225983 135.58868103 50.37951965 135.92736206 51.02578735 136.27630615 C52.80867262 137.2362785 54.5956584 138.18862344 56.3828125 139.140625 C57.41809082 139.69266602 58.45336914 140.24470703 59.52001953 140.81347656 C61.84248914 142.14386249 61.84248914 142.14386249 64 142 C63.14019531 141.27296875 62.28039062 140.5459375 61.39453125 139.796875 C37.24765697 119.2997493 37.24765697 119.2997493 28 107 C27.40960938 106.22527344 26.81921875 105.45054687 26.2109375 104.65234375 C16.58570978 91.4890757 10.0885083 77.4281081 5 62 C4.59910156 60.81921875 4.19820312 59.6384375 3.78515625 58.421875 C-0.7603142 43.94498044 -2.25330726 28.98963818 -2.3125 13.875 C-2.31797852 12.83746582 -2.32345703 11.79993164 -2.32910156 10.73095703 C-2.25802746 3.38704118 -2.25802746 3.38704118 0 0 Z " fill="#E5B697" transform="translate(80,63)"/>
<path d="M0 0 C1.32 0 2.64 0 4 0 C4.07516846 0.84481934 4.15033691 1.68963867 4.2277832 2.56005859 C8.29868934 47.78619497 17.95904974 83.68256448 49 118 C49.78761719 118.87269531 50.57523437 119.74539062 51.38671875 120.64453125 C62.85962933 132.7018006 77.07696593 142.02197367 91 151 C90.80889648 150.29093506 90.61779297 149.58187012 90.42089844 148.85131836 C90.1530957 147.85753174 89.88529297 146.86374512 89.609375 145.83984375 C89.31361572 144.742771 89.01785645 143.64569824 88.71313477 142.51538086 C88.06887643 140.12207138 87.42614547 137.72835024 86.78491211 135.33422852 C84.76153175 127.77916165 84.76153175 127.77916165 82.64453125 120.25 C80.75701352 113.59939602 79.51427242 107.92161805 80 101 C81.65 100.67 83.3 100.34 85 100 C87.19255249 104.05586218 88.54044407 107.65877856 89.39453125 112.18359375 C89.6251123 113.35245117 89.85569336 114.52130859 90.09326172 115.72558594 C90.33061035 116.95051758 90.56795898 118.17544922 90.8125 119.4375 C92.91829278 129.8443306 95.40136164 139.4113498 100 149 C104.67984198 148.48501739 109.00051395 147.87483582 113.5 146.4375 C114.78390625 146.03337891 114.78390625 146.03337891 116.09375 145.62109375 C116.7228125 145.41613281 117.351875 145.21117187 118 145 C117.83886719 144.28199219 117.67773438 143.56398437 117.51171875 142.82421875 C117.01731492 140.09556251 116.83344814 137.5818442 116.8125 134.8125 C116.79832031 133.95269531 116.78414062 133.09289062 116.76953125 132.20703125 C117 130 117 130 119 128 C122.53571429 128.53571429 122.53571429 128.53571429 124 130 C124.23427778 132.01594582 124.41336124 134.038474 124.5625 136.0625 C124.64628906 137.16722656 124.73007813 138.27195313 124.81640625 139.41015625 C124.87699219 140.26480469 124.93757812 141.11945313 125 142 C125.54712646 141.80365967 126.09425293 141.60731934 126.65795898 141.4050293 C142.75590627 135.68493797 157.42928028 131.81737999 174.5625 131.625 C175.47894287 131.61090088 176.39538574 131.59680176 177.33959961 131.58227539 C187.45568899 131.6555065 193.27499994 134.61738456 200.6015625 141.515625 C203.50575848 144.52388012 206.06498692 147.67877814 208.52734375 151.0546875 C209.90583607 152.87561369 211.37159608 154.40576234 213 156 C213.07516846 154.88757935 213.07516846 154.88757935 213.15185547 153.75268555 C213.38375913 150.39691863 213.62921531 147.04227757 213.875 143.6875 C213.95363281 142.52025391 214.03226563 141.35300781 214.11328125 140.15039062 C214.19707031 139.03212891 214.28085937 137.91386719 214.3671875 136.76171875 C214.44050293 135.73006592 214.51381836 134.69841309 214.58935547 133.63549805 C215 131 215 131 217 128 C221.875 128.875 221.875 128.875 223 130 C223.81072453 141.35014346 220.80465415 153.0179576 218.234375 164.01953125 C217.96916663 166.26054198 218.32709863 167.86113494 219 170 C236.06891872 160.00769705 242.28965555 146.11533343 247.39404297 127.40917969 C248.88107399 121.49700319 250.11148677 115.51927173 251.30126953 109.54101562 C251.49446777 108.59162109 251.68766602 107.64222656 251.88671875 106.6640625 C252.05389404 105.81279785 252.22106934 104.9615332 252.39331055 104.08447266 C253 102 253 102 255 100 C258.53571429 100.53571429 258.53571429 100.53571429 260 102 C260.27273077 107.12344232 259.60346554 111.74051598 258.375 116.6875 C258.20186279 117.40647461 258.02872559 118.12544922 257.8503418 118.86621094 C256.14805679 125.75182511 254.11754774 132.5373059 252.01904297 139.3112793 C250.81967409 143.18871778 249.6767054 146.98868605 249 151 C288.86890008 125.08245776 319.64038225 92.47310706 331 45 C331.18038818 44.26305908 331.36077637 43.52611816 331.54663086 42.7668457 C333.25229899 35.14777377 333.63010656 27.46398777 334.0625 19.6875 C334.21562996 17.02443939 334.37446891 14.36184774 334.53515625 11.69921875 C334.600979 10.53221436 334.66680176 9.36520996 334.73461914 8.1628418 C334.96938856 5.36483095 335.38109974 2.73516056 336 0 C338.4375 0.375 338.4375 0.375 341 1 C349.00780785 17.01561569 340.03873443 47.69490765 334.75 63.875 C324.49874429 93.49219089 306.62927333 118.45410761 281.55712891 137.42260742 C278.28914544 139.77518277 278.28914544 139.77518277 276 143 C303.70515619 129.16614884 329.4197084 114.47799926 352 93 C352.64453125 92.40832031 353.2890625 91.81664062 353.953125 91.20703125 C360.54907119 84.96554011 366.31441568 77.32594122 371.09765625 69.62109375 C371.72542969 68.75613281 372.35320312 67.89117187 373 67 C376.25 66.625 376.25 66.625 379 67 C379.49405383 72.30127604 378.32975508 74.61706195 375.0625 78.75 C374.45668091 79.52380005 374.45668091 79.52380005 373.83862305 80.31323242 C370.42288933 84.61945182 366.78280251 88.72009624 363.0546875 92.7578125 C361.28310243 94.69106313 359.60217659 96.66289334 357.9375 98.6875 C332.33992132 128.72701145 290.36966946 145.76676416 255 161 C268.29170265 168.37395159 291.55550076 166.98328388 305.8125 163.3125 C320.10138979 159.06606247 332.07051436 153.20530165 342.87109375 142.85546875 C345 141 345 141 348 140 C348.268125 139.443125 348.53625 138.88625 348.8125 138.3125 C350.57902504 134.87242492 353.21136826 132.66738688 356 130 C357.32 130.66 358.64 131.32 360 132 C360.3359375 134.10546875 360.3359375 134.10546875 360 137 C358.27440105 139.31562333 356.62522603 141.26367204 354.625 143.3125 C354.0769873 143.88572998 353.52897461 144.45895996 352.96435547 145.04956055 C336.1331643 162.3665955 315.35821218 172.53251895 291.08984375 173.3359375 C288.70587203 173.36510478 286.32164857 173.37773319 283.9375 173.375 C282.05744263 173.37584595 282.05744263 173.37584595 280.1394043 173.37670898 C269.52465732 173.25253212 256.72201297 172.86100649 247 168 C241.48442906 166.95932624 238.58475411 167.93123271 233.84106445 171.02587891 C232.96067505 171.63181885 232.96067505 171.63181885 232.0625 172.25 C231.48266357 172.64493652 230.90282715 173.03987305 230.30541992 173.44677734 C228.04937732 175.08382265 226.26610039 176.46251945 225.015625 178.98828125 C224.99505504 181.63666422 225.69412376 183.48175577 226.6875 185.9375 C228.7288132 191.20971927 230.43284795 196.52285456 232.0546875 201.9375 C232.85736786 204.53791901 233.74844282 207.0722232 234.6875 209.625 C236.40501444 214.63752854 236.71476919 219.73798337 237 225 C240.08573945 223.63287354 242.11438695 222.09647897 244.43359375 219.65625 C245.39652344 218.65948242 245.39652344 218.65948242 246.37890625 217.64257812 C247.05824219 216.93552734 247.73757813 216.22847656 248.4375 215.5 C262.20421521 201.52129732 278.10287381 187.98923147 298.625 187.5625 C307.50375706 187.50680524 313.53611711 189.98725421 320.203125 195.98046875 C329.76292054 205.9963614 335.61989577 217.44302448 335.37109375 231.33203125 C334.36096701 241.31633658 329.48807344 249.47163217 322 256 C312.49693785 263.23751254 302.1786371 267.93251184 291 272 C289.94554687 272.38929688 288.89109375 272.77859375 287.8046875 273.1796875 C277.11510012 276.78009683 264.34262749 280 253 280 C252.76925781 278.98421875 252.53851563 277.9684375 252.30078125 276.921875 C249.38003353 264.43788657 245.55102808 252.5625818 238 242 C237.34 241.67 236.68 241.34 236 241 C236.3125 239.0625 236.3125 239.0625 237 237 C237.99 236.67 238.98 236.34 240 236 C240.20970559 231.85906302 240.20970559 231.85906302 239 228 C236.87423218 227.53348793 236.87423218 227.53348793 234.4375 227.375 C233.61121094 227.30023438 232.78492188 227.22546875 231.93359375 227.1484375 C230.97646484 227.07496094 230.97646484 227.07496094 230 227 C229.67 227.66 229.34 228.32 229 229 C228.01 228.67 227.02 228.34 226 228 C224.43695441 228.00555256 222.8738249 228.05146822 221.3125 228.125 C216.25133341 228.18393644 212.57087546 227.04251702 208 225 C203.18705574 223.03553296 200.11036341 222.97792732 195 224 C195 223.34 195 222.68 195 222 C193.948125 221.855625 192.89625 221.71125 191.8125 221.5625 C188 221 188 221 185.1875 220.3125 C184.1046875 220.1578125 184.1046875 220.1578125 183 220 C182.34 220.66 181.68 221.32 181 222 C178.38419521 221.6730244 176.35921863 221.17960932 174 220 C171.99199544 220.28112064 169.98985949 220.61067967 168 221 C168 220.34 168 219.68 168 219 C166.824375 219.309375 165.64875 219.61875 164.4375 219.9375 C160.63567025 220.8930401 156.88790739 221.51401158 153 222 C153 221.34 153 220.68 153 220 C149.7 220 146.4 220 143 220 C143 218.35 143 216.7 143 215 C138.39257135 216.21044132 138.39257135 216.21044132 134 218 C132.60487587 218.07671762 131.20882009 218.1370306 129.8125 218.1875 C125.03827755 218.62500913 122.81944601 220.3761986 119.60546875 223.8203125 C118 225 118 225 115.80078125 224.6796875 C114.90939453 224.34324219 114.90939453 224.34324219 114 224 C114 224.66 114 225.32 114 226 C112.02 226.33 110.04 226.66 108 227 C108.66 226.67 109.32 226.34 110 226 C110.1546875 224.07414062 110.1546875 224.07414062 110.3125 222.109375 C110.84896569 216.1658999 113.30400725 211.499697 116 206.25 C116.92174604 204.42443076 117.83859677 202.59637975 118.75 200.765625 C119.15734375 199.96930664 119.5646875 199.17298828 119.984375 198.35253906 C121.04085012 195.90537699 121.57173715 193.62427373 122 191 C112.50736851 181.90163116 98.52933173 180.60578282 86 179 C85.70996094 179.78632813 85.41992188 180.57265625 85.12109375 181.3828125 C83.84899621 184.35251756 82.81820077 185.46279958 80 187 C79.01 186.67 78.02 186.34 77 186 C77.969375 185.4225 78.93875 184.845 79.9375 184.25 C82.99225186 182.33728882 82.99225186 182.33728882 84.0625 180.0625 C84.16406183 177.8317331 84.16406183 177.8317331 82.5625 175.625 C81 173 81 173 81.0625 170.0625 C80.9789246 165.96730551 79.49475038 164.18773659 77 161 C76.443125 160.175 75.88625 159.35 75.3125 158.5 C73.14110923 156.75351117 73.14110923 156.75351117 70.74609375 157.203125 C68.45577078 157.7049172 66.23488909 158.2932402 64 159 C65.39195915 156.2160817 67.15575779 156.02101003 70 155 C68.47688801 154.23844401 66.95373365 153.4769727 65.43041992 152.71582031 C64.02889278 152.01464056 62.62804103 151.31210959 61.2277832 150.60839844 C57.06887064 148.52114391 52.89843117 146.46270943 48.70703125 144.44140625 C36.25231495 138.39508241 24.48339226 131.73634636 13 124 C12.33468262 123.55237305 11.66936523 123.10474609 10.98388672 122.64355469 C3.99003027 117.89347922 -2.57727585 112.8562165 -8.76953125 107.078125 C-10.81782622 105.16973109 -12.92035597 103.36375274 -15.0625 101.5625 C-22.27241118 95.23219798 -28.27202304 87.86722901 -34.0625 80.25 C-34.55210205 79.62416016 -35.0417041 78.99832031 -35.54614258 78.35351562 C-38.43325226 74.46338466 -39.60889092 72.02527693 -39 67 C-36.29296875 66.609375 -36.29296875 66.609375 -33 67 C-31.11103485 69.08991889 -29.77272133 70.88920164 -28.3125 73.25 C-23.48077375 80.52025399 -18.04813579 86.72719349 -12 93 C-11.30777344 93.75539063 -10.61554688 94.51078125 -9.90234375 95.2890625 C6.55236285 112.72661285 28.26611035 124.01288997 49.125 135.25 C49.75225983 135.58868103 50.37951965 135.92736206 51.02578735 136.27630615 C52.80867262 137.2362785 54.5956584 138.18862344 56.3828125 139.140625 C57.41809082 139.69266602 58.45336914 140.24470703 59.52001953 140.81347656 C61.84248914 142.14386249 61.84248914 142.14386249 64 142 C63.14019531 141.27296875 62.28039062 140.5459375 61.39453125 139.796875 C37.24765697 119.2997493 37.24765697 119.2997493 28 107 C27.40960938 106.22527344 26.81921875 105.45054687 26.2109375 104.65234375 C16.58570978 91.4890757 10.0885083 77.4281081 5 62 C4.59910156 60.81921875 4.19820312 59.6384375 3.78515625 58.421875 C-0.7603142 43.94498044 -2.25330726 28.98963818 -2.3125 13.875 C-2.31797852 12.83746582 -2.32345703 11.79993164 -2.32910156 10.73095703 C-2.25802746 3.38704118 -2.25802746 3.38704118 0 0 Z " fill="#7B8467" transform="translate(80,63)"/>
<path d="M0 0 C6.41806647 4.06175452 11.99688659 8.79393887 17.51953125 13.9921875 C19.35750085 15.7134131 21.19183158 17.31060204 23.16796875 18.86328125 C26.12466329 21.41679017 28.58909516 24.14816347 31.11328125 27.12109375 C32.33411379 28.55332586 33.57993515 29.96456827 34.84765625 31.35546875 C38.06783384 34.89632793 40.26590372 37.69510242 41.91796875 42.23828125 C44.86526412 43.39639513 44.86526412 43.39639513 47.91796875 43.23828125 C47.91796875 43.89828125 47.91796875 44.55828125 47.91796875 45.23828125 C48.88734375 45.09390625 49.85671875 44.94953125 50.85546875 44.80078125 C55.19849044 44.17780683 59.55562109 43.70320266 63.91796875 43.23828125 C63.42296875 44.22828125 63.42296875 44.22828125 62.91796875 45.23828125 C60.88671875 45.90625 60.88671875 45.90625 58.41796875 46.42578125 C57.60328125 46.60496094 56.78859375 46.78414063 55.94921875 46.96875 C55.27890625 47.05769531 54.60859375 47.14664063 53.91796875 47.23828125 C53.58796875 46.90828125 53.25796875 46.57828125 52.91796875 46.23828125 C52.03109375 46.25890625 51.14421875 46.27953125 50.23046875 46.30078125 C46.72402875 46.234622 44.19218119 45.42890395 40.91796875 44.23828125 C40.25796875 44.23828125 39.59796875 44.23828125 38.91796875 44.23828125 C30.76830402 57.9086866 25.38190462 70.45306607 22.91796875 86.23828125 C-3.49552463 84.12806309 -33.02583724 76.61564707 -52.08203125 57.23828125 C-52.60539062 56.71363281 -53.12875 56.18898438 -53.66796875 55.6484375 C-60.82744206 47.8164076 -61.88503028 39.52034338 -61.45703125 29.328125 C-60.61497796 17.78936347 -53.41241573 7.97522994 -45.08203125 0.30078125 C-43.76977545 -0.74700841 -42.43729905 -1.77019081 -41.08203125 -2.76171875 C-40.52644531 -3.19484375 -39.97085938 -3.62796875 -39.3984375 -4.07421875 C-27.60458975 -11.63909214 -10.93169503 -6.24866218 0 0 Z " fill="#E9A988" transform="translate(146.08203125,257.76171875)"/>
<path d="M0 0 C9.07963819 7.16579288 16.3352622 17.68372181 19.390625 28.88671875 C20.62751513 39.64115292 18.77583824 48.31418228 12.76953125 57.31640625 C3.38411401 68.98258079 -10.91422889 74.90356703 -24.609375 79.88671875 C-25.66382813 80.27601563 -26.71828125 80.6653125 -27.8046875 81.06640625 C-38.49427488 84.66681558 -51.26674751 87.88671875 -62.609375 87.88671875 C-62.84011719 86.8709375 -63.07085937 85.85515625 -63.30859375 84.80859375 C-66.22934147 72.32460532 -70.05834692 60.44930055 -77.609375 49.88671875 C-78.269375 49.55671875 -78.929375 49.22671875 -79.609375 48.88671875 C-79.296875 46.94921875 -79.296875 46.94921875 -78.609375 44.88671875 C-77.124375 44.39171875 -77.124375 44.39171875 -75.609375 43.88671875 C-75.39966941 39.74578177 -75.39966941 39.74578177 -76.609375 35.88671875 C-78.62607327 34.75321341 -78.62607327 34.75321341 -80.609375 33.88671875 C-79.48789062 33.50193359 -79.48789062 33.50193359 -78.34375 33.109375 C-75.47609349 31.82712288 -74.00116746 30.58957616 -71.859375 28.32421875 C-70.83348267 27.25965454 -70.83348267 27.25965454 -69.78686523 26.17358398 C-69.06829346 25.41891846 -68.34972168 24.66425293 -67.609375 23.88671875 C-51.45370931 7.39961938 -23.97970739 -15.40014142 0 0 Z " fill="#EAA988" transform="translate(395.609375,255.11328125)"/>
<path d="M0 0 C2.4375 0.375 2.4375 0.375 5 1 C13.00780785 17.01561569 4.03873443 47.69490765 -1.25 63.875 C-11.50125571 93.49219089 -29.37072667 118.45410761 -54.44287109 137.42260742 C-57.71085456 139.77518277 -57.71085456 139.77518277 -60 143 C-32.29484381 129.16614884 -6.5802916 114.47799926 16 93 C16.64453125 92.40832031 17.2890625 91.81664062 17.953125 91.20703125 C24.54907119 84.96554011 30.31441568 77.32594122 35.09765625 69.62109375 C35.72542969 68.75613281 36.35320312 67.89117187 37 67 C40.25 66.625 40.25 66.625 43 67 C43.49405383 72.30127604 42.32975508 74.61706195 39.0625 78.75 C38.65862061 79.2658667 38.25474121 79.7817334 37.83862305 80.31323242 C34.42288933 84.61945182 30.78280251 88.72009624 27.0546875 92.7578125 C25.28310243 94.69106313 23.60217659 96.66289334 21.9375 98.6875 C-3.66007868 128.72701145 -45.63033054 145.76676416 -81 161 C-67.70829735 168.37395159 -44.44449924 166.98328388 -30.1875 163.3125 C-15.89861021 159.06606247 -3.92948564 153.20530165 6.87109375 142.85546875 C9 141 9 141 12 140 C12.268125 139.443125 12.53625 138.88625 12.8125 138.3125 C14.57902504 134.87242492 17.21136826 132.66738688 20 130 C21.32 130.66 22.64 131.32 24 132 C24.3359375 134.10546875 24.3359375 134.10546875 24 137 C22.27440105 139.31562333 20.62522603 141.26367204 18.625 143.3125 C18.0769873 143.88572998 17.52897461 144.45895996 16.96435547 145.04956055 C0.1331643 162.3665955 -20.64178782 172.53251895 -44.91015625 173.3359375 C-47.29412797 173.36510478 -49.67835143 173.37773319 -52.0625 173.375 C-53.94255737 173.37584595 -53.94255737 173.37584595 -55.8605957 173.37670898 C-66.47534268 173.25253212 -79.27798703 172.86100649 -89 168 C-94.56201396 166.9505634 -97.33760563 167.91990446 -102.0612793 171.12353516 C-104.74186645 173.03914784 -107.37408737 175.00991026 -110 177 C-111.485 177.99 -111.485 177.99 -113 179 C-113.99 176.03 -114.98 173.06 -116 170 C-115.20335937 169.45472656 -114.40671875 168.90945312 -113.5859375 168.34765625 C-106.96918057 163.6386504 -101.80614894 159.30926054 -98 152 C-97.57460938 151.19175781 -97.14921875 150.38351563 -96.7109375 149.55078125 C-90.53876018 136.88456461 -87.43239089 123.28184004 -84.69921875 109.54199219 C-84.50585938 108.59227539 -84.3125 107.64255859 -84.11328125 106.6640625 C-83.94610596 105.81279785 -83.77893066 104.9615332 -83.60668945 104.08447266 C-83 102 -83 102 -81 100 C-77.46428571 100.53571429 -77.46428571 100.53571429 -76 102 C-75.72726923 107.12344232 -76.39653446 111.74051598 -77.625 116.6875 C-77.79813721 117.40647461 -77.97127441 118.12544922 -78.1496582 118.86621094 C-79.85194321 125.75182511 -81.88245226 132.5373059 -83.98095703 139.3112793 C-85.18032591 143.18871778 -86.3232946 146.98868605 -87 151 C-47.13109992 125.08245776 -16.35961775 92.47310706 -5 45 C-4.81961182 44.26305908 -4.63922363 43.52611816 -4.45336914 42.7668457 C-2.74770101 35.14777377 -2.36989344 27.46398777 -1.9375 19.6875 C-1.78437004 17.02443939 -1.62553109 14.36184774 -1.46484375 11.69921875 C-1.399021 10.53221436 -1.33319824 9.36520996 -1.26538086 8.1628418 C-1.03061144 5.36483095 -0.61890026 2.73516056 0 0 Z " fill="#EBAB8B" transform="translate(416,63)"/>
<path d="M0 0 C7.87375482 5.25861083 14.83959827 11.41803957 21.5703125 18.05078125 C22.34246094 18.81003906 23.11460937 19.56929688 23.91015625 20.3515625 C27.5439804 24.17247462 27.5439804 24.17247462 28.5703125 26.05078125 C28.38462792 30.59231662 25.97617294 34.14769469 23.7578125 37.98828125 C19.77328572 45.11862751 17.43840453 52.07451987 15.5703125 60.05078125 C7.54691526 58.13224972 0.22872982 55.40621344 -7.2421875 51.92578125 C-8.29027588 51.43932129 -9.33836426 50.95286133 -10.41821289 50.45166016 C-23.6250307 44.20487513 -39.77180912 36.37510023 -45.83203125 22.140625 C-47.33250401 16.89387386 -47.44055619 12.38820521 -45.25390625 7.33203125 C-34.74753337 -11.12877897 -16.67505648 -9.47705374 0 0 Z " fill="#BC876D" transform="translate(154.4296875,275.94921875)"/>
<path d="M0 0 C4.49806319 4.62300939 7.91222714 9.93477144 8.5625 16.4375 C7.82762621 25.54993496 2.89103931 32.29183343 -3.75 38.3125 C-16.04143052 48.03347927 -36.64794924 61.3125 -52.75 61.3125 C-52.9459375 60.47589844 -53.141875 59.63929688 -53.34375 58.77734375 C-55.15639425 51.72209479 -57.38910171 45.47745306 -60.8125 39.0625 C-61.1528125 38.41917725 -61.493125 37.77585449 -61.84375 37.11303711 C-63.57573238 33.97971587 -64.7182229 32.33368473 -67.75 30.3125 C-67.4375 28.375 -67.4375 28.375 -66.75 26.3125 C-65.76 25.9825 -64.77 25.6525 -63.75 25.3125 C-63.75 22.6725 -63.75 20.0325 -63.75 17.3125 C-63.09 17.6425 -62.43 17.9725 -61.75 18.3125 C-61.42 19.3025 -61.09 20.2925 -60.75 21.3125 C-60.23953125 20.76722656 -59.7290625 20.22195313 -59.203125 19.66015625 C-44.30302041 4.20526053 -21.48003725 -13.18093195 0 0 Z " fill="#BC876D" transform="translate(383.75,273.6875)"/>
<path d="M0 0 C1.32 0 2.64 0 4 0 C4.07516846 0.84481934 4.15033691 1.68963867 4.2277832 2.56005859 C8.29868934 47.78619497 17.95904974 83.68256448 49 118 C49.78761719 118.87269531 50.57523437 119.74539062 51.38671875 120.64453125 C62.85962933 132.7018006 77.07696593 142.02197367 91 151 C90.80889648 150.29093506 90.61779297 149.58187012 90.42089844 148.85131836 C90.1530957 147.85753174 89.88529297 146.86374512 89.609375 145.83984375 C89.31361572 144.742771 89.01785645 143.64569824 88.71313477 142.51538086 C88.06887643 140.12207138 87.42614547 137.72835024 86.78491211 135.33422852 C84.76153175 127.77916165 84.76153175 127.77916165 82.64453125 120.25 C80.75701352 113.59939602 79.51427242 107.92161805 80 101 C81.65 100.67 83.3 100.34 85 100 C87.19255249 104.05586218 88.54044407 107.65877856 89.39453125 112.18359375 C89.74004028 113.93663818 89.74004028 113.93663818 90.0925293 115.72509766 C90.33011963 116.95019043 90.56770996 118.1752832 90.8125 119.4375 C93.49299136 137.05717635 93.49299136 137.05717635 103 151 C98.67914511 152.70046547 94.34240568 154.35542934 90 156 C88.89140625 156.43828125 87.7828125 156.8765625 86.640625 157.328125 C85.60421875 157.71484375 84.5678125 158.1015625 83.5 158.5 C82.09234375 159.04140625 82.09234375 159.04140625 80.65625 159.59375 C77.1392147 160.13164952 75.94312351 158.84822542 73 157 C70.53026587 157.05657724 70.53026587 157.05657724 68.1875 157.8125 C67.39730469 158.02519531 66.60710937 158.23789063 65.79296875 158.45703125 C65.20128906 158.63621094 64.60960937 158.81539062 64 159 C65.39195915 156.2160817 67.15575779 156.02101003 70 155 C68.47688801 154.23844401 66.95373365 153.4769727 65.43041992 152.71582031 C64.02889278 152.01464056 62.62804103 151.31210959 61.2277832 150.60839844 C57.06887064 148.52114391 52.89843117 146.46270943 48.70703125 144.44140625 C36.25231495 138.39508241 24.48339226 131.73634636 13 124 C12.33468262 123.55237305 11.66936523 123.10474609 10.98388672 122.64355469 C3.99003027 117.89347922 -2.57727585 112.8562165 -8.76953125 107.078125 C-10.81782622 105.16973109 -12.92035597 103.36375274 -15.0625 101.5625 C-22.27241118 95.23219798 -28.27202304 87.86722901 -34.0625 80.25 C-34.55210205 79.62416016 -35.0417041 78.99832031 -35.54614258 78.35351562 C-38.43325226 74.46338466 -39.60889092 72.02527693 -39 67 C-36.29296875 66.609375 -36.29296875 66.609375 -33 67 C-31.11103485 69.08991889 -29.77272133 70.88920164 -28.3125 73.25 C-23.48077375 80.52025399 -18.04813579 86.72719349 -12 93 C-11.30777344 93.75539063 -10.61554688 94.51078125 -9.90234375 95.2890625 C6.55236285 112.72661285 28.26611035 124.01288997 49.125 135.25 C49.75225983 135.58868103 50.37951965 135.92736206 51.02578735 136.27630615 C52.80867262 137.2362785 54.5956584 138.18862344 56.3828125 139.140625 C57.41809082 139.69266602 58.45336914 140.24470703 59.52001953 140.81347656 C61.84248914 142.14386249 61.84248914 142.14386249 64 142 C63.14019531 141.27296875 62.28039062 140.5459375 61.39453125 139.796875 C37.24765697 119.2997493 37.24765697 119.2997493 28 107 C27.40960938 106.22527344 26.81921875 105.45054687 26.2109375 104.65234375 C16.58570978 91.4890757 10.0885083 77.4281081 5 62 C4.59910156 60.81921875 4.19820312 59.6384375 3.78515625 58.421875 C-0.7603142 43.94498044 -2.25330726 28.98963818 -2.3125 13.875 C-2.31797852 12.83746582 -2.32345703 11.79993164 -2.32910156 10.73095703 C-2.25802746 3.38704118 -2.25802746 3.38704118 0 0 Z " fill="#EAAB8B" transform="translate(80,63)"/>
<path d="M0 0 C0 1.65 0 3.3 0 5 C1.27875 4.814375 2.5575 4.62875 3.875 4.4375 C7.75 3.875 7.75 3.875 10 5 C10 5.66 10 6.32 10 7 C10.58007812 6.7834375 11.16015625 6.566875 11.7578125 6.34375 C16.32553887 4.71564951 20.0780464 3.62138818 25 4 C25 4.66 25 5.32 25 6 C27.31 5.34 29.62 4.68 32 4 C32.99 4.99 32.99 4.99 34 6 C36.3987398 5.68437634 38.57753241 5.14317939 40.8671875 4.3671875 C43.58185154 3.89982776 45.18042043 4.49280163 47.75 5.4375 C48.54921875 5.72496094 49.3484375 6.01242187 50.171875 6.30859375 C50.77515625 6.53675781 51.3784375 6.76492188 52 7 C52 7.66 52 8.32 52 9 C53.11375 8.5875 54.2275 8.175 55.375 7.75 C60.16900605 6.51530928 63.24607714 7.89353894 67.60546875 9.95703125 C71.45142279 11.63218578 74.96162726 12.12525995 79.125 11.9375 C83 12 83 12 86 14 C86.33 13.01 86.66 12.02 87 11 C88.45945288 11.08708669 89.91765868 11.19526907 91.375 11.3125 C92.59316406 11.39951172 92.59316406 11.39951172 93.8359375 11.48828125 C96 12 96 12 98 15 C98.125 18.1875 98.125 18.1875 98 21 C96.02 21.495 96.02 21.495 94 22 C93.67 23.65 93.34 25.3 93 27 C92.030625 26.835 91.06125 26.67 90.0625 26.5 C86.37356716 25.96125119 82.79085597 25.9784022 79.0703125 26.03515625 C77 26 77 26 74.25 25.4375 C71.54634129 24.91178858 69.67123978 25.39897105 67 26 C66.113125 25.979375 65.22625 25.95875 64.3125 25.9375 C61.80139781 25.74010576 61.80139781 25.74010576 60 28 C56.56191285 27.67256313 53.32581458 26.82310963 50 25.9375 C46.56968197 25.07337408 43.55540243 24.595977 40 25 C39.34 25.515625 38.68 26.03125 38 26.5625 C36 28 36 28 33 27.875 C30 27 30 27 28.140625 25.48828125 C25.56458541 23.69727563 23.85555077 23.51681255 20.75 23.3125 C19.85796875 23.24675781 18.9659375 23.18101562 18.046875 23.11328125 C17.37140625 23.07589844 16.6959375 23.03851563 16 23 C16 23.66 16 24.32 16 25 C10.77487721 26.46670113 6.4185766 27.22577402 1 27 C0.505 25.02 0.505 25.02 0 23 C-1.216875 23.226875 -2.43375 23.45375 -3.6875 23.6875 C-6.97620691 24.11976343 -7.87346463 24.06063153 -11 22.5625 C-11.66 22.046875 -12.32 21.53125 -13 21 C-13 21.66 -13 22.32 -13 23 C-18.45461169 24.38529821 -23.36718401 25.2396943 -29 25 C-29 24.34 -29 23.68 -29 23 C-29.763125 23.226875 -30.52625 23.45375 -31.3125 23.6875 C-34 24 -34 24 -35.65625 22.8125 C-37.37897603 20.48882303 -37.31179709 19.171333 -37.1875 16.3125 C-37.16042969 15.50425781 -37.13335937 14.69601562 -37.10546875 13.86328125 C-37.07066406 13.24839844 -37.03585938 12.63351562 -37 12 C-34.36 11.67 -31.72 11.34 -29 11 C-29 10.34 -29 9.68 -29 9 C-28.29875 8.938125 -27.5975 8.87625 -26.875 8.8125 C-23.77236816 8.16649124 -23.77236816 8.16649124 -21.25 5.5 C-18.05819463 2.60664916 -15.2627009 2.37649623 -11.05078125 2.23828125 C-6.86646783 1.75210388 -4.64731435 -0.2065473 0 0 Z " fill="#FCFCFC" transform="translate(223,278)"/>
<path d="M0 0 C4.78568001 3.48658999 8.84763261 8.81708821 10.23046875 14.625 C11.24591382 22.372985 9.62605415 28.18185077 5.23046875 34.625 C-0.11975984 40.9311007 -6.69268828 43.10730565 -14.70703125 44.125 C-20.72157607 43.84888317 -26.22063685 40.88019463 -30.66796875 36.9453125 C-36.38463004 30.67092815 -37.29584769 24.12935309 -37.14453125 15.81640625 C-36.38834893 9.3809796 -32.95227957 5.53143011 -28.33203125 1.25 C-19.87600031 -5.41342481 -9.18007467 -5.13733909 0 0 Z " fill="#D88881" transform="translate(263.76953125,368.375)"/>
<path d="M0 0 C0.33 0 0.66 0 1 0 C1.15855469 0.7734375 1.31710938 1.546875 1.48046875 2.34375 C3.40572333 10.93825663 5.37492444 17.945235 13.0625 22.875 C15.6662773 24.34961447 18.32055154 25.66027577 21 27 C21 33.27 21 39.54 21 46 C7.07486071 47.08790151 -7.25826051 41.24457652 -19 34 C-20.71801656 32.38631643 -22.40140165 30.73206203 -24 29 C-23.29875 28.40574219 -22.5975 27.81148438 -21.875 27.19921875 C-13.76865261 20.11717884 -7.74267598 12.48816888 -2.0625 3.3125 C-1.381875 2.219375 -0.70125 1.12625 0 0 Z " fill="#EEBF9E" transform="translate(225,390)"/>
<path d="M0 0 C3.09581185 2.01473469 5.2652139 4.72954663 7.65234375 7.50390625 C26.01323104 28.0175665 48.80525653 33.4779599 75.21484375 35.44140625 C75.54484375 34.45140625 75.87484375 33.46140625 76.21484375 32.44140625 C76.87484375 32.44140625 77.53484375 32.44140625 78.21484375 32.44140625 C78.87484375 31.12140625 79.53484375 29.80140625 80.21484375 28.44140625 C79.90409767 32.06677714 79.41245492 33.25367564 76.71484375 35.81640625 C73.62015999 39.06582419 73.53454967 41.04544978 73.21484375 45.44140625 C72.90580392 46.78057886 72.58541464 48.11793879 72.21484375 49.44140625 C71.22484375 46.47140625 71.22484375 46.47140625 70.21484375 43.44140625 C69.36664063 43.40402344 68.5184375 43.36664063 67.64453125 43.328125 C42.76580963 41.93382302 21.69238349 33.11532284 4.21484375 15.44140625 C3.29703125 14.53390625 2.37921875 13.62640625 1.43359375 12.69140625 C-3.30873465 7.77343606 -3.30873465 7.77343606 -4.78515625 5.44140625 C-4.640625 2.71484375 -4.640625 2.71484375 -3.78515625 0.44140625 C-1.78515625 -0.55859375 -1.78515625 -0.55859375 0 0 Z " fill="#E7A98B" transform="translate(63.78515625,193.55859375)"/>
<path d="M0 0 C3.58899031 3.38960196 6.60901432 6.66080377 9 11 C9.04080783 12.99958364 9.04254356 15.00045254 9 17 C9.804375 18.2684375 9.804375 18.2684375 10.625 19.5625 C12 22 12 22 11.4375 24.625 C9.8866719 27.18723774 8.56396848 28.47764371 6 30 C5.34 30 4.68 30 4 30 C4 30.66 4 31.32 4 32 C3.278125 31.979375 2.55625 31.95875 1.8125 31.9375 C-0.97994524 31.88527784 -0.97994524 31.88527784 -3.5 32.6875 C-7.95020859 33.24377607 -10.37386929 30.48382828 -13.75 27.875 C-16.7610163 24.02759028 -17.43911453 20.84683022 -17 16 C-15.55527607 11.9563018 -13.6122022 9.4081348 -10 7 C-9.86722656 6.33484375 -9.73445312 5.6696875 -9.59765625 4.984375 C-9.40042969 4.32953125 -9.20320312 3.6746875 -9 3 C-6.93359375 1.953125 -6.93359375 1.953125 -4.4375 1.25 C-3.61121094 1.00765625 -2.78492188 0.7653125 -1.93359375 0.515625 C-1.29550781 0.34546875 -0.65742188 0.1753125 0 0 Z " fill="#FDFDFD" transform="translate(153,219)"/>
<path d="M0 0 C0.87011719 0.50660156 0.87011719 0.50660156 1.7578125 1.0234375 C2.92957031 1.69246094 2.92957031 1.69246094 4.125 2.375 C5.27355469 3.03628906 5.27355469 3.03628906 6.4453125 3.7109375 C16.28148199 8.67414229 27.60467435 8.32593531 37.94921875 4.94921875 C40.22321459 3.89668353 42.00288838 2.50098705 44 1 C44.66 1 45.32 1 46 1 C45.48850686 8.41665055 43.6800575 12.3199425 38.3125 17.6875 C33.23147939 21.65504758 26.55029461 23.7060265 20.10546875 23.41015625 C13.16469548 22.05805756 7.39160821 18.32812538 3.1171875 12.76171875 C0.44175342 8.54276502 -0.08219859 4.88259633 0 0 Z " fill="#C27A74" transform="translate(227,389)"/>
<path d="M0 0 C0.33 0 0.66 0 1 0 C1 3.3 1 6.6 1 10 C2.98 10 4.96 10 7 10 C7 10.66 7 11.32 7 12 C11.0100934 12.17864631 11.0100934 12.17864631 15 12 C15.66 11.34 16.32 10.68 17 10 C21.01812782 9.439331 22.67885961 9.79312304 26.12890625 12.015625 C30.47751794 14.59849247 34.31592039 14.39192562 39.25 14.125 C47.64113208 13.76075472 47.64113208 13.76075472 51 16 C50.505 17.485 50.505 17.485 50 19 C49.34 18.67 48.68 18.34 48 18 C46.29636178 17.77377919 44.58671299 17.59111527 42.875 17.4375 C41.96492188 17.35371094 41.05484375 17.26992188 40.1171875 17.18359375 C39.41851562 17.12300781 38.71984375 17.06242187 38 17 C38 17.66 38 18.32 38 19 C32.77487721 20.46670113 28.4185766 21.22577402 23 21 C22.505 19.02 22.505 19.02 22 17 C20.783125 17.226875 19.56625 17.45375 18.3125 17.6875 C15.02379309 18.11976343 14.12653537 18.06063153 11 16.5625 C10.34 16.046875 9.68 15.53125 9 15 C9 15.66 9 16.32 9 17 C3.54538831 18.38529821 -1.36718401 19.2396943 -7 19 C-7 18.34 -7 17.68 -7 17 C-7.763125 17.226875 -8.52625 17.45375 -9.3125 17.6875 C-12 18 -12 18 -13.65625 16.8125 C-15.37897603 14.48882303 -15.31179709 13.171333 -15.1875 10.3125 C-15.16042969 9.50425781 -15.13335937 8.69601562 -15.10546875 7.86328125 C-15.07066406 7.24839844 -15.03585938 6.63351562 -15 6 C-12.36 5.67 -9.72 5.34 -7 5 C-7 4.34 -7 3.68 -7 3 C-6.21625 2.87625 -5.4325 2.7525 -4.625 2.625 C-1.85942178 2.20882007 -1.85942178 2.20882007 0 0 Z " fill="#DFDFDF" transform="translate(201,284)"/>
<path d="M0 0 C0.33 0 0.66 0 1 0 C1.07476562 0.9178125 1.14953125 1.835625 1.2265625 2.78125 C2.05981757 10.5582973 2.84901136 16.74761258 9 22 C13.81525825 25.27727443 18.86917502 27.87608286 24.86328125 27.4140625 C32.26309172 25.98009557 38.29978545 23.92532291 42.91796875 17.75 C44.25792205 15.58285531 45.26085714 13.43917143 46 11 C46.33 11 46.66 11 47 11 C46.53494986 17.74322699 45.37119653 21.93070166 40.16796875 26.66796875 C35.77479163 30.20435033 33.94122657 31.00979557 28 32 C28 38.93 28 45.86 28 53 C25.36 53 22.72 53 20 53 C19.505 43.1 19.505 43.1 19 33 C16.36 31.68 13.72 30.36 11 29 C5.45021461 25.51525103 2.01985725 19.87921162 0.36328125 13.578125 C-0.03579275 10.74598692 -0.09694654 8.04656277 -0.0625 5.1875 C-0.05347656 4.21167969 -0.04445312 3.23585938 -0.03515625 2.23046875 C-0.02355469 1.49441406 -0.01195312 0.75835937 0 0 Z " fill="#D7AB8E" transform="translate(226,384)"/>
<path d="M0 0 C3.37495058 0.02428022 5.14420406 0.59958588 7.75 2.75 C10.71512766 5.78744785 11.22350987 6.44950263 11.625 10.625 C11.25578153 15.05562166 10.14411153 16.99279734 7.3125 20.375 C4.10842697 22.72465355 1.20975235 22.92061533 -2.6875 22.375 C-5.61233867 20.54952064 -8.12179205 18.50641589 -9.6875 15.375 C-10.10818924 12.31598826 -10.17778455 9.42741674 -9.6875 6.375 C-7.25 3.375 -7.25 3.375 -4.6875 1.375 C-3.6875 0.375 -3.6875 0.375 0 0 Z " fill="#8B6E5B" transform="translate(291.6875,333.625)"/>
<path d="M0 0 C3.5386994 1.65139305 4.81070153 2.71605229 7 6 C7.67577735 9.73455906 7.69852858 13.36218785 6.1953125 16.88671875 C3.87258879 20.19459769 1.39583312 21.48170049 -2.4375 22.1875 C-5.89709774 22.36654429 -7.78050513 21.9059369 -10.5 19.75 C-13.39175777 16.56906645 -13.89664625 14.91295814 -14.375 10.6875 C-13.87765929 5.79698299 -12.42915508 4.42915508 -9 1 C-5.93570224 -0.53214888 -3.3834358 -0.22938548 0 0 Z " fill="#8B6E5B" transform="translate(213,333)"/>
<path d="M0 0 C4.875 0.875 4.875 0.875 6 2 C6.42986878 8.01816291 5.70021772 13.64596088 4.6875 19.5625 C4.56987305 20.27019531 4.45224609 20.97789062 4.33105469 21.70703125 C3.42012658 26.73926838 1.90579946 31.25418565 0 36 C-2.64241644 33.48591784 -3.97960204 31.55831085 -5 28 C-4.79296875 25.34375 -4.79296875 25.34375 -4.1875 22.5 C-3.0968554 16.8939478 -2.62013478 11.41527991 -2.34375 5.71484375 C-2 3 -2 3 0 0 Z " fill="#EBAC8D" transform="translate(297,191)"/>
<path d="M0 0 C1.65 0.33 3.3 0.66 5 1 C6.11077049 12.29283332 0.18906445 19.92866709 -6.6796875 28.41796875 C-7.11539063 28.94003906 -7.55109375 29.46210938 -8 30 C-8 27.02888711 -7.51420619 25.33565344 -6.5625 22.5625 C-5.28790783 18.53809324 -4.77055486 14.90061086 -4.5625 10.6875 C-4.28235023 5.95540499 -3.66062176 3.30636804 0 0 Z " fill="#4D5240" transform="translate(215,221)"/>
<path d="M0 0 C1.32 1.65 2.64 3.3 4 5 C3.01 5.33 2.02 5.66 1 6 C1.474375 7.093125 1.94875 8.18625 2.4375 9.3125 C3.40187809 11.53476255 4.23166828 13.69500485 5 16 C5.66 16.33 6.32 16.66 7 17 C7 17.66 7 18.32 7 19 C9.97 19.33 12.94 19.66 16 20 C16.33 20.99 16.66 21.98 17 23 C16.278125 22.979375 15.55625 22.95875 14.8125 22.9375 C12.02005476 22.88527784 12.02005476 22.88527784 9.5 23.6875 C5.04979141 24.24377607 2.62613071 21.48382828 -0.75 18.875 C-3.75193256 15.03919729 -4.46140437 11.83650649 -4 7 C-2.94068688 4.3173876 -1.67541161 2.38619229 0 0 Z " fill="#D2D2D2" transform="translate(140,228)"/>
<path d="M0 0 C3.53571429 0.53571429 3.53571429 0.53571429 5 2 C5.39666227 4.18019479 5.74315237 6.3696463 6.0625 8.5625 C6.32740234 10.35880859 6.32740234 10.35880859 6.59765625 12.19140625 C6.73042969 13.11824219 6.86320313 14.04507813 7 15 C4.36 15.66 1.72 16.32 -1 17 C-2.29205445 12.15479581 -2.51999304 6.97959436 -2 2 C-1.34 1.34 -0.68 0.68 0 0 Z " fill="#EAAB8B" transform="translate(199,191)"/>
<path d="M0 0 C2 1 2 1 3.125 3.3125 C4.36756666 8.54903094 4.15601296 13.64355504 4 19 C3.030625 19.12375 2.06125 19.2475 1.0625 19.375 C0.051875 19.58125 -0.95875 19.7875 -2 20 C-2.33 20.66 -2.66 21.32 -3 22 C-3.99 21.67 -4.98 21.34 -6 21 C-7.72795352 20.93197033 -9.45835365 20.91504355 -11.1875 20.9375 C-12.08855469 20.94652344 -12.98960937 20.95554687 -13.91796875 20.96484375 C-14.94857422 20.98224609 -14.94857422 20.98224609 -16 21 C-16 20.01 -16 19.02 -16 18 C-14.95199219 17.92652344 -14.95199219 17.92652344 -13.8828125 17.8515625 C-12.97273438 17.77679688 -12.06265625 17.70203125 -11.125 17.625 C-9.76761719 17.52058594 -9.76761719 17.52058594 -8.3828125 17.4140625 C-5.82058097 17.20431868 -5.82058097 17.20431868 -4 15 C-0.875 15.375 -0.875 15.375 2 16 C2.2396943 10.36718401 1.38529821 5.45461169 0 0 Z " fill="#595E50" transform="translate(312,270)"/>
<path d="M0 0 C1.98 0 3.96 0 6 0 C6 0.66 6 1.32 6 2 C7.27875 1.773125 8.5575 1.54625 9.875 1.3125 C15.30148546 0.70287901 20.04067001 1.74413148 25 4 C26.7890625 5.609375 26.7890625 5.609375 28 7 C24.53757091 7.31476628 22.84510985 6.9282916 19.625 5.4375 C15.50920992 3.80537635 13.25915793 4.0438625 9 5 C9 4.34 9 3.68 9 3 C7.88625 2.87625 6.7725 2.7525 5.625 2.625 C2 2 2 2 0 0 Z " fill="#515546" transform="translate(266,282)"/>
<path d="M0 0 C1.61841797 0.20882813 1.61841797 0.20882813 3.26953125 0.421875 C4.89955078 0.61523438 4.89955078 0.61523438 6.5625 0.8125 C7.80966797 0.99039062 7.80966797 0.99039062 9.08203125 1.171875 C8.75203125 2.161875 8.42203125 3.151875 8.08203125 4.171875 C7.50195312 4.18605469 6.921875 4.20023437 6.32421875 4.21484375 C0.22448043 4.58727002 -2.59786477 5.85177102 -6.91796875 10.171875 C-7.57796875 9.841875 -8.23796875 9.511875 -8.91796875 9.171875 C-7.93861951 7.49299059 -6.93452956 5.82849261 -5.91796875 4.171875 C-5.51578125 3.45 -5.11359375 2.728125 -4.69921875 1.984375 C-2.91796875 0.171875 -2.91796875 0.171875 0 0 Z " fill="#585C4C" transform="translate(205.91796875,276.828125)"/>
<path d="M0 0 C0 0.66 0 1.32 0 2 C3.3 2 6.6 2 10 2 C7.4345406 4.5654594 5.52313332 4.54046087 2 5 C2 4.34 2 3.68 2 3 C0.80375 3.309375 -0.3925 3.61875 -1.625 3.9375 C-5.06402439 4.80031573 -8.49136573 5.47370486 -12 6 C-10.60147088 3.20294175 -8.86348142 3.09085007 -6 2 C-3 0 -3 0 0 0 Z " fill="#565A4C" transform="translate(246,279)"/>
<path d="M0 0 C-3.08809695 1.76462683 -4.23312136 2 -8 2 C-8 1.34 -8 0.68 -8 0 C-9.45922693 0.11409593 -10.91740598 0.24165544 -12.375 0.375 C-13.18710937 0.44460938 -13.99921875 0.51421875 -14.8359375 0.5859375 C-17.20334191 0.82892588 -17.20334191 0.82892588 -19 3 C-21.625 2.625 -21.625 2.625 -24 2 C-23.360625 1.690625 -22.72125 1.38125 -22.0625 1.0625 C-20.06389179 0.1654837 -20.06389179 0.1654837 -19 -1 C-12.28893202 -2.3182455 -6.53005346 -1.9085422 0 0 Z " fill="#6F775D" transform="translate(280,282)"/>
<path d="M0 0 C1.65 1.65 3.3 3.3 5 5 C4.34 5 3.68 5 3 5 C3 5.66 3 6.32 3 7 C1.02 7.33 -0.96 7.66 -3 8 C-2.34 7.67 -1.68 7.34 -1 7 C-1.020625 6.030625 -1.04125 5.06125 -1.0625 4.0625 C-1 1 -1 1 0 0 Z " fill="#585B51" transform="translate(191,282)"/>
<path d="M0 0 C2.97 0.99 5.94 1.98 9 3 C9 3.33 9 3.66 9 4 C4.545 4.495 4.545 4.495 0 5 C0 3.35 0 1.7 0 0 Z " fill="#545849" transform="translate(223,278)"/>
<path d="M0 0 C0.99 0.144375 1.98 0.28875 3 0.4375 C6.99409465 1.00925179 10.99532937 1.50819834 15 2 C15 2.33 15 2.66 15 3 C7.375 4 7.375 4 4 4 C1.8125 2 1.8125 2 0 0 Z " fill="#70775F" transform="translate(289,285)"/>
<path d="M0 0 C1.2065625 0.0309375 1.2065625 0.0309375 2.4375 0.0625 C0.25 2.125 0.25 2.125 -2.5625 4.0625 C-5.375 3.8125 -5.375 3.8125 -7.5625 3.0625 C-6.923125 2.753125 -6.28375 2.44375 -5.625 2.125 C-1.57454819 0.03840361 -1.57454819 0.03840361 0 0 Z " fill="#5C6053" transform="translate(263.5625,280.9375)"/>
<path d="M0 0 C2.02045442 0.60183749 4.02111039 1.27306096 6 2 C6.33 2.66 6.66 3.32 7 4 C2.44615385 4.36923077 2.44615385 4.36923077 0.1875 2.5 C-0.4003125 1.7575 -0.4003125 1.7575 -1 1 C-0.67 0.67 -0.34 0.34 0 0 Z " fill="#5D6154" transform="translate(287,285)"/>
</svg>
