<?xml version="1.0" ?><svg data-name="Layer 1" id="Layer_1" viewBox="0 0 128 128" xmlns="http://www.w3.org/2000/svg"><title/><path d="M103.13,47.64A1.17,1.17,0,1,0,102,46.47,1.17,1.17,0,0,0,103.13,47.64Z"/><path d="M73.53,65.91a1,1,0,1,0-1.86-.72c-1.26,3.24-6.82,4.23-12.14,2.16a14.23,14.23,0,0,1-6.37-4.63,5.58,5.58,0,0,1-1.19-5,18.54,18.54,0,0,0,6,1.07c4.51,0,8.31-1.88,9.6-5.22a1,1,0,0,0-1.86-.72c-1.51,3.88-7.65,5.13-13.68,2.78a15.27,15.27,0,0,1-7-5.23c-1.46-2.1-1.88-4.25-1.18-6.06A1,1,0,0,0,42,43.66c-1,2.45-.46,5.26,1.4,7.92A16.75,16.75,0,0,0,50.11,57c-.75,2.13-.25,4.56,1.43,6.87a16.26,16.26,0,0,0,7.26,5.32,17.7,17.7,0,0,0,6.35,1.26C69.14,70.47,72.39,68.84,73.53,65.91Z"/><path d="M90.86,91.52a.78.78,0,0,0,.26,0c10.81-2.87,12-16.81,12-17.4A1,1,0,0,0,102.2,73a1,1,0,0,0-1.07.92c0,.13-1.09,13.11-10.53,15.62a1,1,0,0,0,.26,2Z"/><path d="M79.72,93.11h.11A30.71,30.71,0,0,1,84.68,93a1,1,0,0,0,.16-2,31.45,31.45,0,0,0-5.22.08,1,1,0,0,0,.1,2Z"/><path d="M28.91,82.42c-7.43-2.62-10.11-8.08-10.13-8.14a1,1,0,0,0-1-.57,1,1,0,0,0-.88.71C14,84,21,89.18,24.1,90.91a11,11,0,0,0-2.73,11.41A11.27,11.27,0,0,0,30,109.69a6.9,6.9,0,0,0,4.87-1.52,6.72,6.72,0,0,0,1,3.79c2.21,3.68,7.51,4.38,7.73,4.41h.13a1,1,0,0,0,.89-.56C53.44,98,63.05,98.48,74.18,99.06c6,.31,12.83.66,20.06-1.94a20.87,20.87,0,0,0,12.52-11.44c2.7-6.28,2.5-14.21-.55-21.21a8.43,8.43,0,0,1-.4-6.61c1.36-3.45,5.15-5.52,7.29-6.44a1.76,1.76,0,0,0,0-3.21h0l-.5-.23a9.16,9.16,0,0,1-4.2-3.87,9.64,9.64,0,0,0-8.34-4.83c-5.93,0-9.06,5.26-10.7,10.31C86.75,43,80.78,37.44,76.9,35.8c-19.57-8-24.06-17.37-25-22.22a2.39,2.39,0,0,0-4.29-1,42.8,42.8,0,0,0-2.91,4.54,1,1,0,0,0,.38,1.36,1,1,0,0,0,1.37-.39,39.93,39.93,0,0,1,2.78-4.33.36.36,0,0,1,.4-.15A.39.39,0,0,1,50,14c1,5.26,5.75,15.32,26.18,23.7,4.09,1.73,10.76,8.25,12.31,15.58-.19.89-.34,1.73-.45,2.47A47.76,47.76,0,0,0,65.71,37.59C45.5,30,40,19.26,38.56,13.52a2.33,2.33,0,0,0-2-1.75,2.43,2.43,0,0,0-2.43,1.17C22.34,33,31.5,48,33,50.22c.17,21.26,17.89,27,25.52,28.5C46.67,83.92,36.71,85.16,28.91,82.42ZM63,78a1,1,0,0,0-.92-.8,37,37,0,0,1-13.59-4C39.56,68.38,35,60.55,35,49.9a1,1,0,0,0-.21-.61c-.45-.6-11-14.87,1.08-35.34a.41.41,0,0,1,.42-.2.35.35,0,0,1,.3.27C38.18,20.13,43.94,31.57,65,39.46A45.9,45.9,0,0,1,87.76,59.22a1,1,0,0,0,1.09.53,1,1,0,0,0,.8-.92c0-.17,1.16-17.55,10.45-17.55a7.65,7.65,0,0,1,6.61,3.83,11.1,11.1,0,0,0,5.1,4.69c-2.48,1.14-6.34,3.47-7.86,7.32a10.37,10.37,0,0,0,.42,8.15c2.84,6.5,3,13.84.55,19.62A18.87,18.87,0,0,1,93.56,95.23c-6.85,2.47-13.16,2.14-19.28,1.83-11.2-.58-21.79-1.13-31.21,17.2-1.33-.29-4.27-1.15-5.59-3.33-.85-1.41-.87-3.22-.06-5.36a1,1,0,0,0-.47-1.24,1,1,0,0,0-.47-.11,1,1,0,0,0-.81.42c-1,1.42-3.66,3.38-5.38,3.08a9.27,9.27,0,0,1-7-6.06c-2.1-6,3.12-10.15,3.18-10.19a1,1,0,0,0,.39-.93,1,1,0,0,0-.62-.8c-.39-.16-9-3.77-7.88-12.47a21.17,21.17,0,0,0,9.86,7c9,3.2,20.53,1.46,34.29-5.16A1,1,0,0,0,63,78Z"/><path d="M52.93,90.06c-5.32,2.63-18.19,1.48-18.32,1.47a1,1,0,0,0-1.08.9,1,1,0,0,0,.9,1.09,72.42,72.42,0,0,0,13-.06,43.86,43.86,0,0,0-6.22,4.73,1,1,0,0,0,0,1.42,1,1,0,0,0,.69.27,1,1,0,0,0,.73-.31c1.78-1.88,8.4-6.2,11.16-7.74a1,1,0,0,0-.93-1.77Z"/><path d="M22.22,37.47a1,1,0,0,0-1.4.18,10,10,0,0,0-2,7.78,10.46,10.46,0,0,0,4.38,6.87,1,1,0,0,0,.58.19,1,1,0,0,0,.58-1.82,8.44,8.44,0,0,1-3.56-5.56,8,8,0,0,1,1.63-6.24A1,1,0,0,0,22.22,37.47Z"/><path d="M20.72,57.56l.25,0a1,1,0,0,0,.26-2,7.38,7.38,0,0,1-4.4-3.12,6.24,6.24,0,0,1-.78-5,1,1,0,0,0-.71-1.23,1,1,0,0,0-1.22.72,8.24,8.24,0,0,0,1,6.55A9.37,9.37,0,0,0,20.72,57.56Z"/></svg>