<?xml version="1.0" ?><svg data-name="Layer 1" id="Layer_1" viewBox="0 0 128 128" xmlns="http://www.w3.org/2000/svg"><title/><path d="M121.5,70.75a6,6,0,0,0-5.41-6,6,6,0,0,0-3-11.54,6,6,0,0,0-6-10.35,6,6,0,0,0-8.46-8.45,5.92,5.92,0,0,0,.31-4,6,6,0,0,0-7.37-4.25,5.87,5.87,0,0,0-3.29,2.31,6,6,0,0,0-9-6.18,6,6,0,0,0-2.59,3.09,6,6,0,0,0-12-.06,6,6,0,0,0-11.54,3.15,6,6,0,0,0-7.86-1.71,6,6,0,0,0-2.5,7.63,6,6,0,0,0-8.45,8.45,6,6,0,0,0-6,10.35,6,6,0,0,0-3,11.54,6,6,0,0,0,0,12,5.91,5.91,0,0,0-3.08,2.58,6,6,0,0,0,2.2,8.22,6.06,6.06,0,0,0,3,.81,5.54,5.54,0,0,0,1-.1,6,6,0,0,0,1.93,10.68,5.85,5.85,0,0,0,4.05-.35,6,6,0,0,0,8.38,8.5,6,6,0,0,0,2.5,7.62,5.89,5.89,0,0,0,3,.81A6,6,0,0,0,53.24,113a6,6,0,0,0,11.53,3.09,6,6,0,0,0,12,0A6,6,0,0,0,82.32,120a6.05,6.05,0,0,0,1.57-.21A6,6,0,0,0,88.27,113a5.9,5.9,0,0,0,3.29,2.3,6.05,6.05,0,0,0,1.57.21,6,6,0,0,0,5.49-8.44,6,6,0,0,0,8.45-8.45A6,6,0,0,0,113,88.25a5.54,5.54,0,0,0,1,.1,6,6,0,0,0,5.2-9,5.91,5.91,0,0,0-3.08-2.58A6,6,0,0,0,121.5,70.75ZM116,55.7a4,4,0,0,1-1,7.35,4,4,0,0,1-4.91-2.84A4,4,0,0,1,116,55.7Zm-6.48-11.33a3.67,3.67,0,0,1,1,.14A3.93,3.93,0,0,1,113,46.38a4,4,0,0,1-7,4,4,4,0,0,1,3.47-6Zm-7.1-9.26a4,4,0,1,1-2.84,1.17A4,4,0,0,1,102.39,35.11ZM89.64,30a4,4,0,0,1,2.44-1.87,4.21,4.21,0,0,1,1-.14A4,4,0,0,1,97,31a4,4,0,0,1-.4,3,4,4,0,0,1-7-4ZM78.45,26.5a4,4,0,0,1,1.87-2.44,4,4,0,0,1,2-.54,4.21,4.21,0,0,1,1.05.14,4,4,0,0,1,2.84,4.92,4,4,0,0,1-7.36,1A4,4,0,0,1,78.45,26.5ZM70.75,22a4,4,0,1,1-4,4A4,4,0,0,1,70.75,22Zm-15,3.53a4,4,0,0,1,2.43-1.87,4.19,4.19,0,0,1,1-.14,4,4,0,0,1,1,7.89,4,4,0,0,1-4.51-5.88ZM44.51,31a4,4,0,0,1,3.87-3,4.13,4.13,0,0,1,1,.14A4,4,0,1,1,44.91,34,3.94,3.94,0,0,1,44.51,31Zm-8.23,5.31a4,4,0,1,1,0,5.67,4,4,0,0,1,0-5.67Zm-7.75,10.1A4,4,0,0,1,34,44.91a4,4,0,1,1-5.48,1.47Zm-4.47,14.8a4,4,0,0,1,3.47-6,3.79,3.79,0,0,1,1,.14,4,4,0,1,1-4.52,5.88ZM22,70.75a4,4,0,1,1,4,4A4,4,0,0,1,22,70.75Zm3.53,15.06a4,4,0,0,1,1-7.36,4.19,4.19,0,0,1,1.05-.13,4.07,4.07,0,0,1,2,.53,4,4,0,0,1-4,7ZM31,97a4,4,0,1,1,3-.4A4,4,0,0,1,31,97Zm8.15,9.4a4,4,0,0,1-2.84-1.18,4,4,0,0,1,0-5.67,4,4,0,1,1,2.84,6.85Zm12.74,5.1A4,4,0,0,1,46.38,113a4,4,0,1,1,5.48-1.47ZM63.05,115a4,4,0,1,1-5.88-4.51,3.93,3.93,0,0,1,2-.54,4.13,4.13,0,0,1,1,.14A4,4,0,0,1,63.05,115Zm7.7,4.5a4,4,0,1,1,4-4A4,4,0,0,1,70.75,119.5ZM85.81,116a4,4,0,0,1-7.36-1,4,4,0,0,1,2.84-4.91,4.21,4.21,0,0,1,1-.14,4,4,0,0,1,3.87,3A4,4,0,0,1,85.81,116Zm1.38-5.53a6,6,0,0,0-10.07.52,6.13,6.13,0,0,0-.77,2.36,6,6,0,0,0-11.2,0,6,6,0,0,0-4.42-5.17,5.92,5.92,0,0,0-4.56.6,5.75,5.75,0,0,0-1.85,1.68,6,6,0,0,0-9.7-5.62,6.08,6.08,0,0,0,.51-2.43,6,6,0,0,0-8.47-5.48,6,6,0,0,0-3.1-9.6,6,6,0,0,0-2.48-.13,6,6,0,0,0-.53-10.06,6.18,6.18,0,0,0-2.37-.77,6,6,0,0,0,0-11.2,6,6,0,0,0,2.9-10.83,5.62,5.62,0,0,0,.92.08,6.07,6.07,0,0,0,5.22-3,6,6,0,0,0-.53-6.77,6,6,0,0,0,6.68-1.25,6,6,0,0,0,1.24-6.69,6,6,0,0,0,9.71-5.61,5.86,5.86,0,0,0,1.85,1.68,6,6,0,0,0,9-4.58,6,6,0,0,0,11.2,0,6.08,6.08,0,0,0,.77,2.36,6,6,0,0,0,8.22,2.21,6.09,6.09,0,0,0,1.85-1.68,6,6,0,0,0,5.92,7,6.5,6.5,0,0,0,1.57-.2,6,6,0,0,0,2.21-1.14,5.94,5.94,0,0,0-.52,2.44,6,6,0,0,0,6,6,5.89,5.89,0,0,0,2.43-.52,6,6,0,0,0,4.69,9.79,5.62,5.62,0,0,0,.92-.08,6,6,0,0,0-2.27,6.41,6,6,0,0,0,5.19,4.41,6,6,0,0,0,0,11.21,6.13,6.13,0,0,0-2.36.77,6,6,0,0,0-2.2,8.22,5.89,5.89,0,0,0,1.67,1.84,6,6,0,0,0-5.58,9.74,6,6,0,0,0-8.48,5.47,5.89,5.89,0,0,0,.52,2.43,6,6,0,0,0-6.78-.53A6,6,0,0,0,87.19,110.44ZM95.13,113a4,4,0,0,1-5.49-1.47A4,4,0,0,1,91.11,106a4,4,0,0,1,3-.4,4,4,0,0,1,1,7.35Zm10.09-7.75a4,4,0,1,1,0-5.67A4,4,0,0,1,105.22,105.22ZM113,95.13a4,4,0,0,1-7-4,4,4,0,0,1,3.48-2,4,4,0,0,1,3.47,6Zm4.47-14.81a4,4,0,0,1,.4,3.05,4,4,0,0,1-7.35,1,4,4,0,0,1-.4-3,4,4,0,0,1,7.35-1Zm-2-5.55a4,4,0,1,1,4-4A4,4,0,0,1,115.49,74.77Z"/><path d="M20.52,34.21l12.93.13h0a1,1,0,0,0,1-1L34.32,20.4a1,1,0,0,0-.92-1L28.14,19a1,1,0,0,0-.78.29l-7.91,7.91a1,1,0,0,0-.29.78l.37,5.26A1,1,0,0,0,20.52,34.21Zm2.23-2,9.6-9.59.1,9.69Zm5.7-11.16,2.46.17L21.36,30.8l-.17-2.47Z"/><path d="M20.06,18.65l-4.39-4.39a1,1,0,0,0-1.41,1.41l4.39,4.39a1,1,0,0,0,1.41,0A1,1,0,0,0,20.06,18.65Z"/><path d="M6.56,23.38a1,1,0,0,0,.59,1.28l6.22,2.26a1,1,0,0,0,.34.06A1,1,0,0,0,14.05,25L7.84,22.79A1,1,0,0,0,6.56,23.38Z"/><path d="M26,14.71a1.07,1.07,0,0,0,.35-.06,1,1,0,0,0,.59-1.28L24.67,7.16a1,1,0,0,0-1.29-.6,1,1,0,0,0-.59,1.28L25,14.05A1,1,0,0,0,26,14.71Z"/></svg>