<?xml version="1.0" encoding="UTF-8"?>
<svg version="1.1" xmlns="http://www.w3.org/2000/svg" width="500" height="500">
<path d="M0 0 C165 0 330 0 500 0 C500 165 500 330 500 500 C335 500 170 500 0 500 C0 335 0 170 0 0 Z " fill="#FEFEFE" transform="translate(0,0)"/>
<path d="M0 0 C5.75960936 -0.27104044 8.08753345 0.255639 12.46875 4.1875 C19.0110822 7.32729397 26.66397655 8.61977216 33.72265625 6.515625 C37.87798709 6.01911321 41.24659312 7.34131332 45.15625 8.6875 C45.95844971 8.96086182 46.76064941 9.23422363 47.5871582 9.51586914 C56.55746937 12.72441411 63.21528663 17.568549 69.7578125 24.43359375 C72.80706081 27.55942135 76.15277408 30.35078623 79.46875 33.1875 C80.149375 33.77273437 80.83 34.35796875 81.53125 34.9609375 C83.17476037 36.37250084 84.82141531 37.78040162 86.46875 39.1875 C81.28518758 45.32592918 75.89162737 51.26091663 70.46875 57.1875 C66.47434892 55.4657754 63.23132721 52.79801014 59.84375 50.125 C55.84752222 46.86557651 55.84752222 46.86557651 51.46875 44.1875 C51.39785156 44.96351563 51.32695312 45.73953125 51.25390625 46.5390625 C50.1736843 51.55860132 48.06696384 55.92341761 45.90625 60.5625 C45.26913086 61.95275391 45.26913086 61.95275391 44.61914062 63.37109375 C43.57538024 65.64625685 42.52511818 67.91817035 41.46875 70.1875 C55.67702151 73.76717973 69.25781853 75.78243162 83.93652344 75.82202148 C96.88497239 75.93545635 96.88497239 75.93545635 102.46875 79.1875 C102.79875 80.1775 103.12875 81.1675 103.46875 82.1875 C99.96098216 83.79105101 97.32520121 84.40786864 93.46875 84.1875 C97.08711815 89.84120024 100.92271035 93.4305054 106.46875 97.1875 C106.13875 97.8475 105.80875 98.5075 105.46875 99.1875 C97.87319431 101.7193519 89.75338833 100.11477408 82.46875 97.1875 C81.09090839 96.03574852 79.73892164 94.85257161 78.41015625 93.64453125 C71.23527303 88.500515 63.1472263 88.92130543 54.63671875 88.9453125 C51.83712042 88.93748146 49.05458832 88.82288865 46.2578125 88.703125 C37.59657246 88.28351458 37.59657246 88.28351458 29.82531738 91.43139648 C21.60275015 100.56563584 21.66906146 113.41320016 22.24658203 125.00195312 C22.78182324 130.26731504 24.94461989 134.61452128 27.46875 139.1875 C27.96503906 140.1465625 28.46132813 141.105625 28.97265625 142.09375 C34.93821551 153.0186296 43.04811966 162.3863255 51.09375 171.8125 C61.95362562 184.57707799 71.04870621 196.92367596 74.87890625 213.4609375 C75.19575127 214.81334282 75.19575127 214.81334282 75.51899719 216.19306946 C77.97856049 227.00065743 79.79787458 237.91829973 81.58129883 248.85424805 C82.15754839 252.38295075 82.74688269 255.90928914 83.33789062 259.43554688 C88.68650903 291.64540117 88.68650903 291.64540117 88.46875 302.1875 C88.11874964 305.29080792 88.11874964 305.29080792 90.40234375 307.16015625 C91.64177734 308.19462891 91.64177734 308.19462891 92.90625 309.25 C97.37968117 313.00936235 97.37968117 313.00936235 98.46875 315.1875 C98.38223369 316.73363014 98.22872364 318.27659387 98.03125 319.8125 C97.92941406 320.62976563 97.82757813 321.44703125 97.72265625 322.2890625 C97.63886719 322.91554688 97.55507813 323.54203125 97.46875 324.1875 C72.16016531 325.03320766 72.16016531 325.03320766 62.46875 320.1875 C61.84375 317.625 61.84375 317.625 61.46875 315.1875 C61.015 316.156875 60.56125 317.12625 60.09375 318.125 C58.46875 321.1875 58.46875 321.1875 56.46875 322.1875 C50.93028846 322.41826923 50.93028846 322.41826923 48.46875 321.1875 C48.46875 315.5775 48.46875 309.9675 48.46875 304.1875 C46.15875 303.5275 43.84875 302.8675 41.46875 302.1875 C41.39802277 301.36081314 41.32729553 300.53412628 41.25442505 299.68238831 C40.58078672 291.81431284 39.90452604 283.94646782 39.22546577 276.07885838 C38.87661302 272.0360079 38.5287039 267.99308125 38.18310547 263.94995117 C37.84829081 260.0334193 37.51079638 256.11712604 37.17159653 252.2009716 C37.0439282 250.72187105 36.91715619 249.24269278 36.79138565 247.76342964 C36.43764248 243.60677804 36.06639982 239.45239435 35.66859627 235.29971695 C35.53093723 233.84476979 35.39828915 232.3893427 35.26977348 230.93355942 C34.31677963 219.13309601 34.31677963 219.13309601 29.64453125 208.40625 C29.26578857 207.78693604 28.8870459 207.16762207 28.49682617 206.52954102 C27.2858331 204.56333938 26.03509644 202.62658494 24.78125 200.6875 C23.92494348 199.31373614 23.0717132 197.93805039 22.22143555 196.56054688 C20.49888149 193.77737401 18.7617276 191.00426764 17.01171875 188.23828125 C13.15445415 182.12314135 9.47831233 175.90019677 5.78125 169.6875 C4.54935779 167.63470765 3.31641139 165.58254727 2.08203125 163.53125 C1.57454346 162.68755859 1.06705566 161.84386719 0.54418945 160.97460938 C0.18929443 160.38486328 -0.16560059 159.79511719 -0.53125 159.1875 C0.73415818 163.86743326 2.23129802 168.39346307 3.90414429 172.94265747 C17.32141779 209.56178982 24.73112861 246.72400309 31.61693859 285.00392723 C33.10064002 293.24921937 34.67046616 301.47276472 36.38752747 309.67297363 C36.98889047 312.57501846 37.46875 315.21362458 37.46875 318.1875 C35.48875 318.8475 33.50875 319.5075 31.46875 320.1875 C31.62537109 321.31285156 31.62537109 321.31285156 31.78515625 322.4609375 C32.16476697 327.24523772 32.30093466 330.80052557 29.78125 335 C23.43564248 342.2269419 15.11782518 349.13953302 5.46875 351.1875 C1.33284762 351.11856829 -0.69136015 350.8726733 -3.90625 348.25 C-6.21506508 345.31958086 -6.97279954 343.16948205 -6.96484375 339.3984375 C-6.17554053 335.37370218 -3.92295847 332.03238112 -1.84375 328.54296875 C-0.36900015 326.34572925 -0.36900015 326.34572925 -0.53125 324.1875 C-6.47125 322.7025 -6.47125 322.7025 -12.53125 321.1875 C-12.55312378 319.52255493 -12.55312378 319.52255493 -12.57543945 317.82397461 C-12.90526585 294.46842992 -13.61637388 271.3849322 -16.53125 248.1875 C-16.69828275 246.78798619 -16.86477094 245.3884073 -17.03076172 243.98876953 C-17.46295242 240.3892348 -17.93492754 236.79669573 -18.4342041 233.20587158 C-18.70691258 231.21156652 -18.95509424 229.21395391 -19.20214844 227.21630859 C-20.47209741 218.70233132 -23.04460158 212.62265989 -27.56884766 205.44506836 C-38.0284255 188.08227323 -42.91411593 166.41410545 -42.79199219 146.39990234 C-42.78130039 144.3222919 -42.79193256 142.24555263 -42.8046875 140.16796875 C-42.81763074 128.83952793 -41.55423806 118.02636605 -38.40625 107.125 C-37.27741224 103.1987869 -36.53125 100.28910515 -36.53125 96.1875 C-35.92832988 91.46531049 -34.02626368 87.4176791 -32.1171875 83.10546875 C-31.43146128 81.51793655 -30.74659193 79.930034 -30.0625 78.34179688 C-28.98675013 75.85633372 -27.90570317 73.37376452 -26.80957031 70.8972168 C-25.74913749 68.49450934 -24.71282532 66.08251511 -23.6796875 63.66796875 C-23.34955658 62.93748825 -23.01942566 62.20700775 -22.67929077 61.45439148 C-19.96561638 55.02538259 -20.24771481 49.71486607 -22.87109375 43.15234375 C-23.12955078 42.48783203 -23.38800781 41.82332031 -23.65429688 41.13867188 C-23.92306641 40.47416016 -24.19183594 39.80964844 -24.46875 39.125 C-28.14114177 29.85913561 -30.96067626 21.31371595 -29.53125 11.1875 C-24.94755955 4.90129596 -15.62458336 2.38850976 -8.26171875 0.65234375 C-5.52007697 0.25589453 -2.76126858 0.20453841 0 0 Z " fill="#EAA988" transform="translate(267.53125,117.8125)"/>
<path d="M0 0 C2.7734375 -0.3046875 2.7734375 -0.3046875 6 0 C15.0490984 9.40677028 18.53185949 23.4404925 18.31982422 36.10913086 C17.98605644 40.16963251 17.15698721 43.85458924 15.984375 47.734375 C15.76572784 48.46523819 15.54708069 49.19610138 15.32180786 49.94911194 C12.49650355 59.04574024 8.6805396 67.71804783 4.875 76.4375 C4.11887581 78.18967416 3.36375919 79.94228345 2.60961914 81.6953125 C1.11348164 85.17090033 -0.38699732 88.6445572 -1.89111328 92.11669922 C-4.82308073 98.89362483 -7.69456042 105.69579638 -10.5625 112.5 C-11.43862821 114.57299016 -12.31490926 116.64591574 -13.19140625 118.71875 C-13.79432544 120.14581026 -14.39721425 121.57288337 -15 123 C-12.07710159 125.99941407 -9.17348487 128.75290805 -5.8125 131.25 C-0.6221254 135.24063228 4.24492189 139.50248235 9 144 C9.5976416 144.56364258 10.1952832 145.12728516 10.81103516 145.70800781 C20.13587551 154.57485925 28.36630411 163.73735864 35.77490234 174.26220703 C36.85953399 175.80074989 37.96901205 177.32171062 39.08203125 178.83984375 C49.68091129 193.45659989 49.68091129 193.45659989 51 202 C44.43702099 205.94567876 38.09754844 208.83347305 30.734375 210.9296875 C27.89056277 211.74475502 25.08036492 212.60138987 22.265625 213.5078125 C21.43675781 213.77464844 20.60789062 214.04148437 19.75390625 214.31640625 C18.1308903 214.84053153 16.50845562 215.36646156 14.88671875 215.89453125 C7.99419302 218.09873999 1.28919434 220.16718336 -6 220 C-6.3717334 219.21052979 -6.7434668 218.42105957 -7.12646484 217.60766602 C-14.74922525 201.47301891 -22.39376836 185.56059345 -32.21484375 170.6171875 C-52.19062937 139.7421371 -43.07621896 102.17959577 -35.953125 68.4140625 C-35.6369152 66.94238555 -35.3198448 65.47089122 -35 64 C-42.16729645 73.88033101 -49.29738251 83.78369512 -56.30371094 93.77905273 C-59.89908199 98.89908199 -59.89908199 98.89908199 -61 100 C-60.99899995 108.3574496 -58.8166887 116.21005285 -56.5625 124.1875 C-55.83801991 126.82081303 -55.11606836 129.45466974 -54.3984375 132.08984375 C-54.20801376 132.78687408 -54.01759003 133.48390442 -53.82139587 134.20205688 C-51.05883869 144.37789009 -48.56585432 154.62403651 -46.04421997 164.86166382 C-45.43100203 167.3509288 -44.81557177 169.8396346 -44.19921875 172.328125 C-44.00719879 173.10768051 -43.81517883 173.88723602 -43.61734009 174.69041443 C-42.6173403 178.70412672 -41.51257191 182.63895255 -40.21875 186.5703125 C-38.74766751 191.29495698 -38.65298761 195.70874627 -38.8125 200.625 C-38.83280273 201.84509766 -38.83280273 201.84509766 -38.85351562 203.08984375 C-38.88828651 205.06019407 -38.94206455 207.03019471 -39 209 C-41.97 209.33 -44.94 209.66 -48 210 C-48 208.02 -48 206.04 -48 204 C-48.58265625 204.51949219 -49.1653125 205.03898438 -49.765625 205.57421875 C-58.67272284 213.15085386 -68.41980315 218.1910891 -80.25 218.0625 C-81.32765625 218.05347656 -82.4053125 218.04445313 -83.515625 218.03515625 C-84.33546875 218.02355469 -85.1553125 218.01195312 -86 218 C-84.9790625 217.01 -84.9790625 217.01 -83.9375 216 C-81.69030445 213.73999992 -79.51235506 211.4267505 -77.375 209.0625 C-76.52035156 208.12083984 -76.52035156 208.12083984 -75.6484375 207.16015625 C-73.69284089 204.59749055 -72.3669933 201.91210997 -71 199 C-72.0621875 198.93941406 -73.124375 198.87882813 -74.21875 198.81640625 C-88.15671621 197.99797889 -88.15671621 197.99797889 -95 197 C-94.90912109 196.03513672 -94.90912109 196.03513672 -94.81640625 195.05078125 C-94.53672212 192.03449544 -94.26784422 189.0173606 -94 186 C-93.91186035 185.02998047 -93.8237207 184.05996094 -93.73291016 183.06054688 C-93.03058383 174.7610563 -92.8082391 166.51489999 -92.8125 158.1875 C-92.8117749 157.52714752 -92.8110498 156.86679504 -92.81030273 156.18643188 C-92.81133375 147.65104677 -93.25953757 139.55111294 -94.54296875 131.12109375 C-95.27147928 125.52147732 -95.26957186 119.88885934 -95.3125 114.25 C-95.32990234 113.21963623 -95.34730469 112.18927246 -95.36523438 111.12768555 C-95.35096118 88.84188122 -82.64054348 71.97714909 -70.95556641 54.01806641 C-68.26675843 49.868373 -65.62954095 45.6873993 -63 41.5 C-58.19851244 33.87543492 -53.35571752 26.2775907 -48.5 18.6875 C-47.47519531 17.08455078 -47.47519531 17.08455078 -46.4296875 15.44921875 C-45.16099348 13.46783208 -43.87954958 11.49452713 -42.58300781 9.53125 C-40.99841106 7.14336825 -40.99841106 7.14336825 -40.12792969 4.953125 C-39.390625 3.29296875 -39.390625 3.29296875 -37 1 C-32.39646882 0.26938785 -27.89538637 0.4388026 -23.25 0.625 C-21.98027344 0.65207031 -20.71054688 0.67914063 -19.40234375 0.70703125 C-16.26652094 0.7777641 -13.13411337 0.87643508 -10 1 C-10.03480469 2.00160156 -10.06960937 3.00320312 -10.10546875 4.03515625 C-10.41732647 15.78601619 -10.41732647 15.78601619 -4.625 25.75 C-2.18696199 27.83974686 0.18314521 29.47085026 3 31 C2.7834375 29.91332031 2.7834375 29.91332031 2.5625 28.8046875 C1.60449608 23.81508377 0.72392851 19.10732262 1 14 C3 14 3 14 4.625 15.5 C5.07875 15.995 5.5325 16.49 6 17 C4.58595858 13.09455228 3.19901425 9.39065761 1.3125 5.6875 C0 3 0 3 0 0 Z " fill="#545B47" transform="translate(197,233)"/>
<path d="M0 0 C3.63 0 7.26 0 11 0 C11.53625 1.175625 12.0725 2.35125 12.625 3.5625 C15.1077921 8.50176485 18.0827243 14.0141311 23.54296875 15.859375 C26 17 26 17 27.3359375 19.3984375 C27.67882812 20.38070312 28.02171875 21.36296875 28.375 22.375 C34.22151855 37.53264068 44.20766841 49.42016567 54.625 61.625 C65.48487562 74.38957799 74.57995621 86.73617596 78.41015625 103.2734375 C78.72700127 104.62584282 78.72700127 104.62584282 79.05024719 106.00556946 C81.50981049 116.81315743 83.32912458 127.73079973 85.11254883 138.66674805 C85.68879839 142.19545075 86.27813269 145.72178914 86.86914062 149.24804688 C92.21775903 181.45790117 92.21775903 181.45790117 92 192 C91.64999964 195.10330792 91.64999964 195.10330792 93.93359375 196.97265625 C94.75988281 197.66230469 95.58617187 198.35195313 96.4375 199.0625 C100.91093117 202.82186235 100.91093117 202.82186235 102 205 C101.91348369 206.54613014 101.75997364 208.08909387 101.5625 209.625 C101.46066406 210.44226563 101.35882813 211.25953125 101.25390625 212.1015625 C101.17011719 212.72804688 101.08632813 213.35453125 101 214 C75.69141531 214.84570766 75.69141531 214.84570766 66 210 C65.375 207.4375 65.375 207.4375 65 205 C64.54625 205.969375 64.0925 206.93875 63.625 207.9375 C62 211 62 211 60 212 C54.46153846 212.23076923 54.46153846 212.23076923 52 211 C52 205.39 52 199.78 52 194 C49.69 193.34 47.38 192.68 45 192 C44.92927277 191.17331314 44.85854553 190.34662628 44.78567505 189.49488831 C44.11203672 181.62681284 43.43577604 173.75896782 42.75671577 165.89135838 C42.40786302 161.8485079 42.0599539 157.80558125 41.71435547 153.76245117 C41.37954081 149.8459193 41.04204638 145.92962604 40.70284653 142.0134716 C40.5751782 140.53437105 40.44840619 139.05519278 40.32263565 137.57592964 C39.96889248 133.41927804 39.59764982 129.26489435 39.19984627 125.11221695 C39.06218723 123.65726979 38.92953915 122.2018427 38.80102348 120.74605942 C37.84802963 108.94559601 37.84802963 108.94559601 33.17578125 98.21875 C32.60773521 97.28998299 32.60773521 97.28998299 32.0282135 96.342453 C30.81708721 94.37618336 29.5662364 92.43930857 28.3125 90.5 C27.45542541 89.12405968 26.6014638 87.74617581 25.75048828 86.36645508 C24.02753455 83.58086714 22.28991253 80.80542336 20.53857422 78.03759766 C16.71583325 71.98206679 13.05163855 65.83233015 9.375 59.6875 C8.74247314 58.64464844 8.10994629 57.60179687 7.45825195 56.52734375 C6.88163818 55.5734375 6.30502441 54.61953125 5.7109375 53.63671875 C5.20868652 52.80873779 4.70643555 51.98075684 4.18896484 51.12768555 C3 49 3 49 2 46 C2.99 45.01 3.98 44.02 5 43 C3.68 43 2.36 43 1 43 C0.21358035 37.47057185 -0.13742082 32.14273002 -0.09765625 26.5625 C-0.0962413 25.79695801 -0.09482635 25.03141602 -0.09336853 24.24267578 C-0.08782853 21.82840858 -0.07528779 19.41423856 -0.0625 17 C-0.05747723 15.35026177 -0.05291569 13.70052206 -0.04882812 12.05078125 C-0.03787886 8.03381745 -0.02065666 4.01692513 0 0 Z " fill="#EAA988" transform="translate(264,228)"/>
<path d="M0 0 C1.25425781 0.05027344 2.50851563 0.10054687 3.80078125 0.15234375 C5.07050781 0.17941406 6.34023437 0.20648438 7.6484375 0.234375 C10.78327577 0.30508564 13.917242 0.41270207 17.05078125 0.52734375 C17.05078125 6.46734375 17.05078125 12.40734375 17.05078125 18.52734375 C13.13688946 16.17900868 11.40374083 15.12517765 8.73828125 11.83984375 C8.22652344 11.21722656 7.71476562 10.59460938 7.1875 9.953125 C6.81238281 9.48261719 6.43726563 9.01210937 6.05078125 8.52734375 C5.87071533 9.83215698 5.87071533 9.83215698 5.68701172 11.16333008 C3.35676621 27.7567387 0.91210772 43.74256899 -4.94921875 59.52734375 C-5.27921875 60.51734375 -5.60921875 61.50734375 -5.94921875 62.52734375 C-6.67882812 63.25179687 -7.4084375 63.97625 -8.16015625 64.72265625 C-11.4429245 68.02381536 -13.94987219 71.57287362 -16.57421875 75.40234375 C-19.66749792 79.90475638 -22.7551138 84.35575646 -26.2109375 88.58984375 C-26.72382324 89.23324707 -27.23670898 89.87665039 -27.76513672 90.53955078 C-28.73137491 91.74222572 -29.7201299 92.92730581 -30.73486328 94.08935547 C-33.53270849 97.63013714 -34.25446791 100.12288738 -33.95703125 104.6484375 C-33.02947731 111.14297238 -31.2930046 117.41097321 -29.51171875 123.71484375 C-28.78723866 126.34815678 -28.06528711 128.98201349 -27.34765625 131.6171875 C-27.15723251 132.31421783 -26.96680878 133.01124817 -26.77061462 133.72940063 C-24.00805744 143.90523384 -21.51507307 154.15138026 -18.99343872 164.38900757 C-18.38022078 166.87827255 -17.76479052 169.36697835 -17.1484375 171.85546875 C-16.95641754 172.63502426 -16.76439758 173.41457977 -16.56655884 174.21775818 C-15.56655905 178.23147047 -14.46179066 182.1662963 -13.16796875 186.09765625 C-11.69688626 190.82230073 -11.60220636 195.23609002 -11.76171875 200.15234375 C-11.78202148 201.37244141 -11.78202148 201.37244141 -11.80273438 202.6171875 C-11.83750526 204.58753782 -11.8912833 206.55753846 -11.94921875 208.52734375 C-14.91921875 208.85734375 -17.88921875 209.18734375 -20.94921875 209.52734375 C-20.94921875 207.54734375 -20.94921875 205.56734375 -20.94921875 203.52734375 C-21.531875 204.04683594 -22.11453125 204.56632813 -22.71484375 205.1015625 C-31.62194159 212.67819761 -41.3690219 217.71843285 -53.19921875 217.58984375 C-54.276875 217.58082031 -55.35453125 217.57179688 -56.46484375 217.5625 C-57.2846875 217.55089844 -58.10453125 217.53929687 -58.94921875 217.52734375 C-57.92828125 216.53734375 -57.92828125 216.53734375 -56.88671875 215.52734375 C-54.6395232 213.26734367 -52.46157381 210.95409425 -50.32421875 208.58984375 C-49.46957031 207.64818359 -49.46957031 207.64818359 -48.59765625 206.6875 C-46.64205964 204.1248343 -45.31621205 201.43945372 -43.94921875 198.52734375 C-45.01140625 198.46675781 -46.07359375 198.40617188 -47.16796875 198.34375 C-61.10593496 197.52532264 -61.10593496 197.52532264 -67.94921875 196.52734375 C-67.85833984 195.56248047 -67.85833984 195.56248047 -67.765625 194.578125 C-67.48594087 191.56183919 -67.21706297 188.54470435 -66.94921875 185.52734375 C-66.8610791 184.55732422 -66.77293945 183.58730469 -66.68212891 182.58789062 C-65.97980258 174.28840005 -65.75745785 166.04224374 -65.76171875 157.71484375 C-65.76099365 157.05449127 -65.76026855 156.39413879 -65.75952148 155.71377563 C-65.7605525 147.17839052 -66.20875632 139.07845669 -67.4921875 130.6484375 C-68.22069803 125.04882107 -68.21879061 119.41620309 -68.26171875 113.77734375 C-68.27912109 112.74697998 -68.29652344 111.71661621 -68.31445312 110.6550293 C-68.30017993 88.36922497 -55.58976223 71.50449284 -43.90478516 53.54541016 C-41.21597718 49.39571675 -38.5787597 45.21474305 -35.94921875 41.02734375 C-31.14773119 33.40277867 -26.30493627 25.80493445 -21.44921875 18.21484375 C-20.42441406 16.61189453 -20.42441406 16.61189453 -19.37890625 14.9765625 C-18.11021223 12.99517583 -16.82876833 11.02187088 -15.53222656 9.05859375 C-13.94762981 6.670712 -13.94762981 6.670712 -13.07714844 4.48046875 C-10.59742051 -1.10302459 -5.24120601 -0.08408352 0 0 Z " fill="#545B47" transform="translate(169.94921875,233.47265625)"/>
<path d="M0 0 C7.05237391 6.7487492 9.00173054 16.17321947 11.125 25.375 C11.29676758 26.11919189 11.46853516 26.86338379 11.64550781 27.63012695 C12.69353038 32.55462968 12.96622869 37.09180893 12.8125 42.125 C12.1525 42.125 11.4925 42.125 10.8125 42.125 C13.04208121 47.82836479 13.04208121 47.82836479 17.5625 51.625 C18.305 51.79 19.0475 51.955 19.8125 52.125 C19.8125 52.785 19.8125 53.445 19.8125 54.125 C18.4925 54.125 17.1725 54.125 15.8125 54.125 C15.8125 56.105 15.8125 58.085 15.8125 60.125 C18.1225 60.125 20.4325 60.125 22.8125 60.125 C22.8125 61.115 22.8125 62.105 22.8125 63.125 C20.1725 63.125 17.5325 63.125 14.8125 63.125 C14.4825 65.435 14.1525 67.745 13.8125 70.125 C15.79817708 70.05989583 17.78385417 69.99479167 19.76953125 69.9296875 C21.8125 70.125 21.8125 70.125 24.8125 72.125 C22.06171116 73.04192961 20.45301087 73.23386083 17.625 73.1875 C16.366875 73.166875 15.10875 73.14625 13.8125 73.125 C13.8125 74.115 13.8125 75.105 13.8125 76.125 C17.7725 76.125 21.7325 76.125 25.8125 76.125 C25.8125 76.785 25.8125 77.445 25.8125 78.125 C19.8725 78.62 19.8725 78.62 13.8125 79.125 C13.8125 80.445 13.8125 81.765 13.8125 83.125 C17.7725 83.125 21.7325 83.125 25.8125 83.125 C25.8125 83.785 25.8125 84.445 25.8125 85.125 C21.7597484 86.10748524 17.97388263 86.20659574 13.8125 86.125 C13.8125 88.765 13.8125 91.405 13.8125 94.125 C18.1025 94.125 22.3925 94.125 26.8125 94.125 C26.8125 94.785 26.8125 95.445 26.8125 96.125 C22.5225 96.455 18.2325 96.785 13.8125 97.125 C13.8125 98.445 13.8125 99.765 13.8125 101.125 C18.1025 101.125 22.3925 101.125 26.8125 101.125 C26.8125 101.785 26.8125 102.445 26.8125 103.125 C22.8525 104.115 18.8925 105.105 14.8125 106.125 C14.8125 107.115 14.8125 108.105 14.8125 109.125 C19.1025 109.125 23.3925 109.125 27.8125 109.125 C27.8125 109.785 27.8125 110.445 27.8125 111.125 C22.3675 112.115 22.3675 112.115 16.8125 113.125 C17.1425 114.775 17.4725 116.425 17.8125 118.125 C21.1125 118.125 24.4125 118.125 27.8125 118.125 C27.8125 118.785 27.8125 119.445 27.8125 120.125 C24.3475 121.115 24.3475 121.115 20.8125 122.125 C20.8125 124.105 20.8125 126.085 20.8125 128.125 C23.4525 128.125 26.0925 128.125 28.8125 128.125 C28.8125 129.115 28.8125 130.105 28.8125 131.125 C26.8325 131.455 24.8525 131.785 22.8125 132.125 C22.8125 133.115 22.8125 134.105 22.8125 135.125 C24.7925 135.125 26.7725 135.125 28.8125 135.125 C28.8125 135.455 28.8125 135.785 28.8125 136.125 C27.1625 136.125 25.5125 136.125 23.8125 136.125 C24.43630692 137.54219242 25.0616003 138.9587306 25.6875 140.375 C26.03554687 141.16390625 26.38359375 141.9528125 26.7421875 142.765625 C27.76449068 145.10227808 27.76449068 145.10227808 28.9453125 147.171875 C29.8125 149.125 29.8125 149.125 29.8125 153.125 C28.8225 152.795 27.8325 152.465 26.8125 152.125 C26.8125 151.465 26.8125 150.805 26.8125 150.125 C26.1525 150.125 25.4925 150.125 24.8125 150.125 C24.956875 150.93324219 25.10125 151.74148437 25.25 152.57421875 C25.435625 153.64285156 25.62125 154.71148437 25.8125 155.8125 C25.998125 156.86824219 26.18375 157.92398438 26.375 159.01171875 C26.76318074 161.77404062 26.89509976 164.34242043 26.8125 167.125 C20.71108989 165.03308796 16.71631734 161.93263468 13.8125 156.125 C12.80385643 152.91944784 12.67829279 149.97642457 12.6875 146.625 C12.68492187 145.6865625 12.68234375 144.748125 12.6796875 143.78125 C12.8125 141.125 12.8125 141.125 13.8125 137.125 C8.5325 137.125 3.2525 137.125 -2.1875 137.125 C-2.1875 136.795 -2.1875 136.465 -2.1875 136.125 C2.7625 135.795 7.7125 135.465 12.8125 135.125 C12.4825 134.135 12.1525 133.145 11.8125 132.125 C3.5625 132.125 -4.6875 132.125 -13.1875 132.125 C-13.1875 130.805 -13.1875 129.485 -13.1875 128.125 C-5.9275 127.465 1.3325 126.805 8.8125 126.125 C8.4825 124.805 8.1525 123.485 7.8125 122.125 C6.32556641 122.37056641 6.32556641 122.37056641 4.80859375 122.62109375 C0.81895421 123.19104226 -3.09371941 123.22317505 -7.125 123.1875 C-7.80884766 123.18298828 -8.49269531 123.17847656 -9.19726562 123.17382812 C-10.86071604 123.1621956 -12.5241205 123.14426694 -14.1875 123.125 C-14.5175 122.135 -14.8475 121.145 -15.1875 120.125 C-20.64701549 122.02458063 -26.10554335 123.92696533 -31.56323242 125.83178711 C-33.41421026 126.47738735 -35.26544087 127.12226338 -37.11694336 127.76635742 C-42.36766189 129.59324976 -47.61371425 131.43238959 -52.85177612 133.29528809 C-54.33855237 133.82343098 -55.82634368 134.34873134 -57.31546021 134.87023926 C-59.14704996 135.51425104 -60.97225397 136.17634519 -62.796875 136.83984375 C-64.27172363 137.36952759 -64.27172363 137.36952759 -65.77636719 137.90991211 C-69.85946947 139.96758729 -71.3878521 143.08341785 -73.1875 147.125 C-73.94615912 148.46529778 -74.71631627 149.79917889 -75.5 151.125 C-76.056875 152.115 -76.61375 153.105 -77.1875 154.125 C-77.8475 152.805 -78.5075 151.485 -79.1875 150.125 C-79.73019531 150.54652344 -80.27289063 150.96804687 -80.83203125 151.40234375 C-81.90517578 152.22412109 -81.90517578 152.22412109 -83 153.0625 C-83.70769531 153.60777344 -84.41539063 154.15304688 -85.14453125 154.71484375 C-87.1875 156.125 -87.1875 156.125 -90.1875 157.125 C-90.84164387 150.06024621 -89.21057684 144.98719768 -85.1875 139.125 C-80.69630816 133.83742252 -76.02002273 130.60410428 -69.8125 127.625 C-61.72747886 123.55900529 -53.93513384 119.11357303 -46.1875 114.4375 C-45.16221191 113.82003906 -44.13692383 113.20257813 -43.08056641 112.56640625 C-40.10791849 110.76579246 -37.14697729 108.94716156 -34.1875 107.125 C-33.14464844 106.49513184 -32.10179687 105.86526367 -31.02734375 105.21630859 C-30.02832031 104.60223145 -29.02929688 103.9881543 -28 103.35546875 C-27.09894531 102.80656982 -26.19789063 102.2576709 -25.26953125 101.69213867 C-22.90375236 100.22007674 -22.90375236 100.22007674 -22.1875 97.125 C-18.87755287 95.47002644 -15.19627 96.02415665 -11.5625 96.0625 C-10.35980469 96.06926758 -10.35980469 96.06926758 -9.1328125 96.07617188 C-7.15100994 96.08796832 -5.16924567 96.10590395 -3.1875 96.125 C-3.6825 94.9803125 -3.6825 94.9803125 -4.1875 93.8125 C-5.1875 91.125 -5.1875 91.125 -5.1875 88.125 C-6.095 88.29 -7.0025 88.455 -7.9375 88.625 C-13.32532475 89.41373311 -18.75662556 89.20525923 -24.1875 89.125 C-24.1875 88.135 -24.1875 87.145 -24.1875 86.125 C-15.2775 85.135 -15.2775 85.135 -6.1875 84.125 C-6.1875 83.135 -6.1875 82.145 -6.1875 81.125 C-12.1275 81.455 -18.0675 81.785 -24.1875 82.125 C-24.1875 81.135 -24.1875 80.145 -24.1875 79.125 C-18.16153427 78.0537172 -12.29840483 78.02554585 -6.1875 78.125 C-6.1875 76.475 -6.1875 74.825 -6.1875 73.125 C-11.4675 72.795 -16.7475 72.465 -22.1875 72.125 C-22.6825 74.105 -22.6825 74.105 -23.1875 76.125 C-26.5 75.9375 -26.5 75.9375 -30.1875 75.125 C-32.10921842 72.70735424 -33.1875 71.24032786 -33.1875 68.125 C-33.92355469 67.93164062 -34.65960938 67.73828125 -35.41796875 67.5390625 C-36.88169922 67.14847656 -36.88169922 67.14847656 -38.375 66.75 C-39.81939453 66.36714844 -39.81939453 66.36714844 -41.29296875 65.9765625 C-44.00960207 65.17733704 -46.57887175 64.2218638 -49.1875 63.125 C-49.75915908 58.78039099 -48.9359676 56.58842982 -46.671875 53.03125 C-42.75788963 45.43632889 -43.8004632 37.30113403 -44.125 29 C-44.83512898 9.66204621 -44.83512898 9.66204621 -40.1875 3.125 C-30.22707168 -6.57331178 -11.30604804 -8.68558083 0 0 Z " fill="#E4BB9B" transform="translate(173.1875,96.875)"/>
<path d="M0 0 C5.75960936 -0.27104044 8.08753345 0.255639 12.46875 4.1875 C19.0110822 7.32729397 26.66397655 8.61977216 33.72265625 6.515625 C37.87798709 6.01911321 41.24659312 7.34131332 45.15625 8.6875 C45.95844971 8.96086182 46.76064941 9.23422363 47.5871582 9.51586914 C56.55746937 12.72441411 63.21528663 17.568549 69.7578125 24.43359375 C72.80706081 27.55942135 76.15277408 30.35078623 79.46875 33.1875 C80.149375 33.77273437 80.83 34.35796875 81.53125 34.9609375 C83.17476037 36.37250084 84.82141531 37.78040162 86.46875 39.1875 C81.28518758 45.32592918 75.89162737 51.26091663 70.46875 57.1875 C66.47434892 55.4657754 63.23132721 52.79801014 59.84375 50.125 C55.84752222 46.86557651 55.84752222 46.86557651 51.46875 44.1875 C51.39785156 44.96351563 51.32695312 45.73953125 51.25390625 46.5390625 C50.1736843 51.55860132 48.06696384 55.92341761 45.90625 60.5625 C45.26913086 61.95275391 45.26913086 61.95275391 44.61914062 63.37109375 C43.57538024 65.64625685 42.52511818 67.91817035 41.46875 70.1875 C35.4936569 70.34473929 29.97185112 69.79101461 24.09375 68.75 C22.88525391 68.54793945 22.88525391 68.54793945 21.65234375 68.34179688 C15.75087691 67.32856346 15.75087691 67.32856346 13.46875 66.1875 C12.06043739 63.64373535 10.74437155 61.10901582 9.46875 58.5 C9.11296875 57.79166016 8.7571875 57.08332031 8.390625 56.35351562 C6.41942339 52.37065863 4.75892414 48.45448217 3.46875 44.1875 C2.9339502 44.39955078 2.39915039 44.61160156 1.84814453 44.83007812 C-0.56861417 45.78606614 -2.98739058 46.73684053 -5.40625 47.6875 C-6.24800781 48.02136719 -7.08976562 48.35523438 -7.95703125 48.69921875 C-8.76269531 49.01503906 -9.56835938 49.33085937 -10.3984375 49.65625 C-11.14206543 49.94951172 -11.88569336 50.24277344 -12.65185547 50.54492188 C-14.53125 51.1875 -14.53125 51.1875 -16.53125 51.1875 C-16.86125 51.8475 -17.19125 52.5075 -17.53125 53.1875 C-20.01324198 50.97876684 -21.16394174 49.09935246 -22.28515625 45.984375 C-22.58228516 45.16839844 -22.87941406 44.35242188 -23.18554688 43.51171875 C-23.48525391 42.66222656 -23.78496094 41.81273437 -24.09375 40.9375 C-24.54911133 39.68646484 -24.54911133 39.68646484 -25.01367188 38.41015625 C-28.29089544 29.31389737 -30.91248708 20.97233841 -29.53125 11.1875 C-24.94755955 4.90129596 -15.62458336 2.38850976 -8.26171875 0.65234375 C-5.52007697 0.25589453 -2.76126858 0.20453841 0 0 Z " fill="#545B47" transform="translate(267.53125,117.8125)"/>
<path d="M0 0 C1.66804677 0.32635698 3.33524314 0.65725594 5 1 C5.33 0.67 5.66 0.34 6 0 C9.86580848 -0.17571857 13.23256605 0.21146731 17 1 C17.71671875 1.04898437 18.4334375 1.09796875 19.171875 1.1484375 C25.44293478 1.57880435 25.44293478 1.57880435 28.5625 3.9375 C30 6 30 6 30 8 C31.3303125 7.87625 31.3303125 7.87625 32.6875 7.75 C36.79068934 8.05967467 38.15799111 9.07904641 41 12 C42.1875 14.5625 42.1875 14.5625 43 17 C43.99 18.485 43.99 18.485 45 20 C45.22890327 23.58615122 44.89512914 26.54735901 44 30 C44.33 30.33 44.66 30.66 45 31 C44.81893433 33.5666059 44.47942291 36.10001221 44.15625 38.65234375 C43.7998798 41.02111311 43.7998798 41.02111311 45 43 C45.47393365 49.27962085 45.47393365 49.27962085 43.4375 52.375 C41.29094835 56.29478997 42.2266559 59.72331394 43 64 C42.360625 64.10570313 41.72125 64.21140625 41.0625 64.3203125 C40.381875 64.54460937 39.70125 64.76890625 39 65 C38.30741771 66.99117408 37.64252365 68.9921136 37 71 C34.66062546 73.18844715 33.06093353 73.97968882 30 75 C29.5875 75.639375 29.175 76.27875 28.75 76.9375 C26.24372832 79.89132019 23.71906931 80.1664155 20 81 C19.05125 81.226875 18.1025 81.45375 17.125 81.6875 C16.42375 81.790625 15.7225 81.89375 15 82 C14.67 81.67 14.34 81.34 14 81 C14.58787879 73.94545455 14.58787879 73.94545455 16.0625 70.5625 C17.90967912 65.51354374 17.63090191 60.08020572 15.9375 55 C14.24489164 51.61006327 14.24489164 51.61006327 10.375 51.1875 C9.26125 51.125625 8.1475 51.06375 7 51 C6.67 50.34 6.34 49.68 6 49 C3.42048126 48.30906104 3.42048126 48.30906104 0.4375 47.875 C-0.57441406 47.70742187 -1.58632813 47.53984375 -2.62890625 47.3671875 C-3.41136719 47.24601562 -4.19382812 47.12484375 -5 47 C-5 47.66 -5 48.32 -5 49 C-6.4609375 50.2890625 -6.4609375 50.2890625 -8.375 51.625 C-9.00148438 52.07101563 -9.62796875 52.51703125 -10.2734375 52.9765625 C-12 54 -12 54 -14 54 C-13.938125 54.70125 -13.87625 55.4025 -13.8125 56.125 C-14 59 -14 59 -15.4375 61.5625 C-17.71033826 66.56274417 -17.74491118 71.56396926 -18 77 C-23.765625 77.15625 -23.765625 77.15625 -25.875 75.75 C-27 74 -27 74 -27 70 C-27.8353125 69.9071875 -27.8353125 69.9071875 -28.6875 69.8125 C-32.15917383 68.59272271 -33.73163798 66.88143284 -36 64 C-36.69285432 61.34137296 -36.83915698 58.73433135 -37 56 C-37.185625 55.071875 -37.37125 54.14375 -37.5625 53.1875 C-38 51 -38 51 -38 48 C-38.33 47.67 -38.66 47.34 -39 47 C-39.35424354 41.68634686 -39.35424354 41.68634686 -38 39.0625 C-36.72168116 36.86413698 -36.72168116 36.86413698 -37.25 33.5625 C-37 30 -37 30 -35.671875 28.4375 C-34.17860857 27.20939303 -32.59321455 26.095335 -31 25 C-31.33 24.67 -31.66 24.34 -32 24 C-32.44437646 20.71161423 -32.2944593 19.40351831 -30.3125 16.6875 C-27.60883753 14.71455712 -26.27034459 14.63662838 -23 15 C-22.896875 14.38125 -22.79375 13.7625 -22.6875 13.125 C-22 11 -22 11 -19 9 C-15.8125 9.375 -15.8125 9.375 -13 10 C-12.938125 9.278125 -12.87625 8.55625 -12.8125 7.8125 C-10.83474302 0.96641816 -6.70797141 -0.71871122 0 0 Z " fill="#818A6D" transform="translate(295,26)"/>
<path d="M0 0 C2.7734375 -0.3046875 2.7734375 -0.3046875 6 0 C15.0490984 9.40677028 18.53185949 23.4404925 18.31982422 36.10913086 C17.98605644 40.16963251 17.15698721 43.85458924 15.984375 47.734375 C15.76572784 48.46523819 15.54708069 49.19610138 15.32180786 49.94911194 C12.49650355 59.04574024 8.6805396 67.71804783 4.875 76.4375 C4.11887581 78.18967416 3.36375919 79.94228345 2.60961914 81.6953125 C1.11348164 85.17090033 -0.38699732 88.6445572 -1.89111328 92.11669922 C-4.82308073 98.89362483 -7.69456042 105.69579638 -10.5625 112.5 C-11.43862821 114.57299016 -12.31490926 116.64591574 -13.19140625 118.71875 C-13.79432544 120.14581026 -14.39721425 121.57288337 -15 123 C-12.07710159 125.99941407 -9.17348487 128.75290805 -5.8125 131.25 C-0.6221254 135.24063228 4.24492189 139.50248235 9 144 C9.5976416 144.56364258 10.1952832 145.12728516 10.81103516 145.70800781 C20.13587551 154.57485925 28.36630411 163.73735864 35.77490234 174.26220703 C36.85953399 175.80074989 37.96901205 177.32171062 39.08203125 178.83984375 C49.68091129 193.45659989 49.68091129 193.45659989 51 202 C44.43702099 205.94567876 38.09754844 208.83347305 30.734375 210.9296875 C27.89056277 211.74475502 25.08036492 212.60138987 22.265625 213.5078125 C21.43675781 213.77464844 20.60789063 214.04148437 19.75390625 214.31640625 C18.1308903 214.84053153 16.50845562 215.36646156 14.88671875 215.89453125 C7.91262124 218.12482639 1.3593463 220 -6 220 C-8.475 214.555 -8.475 214.555 -11 209 C-9.92878906 208.60683594 -8.85757813 208.21367187 -7.75390625 207.80859375 C-2.09682989 205.68547792 3.481482 203.37674838 9.0625 201.0625 C10.11244141 200.63259766 11.16238281 200.20269531 12.24414062 199.75976562 C17.7341182 197.48292785 22.92722482 195.10122851 28 192 C21.05966998 181.66333826 13.89677097 171.62908794 6 162 C5.50854492 161.39881348 5.01708984 160.79762695 4.51074219 160.17822266 C-4.05052661 149.76981194 -12.43425142 140.36198238 -24.65234375 134.19140625 C-27 133 -27 133 -30 131 C-28.66863937 124.22653123 -26.648343 118.10081168 -24.125 111.6875 C-18.68945091 97.51705053 -13.90060145 83.14752721 -9.20695496 68.71740723 C-7.80546397 64.418401 -6.36465641 60.1364149 -4.87718201 55.86642456 C0.10706666 41.51305377 3.59332528 29.20029344 1 14 C3 14 3 14 4.625 15.5 C5.07875 15.995 5.5325 16.49 6 17 C4.58595858 13.09455228 3.19901425 9.39065761 1.3125 5.6875 C0 3 0 3 0 0 Z " fill="#555C48" transform="translate(197,233)"/>
<path d="M0 0 C7.05237391 6.7487492 9.00173054 16.17321947 11.125 25.375 C11.29676758 26.11919189 11.46853516 26.86338379 11.64550781 27.63012695 C12.69353038 32.55462968 12.96622869 37.09180893 12.8125 42.125 C11.4925 42.125 10.1725 42.125 8.8125 42.125 C8.8125 42.785 8.8125 43.445 8.8125 44.125 C7.74708984 44.32416016 7.74708984 44.32416016 6.66015625 44.52734375 C5.74105469 44.70394531 4.82195312 44.88054687 3.875 45.0625 C2.95847656 45.23652344 2.04195312 45.41054687 1.09765625 45.58984375 C-1.14039844 45.90214988 -1.14039844 45.90214988 -2.1875 47.125 C-0.5829444 46.98351011 1.02113767 46.83664314 2.625 46.6875 C3.51832031 46.60628906 4.41164062 46.52507812 5.33203125 46.44140625 C7.93993559 46.19010233 7.93993559 46.19010233 10.8125 45.125 C12.8125 48.125 12.8125 48.125 12.8125 51.125 C11.50925781 51.32416016 11.50925781 51.32416016 10.1796875 51.52734375 C9.02726562 51.70394531 7.87484375 51.88054687 6.6875 52.0625 C5.55054688 52.23652344 4.41359375 52.41054687 3.2421875 52.58984375 C0.09517331 53.08089266 -3.04680783 53.59518719 -6.1875 54.125 C-6.1875 54.785 -6.1875 55.445 -6.1875 56.125 C-5.66542969 55.9084375 -5.14335937 55.691875 -4.60546875 55.46875 C1.655657 53.10026811 7.160337 52.78928336 13.8125 53.125 C13.8125 55.105 13.8125 57.085 13.8125 59.125 C12.78769531 59.18558594 11.76289063 59.24617188 10.70703125 59.30859375 C9.34634305 59.39305026 7.98566657 59.47769567 6.625 59.5625 C5.95146484 59.60181641 5.27792969 59.64113281 4.58398438 59.68164062 C-0.86316236 60.01707267 -0.86316236 60.01707267 -6.1875 61.125 C-6.5175 61.785 -6.8475 62.445 -7.1875 63.125 C-11.1475 63.125 -15.1075 63.125 -19.1875 63.125 C-19.1875 63.785 -19.1875 64.445 -19.1875 65.125 C-13.2475 64.63 -13.2475 64.63 -7.1875 64.125 C-6.6925 68.58 -6.6925 68.58 -6.1875 73.125 C-11.4675 72.795 -16.7475 72.465 -22.1875 72.125 C-22.5175 73.445 -22.8475 74.765 -23.1875 76.125 C-26.5 75.9375 -26.5 75.9375 -30.1875 75.125 C-32.10921842 72.70735424 -33.1875 71.24032786 -33.1875 68.125 C-33.92355469 67.93164062 -34.65960938 67.73828125 -35.41796875 67.5390625 C-36.39378906 67.27867187 -37.36960938 67.01828125 -38.375 66.75 C-39.81939453 66.36714844 -39.81939453 66.36714844 -41.29296875 65.9765625 C-44.00960207 65.17733704 -46.57887175 64.2218638 -49.1875 63.125 C-49.75915908 58.78039099 -48.9359676 56.58842982 -46.671875 53.03125 C-42.75788963 45.43632889 -43.8004632 37.30113403 -44.125 29 C-44.83512898 9.66204621 -44.83512898 9.66204621 -40.1875 3.125 C-30.22707168 -6.57331178 -11.30604804 -8.68558083 0 0 Z " fill="#EAAA8A" transform="translate(173.1875,96.875)"/>
<path d="M0 0 C1.67673137 3.09883145 3.3396134 6.20488455 5 9.3125 C5.47695313 10.19357422 5.95390625 11.07464844 6.4453125 11.98242188 C6.89648438 12.82998047 7.34765625 13.67753906 7.8125 14.55078125 C8.44091797 15.72120972 8.44091797 15.72120972 9.08203125 16.9152832 C10 19 10 19 10 22 C10.68698975 22.09498779 11.37397949 22.18997559 12.08178711 22.2878418 C15.368145 22.74681511 18.65299716 23.21542908 21.9375 23.6875 C23.16154541 23.86321533 24.38559082 24.03893066 25.64672852 24.2199707 C32.63749136 25.25505564 39.52366368 26.48992037 46.42211914 28.01928711 C57.85466564 30.55275644 68.80470616 31.60059404 80.52514648 31.63549805 C93.40405126 31.74531744 93.40405126 31.74531744 99 35 C99.33 35.99 99.66 36.98 100 38 C96.49223216 39.60355101 93.85645121 40.22036864 90 40 C93.61836815 45.65370024 97.45396035 49.2430054 103 53 C102.505 53.99 102.505 53.99 102 55 C94.40881382 57.53039539 86.27902387 55.93295821 79 53 C77.61924018 51.82848175 76.2632952 50.62726954 74.9296875 49.40234375 C67.13698163 43.80652158 57.70903385 45.30237943 48.5625 45.625 C44.93902269 45.71235949 41.31525208 45.78142302 37.69140625 45.8515625 C36.80334793 45.87202133 35.91528961 45.89248016 35.00032043 45.91355896 C0.35875086 46.59886442 0.35875086 46.59886442 -8 39 C-14.71709227 30.20469133 -19.50682436 18.47952691 -23 8 C-22.33226562 7.73445312 -21.66453125 7.46890625 -20.9765625 7.1953125 C-18.75879839 6.30471431 -16.54602484 5.40166907 -14.3359375 4.4921875 C-13.01566313 3.95303163 -11.69534988 3.41397095 -10.375 2.875 C-9.70726562 2.59785156 -9.03953125 2.32070312 -8.3515625 2.03515625 C-5.41021111 0.84096759 -3.20618881 0 0 0 Z " fill="#EDBE9E" transform="translate(271,162)"/>
<path d="M0 0 C2.8190918 -0.56762695 2.8190918 -0.56762695 6.19921875 -0.48828125 C8.01196289 -0.46411133 8.01196289 -0.46411133 9.86132812 -0.43945312 C11.7552832 -0.37661133 11.7552832 -0.37661133 13.6875 -0.3125 C15.59885742 -0.27866211 15.59885742 -0.27866211 17.54882812 -0.24414062 C20.69971724 -0.18513521 23.8500044 -0.09545441 27 0 C27 5.94 27 11.88 27 18 C23.08610821 15.65166493 21.35295958 14.5978339 18.6875 11.3125 C18.17574219 10.68988281 17.66398437 10.06726563 17.13671875 9.42578125 C16.76160156 8.95527344 16.38648438 8.48476562 16 8 C15.81993408 9.30481323 15.81993408 9.30481323 15.63623047 10.63598633 C13.30598496 27.22939495 10.86132647 43.21522524 5 59 C4.67 59.99 4.34 60.98 4 62 C3.27039063 62.72445312 2.54078125 63.44890625 1.7890625 64.1953125 C-1.49370575 67.49647161 -4.00065344 71.04552987 -6.625 74.875 C-9.71827917 79.37741263 -12.80589505 83.82841271 -16.26171875 88.0625 C-16.77460449 88.70590332 -17.28749023 89.34930664 -17.81591797 90.01220703 C-18.78215616 91.21488197 -19.77091115 92.39996206 -20.78564453 93.56201172 C-23.58348974 97.10279339 -24.30524916 99.59554363 -24.0078125 104.12109375 C-23.08025856 110.61562863 -21.34378585 116.88362946 -19.5625 123.1875 C-18.83801991 125.82081303 -18.11606836 128.45466974 -17.3984375 131.08984375 C-17.20801376 131.78687408 -17.01759003 132.48390442 -16.82139587 133.20205688 C-14.05883869 143.37789009 -11.56585432 153.62403651 -9.04421997 163.86166382 C-8.43100203 166.3509288 -7.81557177 168.8396346 -7.19921875 171.328125 C-7.00719879 172.10768051 -6.81517883 172.88723602 -6.61734009 173.69041443 C-5.6173403 177.70412672 -4.51257191 181.63895255 -3.21875 185.5703125 C-1.74766751 190.29495698 -1.65298761 194.70874627 -1.8125 199.625 C-1.83280273 200.84509766 -1.83280273 200.84509766 -1.85351562 202.08984375 C-1.88828651 204.06019407 -1.94206455 206.03019471 -2 208 C-4.97 208.33 -7.94 208.66 -11 209 C-11 207.02 -11 205.04 -11 203 C-11.58265625 203.51949219 -12.1653125 204.03898438 -12.765625 204.57421875 C-21.67272284 212.15085386 -31.41980315 217.1910891 -43.25 217.0625 C-44.32765625 217.05347656 -45.4053125 217.04445313 -46.515625 217.03515625 C-47.33546875 217.02355469 -48.1553125 217.01195312 -49 217 C-47.9790625 216.01 -47.9790625 216.01 -46.9375 215 C-44.69030445 212.73999992 -42.51235506 210.4267505 -40.375 208.0625 C-39.52035156 207.12083984 -39.52035156 207.12083984 -38.6484375 206.16015625 C-36.83161109 203.98478274 -36.83161109 203.98478274 -35.7980957 200.92895508 C-34 198 -34 198 -31.08911133 197.13525391 C-29.9317749 197.08288574 -28.77443848 197.03051758 -27.58203125 196.9765625 C-26.32841797 196.90566406 -25.07480469 196.83476562 -23.78320312 196.76171875 C-22.47287109 196.71660156 -21.16253906 196.67148437 -19.8125 196.625 C-18.47707912 196.55864167 -17.14178578 196.48966099 -15.80664062 196.41796875 C-12.53809899 196.2527717 -9.27064391 196.11458174 -6 196 C-6.99 194.02 -7.98 192.04 -9 190 C-9.84071045 189.97494385 -10.6814209 189.9498877 -11.54760742 189.92407227 C-14.73290804 189.82768047 -17.91810946 189.72854589 -21.10327148 189.62768555 C-22.46944964 189.58495747 -23.83566031 189.54325394 -25.2019043 189.50268555 C-49.67953605 188.77348798 -49.67953605 188.77348798 -55 187 C-55 186.34 -55 185.68 -55 185 C-53.86304687 185.15847412 -52.72609375 185.31694824 -51.5546875 185.48022461 C-47.07525197 186.03837123 -42.63491054 186.21827087 -38.125 186.31640625 C-37.31506592 186.33718735 -36.50513184 186.35796844 -35.6706543 186.37937927 C-33.11384576 186.44413656 -30.55694519 186.50341194 -28 186.5625 C-26.25389719 186.60575566 -24.50780328 186.64937204 -22.76171875 186.69335938 C-18.50790391 186.79974083 -14.25399764 186.90121018 -10 187 C-10.31743164 186.2881958 -10.63486328 185.5763916 -10.96191406 184.84301758 C-14.24833352 177.25286566 -16.68286827 169.68839987 -18.75 161.6875 C-19.0807251 160.42655518 -19.4114502 159.16561035 -19.75219727 157.86645508 C-22.65916788 146.68369211 -25.3183546 135.44059018 -27.9375 124.1875 C-28.13476685 123.34520844 -28.33203369 122.50291687 -28.53527832 121.63510132 C-29.1012515 119.20992107 -29.65941019 116.78308214 -30.21484375 114.35546875 C-30.38114792 113.6440271 -30.54745209 112.93258545 -30.71879578 112.19958496 C-33.74561515 98.79998644 -33.74561515 98.79998644 -31.97119141 94.51635742 C-31.43671387 93.88576416 -30.90223633 93.2551709 -30.3515625 92.60546875 C-29.76270264 91.88367432 -29.17384277 91.16187988 -28.56713867 90.41821289 C-27.92623291 89.68207764 -27.28532715 88.94594238 -26.625 88.1875 C-25.32076465 86.60747203 -24.01737933 85.02674202 -22.71484375 83.4453125 C-22.07530762 82.68508789 -21.43577148 81.92486328 -20.77685547 81.14160156 C-18.46594045 78.35631075 -16.32588561 75.48229211 -14.1875 72.5625 C-10.70226004 67.8810274 -7.06994921 63.34838727 -3.3359375 58.86328125 C-2.56507813 57.91839844 -1.79421875 56.97351563 -1 56 C-0.15127319 55.11199707 -0.15127319 55.11199707 0.71459961 54.20605469 C6.69584182 47.49696982 7.92963269 40.21816808 9.3125 31.625 C9.55033458 30.26520308 9.79055739 28.90582165 10.03320312 27.546875 C10.49787045 24.92277319 10.94582078 22.29758451 11.38525391 19.66894531 C12.20616228 14.76957634 13.10134693 9.885635 14 5 C8.39 5 2.78 5 -3 5 C-2.01 3.35 -1.02 1.7 0 0 Z " fill="#7A8467" transform="translate(160,234)"/>
<path d="M0 0 C1.29744141 0.01353516 1.29744141 0.01353516 2.62109375 0.02734375 C3.26175781 0.03894531 3.90242188 0.05054688 4.5625 0.0625 C4.89945862 2.79126308 5.23218429 5.52043163 5.5625 8.25 C5.65789062 9.01892578 5.75328125 9.78785156 5.8515625 10.58007812 C6.31469291 14.43398476 6.67626156 18.17327678 6.5625 22.0625 C6.21249964 25.16580792 6.21249964 25.16580792 8.49609375 27.03515625 C9.32238281 27.72480469 10.14867187 28.41445313 11 29.125 C15.47343117 32.88436235 15.47343117 32.88436235 16.5625 35.0625 C16.47598369 36.60863014 16.32247364 38.15159387 16.125 39.6875 C15.97224609 40.91339844 15.97224609 40.91339844 15.81640625 42.1640625 C15.73261719 42.79054688 15.64882813 43.41703125 15.5625 44.0625 C-9.74608469 44.90820766 -9.74608469 44.90820766 -19.4375 40.0625 C-20.0625 37.5 -20.0625 37.5 -20.4375 35.0625 C-20.89125 36.031875 -21.345 37.00125 -21.8125 38 C-23.4375 41.0625 -23.4375 41.0625 -25.4375 42.0625 C-30.97596154 42.29326923 -30.97596154 42.29326923 -33.4375 41.0625 C-33.4375 35.4525 -33.4375 29.8425 -33.4375 24.0625 C-35.7475 23.4025 -38.0575 22.7425 -40.4375 22.0625 C-40.7675 15.4625 -41.0975 8.8625 -41.4375 2.0625 C-39.42527344 2.00191406 -37.41304688 1.94132812 -35.33984375 1.87890625 C-33.37051523 1.81627743 -31.4011875 1.75362016 -29.43188477 1.69018555 C-28.0732042 1.64712706 -26.71447959 1.60543435 -25.35571289 1.56518555 C-23.39197697 1.50677107 -21.42840636 1.44288197 -19.46484375 1.37890625 C-18.28656006 1.34224854 -17.10827637 1.30559082 -15.89428711 1.26782227 C-10.54331787 0.94999155 -5.37407292 -0.07361744 0 0 Z " fill="#E6A887" transform="translate(349.4375,397.9375)"/>
<path d="M0 0 C3.49095756 2.02911908 6.20221687 4.45019907 9 7.31640625 C9.49757813 7.80238281 9.99515625 8.28835937 10.5078125 8.7890625 C14.125 12.43606198 14.125 12.43606198 14.125 15.81640625 C6.52364865 14.92958193 6.52364865 14.92958193 4.28125 14.29296875 C1.29291631 13.63250369 -1.56692095 13.64559882 -4.625 13.62890625 C-5.79546875 13.61472656 -6.9659375 13.60054687 -8.171875 13.5859375 C-15.46024889 14.03953883 -21.55388273 16.35003653 -28.06640625 19.44140625 C-29.18981667 19.96275146 -29.18981667 19.96275146 -30.33592224 20.49462891 C-32.70626358 21.59527857 -35.07222042 22.7049254 -37.4375 23.81640625 C-39.80664463 24.92720691 -42.17671908 26.03579266 -44.54978943 27.13818359 C-46.01916033 27.82095216 -47.48632766 28.50849118 -48.95082092 29.20166016 C-57.96202545 33.39375053 -68.1492346 36.45363598 -77.96484375 33.10302734 C-85.53501121 29.90306894 -92.27560583 25.67866957 -98.875 20.81640625 C-97.47331364 19.17540759 -96.07076124 17.53514148 -94.6640625 15.8984375 C-93.44705454 14.48213785 -92.23364177 13.06274268 -91.0234375 11.640625 C-90.41757812 10.93550781 -89.81171875 10.23039063 -89.1875 9.50390625 C-88.62675781 8.84777344 -88.06601562 8.19164062 -87.48828125 7.515625 C-85.875 5.81640625 -85.875 5.81640625 -82.875 3.81640625 C-81.87339844 4.46609375 -80.87179687 5.11578125 -79.83984375 5.78515625 C-78.49791278 6.62972819 -77.15543554 7.47343258 -75.8125 8.31640625 C-75.15572266 8.74566406 -74.49894531 9.17492187 -73.82226562 9.6171875 C-73.16806641 10.02324219 -72.51386719 10.42929688 -71.83984375 10.84765625 C-71.2480835 11.22470703 -70.65632324 11.60175781 -70.04663086 11.99023438 C-64.46975494 14.1118924 -58.62635534 12.51891488 -53.03515625 11.13671875 C-52.30936874 10.96389374 -51.58358124 10.79106873 -50.83580017 10.61300659 C-48.53452714 10.06316227 -46.2360638 9.50245588 -43.9375 8.94140625 C-42.39925974 8.57220266 -40.8608494 8.20370691 -39.32226562 7.8359375 C-35.83060281 6.99894756 -32.34010561 6.15757807 -28.85305786 5.30154419 C-27.4624674 4.96048835 -26.07100581 4.62297437 -24.67892456 4.28805542 C-21.11905514 3.42124473 -18.02178844 2.58790821 -14.875 0.69140625 C-9.78244084 -1.97469825 -5.44008031 -2.23959828 0 0 Z " fill="#EFBF9F" transform="translate(435.875,155.18359375)"/>
<path d="M0 0 C2.7734375 -0.3046875 2.7734375 -0.3046875 6 0 C14.51063672 8.84702552 18.18441911 21.9269274 18.0625 33.875 C18.05347656 35.02742188 18.04445312 36.17984375 18.03515625 37.3671875 C18.02355469 38.23601562 18.01195312 39.10484375 18 40 C17.67 40 17.34 40 17 40 C17 36.37 17 32.74 17 29 C15.39125 28.814375 15.39125 28.814375 13.75 28.625 C10.55333667 28.09222278 8.75908348 27.50162508 6 26 C5.79246094 26.88816406 5.58492187 27.77632813 5.37109375 28.69140625 C0.87292452 47.34281087 -5.12843997 65.54871457 -11.02374268 83.79501343 C-11.62152443 85.64639595 -12.217739 87.49828541 -12.81219482 89.35073853 C-17.11511031 102.74089063 -21.86988398 115.90444895 -27 129 C-26.12569336 129.50047852 -25.25138672 130.00095703 -24.35058594 130.51660156 C-2.49690744 143.17452747 17.918015 166.87727861 30 189 C30 189.66 30 190.32 30 191 C30.69867188 190.71125 31.39734375 190.4225 32.1171875 190.125 C33.02726562 189.75375 33.93734375 189.3825 34.875 189 C35.77992188 188.62875 36.68484375 188.2575 37.6171875 187.875 C40 187 40 187 42 187 C42.33 186.34 42.66 185.68 43 185 C44.34130761 187.26645058 45.67316234 189.53760097 47 191.8125 C47.3815625 192.45509766 47.763125 193.09769531 48.15625 193.75976562 C51 198.66015625 51 198.66015625 51 202 C44.43702099 205.94567876 38.09754844 208.83347305 30.734375 210.9296875 C27.89056277 211.74475502 25.08036492 212.60138987 22.265625 213.5078125 C21.43675781 213.77464844 20.60789063 214.04148437 19.75390625 214.31640625 C18.1308903 214.84053153 16.50845562 215.36646156 14.88671875 215.89453125 C7.91262124 218.12482639 1.3593463 220 -6 220 C-8.475 214.555 -8.475 214.555 -11 209 C-9.92878906 208.60683594 -8.85757813 208.21367187 -7.75390625 207.80859375 C-2.09682989 205.68547792 3.481482 203.37674838 9.0625 201.0625 C10.11244141 200.63259766 11.16238281 200.20269531 12.24414062 199.75976562 C17.7341182 197.48292785 22.92722482 195.10122851 28 192 C21.05966998 181.66333826 13.89677097 171.62908794 6 162 C5.50854492 161.39881348 5.01708984 160.79762695 4.51074219 160.17822266 C-4.05052661 149.76981194 -12.43425142 140.36198238 -24.65234375 134.19140625 C-27 133 -27 133 -30 131 C-28.66863937 124.22653123 -26.648343 118.10081168 -24.125 111.6875 C-18.68945091 97.51705053 -13.90060145 83.14752721 -9.20695496 68.71740723 C-7.80546397 64.418401 -6.36465641 60.1364149 -4.87718201 55.86642456 C0.10706666 41.51305377 3.59332528 29.20029344 1 14 C3 14 3 14 4.625 15.5 C5.07875 15.995 5.5325 16.49 6 17 C4.58595858 13.09455228 3.19901425 9.39065761 1.3125 5.6875 C0 3 0 3 0 0 Z " fill="#7A8367" transform="translate(197,233)"/>
<path d="M0 0 C5.445 0.495 5.445 0.495 11 1 C11.33 1.99 11.66 2.98 12 4 C14.64 4 17.28 4 20 4 C20.309375 5.134375 20.61875 6.26875 20.9375 7.4375 C21.62924531 10.78775099 21.62924531 10.78775099 23 12 C23.74583591 21.09919816 21.55379624 29.58301849 16.3125 37.125 C13.65578801 40.95710577 13.44071072 44.30087286 13.43359375 48.8984375 C13 51 13 51 11.2578125 52.265625 C4.11515033 54.58884384 -2.83742736 52.90582782 -9.63671875 50.22265625 C-12.61860013 48.6799639 -14.31315567 46.89173313 -16 44 C-15.51454712 43.1644458 -15.51454712 43.1644458 -15.01928711 42.31201172 C-13.8672139 39.69880614 -13.73207305 37.85342553 -13.69140625 35.0078125 C-13.66626953 34.05519531 -13.64113281 33.10257813 -13.61523438 32.12109375 C-13.58021674 30.13157316 -13.54893669 28.14198311 -13.52148438 26.15234375 C-13.36871684 20.63035619 -12.91254169 16.84911294 -10 12 C-9.9175 11.154375 -9.835 10.30875 -9.75 9.4375 C-8.57016515 5.60303673 -5.43762835 3.86568744 -2 2 C-1.34 2 -0.68 2 0 2 C0 1.34 0 0.68 0 0 Z " fill="#ECBD9D" transform="translate(290,73)"/>
<path d="M0 0 C0.83265381 0.00523682 1.66530762 0.01047363 2.52319336 0.01586914 C3.42231445 0.0190918 4.32143555 0.02231445 5.24780273 0.02563477 C6.66609375 0.03820312 6.66609375 0.03820312 8.11303711 0.05102539 C9.53712891 0.05779297 9.53712891 0.05779297 10.98999023 0.06469727 C13.34356776 0.07652429 15.69702188 0.09300514 18.05053711 0.11352539 C18.05053711 1.10352539 18.05053711 2.09352539 18.05053711 3.11352539 C16.90713867 3.24629883 15.76374023 3.37907227 14.58569336 3.51586914 C13.09478091 3.69402849 11.60389693 3.87242621 10.11303711 4.05102539 C9.35829102 4.13803711 8.60354492 4.22504883 7.82592773 4.31469727 C4.12866253 4.45676638 4.12866253 4.45676638 1.05053711 6.11352539 C7.32053711 6.44352539 13.59053711 6.77352539 20.05053711 7.11352539 C21.04053711 9.09352539 21.04053711 9.09352539 22.05053711 11.11352539 C13.14053711 12.10352539 13.14053711 12.10352539 4.05053711 13.11352539 C4.05053711 14.10352539 4.05053711 15.09352539 4.05053711 16.11352539 C4.90776367 15.96915039 5.76499023 15.82477539 6.64819336 15.67602539 C12.50663668 14.72493651 18.11236389 13.83733129 24.05053711 14.11352539 C25.04053711 17.08352539 25.04053711 17.08352539 26.05053711 20.11352539 C16.15053711 20.60852539 16.15053711 20.60852539 6.05053711 21.11352539 C5.72053711 21.77352539 5.39053711 22.43352539 5.05053711 23.11352539 C5.05053711 22.45352539 5.05053711 21.79352539 5.05053711 21.11352539 C-0.40897838 23.01310602 -5.86750624 24.91549072 -11.32519531 26.8203125 C-13.17617315 27.46591274 -15.02740376 28.11078877 -16.87890625 28.75488281 C-22.12962478 30.58177515 -27.37567714 32.42091498 -32.61373901 34.28381348 C-34.10051526 34.81195637 -35.58830657 35.33725673 -37.0774231 35.85876465 C-38.90901285 36.50277643 -40.73421686 37.16487059 -42.55883789 37.82836914 C-43.54207031 38.1814917 -44.52530273 38.53461426 -45.53833008 38.8984375 C-49.62143236 40.95611268 -51.14981499 44.07194324 -52.94946289 48.11352539 C-53.70812201 49.45382317 -54.47827916 50.78770428 -55.26196289 52.11352539 C-55.81883789 53.10352539 -56.37571289 54.09352539 -56.94946289 55.11352539 C-57.60946289 53.79352539 -58.26946289 52.47352539 -58.94946289 51.11352539 C-59.4921582 51.53504883 -60.03485352 51.95657227 -60.59399414 52.39086914 C-61.66713867 53.21264648 -61.66713867 53.21264648 -62.76196289 54.05102539 C-63.4696582 54.59629883 -64.17735352 55.14157227 -64.90649414 55.70336914 C-66.94946289 57.11352539 -66.94946289 57.11352539 -69.94946289 58.11352539 C-70.60360676 51.04877161 -68.97253973 45.97572307 -64.94946289 40.11352539 C-60.45827105 34.82594791 -55.78198562 31.59262967 -49.57446289 28.61352539 C-41.48944175 24.54753068 -33.69709673 20.10209842 -25.94946289 15.42602539 C-24.9241748 14.80856445 -23.89888672 14.19110352 -22.8425293 13.55493164 C-0.513998 0.02993226 -0.513998 0.02993226 0 0 Z " fill="#EFC09F" transform="translate(152.949462890625,195.886474609375)"/>
<path d="M0 0 C1.4540625 1.3303125 1.4540625 1.3303125 2.9375 2.6875 C8.75423439 7.66822601 14.75125058 10.58375019 22 13 C22 18.28 22 23.56 22 29 C23.65 29.33 25.3 29.66 27 30 C26.505 31.485 26.505 31.485 26 33 C26.99 33.33 27.98 33.66 29 34 C29 34.66 29 35.32 29 36 C27.93458984 36.19916016 27.93458984 36.19916016 26.84765625 36.40234375 C25.92855469 36.57894531 25.00945312 36.75554687 24.0625 36.9375 C23.14597656 37.11152344 22.22945312 37.28554687 21.28515625 37.46484375 C19.04710156 37.77714988 19.04710156 37.77714988 18 39 C19.6045556 38.85851011 21.20863767 38.71164314 22.8125 38.5625 C23.70582031 38.48128906 24.59914062 38.40007812 25.51953125 38.31640625 C28.12743559 38.06510233 28.12743559 38.06510233 31 37 C33 40 33 40 33 43 C31.69675781 43.19916016 31.69675781 43.19916016 30.3671875 43.40234375 C29.21476562 43.57894531 28.06234375 43.75554687 26.875 43.9375 C25.73804688 44.11152344 24.60109375 44.28554687 23.4296875 44.46484375 C20.28267331 44.95589266 17.14069217 45.47018719 14 46 C14 46.66 14 47.32 14 48 C14.52207031 47.7834375 15.04414063 47.566875 15.58203125 47.34375 C21.843157 44.97526811 27.347837 44.66428336 34 45 C34 46.98 34 48.96 34 51 C32.98679688 51.04898438 31.97359375 51.09796875 30.9296875 51.1484375 C29.57810089 51.22352564 28.22653962 51.29907081 26.875 51.375 C26.20984375 51.4059375 25.5446875 51.436875 24.859375 51.46875 C21.67922154 51.65581785 18.93531441 52.02156186 15.90625 53.03125 C12.6453483 54.11821723 10.04980856 54.20110686 6.625 54.125 C5.56539062 54.10695312 4.50578125 54.08890625 3.4140625 54.0703125 C2.21910156 54.03550781 2.21910156 54.03550781 1 54 C1.99 51.36 2.98 48.72 4 46 C3.01 45.7215625 3.01 45.7215625 2 45.4375 C-6.13896611 41.53757874 -10.92023312 35.38232202 -14 27 C-14.5711936 24.60439699 -14.83909678 22.46718265 -15 20 C-14.49210938 19.731875 -13.98421875 19.46375 -13.4609375 19.1875 C-7.61161013 15.85754584 -2.32885019 11.66417618 -0.41015625 4.9296875 C-0.06537808 2.82976756 -0.06537808 2.82976756 0 0 Z " fill="#EDBE9D" transform="translate(153,105)"/>
<path d="M0 0 C2.68539869 2.36048189 3.91329974 4.65494625 5.3046875 7.9296875 C5.72363281 8.89003906 6.14257812 9.85039062 6.57421875 10.83984375 C7.43736682 12.8538559 8.29678034 14.86947291 9.15234375 16.88671875 C12.35568465 24.20444246 15.489295 29.50664883 23 33 C28.98521173 33.91724854 34.95584401 34.27932526 41 34.5625 C41.87011719 34.60568359 42.74023438 34.64886719 43.63671875 34.69335938 C45.75768219 34.79824218 47.87882433 34.89950075 50 35 C48.51911112 38.77948596 46.84952557 42.3850182 45 46 C37.3815092 46.18643693 29.88499948 45.55696911 22.30834961 44.828125 C20.20285074 44.62647022 18.09666069 44.43388188 15.99023438 44.2421875 C8.77803703 43.5692581 1.64745112 42.71655003 -5.48022461 41.39257812 C-9.03401637 40.83890143 -12.41131448 40.86197363 -16 41 C-15.3812977 35.92198104 -13.83635209 31.68315637 -11.875 27.01171875 C-11.56804199 26.26791458 -11.26108398 25.52411041 -10.94482422 24.75776672 C-10.29886066 23.19592529 -9.6498811 21.63532818 -8.99804688 20.07592773 C-7.99701992 17.68036836 -7.00558084 15.2810122 -6.015625 12.88085938 C-5.38596966 11.36174984 -4.75578025 9.84286153 -4.125 8.32421875 C-3.82706543 7.60449387 -3.52913086 6.88476898 -3.22216797 6.14323425 C-1.11665773 1.11665773 -1.11665773 1.11665773 0 0 Z " fill="#565C48" transform="translate(248,172)"/>
<path d="M0 0 C0.99 0.495 0.99 0.495 2 1 C5.21072554 1.28570015 8.42208025 1.44681771 11.640625 1.62109375 C15.27771973 1.88197109 18.85469299 2.39750956 22.4609375 2.93359375 C30.41160984 4.10171958 38.37611914 4.88310757 46.375 5.625 C47.80471635 5.76011177 49.23440404 5.89552706 50.6640625 6.03125 C54.10905359 6.35764763 57.55440786 6.68000177 61 7 C60.79431396 7.81682251 60.79431396 7.81682251 60.58447266 8.65014648 C59.27142355 14.14743756 58.61224396 19.42301347 58.375 25.0625 C58.33632813 25.83271484 58.29765625 26.60292969 58.2578125 27.39648438 C58.16501695 29.26399477 58.08149876 31.13196252 58 33 C57.01 33.495 57.01 33.495 56 34 C50.84526646 30.07824307 46.75175285 25.94733681 44 20 C44 19.01 44 18.02 44 17 C40.04 17.33 36.08 17.66 32 18 C32 17.34 32 16.68 32 16 C30.27716797 15.85304687 30.27716797 15.85304687 28.51953125 15.703125 C18.85964983 14.80031286 10.16122661 13.33429802 1 10 C1.0103125 9.05898437 1.020625 8.11796875 1.03125 7.1484375 C1.00498993 4.5027351 0.76982596 2.50193436 0 0 Z " fill="#818669" transform="translate(231,211)"/>
<path d="M0 0 C0.68578125 0.59941406 1.3715625 1.19882812 2.078125 1.81640625 C3.75 3.4375 3.75 3.4375 4.75 5.4375 C4.66348369 6.98363014 4.50997364 8.52659387 4.3125 10.0625 C4.21066406 10.87976563 4.10882813 11.69703125 4.00390625 12.5390625 C3.92011719 13.16554688 3.83632813 13.79203125 3.75 14.4375 C-21.55858469 15.28320766 -21.55858469 15.28320766 -31.25 10.4375 C-31.875 7.875 -31.875 7.875 -32.25 5.4375 C-32.70375 6.406875 -33.1575 7.37625 -33.625 8.375 C-35.25 11.4375 -35.25 11.4375 -37.25 12.4375 C-42.78846154 12.66826923 -42.78846154 12.66826923 -45.25 11.4375 C-45.25 5.8275 -45.25 0.2175 -45.25 -5.5625 C-42.94 -5.2325 -40.63 -4.9025 -38.25 -4.5625 C-30.26797643 -4.1102905 -22.5688299 -4.70570224 -14.71899414 -6.11450195 C-7.98630467 -7.16889694 -4.83095836 -4.2685758 0 0 Z " fill="#828C6E" transform="translate(361.25,427.5625)"/>
<path d="M0 0 C0.62887376 5.16200548 1.16443515 9.94127865 -1.46484375 14.58984375 C-7.48732849 21.56638548 -15.79981802 28.04730831 -25 30 C-29.13590238 29.93106829 -31.16011015 29.6851733 -34.375 27.0625 C-36.64235114 24.18470817 -37.50396128 21.99472587 -37.49609375 18.28125 C-36.36559098 13.08271758 -32.77936726 6.77936726 -29 3 C-27.42777323 2.78468792 -25.8472691 2.62906677 -24.265625 2.5 C-23.29882812 2.4175 -22.33203125 2.335 -21.3359375 2.25 C-20.31757813 2.1675 -19.29921875 2.085 -18.25 2 C-16.25499665 1.83588661 -14.26019487 1.66930036 -12.265625 1.5 C-11.37649414 1.4278125 -10.48736328 1.355625 -9.57128906 1.28125 C-6.35205039 0.92912667 -3.23529597 0 0 0 Z " fill="#818B6D" transform="translate(298,439)"/>
<path d="M0 0 C1.29638882 2.59277764 0.80781147 3.37488821 -0.06640625 6.09375 C-1.88108118 11.23105473 -4.64917786 15.19992366 -7.9375 19.5 C-9.09869873 21.06042269 -10.25882711 22.62164237 -11.41796875 24.18359375 C-12.00884277 24.97362793 -12.5997168 25.76366211 -13.20849609 26.57763672 C-16.12626662 30.52286963 -18.93648748 34.54258286 -21.75 38.5625 C-26.86863745 45.86863745 -26.86863745 45.86863745 -28 47 C-27.9989999 55.35779947 -25.81581422 63.20954967 -23.5625 71.1875 C-22.84229883 73.8156968 -22.12449801 76.4444341 -21.41015625 79.07421875 C-21.22035187 79.77042328 -21.03054749 80.46662781 -20.83499146 81.18392944 C-18.52150158 89.70184895 -16.33676612 98.25231547 -14.17941284 106.8109436 C-13.72844605 108.5958306 -13.27463302 110.38000102 -12.81790161 112.16342163 C-12.17369936 114.68015618 -11.53880415 117.19906617 -10.90625 119.71875 C-10.71288559 120.46755936 -10.51952118 121.21636871 -10.32029724 121.98786926 C-9.3058746 126.0801567 -8.7977099 129.78507029 -9 134 C-9.99 133.67 -10.98 133.34 -12 133 C-13.10327148 130.66186523 -13.10327148 130.66186523 -14.12109375 127.55859375 C-14.49943359 126.41583984 -14.87777344 125.27308594 -15.26757812 124.09570312 C-15.65365234 122.88849609 -16.03972656 121.68128906 -16.4375 120.4375 C-16.81970703 119.28830078 -17.20191406 118.13910156 -17.59570312 116.95507812 C-20.49894994 108.06788966 -22.83479617 99.08710767 -25 90 C-25.1688974 89.29652435 -25.3377948 88.59304871 -25.5118103 87.86825562 C-26.55571175 83.5200904 -27.58713158 79.16910866 -28.60986328 74.81591797 C-29.30111846 71.87595398 -29.99739992 68.93718266 -30.69306946 65.9982605 C-31.18217517 63.90771437 -31.65457825 61.81389077 -32.12573242 59.71923828 C-32.65152805 57.48244113 -33.22769919 55.25542057 -33.8996582 53.05810547 C-34.91305298 49.50865168 -35.49709262 47.19103595 -34.046875 43.71630859 C-32.49168166 41.27563486 -30.79086756 39.09734462 -28.9375 36.875 C-27.9791626 35.65393555 -27.9791626 35.65393555 -27.00146484 34.40820312 C-25.03094076 31.9128856 -23.0209635 29.45455926 -21 27 C-19.81512465 25.5348897 -18.6314686 24.06879222 -17.44921875 22.6015625 C-15.29049389 19.93162656 -13.11644783 17.27522091 -10.93359375 14.625 C-7.0736051 9.90431281 -3.50108195 4.9924794 0 0 Z " fill="#59604C" transform="translate(164,286)"/>
<path d="M0 0 C3.14066418 5.15783873 2.64752944 11.12549062 3 17 C-2.94 19.475 -2.94 19.475 -9 22 C-11 18 -11 18 -12 15 C-12.3403125 15.49628906 -12.680625 15.99257813 -13.03125 16.50390625 C-18.7121036 24.46616648 -24.98764546 30.12643941 -34 34 C-35.299375 34.61875 -35.299375 34.61875 -36.625 35.25 C-39.50099517 36.158209 -42.0026373 36.13941222 -45 36 C-44.62488281 35.5875 -44.24976563 35.175 -43.86328125 34.75 C-37.89702722 28.01730023 -33.86067488 21.96548948 -31.87109375 13.1015625 C-30.73071217 10.35032802 -29.69291678 10.16670597 -27 9 C-25.4186213 8.4205326 -23.82636816 7.87021265 -22.2265625 7.34375 C-21.3190625 7.04339844 -20.4115625 6.74304688 -19.4765625 6.43359375 C-18.53554687 6.12550781 -17.59453125 5.81742187 -16.625 5.5 C-15.69171875 5.19191406 -14.7584375 4.88382812 -13.796875 4.56640625 C-11.99811492 3.97276447 -10.19897823 3.38026227 -8.39941406 2.7890625 C-5.59690458 1.86743952 -2.79782899 0.93572876 0 0 Z " fill="#E9AA8A" transform="translate(238,439)"/>
<path d="M0 0 C1.60546875 2.08203125 1.60546875 2.08203125 3.1875 4.8125 C3.71730469 5.70582031 4.24710938 6.59914063 4.79296875 7.51953125 C6 10 6 10 6 13 C-26.85890588 25.65426414 -26.85890588 25.65426414 -37 25 C-37.69965443 23.73581754 -38.38434763 22.46334598 -39.0625 21.1875 C-39.44535156 20.47980469 -39.82820312 19.77210938 -40.22265625 19.04296875 C-41 17 -41 17 -40 14 C-37.92038161 13.52025281 -35.8368148 13.05404979 -33.74072266 12.65234375 C-28.49803544 11.40448519 -23.62697232 9.1199452 -18.6875 7 C-17.61693359 6.54882812 -16.54636719 6.09765625 -15.44335938 5.6328125 C-10.07506966 3.40157336 -10.07506966 3.40157336 -4.85473633 0.85546875 C-3 0 -3 0 0 0 Z " fill="#555C48" transform="translate(228,428)"/>
<path d="M0 0 C0 3.96 0 7.92 0 12 C-4.455 12.495 -4.455 12.495 -9 13 C-9 11.02 -9 9.04 -9 7 C-9.58265625 7.51949219 -10.1653125 8.03898437 -10.765625 8.57421875 C-19.67272284 16.15085386 -29.41980315 21.1910891 -41.25 21.0625 C-42.32765625 21.05347656 -43.4053125 21.04445313 -44.515625 21.03515625 C-45.33546875 21.02355469 -46.1553125 21.01195312 -47 21 C-46.319375 20.34 -45.63875 19.68 -44.9375 19 C-42.69030445 16.73999992 -40.51235506 14.4267505 -38.375 12.0625 C-37.52035156 11.12083984 -37.52035156 11.12083984 -36.6484375 10.16015625 C-34.79860014 7.99325089 -34.79860014 7.99325089 -34.01953125 4.83203125 C-32 2 -32 2 -29.64453125 1.33325195 C-26.52800782 0.95075525 -23.44961536 0.75563538 -20.3125 0.625 C-19.24837891 0.55667969 -18.18425781 0.48835938 -17.08789062 0.41796875 C-11.38683047 0.07287678 -5.71029561 -0.06904831 0 0 Z " fill="#E9AA8A" transform="translate(158,430)"/>
<path d="M0 0 C0.33 0.66 0.66 1.32 1 2 C14.5972317 7.32065588 32.26546295 4.18262376 46 1 C46.495 5.95 46.495 5.95 47 11 C43.06316567 12.96841717 39.8423232 13.63197493 35.5625 14.125 C34.85311279 14.2077417 34.14372559 14.2904834 33.4128418 14.37573242 C22.14074275 15.60488768 11.94237491 15.32056345 1 12 C0 11 0 11 -0.09765625 8.49609375 C-0.08605469 7.48675781 -0.07445312 6.47742188 -0.0625 5.4375 C-0.05347656 4.42558594 -0.04445313 3.41367187 -0.03515625 2.37109375 C-0.02355469 1.58863281 -0.01195312 0.80617188 0 0 Z " fill="#E9A988" transform="translate(309,409)"/>
<path d="M0 0 C1.1577506 3.47325181 1.06866652 6.36067448 1 10 C-9.28644968 14.91960637 -19.27376625 15.29834545 -30.5625 15.1875 C-32.48545898 15.1865332 -32.48545898 15.1865332 -34.44726562 15.18554688 C-43.85939166 15.14060834 -43.85939166 15.14060834 -45 14 C-45.07179964 12.48071962 -45.08392007 10.95832518 -45.0625 9.4375 C-45.05347656 8.61121094 -45.04445312 7.78492188 -45.03515625 6.93359375 C-45.02355469 6.29550781 -45.01195312 5.65742188 -45 5 C-44.14003418 5.02356567 -44.14003418 5.02356567 -43.26269531 5.04760742 C-32.39580479 5.30587588 -22.44050029 5.4135607 -12 2 C-7.91248281 0.88152515 -4.27818288 0 0 0 Z " fill="#E4A787" transform="translate(301,413)"/>
<path d="M0 0 C-0.33 0.99 -0.66 1.98 -1 3 C-0.01 3.33 0.98 3.66 2 4 C2 4.66 2 5.32 2 6 C1.28972656 6.13277344 0.57945312 6.26554688 -0.15234375 6.40234375 C-1.07144531 6.57894531 -1.99054688 6.75554687 -2.9375 6.9375 C-3.85402344 7.11152344 -4.77054688 7.28554687 -5.71484375 7.46484375 C-7.95289844 7.77714988 -7.95289844 7.77714988 -9 9 C-7.3954444 8.85851011 -5.79136233 8.71164314 -4.1875 8.5625 C-2.84751953 8.44068359 -2.84751953 8.44068359 -1.48046875 8.31640625 C1.12743559 8.06510233 1.12743559 8.06510233 4 7 C6 10 6 10 6 13 C5.13117188 13.13277344 4.26234375 13.26554688 3.3671875 13.40234375 C2.21476562 13.57894531 1.06234375 13.75554687 -0.125 13.9375 C-1.26195312 14.11152344 -2.39890625 14.28554687 -3.5703125 14.46484375 C-6.71732669 14.95589266 -9.85930783 15.47018719 -13 16 C-13 16.66 -13 17.32 -13 18 C-12.47792969 17.7834375 -11.95585937 17.566875 -11.41796875 17.34375 C-5.156843 14.97526811 0.347837 14.66428336 7 15 C7 16.98 7 18.96 7 21 C5.48019531 21.07347656 5.48019531 21.07347656 3.9296875 21.1484375 C2.57810089 21.22352564 1.22653962 21.29907081 -0.125 21.375 C-0.79015625 21.4059375 -1.4553125 21.436875 -2.140625 21.46875 C-5.32077846 21.65581785 -8.06468559 22.02156186 -11.09375 23.03125 C-14.3546517 24.11821723 -16.95019144 24.20110686 -20.375 24.125 C-21.43460938 24.10695312 -22.49421875 24.08890625 -23.5859375 24.0703125 C-24.38257813 24.04710937 -25.17921875 24.02390625 -26 24 C-24.94239818 21.11622858 -23.82281079 18.48469598 -22 16 C-18.25 15 -18.25 15 -15 15 C-15 14.67 -15 14.34 -15 14 C-16.65 13.67 -18.3 13.34 -20 13 C-15.2233289 4.83985353 -9.95386277 -1.24423285 0 0 Z " fill="#F4DDC3" transform="translate(180,135)"/>
<path d="M0 0 C2.8190918 -0.56762695 2.8190918 -0.56762695 6.19921875 -0.48828125 C8.01196289 -0.46411133 8.01196289 -0.46411133 9.86132812 -0.43945312 C11.7552832 -0.37661133 11.7552832 -0.37661133 13.6875 -0.3125 C15.59885742 -0.27866211 15.59885742 -0.27866211 17.54882812 -0.24414062 C20.69971724 -0.18513521 23.8500044 -0.09545441 27 0 C27 5.94 27 11.88 27 18 C22 15 22 15 16 8 C14.35 18.56 12.7 29.12 11 40 C10.01 40 9.02 40 8 40 C8.55136839 36.38691538 9.10718415 32.77453548 9.66601562 29.16259766 C9.90252718 27.63115078 10.13811196 26.09956063 10.37304688 24.56787109 C10.76693748 22.00317296 11.16443996 19.43905399 11.5625 16.875 C11.68923096 16.04572998 11.81596191 15.21645996 11.9465332 14.36206055 C12.06859131 13.58000244 12.19064941 12.79794434 12.31640625 11.9921875 C12.42412354 11.29464355 12.53184082 10.59709961 12.64282227 9.87841797 C13 8 13 8 14 5 C8.39 5 2.78 5 -3 5 C-2.01 3.35 -1.02 1.7 0 0 Z " fill="#788165" transform="translate(160,234)"/>
<path d="M0 0 C0.67160156 0.39316406 1.34320313 0.78632812 2.03515625 1.19140625 C3.36742809 1.88096101 4.70076291 2.56846592 6.03515625 3.25390625 C6.69515625 3.59550781 7.35515625 3.93710938 8.03515625 4.2890625 C14.44960414 7.18308098 22.31150493 6.98437994 29.03515625 5.19140625 C29.53015625 6.67640625 29.53015625 6.67640625 30.03515625 8.19140625 C32.34853108 9.25705117 34.58219065 10.1520218 36.97265625 11.00390625 C52.10928356 16.75789814 65.12356703 26.24515762 75.03515625 39.19140625 C75.03515625 39.85140625 75.03515625 40.51140625 75.03515625 41.19140625 C72.11878542 39.88224829 70.14443615 38.51312947 67.96875 36.1796875 C67.40696045 35.59010254 66.8451709 35.00051758 66.26635742 34.39306641 C65.37847534 33.45793213 65.37847534 33.45793213 64.47265625 32.50390625 C58.77947102 26.69375288 53.27197196 22.01551171 46.03515625 18.19140625 C45.41801758 17.84319824 44.80087891 17.49499023 44.16503906 17.13623047 C34.6436393 11.8025046 27.54591497 9.55691763 16.64453125 10.16015625 C11.49067887 10.20477835 7.43085566 8.8341113 3.03515625 6.19140625 C2.25140625 5.36640625 1.46765625 4.54140625 0.66015625 3.69140625 C-1.83443674 1.90317573 -1.83443674 1.90317573 -4.47265625 2.5859375 C-14.78334117 5.74913718 -24.38583849 10.50695396 -31.96484375 18.19140625 C-32.62484375 18.19140625 -33.28484375 18.19140625 -33.96484375 18.19140625 C-30.24605514 9.30445501 -18.18385251 5.73014613 -9.96484375 2.19140625 C-9.15015625 1.82402344 -8.33546875 1.45664063 -7.49609375 1.078125 C-2.51069526 -1.03322847 -2.51069526 -1.03322847 0 0 Z " fill="#7C8568" transform="translate(274.96484375,118.80859375)"/>
<path d="M0 0 C2.7734375 -0.3046875 2.7734375 -0.3046875 6 0 C11.87054796 6.10258542 16.66470013 16.13815184 17.25 24.625 C17.1675 25.40875 17.085 26.1925 17 27 C10.93609661 26.78343202 7.25181458 25.53222544 2.5 21.69921875 C1 20 1 20 0.5 16.625 C0.665 15.75875 0.83 14.8925 1 14 C3 14 3 14 4.625 15.5 C5.07875 15.995 5.5325 16.49 6 17 C4.58595858 13.09455228 3.19901425 9.39065761 1.3125 5.6875 C0 3 0 3 0 0 Z " fill="#5A604C" transform="translate(197,233)"/>
<path d="M0 0 C0.33 0.99 0.66 1.98 1 3 C3.10584438 3.80563638 3.10584438 3.80563638 5.5625 4.1875 C6.38878906 4.34605469 7.21507812 4.50460938 8.06640625 4.66796875 C9.02353516 4.83232422 9.02353516 4.83232422 10 5 C10 5.66 10 6.32 10 7 C10.66 7 11.32 7 12 7 C9.82348157 14.23372302 6.107986 22.28623319 -0.3125 26.6875 C-3 28 -3 28 -5 28 C-5.8006296 18.07219294 -2.86436295 9.39101853 0 0 Z " fill="#E8A989" transform="translate(231,218)"/>
<path d="M0 0 C3 1 3 1 3.9921875 2.77734375 C4.42917969 3.84662109 4.42917969 3.84662109 4.875 4.9375 C6.47900087 8.41959238 6.47900087 8.41959238 9.75 10.5 C10.4925 10.665 11.235 10.83 12 11 C12 11.66 12 12.32 12 13 C10.68 13 9.36 13 8 13 C8 14.98 8 16.96 8 19 C10.31 19 12.62 19 15 19 C15 19.99 15 20.98 15 22 C12.36 22 9.72 22 7 22 C6.67 23.32 6.34 24.64 6 26 C6 24.02 6 22.04 6 20 C-0.67728333 20.58660246 -7.34063095 21.23581011 -14 22 C-13.67 23.98 -13.34 25.96 -13 28 C-13.66 28 -14.32 28 -15 28 C-15 26.35 -15 24.7 -15 23 C-15.99 23.33 -16.98 23.66 -18 24 C-19.56118428 24.06740865 -21.1250252 24.08514456 -22.6875 24.0625 C-23.89986328 24.04896484 -23.89986328 24.04896484 -25.13671875 24.03515625 C-25.75160156 24.02355469 -26.36648437 24.01195312 -27 24 C-27 23.34 -27 22.68 -27 22 C-23.04 22 -19.08 22 -15 22 C-15 20.35 -15 18.7 -15 17 C-14.67 17.99 -14.34 18.98 -14 20 C-13.33613281 19.67257813 -12.67226562 19.34515625 -11.98828125 19.0078125 C-8.33512088 17.77576626 -4.98944958 17.78040604 -1.1875 17.875 C-0.14819336 17.88853516 -0.14819336 17.88853516 0.91210938 17.90234375 C2.60822395 17.92573843 4.30415871 17.96160359 6 18 C6 16.02 6 14.04 6 12 C3.62388845 12.28416601 1.24939504 12.57708901 -1.125 12.875 C-1.79015625 12.95363281 -2.4553125 13.03226563 -3.140625 13.11328125 C-7.30378644 13.64388026 -11.06671292 14.54186554 -15 16 C-14.67 14.68 -14.34 13.36 -14 12 C-7.56986533 10.26044666 -1.65050424 9.75008544 5 10 C4.34 8.35 3.68 6.7 3 5 C2.32453125 5.15597656 1.6490625 5.31195313 0.953125 5.47265625 C0.06109375 5.66730469 -0.8309375 5.86195313 -1.75 6.0625 C-2.63171875 6.25972656 -3.5134375 6.45695313 -4.421875 6.66015625 C-6.98679028 6.99825872 -8.57091639 6.81158635 -11 6 C-6.89542386 3.01485372 -4.02254631 2.7045561 1 3 C0.67 2.01 0.34 1.02 0 0 Z " fill="#A0A184" transform="translate(181,138)"/>
<path d="M0 0 C2.3313231 1.68770629 3.31201229 3.28630116 4.66015625 5.8203125 C5.088125 6.60277344 5.51609375 7.38523437 5.95703125 8.19140625 C6.91015625 10.3828125 6.91015625 10.3828125 6.91015625 13.3828125 C5.6683893 14.08507391 4.41630026 14.76910359 3.16015625 15.4453125 C2.4640625 15.82816406 1.76796875 16.21101563 1.05078125 16.60546875 C-1.08984375 17.3828125 -1.08984375 17.3828125 -3.1484375 17.30859375 C-5.94595654 15.97456556 -6.85371506 14.15931075 -8.40234375 11.5078125 C-8.93472656 10.62351562 -9.46710938 9.73921875 -10.015625 8.828125 C-11.08984375 6.3828125 -11.08984375 6.3828125 -10.08984375 3.3828125 C-8.3828125 2.14453125 -8.3828125 2.14453125 -6.27734375 1.0703125 C-5.59027344 0.70292969 -4.90320313 0.33554687 -4.1953125 -0.04296875 C-2.08984375 -0.6171875 -2.08984375 -0.6171875 0 0 Z " fill="#575E4A" transform="translate(241.08984375,421.6171875)"/>
<path d="M0 0 C16.79312498 2.71548404 26.54000858 10.49273484 38.59643555 21.93701172 C42.29033871 25.44254481 46.05034737 28.78446099 50 32 C48.35 33.65 46.7 35.3 45 37 C44.91363281 36.27296875 44.82726562 35.5459375 44.73828125 34.796875 C42.27701727 25.4727215 30.82266638 17.84809477 23 13 C15.28427008 8.61723594 7.33692608 5.01981989 -1 2 C-0.67 1.34 -0.34 0.68 0 0 Z " fill="#5D6450" transform="translate(304,125)"/>
<path d="M0 0 C0.66 2.64 1.32 5.28 2 8 C-7.405 8.495 -7.405 8.495 -17 9 C-17.33 9.66 -17.66 10.32 -18 11 C-18.33 7.7 -18.66 4.4 -19 1 C-12.65333314 0.41639845 -6.37625222 -0.14491482 0 0 Z " fill="#F5DEC4" transform="translate(168,185)"/>
<path d="M0 0 C0.77472656 0.00451172 1.54945313 0.00902344 2.34765625 0.01367188 C4.23180524 0.02530242 6.11591365 0.04323094 8 0.0625 C8.66 1.7125 9.32 3.3625 10 5.0625 C0.98865693 5.6956684 -7.95971078 6.2348784 -17 6.0625 C-17 4.4125 -17 2.7625 -17 1.0625 C-11.28094617 0.23713655 -5.7732851 -0.06503701 0 0 Z " fill="#F7DFC6" transform="translate(177,227.9375)"/>
<path d="M0 0 C0 5.28 0 10.56 0 16 C-3.92430473 13.64541716 -5.91426466 12.33112414 -8.75 9.0625 C-9.34296875 8.39347656 -9.9359375 7.72445312 -10.546875 7.03515625 C-12.01870895 4.97379741 -12.57918771 3.47504071 -13 1 C-8.54459632 0.39587747 -4.52021205 0 0 0 Z " fill="#E8AB8B" transform="translate(289,227)"/>
<path d="M0 0 C0 0.66 0 1.32 0 2 C-13.66813385 5.74591597 -29.60381238 7.78550005 -43 2 C-43 1.67 -43 1.34 -43 1 C-42.16339844 1.00523682 -41.32679688 1.01047363 -40.46484375 1.01586914 C-37.32633728 1.03303013 -34.18785493 1.04550773 -31.04931641 1.05493164 C-29.03676759 1.06236421 -27.02424051 1.07507829 -25.01171875 1.08789062 C-16.63230017 1.10894444 -8.32361679 -0.20809042 0 0 Z " fill="#878C6D" transform="translate(353,409)"/>
<path d="M0 0 C0.66 1.98 1.32 3.96 2 6 C-4.6 6.33 -11.2 6.66 -18 7 C-18.33 7.66 -18.66 8.32 -19 9 C-19.33 6.69 -19.66 4.38 -20 2 C-6.3667426 -0.29612756 -6.3667426 -0.29612756 0 0 Z " fill="#F7E0C6" transform="translate(177,210)"/>
<path d="M0 0 C0.66 1.65 1.32 3.3 2 5 C-5.692641 5.84800767 -13.26291674 6.12152487 -21 6 C-21.33 6.66 -21.66 7.32 -22 8 C-22 5.69 -22 3.38 -22 1 C-19.6460153 0.83034345 -17.29186616 0.6642065 -14.9375 0.5 C-13.62652344 0.4071875 -12.31554687 0.314375 -10.96484375 0.21875 C-7.29924005 0.0165098 -3.67009048 -0.0381804 0 0 Z " fill="#F3DDC4" transform="translate(181,219)"/>
<path d="M0 0 C0.33 0 0.66 0 1 0 C1 3.63 1 7.26 1 11 C-3.29 11 -7.58 11 -12 11 C-12 8.36 -12 5.72 -12 3 C-6.06 2.505 -6.06 2.505 0 2 C0 1.34 0 0.68 0 0 Z " fill="#F8E2C9" transform="translate(199,180)"/>
<path d="M0 0 C0 0.66 0 1.32 0 2 C-10.32629558 6.9386631 -20.29410422 7.27670097 -31.625 7.125 C-32.91535156 7.11597656 -34.20570313 7.10695313 -35.53515625 7.09765625 C-38.69030249 7.0742848 -41.84504926 7.04152091 -45 7 C-45.33 6.34 -45.66 5.68 -46 5 C-45.34217529 4.9906543 -44.68435059 4.98130859 -44.0065918 4.97167969 C-30.81725846 4.73769204 -18.3134196 3.95743637 -5.47265625 0.83984375 C-2 0 -2 0 0 0 Z " fill="#8A8D6E" transform="translate(302,421)"/>
<path d="M0 0 C1.7290774 -0.02725341 3.45828176 -0.04650987 5.1875 -0.0625 C6.15042969 -0.07410156 7.11335937 -0.08570313 8.10546875 -0.09765625 C10.85576513 -0.00486622 13.32479591 0.37888315 16 1 C16 2.65 16 4.3 16 6 C7.585 6.495 7.585 6.495 -1 7 C-1 6.34 -1 5.68 -1 5 C-2.32 4.67 -3.64 4.34 -5 4 C-3.68 4 -2.36 4 -1 4 C-0.67 2.68 -0.34 1.36 0 0 Z " fill="#F3DDC3" transform="translate(151,169)"/>
<path d="M0 0 C1.29744141 0.01353516 1.29744141 0.01353516 2.62109375 0.02734375 C3.26175781 0.03894531 3.90242188 0.05054688 4.5625 0.0625 C4.2325 0.7225 3.9025 1.3825 3.5625 2.0625 C-1.83691669 3.73828287 -6.61532231 4.31837963 -12.296875 4.328125 C-13.00853821 4.33003845 -13.72020142 4.3319519 -14.45343018 4.33392334 C-15.94242715 4.33527285 -17.43143639 4.33166362 -18.92041016 4.32324219 C-21.195905 4.31246017 -23.47062197 4.3232117 -25.74609375 4.3359375 C-27.20052257 4.33461693 -28.6549509 4.33205666 -30.109375 4.328125 C-31.4200293 4.32586914 -32.73068359 4.32361328 -34.08105469 4.32128906 C-37.16869264 4.08322562 -38.8642554 3.70357493 -41.4375 2.0625 C-40.17474243 2.02491577 -40.17474243 2.02491577 -38.88647461 1.98657227 C-35.73483856 1.89089721 -32.58333774 1.79169924 -29.43188477 1.69018555 C-28.0732042 1.64712706 -26.71447959 1.60543435 -25.35571289 1.56518555 C-23.39197697 1.50677107 -21.42840636 1.44288197 -19.46484375 1.37890625 C-18.28656006 1.34224854 -17.10827637 1.30559082 -15.89428711 1.26782227 C-10.54331787 0.94999155 -5.37407292 -0.07361744 0 0 Z " fill="#888C6E" transform="translate(349.4375,397.9375)"/>
<path d="M0 0 C0 0.66 0 1.32 0 2 C-10.41774312 5.52836338 -20.4805675 8.5886238 -31.5625 8.5625 C-32.35245361 8.56443359 -33.14240723 8.56636719 -33.95629883 8.56835938 C-38.1966529 8.44608155 -40.93757154 8.04618215 -44 5 C-43.14003418 5.02356567 -43.14003418 5.02356567 -42.26269531 5.04760742 C-31.39379657 5.30592361 -21.4431926 5.40900395 -11 2 C-3.58181818 0 -3.58181818 0 0 0 Z " fill="#898C6E" transform="translate(300,413)"/>
<path d="M0 0 C7.26 0 14.52 0 22 0 C22 1.98 22 3.96 22 6 C21.19304687 5.84660156 20.38609375 5.69320312 19.5546875 5.53515625 C15.40952821 4.9111048 11.3077704 4.65372796 7.125 4.4375 C6.34125 4.39431641 5.5575 4.35113281 4.75 4.30664062 C2.83349351 4.20146649 0.91676667 4.10032075 -1 4 C-0.67 2.68 -0.34 1.36 0 0 Z " fill="#E5A887" transform="translate(268,221)"/>
<path d="M0 0 C0.74886475 0.00523682 1.49772949 0.01047363 2.26928711 0.01586914 C3.07817383 0.0190918 3.88706055 0.02231445 4.72045898 0.02563477 C5.5705957 0.03401367 6.42073242 0.04239258 7.29663086 0.05102539 C8.15063477 0.05553711 9.00463867 0.06004883 9.88452148 0.06469727 C12.00108749 0.07652166 14.11761771 0.0944577 16.23413086 0.11352539 C16.89413086 1.43352539 17.55413086 2.75352539 18.23413086 4.11352539 C16.00562809 4.45126871 13.77629619 4.78354409 11.54663086 5.11352539 C9.68458008 5.39196289 9.68458008 5.39196289 7.78491211 5.67602539 C4.87526715 6.0345295 2.15713064 6.20294795 -0.76586914 6.11352539 C-1.42586914 4.46352539 -2.08586914 2.81352539 -2.76586914 1.11352539 C-1.76586914 0.11352539 -1.76586914 0.11352539 0 0 Z " fill="#F5DEC4" transform="translate(156.765869140625,202.886474609375)"/>
<path d="M0 0 C7.92 0 15.84 0 24 0 C24.33 0.99 24.66 1.98 25 3 C12.625 3.495 12.625 3.495 0 4 C0 2.68 0 1.36 0 0 Z " fill="#8D9375" transform="translate(160,225)"/>
<path d="M0 0 C0.33 0.99 0.66 1.98 1 3 C1.67417969 2.67257813 2.34835938 2.34515625 3.04296875 2.0078125 C6.61501454 0.79039135 9.54711647 0.804619 13.3125 0.875 C14.56675781 0.89304688 15.82101563 0.91109375 17.11328125 0.9296875 C18.54220703 0.96449219 18.54220703 0.96449219 20 1 C19.67 1.66 19.34 2.32 19 3 C16.48828125 3.6328125 16.48828125 3.6328125 13.3125 4.125 C12.27738281 4.29257813 11.24226563 4.46015625 10.17578125 4.6328125 C7.08398337 4.99028975 4.10906723 5.06525778 1 5 C1.33 6.98 1.66 8.96 2 11 C1.34 11 0.68 11 0 11 C0 9.35 0 7.7 0 6 C-0.99 6.33 -1.98 6.66 -3 7 C-4.56118428 7.06740865 -6.1250252 7.08514456 -7.6875 7.0625 C-8.89986328 7.04896484 -8.89986328 7.04896484 -10.13671875 7.03515625 C-11.05904297 7.01775391 -11.05904297 7.01775391 -12 7 C-12 6.34 -12 5.68 -12 5 C-8.04 5 -4.08 5 0 5 C0 3.35 0 1.7 0 0 Z " fill="#888F72" transform="translate(166,155)"/>
<path d="M0 0 C0.33 0 0.66 0 1 0 C1.28834178 4.12574136 1.5730288 8.25171471 1.85449219 12.37792969 C1.95051991 13.77838768 2.04750506 15.17878039 2.14550781 16.57910156 C3.14642567 30.898355 3.14642567 30.898355 3 38 C4.32 38 5.64 38 7 38 C7 38.66 7 39.32 7 40 C2.37390802 40.3227506 -0.28026121 39.84450614 -4 37 C-4 36.34 -4 35.68 -4 35 C-2.35 35.66 -0.7 36.32 1 37 C0.83628906 35.989375 0.67257812 34.97875 0.50390625 33.9375 C-0.32327526 27.32004788 -0.10487776 20.65656857 -0.0625 14 C-0.05747487 12.63932456 -0.05291376 11.27864733 -0.04882812 9.91796875 C-0.03710459 6.61193275 -0.02069427 3.30598999 0 0 Z " fill="#8B8D6E" transform="translate(262,233)"/>
<path d="M0 0 C8.89031769 0.64656856 17.37193748 2.87022567 26 5 C26 5.99 26 6.98 26 8 C20.28462574 7.26328283 14.69457444 6.14957381 9.0625 4.9375 C8.18787109 4.75123047 7.31324219 4.56496094 6.41210938 4.37304688 C4.27429472 3.91744703 2.13708418 3.45901408 0 3 C0 2.01 0 1.02 0 0 Z " fill="#E3A686" transform="translate(232,215)"/>
<path d="M0 0 C1.02802734 0.00322266 2.05605469 0.00644531 3.11523438 0.00976562 C4.72301758 0.02233398 4.72301758 0.02233398 6.36328125 0.03515625 C7.44673828 0.03966797 8.53019531 0.04417969 9.64648438 0.04882812 C12.3229721 0.06061882 14.99934902 0.07707562 17.67578125 0.09765625 C17.67578125 1.08765625 17.67578125 2.07765625 17.67578125 3.09765625 C8.76578125 3.09765625 -0.14421875 3.09765625 -9.32421875 3.09765625 C-7.43906797 -0.67264531 -3.74687243 -0.02070095 0 0 Z " fill="#545B47" transform="translate(169.32421875,233.90234375)"/>
<path d="M0 0 C-0.33 1.98 -0.66 3.96 -1 6 C-1.99 5.67 -2.98 5.34 -4 5 C-5.97654185 4.88046231 -7.95738456 4.82473804 -9.9375 4.8125 C-10.97777344 4.79832031 -12.01804688 4.78414062 -13.08984375 4.76953125 C-15.95046613 4.99607718 -17.57670151 5.52266381 -20 7 C-20 5.35 -20 3.7 -20 2 C-13.1834265 0.2120463 -7.03482474 -0.23668569 0 0 Z " fill="#F1DBC1" transform="translate(187,158)"/>
<path d="M0 0 C0 2.31 0 4.62 0 7 C-3.3 7 -6.6 7 -10 7 C-10.66 5.02 -11.32 3.04 -12 1 C-8.0186217 -0.3271261 -4.14954773 -0.06915913 0 0 Z " fill="#F7E0C6" transform="translate(201,208)"/>
<path d="M0 0 C1.89492187 0.01353516 1.89492187 0.01353516 3.828125 0.02734375 C4.79234375 0.03894531 5.7565625 0.05054688 6.75 0.0625 C6.75 1.0525 6.75 2.0425 6.75 3.0625 C3.578262 4.648369 0.11486178 4.44116445 -3.375 4.625 C-4.12910156 4.66818359 -4.88320312 4.71136719 -5.66015625 4.75585938 C-7.52321888 4.8619832 -9.38658524 4.96275001 -11.25 5.0625 C-11.25 3.7425 -11.25 2.4225 -11.25 1.0625 C-7.49600202 -0.1414337 -3.91782588 -0.03627617 0 0 Z " fill="#F3DDC2" transform="translate(160.25,177.9375)"/>
<path d="M0 0 C0.33 0 0.66 0 1 0 C1 2.64 1 5.28 1 8 C-3.29 8 -7.58 8 -12 8 C-12.33 6.68 -12.66 5.36 -13 4 C-11.58461283 3.66127487 -10.16762037 3.32925376 -8.75 3 C-7.56664062 2.7215625 -7.56664062 2.7215625 -6.359375 2.4375 C-4 2 -4 2 0 2 C0 1.34 0 0.68 0 0 Z " fill="#F2DEC5" transform="translate(200,198)"/>
<path d="M0 0 C2.4103619 3.61554284 3.63760594 7.23196396 5.0625 11.3125 C5.33126953 12.05951172 5.60003906 12.80652344 5.87695312 13.57617188 C7.33057917 17.70504984 8.43804842 21.63620318 9 26 C6 25 6 25 5.00097656 23.34521484 C4.06676421 21.02771076 3.14306689 18.70873447 2.25 16.375 C1.92128906 15.57964844 1.59257812 14.78429687 1.25390625 13.96484375 C-0.75640148 8.79911629 -1.30511833 5.40899042 0 0 Z " fill="#767E65" transform="translate(242,145)"/>
<path d="M0 0 C2.64 0 5.28 0 8 0 C9.76462683 3.08809695 10 4.23312136 10 8 C6.37 7.67 2.74 7.34 -1 7 C-0.67 4.69 -0.34 2.38 0 0 Z " fill="#F5DEC5" transform="translate(188,160)"/>
<path d="M0 0 C0.83265381 0.00523682 1.66530762 0.01047363 2.52319336 0.01586914 C3.42231445 0.0190918 4.32143555 0.02231445 5.24780273 0.02563477 C6.66609375 0.03820312 6.66609375 0.03820312 8.11303711 0.05102539 C9.06243164 0.05553711 10.01182617 0.06004883 10.98999023 0.06469727 C13.34356776 0.07652429 15.69702188 0.09300514 18.05053711 0.11352539 C18.05053711 1.10352539 18.05053711 2.09352539 18.05053711 3.11352539 C14.92704471 3.36780457 11.8020689 3.58764858 8.67553711 3.80102539 C7.34135742 3.91027344 7.34135742 3.91027344 5.98022461 4.02172852 C4.70405273 4.10390625 4.70405273 4.10390625 3.40209961 4.18774414 C2.61657715 4.24534912 1.83105469 4.3029541 1.02172852 4.36230469 C0.04598877 4.23915894 0.04598877 4.23915894 -0.94946289 4.11352539 C-1.60946289 3.12352539 -2.26946289 2.13352539 -2.94946289 1.11352539 C-1.94946289 0.11352539 -1.94946289 0.11352539 0 0 Z " fill="#F2DCC2" transform="translate(152.949462890625,195.886474609375)"/>
<path d="M0 0 C0 1.98 0 3.96 0 6 C-1.58323688 6.027193 -3.16661062 6.04648306 -4.75 6.0625 C-6.07257813 6.07990234 -6.07257813 6.07990234 -7.421875 6.09765625 C-9.7818838 6.00826198 -11.74498524 5.66912821 -14 5 C-13.67 3.68 -13.34 2.36 -13 1 C-11.39602723 0.83147753 -9.7918131 0.66525114 -8.1875 0.5 C-7.29417969 0.4071875 -6.40085938 0.314375 -5.48046875 0.21875 C-3 0 -3 0 0 0 Z " fill="#F3DCC2" transform="translate(166,161)"/>
<path d="M0 0 C1.15242187 0.00902344 2.30484375 0.01804688 3.4921875 0.02734375 C4.36101562 0.03894531 5.22984375 0.05054688 6.125 0.0625 C6.125 1.0525 6.125 2.0425 6.125 3.0625 C-0.21741995 4.21566726 -6.44188704 4.15757063 -12.875 4.0625 C-12.875 3.0725 -12.875 2.0825 -12.875 1.0625 C-8.52167264 0.22226812 -4.43057481 -0.04520995 0 0 Z " fill="#8A9173" transform="translate(161.875,181.9375)"/>
<path d="M0 0 C0.33 0.99 0.66 1.98 1 3 C-3.35332736 3.84023188 -7.44442519 4.10770995 -11.875 4.0625 C-13.02742187 4.05347656 -14.17984375 4.04445312 -15.3671875 4.03515625 C-16.23601562 4.02355469 -17.10484375 4.01195312 -18 4 C-18.33 3.34 -18.66 2.68 -19 2 C-12.65176798 -0.30844801 -6.70518586 -0.19818283 0 0 Z " fill="#8E9476" transform="translate(172,199)"/>
<path d="M0 0 C0.79921875 0.00902344 1.5984375 0.01804688 2.421875 0.02734375 C3.02515625 0.03894531 3.6284375 0.05054688 4.25 0.0625 C4.25 1.7125 4.25 3.3625 4.25 5.0625 C-0.04 5.0625 -4.33 5.0625 -8.75 5.0625 C-8.75 3.7425 -8.75 2.4225 -8.75 1.0625 C-5.75519083 0.1901588 -3.11424089 -0.04579766 0 0 Z " fill="#F6DEC4" transform="translate(195.75,192.9375)"/>
<path d="M0 0 C0 3.63 0 7.26 0 11 C-4.94151304 8.59983652 -7.04331244 5.47726973 -10 1 C-8.5209084 0.83266843 -7.04172444 0.66615314 -5.5625 0.5 C-4.32693359 0.36078125 -4.32693359 0.36078125 -3.06640625 0.21875 C-1 0 -1 0 0 0 Z " fill="#5B604B" transform="translate(186,238)"/>
<path d="M0 0 C0.33 0.66 0.66 1.32 1 2 C-2.36244579 9.59301394 -6.3597141 17.17985705 -14 21 C-14.66 21 -15.32 21 -16 21 C-14.91599693 17.7479908 -14.48591213 17.42013269 -11.875 15.5 C-7.6725572 12.07032044 -5.15820348 7.9041004 -2.3828125 3.29296875 C-1 1 -1 1 0 0 Z " fill="#8E8E6F" transform="translate(242,225)"/>
<path d="M0 0 C0.33 0.99 0.66 1.98 1 3 C-1.04071515 3.33910994 -3.08262621 3.67102704 -5.125 4 C-6.83042969 4.2784375 -6.83042969 4.2784375 -8.5703125 4.5625 C-11.76137602 4.96956049 -14.78817791 5.07809902 -18 5 C-18 4.01 -18 3.02 -18 2 C-15.93827387 1.66191314 -13.8755797 1.32972639 -11.8125 1 C-10.66394531 0.814375 -9.51539063 0.62875 -8.33203125 0.4375 C-5.49584607 0.06510523 -2.85280436 -0.08596021 0 0 Z " fill="#8D9376" transform="translate(175,207)"/>
<path d="M0 0 C1.53445094 3.06890187 0.54984289 5.70094266 0 9 C-2.31 9 -4.62 9 -7 9 C-7.33 7.02 -7.66 5.04 -8 3 C-5.36 2.01 -2.72 1.02 0 0 Z " fill="#F5DEC5" transform="translate(201,216)"/>
<path d="M0 0 C6.93 0 13.86 0 21 0 C21 0.66 21 1.32 21 2 C16.34462644 2.92092281 11.85314567 3.12205997 7.125 3.0625 C6.09246094 3.05573242 6.09246094 3.05573242 5.0390625 3.04882812 C3.35933665 3.03716336 1.67965625 3.01923271 0 3 C0 2.01 0 1.02 0 0 Z " fill="#858E70" transform="translate(159,217)"/>
<path d="M0 0 C-1.73056641 0.62455078 -1.73056641 0.62455078 -3.49609375 1.26171875 C-7.80850339 2.88207606 -11.94036942 4.75988781 -16.0625 6.8125 C-16.76133301 7.15925781 -17.46016602 7.50601563 -18.18017578 7.86328125 C-23.09265618 10.37080115 -26.99341592 13.18420564 -31 17 C-31.66 17 -32.32 17 -33 17 C-29.30638215 8.17320042 -17.2201561 4.41713053 -9 1 C-2.67313288 -1.33656644 -2.67313288 -1.33656644 0 0 Z " fill="#757E63" transform="translate(274,120)"/>
<path d="M0 0 C0 1.65 0 3.3 0 5 C-3.96 5 -7.92 5 -12 5 C-12 3.68 -12 2.36 -12 1 C-7.93631321 0.22596442 -4.13574827 -0.0984702 0 0 Z " fill="#F6DFC5" transform="translate(199,175)"/>
<path d="M0 0 C0.80179688 0.00451172 1.60359375 0.00902344 2.4296875 0.01367188 C4.41149006 0.02546832 6.39325433 0.04340395 8.375 0.0625 C8.375 0.7225 8.375 1.3825 8.375 2.0625 C4.61199626 3.31683458 1.10289091 3.16945422 -2.8125 3.125 C-3.56208984 3.12048828 -4.31167969 3.11597656 -5.08398438 3.11132812 C-6.93102383 3.09956354 -8.77802213 3.08162865 -10.625 3.0625 C-10.625 2.4025 -10.625 1.7425 -10.625 1.0625 C-7.31505287 -0.59247356 -3.63377 -0.03834335 0 0 Z " fill="#8A9174" transform="translate(161.625,192.9375)"/>
<path d="M0 0 C0 0.99 0 1.98 0 3 C-5.94 3.33 -11.88 3.66 -18 4 C-18 3.01 -18 2.02 -18 1 C-11.97403427 -0.0712828 -6.11090483 -0.09945415 0 0 Z " fill="#858E70" transform="translate(167,175)"/>
<path d="M0 0 C3 1 3 1 4.75 3.3125 C6 6 6 6 5.6875 8.3125 C5.460625 8.869375 5.23375 9.42625 5 10 C4.34 8.35 3.68 6.7 3 5 C2.32453125 5.15597656 1.6490625 5.31195313 0.953125 5.47265625 C0.06109375 5.66730469 -0.8309375 5.86195313 -1.75 6.0625 C-2.63171875 6.25972656 -3.5134375 6.45695313 -4.421875 6.66015625 C-6.98679028 6.99825872 -8.57091639 6.81158635 -11 6 C-6.89542386 3.01485372 -4.02254631 2.7045561 1 3 C0.67 2.01 0.34 1.02 0 0 Z " fill="#93977A" transform="translate(181,138)"/>
<path d="M0 0 C2.00692599 0.99898325 4.00902984 2.00467365 6 3.03515625 C6.66 3.37417969 7.32 3.71320313 8 4.0625 C8.99 4.57490234 8.99 4.57490234 10 5.09765625 C11.98689737 5.99408846 13.87384292 6.53964902 16 7 C16 7.99 16 8.98 16 10 C10.56455446 9.56516436 7.23832445 8.46772 3 5 C1.125 2.25 1.125 2.25 0 0 Z " fill="#989375" transform="translate(273,118)"/>
<path d="M0 0 C0 1.65 0 3.3 0 5 C-3.96 5 -7.92 5 -12 5 C-12 4.01 -12 3.02 -12 2 C-10.18769567 1.66560447 -8.3751509 1.33251176 -6.5625 1 C-5.04849609 0.7215625 -5.04849609 0.7215625 -3.50390625 0.4375 C-1 0 -1 0 0 0 Z " fill="#F2DEC6" transform="translate(199,168)"/>
<path d="M0 0 C0.66 0 1.32 0 2 0 C2.495 1.010625 2.99 2.02125 3.5 3.0625 C6.10209848 7.68216759 9.90254216 10.7280009 14 14 C13.34 14.66 12.68 15.32 12 16 C6.8014648 12.04491846 2.89174 7.9167399 0 2 C0 1.34 0 0.68 0 0 Z " fill="#908E70" transform="translate(275,229)"/>
<path d="M0 0 C0.33 0 0.66 0 1 0 C1.54470737 7.9587799 0.48901845 13.81947541 -3 21 C-3.66 21 -4.32 21 -5 21 C-4.36982209 17.60067495 -3.54121726 14.35795263 -2.5 11.0625 C-1.37447558 7.38944712 -0.5024476 3.81860176 0 0 Z " fill="#7C856A" transform="translate(319,151)"/>
<path d="M0 0 C5.28 0 10.56 0 16 0 C16 0.99 16 1.98 16 3 C10.72 2.67 5.44 2.34 0 2 C0 1.34 0 0.68 0 0 Z " fill="#858D6F" transform="translate(151,167)"/>
<path d="M0 0 C2.8125 -0.3125 2.8125 -0.3125 6 0 C7.875 2.5 7.875 2.5 9 5 C6.36 5.33 3.72 5.66 1 6 C0.67 4.02 0.34 2.04 0 0 Z " fill="#636953" transform="translate(197,233)"/>
<path d="M0 0 C2.57672427 3.14511933 4.17392493 6.32163947 5.75 10.0625 C6.19859375 11.10535156 6.6471875 12.14820313 7.109375 13.22265625 C8 16 8 16 7 19 C3.56203749 12.71456473 1.25353319 7.06536889 0 0 Z " fill="#778064" transform="translate(264,142)"/>
<path d="M0 0 C3.63 0.66 7.26 1.32 11 2 C11 6.29 11 10.58 11 15 C10.67 15 10.34 15 10 15 C10 11.37 10 7.74 10 4 C8.906875 3.896875 7.81375 3.79375 6.6875 3.6875 C3 3 3 3 0 0 Z " fill="#8B927C" transform="translate(204,258)"/>
<path d="M0 0 C2.475 0.495 2.475 0.495 5 1 C5.33 2.65 5.66 4.3 6 6 C4.02 6 2.04 6 0 6 C0 4.02 0 2.04 0 0 Z " fill="#F9E1C8" transform="translate(189,151)"/>
<path d="M0 0 C3.96 0 7.92 0 12 0 C12 0.66 12 1.32 12 2 C7.9472484 2.98248524 4.16138263 3.08159574 0 3 C0 2.01 0 1.02 0 0 Z " fill="#8E9477" transform="translate(187,180)"/>
<path d="M0 0 C0 0.66 0 1.32 0 2 C-4.29 2.66 -8.58 3.32 -13 4 C-13 3.01 -13 2.02 -13 1 C-8.62426048 0.40667939 -4.42471556 -0.13827236 0 0 Z " fill="#858D70" transform="translate(200,198)"/>
<path d="M0 0 C4.29 0 8.58 0 13 0 C13 0.66 13 1.32 13 2 C6.565 2.495 6.565 2.495 0 3 C0 2.01 0 1.02 0 0 Z " fill="#8D9376" transform="translate(187,191)"/>
<path d="M0 0 C3.96 0 7.92 0 12 0 C12 0.66 12 1.32 12 2 C6.06 2.495 6.06 2.495 0 3 C0 2.01 0 1.02 0 0 Z " fill="#919679" transform="translate(187,173)"/>
<path d="M0 0 C0 0.33 0 0.66 0 1 C-0.97582031 1.20496094 -1.95164063 1.40992188 -2.95703125 1.62109375 C-4.22933594 1.89050781 -5.50164062 2.15992188 -6.8125 2.4375 C-8.07707031 2.70433594 -9.34164062 2.97117188 -10.64453125 3.24609375 C-13.97045413 3.93427886 -13.97045413 3.93427886 -17 5 C-16.67 3.68 -16.34 2.36 -16 1 C-10.63904667 -0.12862175 -5.44693314 -0.09688221 0 0 Z " fill="#8B9274" transform="translate(183,149)"/>
<path d="M0 0 C1.32 0 2.64 0 4 0 C5.33333333 3.33333333 6.66666667 6.66666667 8 10 C6.140625 9.78515625 6.140625 9.78515625 4 9 C2.734375 6.93359375 2.734375 6.93359375 1.75 4.4375 C1.41484375 3.61121094 1.0796875 2.78492188 0.734375 1.93359375 C0.49203125 1.29550781 0.2496875 0.65742188 0 0 Z " fill="#F4DDC4" transform="translate(183,138)"/>
<path d="M0 0 C2.45823172 3.68734758 3.01242616 6.69699971 4 11 C3.01 11.33 2.02 11.66 1 12 C-0.80619523 7.53763531 -1.11658501 4.68965706 0 0 Z " fill="#6F785F" transform="translate(242,145)"/>
<path d="M0 0 C2.31 0 4.62 0 7 0 C7 1.32 7 2.64 7 4 C5.02 4 3.04 4 1 4 C0.67 2.68 0.34 1.36 0 0 Z " fill="#F8E0C6" transform="translate(195,228)"/>
<path d="M0 0 C1.65 0.99 3.3 1.98 5 3 C4.67 4.32 4.34 5.64 4 7 C3.01 7 2.02 7 1 7 C0.67 4.69 0.34 2.38 0 0 Z " fill="#70745B" transform="translate(199,254)"/>
<path d="M0 0 C2.97 0 5.94 0 9 0 C9 0.99 9 1.98 9 3 C2.25 2.25 2.25 2.25 0 0 Z " fill="#9A9172" transform="translate(256,418)"/>
<path d="M0 0 C3.63 0 7.26 0 11 0 C10.01 0.495 10.01 0.495 9 1 C9 1.66 9 2.32 9 3 C4.545 2.01 4.545 2.01 0 1 C0 0.67 0 0.34 0 0 Z " fill="#959071" transform="translate(310,410)"/>
<path d="M0 0 C0.99 0 1.98 0 3 0 C3.33 2.31 3.66 4.62 4 7 C3.34 7 2.68 7 2 7 C1.34 4.69 0.68 2.38 0 0 Z " fill="#5D6451" transform="translate(154,422)"/>
<path d="M0 0 C0 0.66 0 1.32 0 2 C-4.43076923 4.09230769 -4.43076923 4.09230769 -7.3125 3.625 C-7.869375 3.41875 -8.42625 3.2125 -9 3 C-2.25 0 -2.25 0 0 0 Z " fill="#848B6D" transform="translate(302,421)"/>
<path d="M0 0 C2.64 1.65 5.28 3.3 8 5 C7.67 5.99 7.34 6.98 7 8 C5.8274869 7.04882866 4.66212985 6.08882991 3.5 5.125 C2.8503125 4.59132812 2.200625 4.05765625 1.53125 3.5078125 C1.0259375 3.01023438 0.520625 2.51265625 0 2 C0 1.34 0 0.68 0 0 Z " fill="#7F876A" transform="translate(179,244)"/>
<path d="M0 0 C3.63 0 7.26 0 11 0 C11 0.99 11 1.98 11 3 C10.01 3 9.02 3 8 3 C8 2.34 8 1.68 8 1 C5.36 1 2.72 1 0 1 C0 0.67 0 0.34 0 0 Z " fill="#A0A184" transform="translate(156,175)"/>
</svg>
