<?xml version="1.0" encoding="UTF-8"?>
<svg version="1.1" xmlns="http://www.w3.org/2000/svg" width="500" height="500">
<path d="M0 0 C165 0 330 0 500 0 C500 165 500 330 500 500 C335 500 170 500 0 500 C0 335 0 170 0 0 Z " fill="#FEFEFE" transform="translate(0,0)"/>
<path d="M0 0 C17.86832163 8.18374794 34.04156765 31.62528688 42.15234375 49.19140625 C42.81234375 49.19140625 43.47234375 49.19140625 44.15234375 49.19140625 C45.70046626 47.08485316 45.70046626 47.08485316 47.27734375 44.37890625 C50.96590109 38.42691599 54.92396155 32.77129006 59.15234375 27.19140625 C59.85230469 26.26070312 60.55226563 25.33 61.2734375 24.37109375 C70.53606563 12.51625062 81.8190358 3.96917557 96.15234375 -0.80859375 C105.82251645 -1.86534192 115.58373679 -2.16962286 123.921875 3.36328125 C131.53985621 9.60709072 136.05702246 16.38098115 137.63671875 26.203125 C139.2757073 52.83668891 119.79727396 80.75421707 103.05859375 99.76953125 C100.47632368 102.62767928 97.81148442 105.40480264 95.15234375 108.19140625 C94.0608517 109.45523914 92.97674116 110.72550933 91.90234375 112.00390625 C84.25422836 120.81868331 75.74455576 129.36183948 66.7734375 136.828125 C65.12778925 138.17353488 65.12778925 138.17353488 63.625 139.7109375 C60.81252179 142.41897355 59.35308984 143.17631886 55.41015625 143.47265625 C35.82207073 142.91612575 16.26466972 124.73679864 3.46484375 111.48071289 C-18.12236423 88.4283575 -35.51068546 57.90546717 -35.26757812 25.60595703 C-34.96006075 16.47308528 -32.45130833 10.05559202 -25.82421875 3.6640625 C-18.18513927 -2.02750463 -9.07627775 -2.57721467 0 0 Z " fill="#EBAA89" transform="translate(199.84765625,20.80859375)"/>
<path d="M0 0 C0.66631439 -0.00287018 1.33262878 -0.00574036 2.01913452 -0.00869751 C3.41575988 -0.01072377 4.81241456 -0.00529539 6.20898438 0.00732422 C8.3378862 0.02345226 10.46490488 0.00740261 12.59375 -0.01171875 C13.95833749 -0.00973705 15.32292381 -0.0058949 16.6875 0 C17.91549316 0.00338379 19.14348633 0.00676758 20.40869141 0.01025391 C23.99886789 0.43228412 25.85236837 1.22434148 28.7109375 3.3984375 C30.7109375 6.3984375 30.7109375 6.3984375 30.5234375 9.8984375 C29.45561835 14.49827383 29.45561835 14.49827383 26.7109375 16.3984375 C23.35126859 17.51832714 20.71963044 17.55669152 17.1796875 17.609375 C15.25189453 17.65191406 15.25189453 17.65191406 13.28515625 17.6953125 C11.2443055 17.73663124 9.20370082 17.77353065 7.16259766 17.79980469 C5.188901 17.82739553 3.21550534 17.87437287 1.2421875 17.921875 C-0.52801758 17.951604 -0.52801758 17.951604 -2.33398438 17.98193359 C-5.22285477 18.15568395 -5.22285477 18.15568395 -6.95015967 19.5926767 C-8.77376024 22.05214302 -8.66503875 23.65866545 -8.66658592 26.70711422 C-8.67440916 27.81485697 -8.68223241 28.92259971 -8.69029272 30.06391042 C-8.68360055 31.28587403 -8.67690839 32.50783764 -8.67001343 33.76683044 C-8.6746934 35.06105755 -8.67937337 36.35528466 -8.68419516 37.68873078 C-8.69675766 41.288608 -8.69051111 44.88824767 -8.68123651 48.48812592 C-8.67446766 52.36754819 -8.6849165 56.24692871 -8.69317627 60.12634277 C-8.70653939 67.72935282 -8.70362431 75.33227419 -8.69493835 82.93528777 C-8.68817183 89.11320304 -8.6872406 95.2910934 -8.6905098 101.46901131 C-8.6909695 102.34723946 -8.69142919 103.22546761 -8.69190282 104.13030874 C-8.69286197 105.91425022 -8.69383461 107.69819169 -8.6948206 109.48213316 C-8.70338217 126.22361562 -8.6935286 142.96504886 -8.6774195 159.70652325 C-8.66401796 174.07919446 -8.66634157 188.45179299 -8.68017578 202.82446289 C-8.69622209 219.50320336 -8.70255566 236.18190063 -8.69333899 252.86064774 C-8.69238332 254.63844779 -8.6914402 256.41624786 -8.6905098 258.19404793 C-8.69004697 259.06882307 -8.68958414 259.94359821 -8.68910729 260.84488169 C-8.68651438 267.01663349 -8.69089494 273.18835795 -8.69794846 279.36010551 C-8.70635322 286.87970373 -8.70410504 294.39920798 -8.68810622 301.9187954 C-8.6802093 305.75724448 -8.67715593 309.59553675 -8.68705368 313.43398476 C-8.69760959 317.59048064 -8.68502532 321.74657888 -8.67001343 325.90306091 C-8.67670559 327.1227938 -8.68339776 328.34252668 -8.69029272 329.59922117 C-8.68246947 330.70957166 -8.67464623 331.81992216 -8.66658592 332.96391964 C-8.66609887 333.9237453 -8.66561181 334.88357096 -8.66510999 335.87248224 C-8.21392822 338.90312328 -7.4820476 340.26789434 -5.2890625 342.3984375 C-3.30050219 342.99017902 -3.30050219 342.99017902 -1.05798435 342.89342213 C-0.1905959 342.90200302 0.67679255 342.91058391 1.57046551 342.91942483 C3.00069777 342.90297096 3.00069777 342.90297096 4.45982361 342.88618469 C5.47228561 342.89030796 6.4847476 342.89443122 7.52789026 342.89867944 C10.93675208 342.90764359 14.34485287 342.88791079 17.75366211 342.8684082 C20.19093418 342.86891672 22.62820642 342.87117062 25.06547546 342.87504578 C31.00819772 342.87991505 36.95062022 342.86626521 42.89328258 342.84432016 C49.81116112 342.81965443 56.72899686 342.81671638 63.64691288 342.81491639 C75.98951288 342.8110377 88.3320081 342.78855577 100.67456055 342.75512695 C112.65535926 342.72270432 124.63610268 342.70145002 136.61694336 342.69360352 C137.72353104 342.69287528 137.72353104 342.69287528 138.85247403 342.69213233 C141.81766961 342.69020367 144.7828652 342.68829154 147.74806082 342.68641623 C159.15871058 342.67888366 170.56935124 342.66325512 181.97998984 342.64591962 C185.42857332 342.64068304 188.87715661 342.63575002 192.32574153 342.6315577 C200.19245659 342.62188158 208.05913816 342.60730164 215.92582893 342.5847187 C218.3123449 342.57858941 220.69886584 342.57414304 223.08538818 342.57147598 C226.33531384 342.56750261 229.58516239 342.55739218 232.83506775 342.54560852 C233.7863252 342.54579288 234.73758265 342.54597725 235.71766609 342.54616719 C237.02266039 342.53948043 237.02266039 342.53948043 238.35401821 342.53265858 C239.47934827 342.52997572 239.47934827 342.52997572 240.62741226 342.52723867 C242.76444364 342.39512981 244.6553951 341.98333765 246.7109375 341.3984375 C246.71148227 340.81128904 246.71202703 340.22414059 246.71258831 339.61919975 C246.72756643 325.32161334 246.77005474 311.02430351 246.84302807 296.72689629 C246.87765695 289.81268676 246.90303079 282.89867617 246.90649414 275.984375 C246.90986234 269.31222505 246.93918408 262.64065107 246.98436928 255.96863174 C246.99736361 253.42256711 247.00164517 250.87644269 246.99709129 248.33034897 C246.99219948 244.76509269 247.01821837 241.20130618 247.05151367 237.63623047 C247.03857521 236.05558556 247.03857521 236.05558556 247.02537537 234.44300842 C247.09783723 229.81740681 247.15660855 226.44310731 250.12104797 222.7414856 C252.7109375 220.3984375 252.7109375 220.3984375 254.80859375 219.671875 C257.89051073 219.83117886 260.27190016 220.13134599 262.92567444 221.74578857 C265.80944509 226.03066473 265.25838081 230.41796601 265.21264648 235.46582031 C265.22075096 237.15917259 265.22075096 237.15917259 265.22901917 238.88673401 C265.2415438 242.62527549 265.22498541 246.36305228 265.20703125 250.1015625 C265.20718619 252.69984986 265.20867439 255.29813745 265.21144104 257.89642334 C265.21282687 263.34723966 265.20067352 268.79777391 265.17749023 274.24853516 C265.15093367 280.53560637 265.14911631 286.82230824 265.1608786 293.10941625 C265.17169245 299.16962607 265.16533593 305.22966781 265.15132332 311.28987885 C265.14681358 313.862227 265.14646784 316.434586 265.15038872 319.00693512 C265.15330814 322.60933966 265.13675575 326.21114751 265.11499023 329.81347656 C265.12174271 331.40196159 265.12174271 331.40196159 265.12863159 333.02253723 C265.04552484 341.32657866 263.72513446 348.21240634 257.7109375 354.3984375 C250.48334319 359.89769404 244.26465074 360.69381891 235.47634888 360.65913391 C233.93354305 360.66487223 233.93354305 360.66487223 232.35956943 360.67072648 C228.91430284 360.68104238 225.46920334 360.67706695 222.02392578 360.6730957 C219.55329229 360.67744296 217.08266016 360.68262615 214.61203003 360.68858337 C208.59829158 360.70059157 202.58461877 360.7031249 196.57087435 360.70078311 C191.68168334 360.69899896 186.79250588 360.70075168 181.9033165 360.70500755 C181.20704819 360.70560274 180.51077988 360.70619793 179.79341253 360.70681116 C178.37886358 360.70802293 176.96431464 360.70923706 175.54976569 360.71045353 C162.28804812 360.72132656 149.02635598 360.71916776 135.76463698 360.71306869 C123.63918724 360.7079003 111.51381785 360.7191533 99.388384 360.73816691 C86.93089111 360.75755109 74.47343622 360.76580025 62.01592815 360.76204365 C55.02484485 360.76013242 48.03382993 360.76261157 41.04275894 360.77675819 C34.46819834 360.78992759 27.89377195 360.78740406 21.31920242 360.77434731 C18.90694627 360.77197925 16.49467883 360.77472436 14.08243561 360.78297043 C10.78793447 360.79341988 7.49397508 360.78535112 4.19949341 360.7726593 C3.24636989 360.78003359 2.29324637 360.78740787 1.31124032 360.79500562 C-6.70117894 360.73013034 -13.6340076 359.01482618 -19.56300074 353.30929041 C-26.30259899 345.84815477 -27.01155373 337.7418168 -26.91725159 328.07678223 C-26.92434597 326.76447333 -26.93144036 325.45216443 -26.93874973 324.1000886 C-26.95757979 320.4818501 -26.94549144 316.86429272 -26.9280268 313.24607205 C-26.91460589 309.33460089 -26.93010674 305.42322631 -26.94184875 301.51176453 C-26.96019464 293.85884558 -26.95173352 286.20618254 -26.93376053 278.55327165 C-26.91971518 272.33170481 -26.91584589 266.11020727 -26.9192028 259.8886261 C-26.91968025 259.00197727 -26.92015769 258.11532844 -26.9206496 257.20181146 C-26.92167597 255.4004071 -26.92273133 253.59900275 -26.92381536 251.79759842 C-26.93237625 235.88080228 -26.91572731 219.96412942 -26.88598633 204.04736328 C-26.85715043 188.61469342 -26.85006618 173.18220113 -26.86547852 157.74951172 C-26.88225254 140.9303797 -26.88626262 124.11133193 -26.86876816 107.2921977 C-26.86692383 105.49754811 -26.86508911 103.70289851 -26.86326408 101.9082489 C-26.86235199 101.0253265 -26.8614399 100.14240411 -26.86050018 99.23272648 C-26.85490225 93.02112873 -26.85819501 86.8095722 -26.86480904 80.59797668 C-26.87255326 73.02452001 -26.86575051 65.4512379 -26.840634 57.87781632 C-26.82816413 54.01626277 -26.8219617 50.15498066 -26.83317566 46.29341698 C-26.84511721 42.10205856 -26.82590917 37.91140946 -26.8037262 33.72009277 C-26.81196696 32.50704798 -26.82020773 31.29400319 -26.82869822 30.04419947 C-26.74866567 21.84430107 -25.58901688 14.58291573 -20.39453125 7.99609375 C-19.76160156 7.48949219 -19.12867187 6.98289062 -18.4765625 6.4609375 C-17.85136719 5.93628906 -17.22617188 5.41164063 -16.58203125 4.87109375 C-11.04673635 1.31605767 -6.57272075 0.01807821 0 0 Z " fill="#818B6E" transform="translate(127.2890625,77.6015625)"/>
<path d="M0 0 C2.61328125 1.42578125 2.61328125 1.42578125 5.3125 3.3125 C6.84970703 4.38177734 6.84970703 4.38177734 8.41796875 5.47265625 C8.9804834 5.8711377 9.54299805 6.26961914 10.12255859 6.68017578 C12.22990288 8.16161963 14.3581414 9.61013467 16.48828125 11.05859375 C18.034429 12.12156018 19.58000522 13.18535844 21.125 14.25 C21.87177002 14.75700439 22.61854004 15.26400879 23.38793945 15.78637695 C24.08749756 16.27452881 24.78705566 16.76268066 25.5078125 17.265625 C26.13316895 17.69649414 26.75852539 18.12736328 27.40283203 18.57128906 C29.27296268 20.24417267 30.10365862 21.66442276 31 24 C30.8557024 27.4631425 30.34562497 29.47465004 28.4375 32.375 C24.97954272 34.68030485 21.97376313 34.79216494 18 34 C14.40143455 32.18716982 11.23535496 29.890485 8 27.5 C7.12988281 26.87996094 6.25976562 26.25992188 5.36328125 25.62109375 C3.22958698 24.09702641 1.10980918 22.5568761 -1 21 C-1 21.66 -1 22.32 -1 23 C0.54909371 24.24178025 0.54909371 24.24178025 2.578125 25.42578125 C3.32707031 25.89306641 4.07601562 26.36035156 4.84765625 26.84179688 C6.4326357 27.81211356 8.01855454 28.78089767 9.60546875 29.74804688 C17.76161338 34.8438945 17.76161338 34.8438945 20 39 C19.94223711 44.13512081 18.5638509 47.30511578 15.625 51.4375 C14.53638672 52.99597656 14.53638672 52.99597656 13.42578125 54.5859375 C13.03213379 55.13862305 12.63848633 55.69130859 12.23291016 56.26074219 C10.51573723 58.68314613 8.84253773 61.13481234 7.16601562 63.58544922 C5.77505587 65.61719382 4.37837801 67.64490658 2.98046875 69.671875 C-0.14823873 74.21177182 -3.26271388 78.76133523 -6.375 83.3125 C-7.19037231 84.5046814 -7.19037231 84.5046814 -8.0222168 85.72094727 C-9.12912092 87.33948273 -10.23597296 88.95805382 -11.34277344 90.57666016 C-14.06109401 94.55162332 -16.78059969 98.52577548 -19.5 102.5 C-20.58333917 104.08332934 -21.6666725 105.66666268 -22.75 107.25 C-39 131 -39 131 -55.25 154.75 C-56.0546167 155.92598755 -56.0546167 155.92598755 -56.87548828 157.12573242 C-57.95717066 158.70664032 -59.03887634 160.28753229 -60.12060547 161.8684082 C-62.85439101 165.8637193 -65.58775202 169.85931967 -68.3203125 173.85546875 C-76.80067907 186.25609909 -76.80067907 186.25609909 -80.875 192.1875 C-81.33253662 192.85370361 -81.79007324 193.51990723 -82.26147461 194.20629883 C-83.16385902 195.51746256 -84.06829024 196.82722018 -84.97485352 198.13549805 C-87.29168437 201.48362432 -89.5638433 204.85204771 -91.77734375 208.26953125 C-97.03833926 216.32248965 -101.91325322 222.57445305 -110 228 C-111.50099977 229.03761773 -113.0008977 230.07683026 -114.5 231.1171875 C-117.8141713 233.40876576 -121.14473795 235.67340757 -124.48828125 237.921875 C-127.97825672 240.27777025 -131.33916911 242.75842434 -134.6875 245.3125 C-137.62607475 247.37411789 -139.76878652 248.46416437 -143.375 248.6875 C-147 248 -147 248 -149.5 246.5 C-152.81041902 240.98263497 -150.77034355 233.82673306 -149.35546875 227.87890625 C-149.18501541 227.13470932 -149.01456207 226.39051239 -148.83894348 225.62376404 C-148.47903807 224.06063712 -148.11494094 222.49846987 -147.74682617 220.93725586 C-147.19028278 218.57431497 -146.64779572 216.20848194 -146.10742188 213.84179688 C-145.11923454 209.54851489 -144.07443604 205.27254302 -143 201 C-142.78045654 200.1119165 -142.56091309 199.22383301 -142.3347168 198.30883789 C-140.39533331 191.54338779 -136.39499254 186.05724724 -132.4375 180.3125 C-131.35178711 178.71051758 -131.35178711 178.71051758 -130.24414062 177.07617188 C-125.82257969 170.5762007 -121.29494978 164.16424893 -116.6796875 157.80078125 C-113.02769381 152.68770499 -109.59496801 147.42482112 -106.125 142.1875 C-101.5098102 135.2218232 -96.86140519 128.29642196 -92 121.5 C-87.1829069 114.76417813 -82.5735156 107.90325757 -78 101 C-72.97800976 93.41981548 -67.87749017 85.9196433 -62.58691406 78.52490234 C-57.47816274 71.34470932 -52.62673805 63.99433131 -47.78125 56.63476562 C-35.44018232 37.96012155 -35.44018232 37.96012155 -31 35 C-27.19634586 35.1383147 -24.74873203 35.50084531 -21.5625 37.625 C-19.23134956 41.16834867 -19.26413799 42.78551757 -20 47 C-21.98554177 50.90576967 -24.48738316 54.41743812 -27 58 C-27.82063525 59.19810745 -28.63957153 60.39737992 -29.45703125 61.59765625 C-31.28779853 64.2798003 -33.1284021 66.95481175 -34.9765625 69.625 C-38.16848407 74.23811157 -41.33513189 78.86830304 -44.5 83.5 C-48.49215869 89.33875192 -52.49044509 95.17318062 -56.5 101 C-62.68423648 109.9879823 -68.8420072 118.99402577 -75 128 C-81.60305204 137.65686685 -88.20968251 147.31112268 -94.84082031 156.94873047 C-97.26990377 160.48027106 -99.69575022 164.0139927 -102.1171875 167.55078125 C-102.65158447 168.33090576 -103.18598145 169.11103027 -103.73657227 169.91479492 C-104.82873316 171.51308312 -105.91776798 173.11351195 -107.00366211 174.71606445 C-109.79128502 178.82180455 -112.62553991 182.87520402 -115.57421875 186.8671875 C-123.09340297 197.17733983 -129 206.78217486 -129 220 C-118.001627 213.43645482 -110.87451322 207.2534474 -104.37695312 196.25341797 C-101.65739612 191.80279542 -98.64560978 187.54400631 -95.6875 183.25 C-94.38870339 181.34938154 -93.09052536 179.44834022 -91.79296875 177.546875 C-87.83546998 171.75814544 -83.87612123 165.97068131 -79.91479492 160.18457031 C-75.76912348 154.12808734 -71.63327492 148.06494831 -67.5 142 C-62.8399646 135.16211133 -58.17469524 128.32787512 -53.5 121.5 C-46.31855917 111.01006917 -39.15912954 100.5051651 -32 90 C-30.08885178 87.19561889 -28.17764553 84.39127757 -26.26611328 81.5871582 C-25.01401876 79.75007401 -23.76238458 77.91267597 -22.51123047 76.07495117 C-19.44606338 71.57524052 -16.37060168 67.0832277 -13.2734375 62.60546875 C-12.38325928 61.31515747 -12.38325928 61.31515747 -11.47509766 59.9987793 C-10.36080153 58.38473728 -9.24349697 56.7727662 -8.12255859 55.16333008 C-5.40916003 51.22807036 -3.01240306 47.35561211 -1 43 C-1.67804688 42.77183594 -2.35609375 42.54367188 -3.0546875 42.30859375 C-6.77501428 40.65566342 -9.84662293 38.4539898 -13.125 36.0625 C-13.74503906 35.61970703 -14.36507812 35.17691406 -15.00390625 34.72070312 C-22.8076873 29.09023314 -22.8076873 29.09023314 -23.54296875 24.921875 C-22.78578633 19.45273007 -20.31487915 15.80460566 -17.3125 11.25 C-16.51682617 9.97576172 -16.51682617 9.97576172 -15.70507812 8.67578125 C-11.51515965 2.16726985 -8.32607225 -2.46658544 0 0 Z " fill="#818B6D" transform="translate(426,124)"/>
<path d="M0 0 C4.58631851 4.36259566 6.77295655 7.96188361 7 14.25 C6.4832459 23.50008224 2.87507673 31.49010452 -1.4375 39.5625 C-1.92025391 40.47265869 -2.40300781 41.38281738 -2.90039062 42.32055664 C-10.32917016 56.05922203 -19.63226782 68.32824465 -29.4375 80.4375 C-30.18644531 81.36949219 -30.93539062 82.30148438 -31.70703125 83.26171875 C-33.92970642 86.00502053 -36.17608903 88.7260385 -38.4375 91.4375 C-38.89769531 91.98937988 -39.35789062 92.54125977 -39.83203125 93.10986328 C-46.37233758 100.92501164 -53.08012526 108.37311806 -60.4375 115.4375 C-65.67511578 113.86212338 -69.33012083 110.51972077 -73.4375 107.0625 C-74.56309326 106.12192749 -74.56309326 106.12192749 -75.71142578 105.16235352 C-102.22665472 82.85584633 -127.58882408 53.47125696 -131.4375 17.4375 C-132.246433 5.8324227 -132.246433 5.8324227 -128.4375 1.4375 C-125.50449268 -0.02900366 -123.71712656 0.07309705 -120.4375 0.4375 C-101.4026854 8.65252525 -89.68752623 33.19999985 -81.17578125 50.9831543 C-79.21929747 55.0408724 -77.18983713 58.86162893 -74.4375 62.4375 C-70.98071553 63.3543022 -70.98071553 63.3543022 -67.4375 62.4375 C-64.4345458 60.43553054 -62.74394053 58.88700458 -61.97973633 55.2722168 C-61.86911865 54.46437744 -61.75850098 53.65653809 -61.64453125 52.82421875 C-60.57798961 47.07335107 -58.16233554 42.93962113 -54.9375 38.125 C-54.13554199 36.89559692 -54.13554199 36.89559692 -53.31738281 35.64135742 C-22.91596082 -10.41634583 -22.91596082 -10.41634583 0 0 Z " fill="#FEFEFE" transform="translate(314.4375,37.5625)"/>
<path d="M0 0 C1.1575219 -0.00935994 1.1575219 -0.00935994 2.33842808 -0.01890898 C4.92653601 -0.03487528 7.51370684 -0.02222093 10.1018219 -0.00964355 C11.9563502 -0.01506312 13.8108742 -0.02218484 15.66539001 -0.03088379 C20.70469144 -0.04914107 25.74366581 -0.04203933 30.78297305 -0.02936745 C36.05373955 -0.01925074 41.32447778 -0.02862957 46.59524536 -0.03491211 C55.44823745 -0.04219303 64.30109615 -0.03258981 73.15406799 -0.0135498 C83.39132778 0.00821303 93.62826885 0.00117358 103.86552089 -0.02085543 C112.65119736 -0.03900476 121.43677785 -0.04156982 130.22246701 -0.03110075 C135.47137715 -0.0248624 140.72013747 -0.02403947 145.96903801 -0.0372467 C150.90458346 -0.04879751 155.83971793 -0.04079344 160.77521896 -0.01766968 C162.58724218 -0.0123782 164.39929994 -0.01390387 166.21130943 -0.02272034 C168.68398388 -0.03364248 171.15533941 -0.0199535 173.62792969 0 C174.34602623 -0.00892289 175.06412277 -0.01784577 175.80397981 -0.02703905 C179.31458745 0.02795697 181.29366704 0.45601279 184.30320835 2.32093048 C187.13461988 5.30625705 187.30499319 7.44997983 187.37745667 11.50793457 C186.61013402 14.08892891 185.9890478 15.09311275 183.77225494 16.59668922 C180.44578805 17.86244405 177.25709883 17.79043318 173.7481842 17.77536011 C172.97579737 17.77989122 172.20341054 17.78442233 171.40761805 17.78909075 C168.81742545 17.8017592 166.22744246 17.80011283 163.63722229 17.79846191 C161.78107431 17.80444553 159.92492882 17.81125069 158.06878662 17.81881714 C153.02551404 17.8364986 147.9823093 17.84117335 142.93900871 17.84244871 C138.731517 17.84434671 134.52404112 17.85170288 130.3165555 17.8587929 C120.39300008 17.87508165 110.46948095 17.87996131 100.5459137 17.87854004 C90.30070245 17.87733759 80.05570153 17.89845884 69.81054354 17.93002737 C61.01980486 17.95615157 52.22913505 17.966909 43.43835783 17.96562922 C38.18554512 17.96511857 32.93291939 17.97085893 27.68014526 17.99198532 C22.74217442 18.01130351 17.80457021 18.01153634 12.86658669 17.99695206 C11.05251851 17.99485505 9.23842776 17.99961765 7.42439842 18.01167297 C4.95140678 18.02704558 2.47969208 18.01787143 0.00672913 18.00241089 C-0.71428026 18.01269801 -1.43528964 18.02298514 -2.17814779 18.033584 C-5.58859435 17.98633317 -7.33417668 17.73123256 -10.06616974 15.61570168 C-11.85415147 13.19427208 -12.16339125 11.98983204 -12.12254333 9.00793457 C-12.13285583 8.25512207 -12.14316833 7.50230957 -12.15379333 6.72668457 C-10.62327579 0.33452304 -5.70146278 -0.07062555 0 0 Z " fill="#AAB497" transform="translate(160.62254333496094,176.4920654296875)"/>
<path d="M0 0 C1.0107373 -0.01041829 1.0107373 -0.01041829 2.04189354 -0.02104706 C4.29292225 -0.03929919 6.54289488 -0.02905869 8.79396057 -0.01878357 C10.41056608 -0.02584302 12.02716497 -0.03458815 13.64375305 -0.04489136 C18.03019189 -0.0673928 22.41627005 -0.06444386 26.80274463 -0.05556989 C30.46582871 -0.05045952 34.12884505 -0.05775298 37.79192215 -0.06504196 C46.43410067 -0.08204348 55.07610263 -0.07847273 63.71827698 -0.06175232 C72.63151519 -0.04483036 81.5442637 -0.06066586 90.45744842 -0.0929752 C98.1128182 -0.11967294 105.76803554 -0.12694662 113.42344719 -0.11846012 C117.99446961 -0.11353145 122.56519736 -0.11574314 127.13618279 -0.13624763 C131.43491811 -0.15460773 135.73294921 -0.14864248 140.03164673 -0.12404823 C141.60782075 -0.11904132 143.18404846 -0.12252711 144.76017952 -0.13519669 C146.91530847 -0.15114789 149.0681241 -0.13616219 151.22314453 -0.11352539 C153.03025736 -0.11264593 153.03025736 -0.11264593 154.87387753 -0.1117487 C159.33704661 0.73515419 161.00412126 2.29055383 164.17506409 5.5146637 C164.80006409 8.5146637 164.80006409 8.5146637 164.17506409 11.5146637 C162.37512634 14.21457031 161.09129109 16.0565502 158.17506409 17.5146637 C156.01999793 17.61763835 153.86167406 17.65420491 151.7041626 17.66183472 C151.03219544 17.6655114 150.36022828 17.66918809 149.66789848 17.6729762 C147.40554956 17.68403103 145.14324654 17.68785989 142.88087463 17.69166565 C141.26309563 17.69792892 139.64531808 17.70457559 138.02754211 17.71157837 C133.6245777 17.72900012 129.22162415 17.7395432 124.81863379 17.7477839 C122.06907763 17.75293129 119.31952486 17.75900712 116.56997108 17.76529503 C107.97093155 17.7843499 99.37190062 17.79858072 90.77284402 17.806907 C80.83975454 17.81668324 70.90688767 17.84301155 60.97387666 17.88340789 C53.30078365 17.91354487 45.62775455 17.92837355 37.95460349 17.93168801 C33.36960566 17.93404116 28.78484558 17.94303585 24.19991112 17.96814919 C19.88657586 17.99139291 15.57363551 17.99567819 11.26025391 17.9853878 C9.67719524 17.98489143 8.09411738 17.9912416 6.51111794 18.00494385 C4.34924248 18.02260963 2.18879244 18.01558465 0.0269165 18.00241089 C-1.18264363 18.00479924 -2.39220377 18.0071876 -3.63841724 18.00964832 C-7.45267408 17.41715266 -9.11682948 16.21626603 -11.82493591 13.5146637 C-12.48899841 11.2959137 -12.48899841 11.2959137 -12.44993591 9.0146637 C-12.46282654 8.2618512 -12.47571716 7.5090387 -12.48899841 6.7334137 C-10.70956358 0.7880079 -5.48673309 0.01278751 0 0 Z " fill="#AEB79C" transform="translate(160.82493591308594,208.48533630371094)"/>
<path d="M0 0 C1.17625443 -0.01272446 2.35250885 -0.02544891 3.56440735 -0.03855896 C4.85127441 -0.03203308 6.13814148 -0.0255072 7.46400452 -0.01878357 C8.83578418 -0.02584249 10.20755606 -0.0345874 11.57931519 -0.04489136 C15.30256335 -0.06739946 19.02538671 -0.06444242 22.74867702 -0.05556989 C25.85758144 -0.05046058 28.96640599 -0.05775212 32.07530218 -0.06504196 C39.41001873 -0.08204568 46.74452725 -0.07847073 54.07923889 -0.06175232 C61.64455606 -0.04483117 69.20929624 -0.0606639 76.77455038 -0.0929752 C83.27151411 -0.11967193 89.76829823 -0.12694691 96.2653113 -0.11846012 C100.14496035 -0.11353095 104.02426224 -0.11574541 107.90386772 -0.13624763 C111.55257631 -0.1546064 115.20045517 -0.14864508 118.84911919 -0.12404823 C120.82456619 -0.11665468 122.80005735 -0.13389458 124.7754364 -0.15187073 C134.43041613 -0.04825237 134.43041613 -0.04825237 137.53726196 2.86660767 C139.64079598 6.14242317 139.95450587 7.69162521 139.23768616 11.5146637 C137.08678164 14.85227415 136.03355817 16.24937303 132.23768616 17.5146637 C130.39697282 17.61369641 128.55287709 17.65396523 126.70951843 17.66183472 C124.98506248 17.67256767 124.98506248 17.67256767 123.22576904 17.68351746 C121.96335892 17.68620636 120.70094879 17.68889526 119.40028381 17.69166565 C118.05821558 17.69793166 116.71614908 17.70457858 115.37408447 17.71157837 C110.96665145 17.73260074 106.55921814 17.74297743 102.15174866 17.75294495 C100.63410295 17.75699285 99.11645743 17.76110979 97.5988121 17.76529503 C90.47023625 17.78434084 83.34167073 17.79857447 76.21307433 17.806907 C67.98415945 17.81668467 59.75551319 17.84302033 51.52669299 17.88340789 C45.16567049 17.91355728 38.80472506 17.92837465 32.44363248 17.93168801 C28.64446108 17.93403941 24.84557685 17.94301141 21.04648209 17.96814919 C17.47262862 17.99141538 13.89925173 17.99566939 10.32534218 17.9853878 C8.39040679 17.98465579 6.45549568 18.00375623 4.5206604 18.02345276 C3.36538345 18.01650894 2.21010651 18.00956512 1.01982117 18.00241089 C-0.48284837 18.00599342 -0.48284837 18.00599342 -2.01587486 18.00964832 C-5.52833755 17.37660494 -7.22280335 15.9728609 -9.76231384 13.5146637 C-10.39122009 11.2959137 -10.39122009 11.2959137 -10.32481384 9.0146637 C-10.32610291 8.2618512 -10.32739197 7.5090387 -10.32872009 6.7334137 C-8.93038054 1.25578015 -5.20687044 0.01429749 0 0 Z " fill="#AAB497" transform="translate(158.76231384277344,242.48533630371094)"/>
<path d="M0 0 C1.02624481 -0.0112793 2.05248962 -0.02255859 3.10983276 -0.03417969 C4.22995758 -0.02608276 5.3500824 -0.01798584 6.50415039 -0.00964355 C8.28029221 -0.02015747 8.28029221 -0.02015747 10.09231567 -0.03088379 C13.33626653 -0.04547077 16.57956437 -0.04205452 19.8235054 -0.02936745 C23.21959039 -0.01923426 26.61563203 -0.028634 30.01171875 -0.03491211 C35.71467919 -0.04218764 41.41743236 -0.0326035 47.12036133 -0.0135498 C53.7120382 0.00821903 60.30322018 0.00116757 66.89488506 -0.02085543 C72.55617093 -0.03901233 78.21730789 -0.04156642 83.87861347 -0.03110075 C87.25907312 -0.0248673 90.63930021 -0.02402577 94.01974487 -0.0372467 C97.78832671 -0.04738208 101.55595244 -0.03195135 105.32446289 -0.00964355 C106.44458771 -0.01774048 107.56471252 -0.0258374 108.71878052 -0.03417969 C110.25814774 -0.01726074 110.25814774 -0.01726074 111.82861328 0 C113.16479454 0.00226215 113.16479454 0.00226215 114.52796936 0.00457001 C117.68594024 0.67069991 118.89912371 2.04563422 120.91430664 4.50793457 C121.84297173 8.25184424 121.41805317 11.57240531 119.60180664 14.94543457 C116.68733518 17.64401926 113.85450799 17.63647673 110.06948853 17.65510559 C108.57221474 17.66583855 108.57221474 17.66583855 107.04469299 17.67678833 C105.40354774 17.68082169 105.40354774 17.68082169 103.72924805 17.68493652 C101.99962578 17.69479332 101.99962578 17.69479332 100.23506165 17.70484924 C96.41199685 17.72459151 92.58897132 17.73624555 88.76586914 17.74621582 C86.81004473 17.75232911 86.81004473 17.75232911 84.81470871 17.7585659 C78.62799644 17.77760935 72.44129605 17.7918434 66.25456011 17.80017787 C59.1157165 17.80995428 51.97718262 17.83628743 44.83844817 17.87667876 C39.3181827 17.90684007 33.79800604 17.92164665 28.27765977 17.92495888 C24.98147258 17.92730897 21.68569236 17.93823621 18.38957596 17.96142006 C14.71218221 17.98568259 11.03560303 17.9848698 7.3581543 17.97790527 C6.26810593 17.99071533 5.17805756 18.00352539 4.05497742 18.01672363 C-3.31670305 17.96573093 -3.31670305 17.96573093 -7.2616272 15.61723328 C-9.35026617 13.20199003 -9.74009993 12.16519572 -9.64819336 9.00793457 C-9.64948242 8.25512207 -9.65077148 7.50230957 -9.65209961 6.72668457 C-8.35581396 1.64882078 -4.93058278 0.00834747 0 0 Z " fill="#AAB497" transform="translate(158.085693359375,277.4920654296875)"/>
<path d="M0 0 C1.01828384 -0.00379669 2.03656769 -0.00759338 3.08570862 -0.01150513 C6.4539361 -0.01891858 9.82130221 0.00248377 13.18945312 0.02490234 C15.52827859 0.02728639 17.86710599 0.02819217 20.20593262 0.02767944 C25.1086017 0.03080883 30.01097863 0.04738522 34.91357422 0.07421875 C41.20197162 0.10819854 47.49004785 0.11584738 53.77852631 0.11432838 C58.60832797 0.11487192 63.43805925 0.12583653 68.26783752 0.14033127 C70.58671028 0.14670135 72.90559102 0.15063865 75.22447205 0.15211868 C78.46358864 0.15644936 81.70236304 0.17394579 84.94140625 0.1953125 C85.90256851 0.19440613 86.86373077 0.19349976 87.85401917 0.19256592 C89.17882545 0.20536087 89.17882545 0.20536087 90.53039551 0.21841431 C91.29581917 0.221766 92.06124283 0.22511768 92.84986115 0.22857094 C95.31557019 0.52767397 96.87530263 1.1579422 98.97070312 2.48583984 C101.11322961 5.69962957 101.24262771 6.33757165 100.90820312 9.98583984 C100.85535156 10.75927734 100.8025 11.53271484 100.74804688 12.32958984 C99.97070312 14.48583984 99.97070312 14.48583984 98.05604553 16.09535217 C93.63246983 18.08894856 89.62837066 17.91246031 84.82788086 17.88989258 C83.30023605 17.90018745 83.30023605 17.90018745 81.74172974 17.91069031 C78.37910989 17.92897547 75.01695571 17.92511897 71.65429688 17.91943359 C69.31689807 17.92399385 66.97950061 17.92929895 64.6421051 17.93531799 C59.74547881 17.94425196 54.8490156 17.94182177 49.95239258 17.93188477 C43.67173936 17.92038211 37.39164727 17.94062553 31.11106777 17.9698019 C26.28555212 17.98812802 21.46017191 17.9878788 16.6346302 17.98216438 C14.3185351 17.9820108 12.00243102 17.98808573 9.68636894 18.00045586 C6.45192864 18.01529959 3.21853785 18.00473761 -0.01586914 17.98754883 C-1.45525597 18.00205078 -1.45525597 18.00205078 -2.92372131 18.0168457 C-9.40086887 17.94460697 -9.40086887 17.94460697 -12.62193298 15.59315491 C-14.23405534 13.17924494 -14.56881517 11.87067508 -14.52929688 8.98583984 C-14.53960937 8.23302734 -14.54992187 7.48021484 -14.56054688 6.70458984 C-12.7598109 -0.81613101 -6.32897009 -0.07400559 0 0 Z " fill="#AAB497" transform="translate(163.029296875,311.51416015625)"/>
<path d="M0 0 C0.67948196 -0.00619858 1.35896393 -0.01239716 2.05903625 -0.01878357 C3.49368872 -0.02586338 4.92842365 -0.02273968 6.36303711 -0.01000977 C8.52812429 0.00376213 10.68879942 -0.03011351 12.85351562 -0.06835938 C22.44799236 -0.12294175 29.79228376 1.27556222 37.30078125 7.62890625 C38.07421875 8.58796875 38.07421875 8.58796875 38.86328125 9.56640625 C39.39953125 10.20578125 39.93578125 10.84515625 40.48828125 11.50390625 C43.63447432 16.22319586 44.18107503 20.56100801 44.19921875 26.1328125 C44.20587555 26.84872055 44.21253235 27.5646286 44.21939087 28.30223083 C44.22947649 29.80912723 44.23420916 31.31606793 44.23388672 32.82299805 C44.23827491 35.12558149 44.27467369 37.42626893 44.3125 39.72851562 C44.31836616 41.19660806 44.3223369 42.66470955 44.32421875 44.1328125 C44.33858978 44.8183168 44.35296082 45.50382111 44.36776733 46.21009827 C44.33604655 49.53125433 44.07588677 51.2853263 42.04931641 53.96459961 C38.91593059 56.26057285 36.73127186 56.63426573 32.86328125 56.56640625 C30.18493325 54.41208286 28.40073706 52.64131786 26.86328125 49.56640625 C26.74458849 47.49699985 26.68417766 45.42412551 26.65234375 43.3515625 C26.62398438 42.10826172 26.595625 40.86496094 26.56640625 39.58398438 C26.51440287 36.95131326 26.47010791 34.31847837 26.43359375 31.68554688 C26.40265625 30.44095703 26.37171875 29.19636719 26.33984375 27.9140625 C26.31011475 26.1971521 26.31011475 26.1971521 26.27978516 24.44555664 C26.05854911 21.62373643 26.05854911 21.62373643 24.75097656 19.69067383 C21.89742154 17.99116259 19.482095 18.215086 16.18359375 18.23046875 C14.84895349 18.21795411 13.51431805 18.20491688 12.1796875 18.19140625 C10.08397274 18.18748077 7.98873547 18.19140307 5.89306641 18.20605469 C3.8641929 18.21465768 1.83729362 18.19289212 -0.19140625 18.16796875 C-1.40296387 18.17135254 -2.61452148 18.17473633 -3.86279297 18.17822266 C-8.01362898 17.40253324 -9.45964294 15.74217111 -12.13671875 12.56640625 C-12.46671875 12.23640625 -12.79671875 11.90640625 -13.13671875 11.56640625 C-12.98587169 7.56895908 -12.84992385 5.3088431 -10.02807617 2.37133789 C-6.44524094 0.13475081 -4.20564778 0.03657085 0 0 Z " fill="#838C6F" transform="translate(348.13671875,77.43359375)"/>
<path d="M0 0 C6.72505349 4.24872538 13.40375316 8.55364102 20 13 C19.34 13.66 18.68 14.32 18 15 C14.98889237 13.07935112 11.99326435 11.13581846 9 9.1875 C8.14148438 8.64029297 7.28296875 8.09308594 6.3984375 7.52929688 C5.58632813 6.99755859 4.77421875 6.46582031 3.9375 5.91796875 C3.18339844 5.43094482 2.42929687 4.9439209 1.65234375 4.44213867 C1.10707031 3.96623291 0.56179688 3.49032715 0 3 C0 2.01 0 1.02 0 0 Z " fill="#EDEEEA" transform="translate(424,144)"/>
</svg>
