<?xml version="1.0" encoding="UTF-8"?>
<svg version="1.1" xmlns="http://www.w3.org/2000/svg" width="500" height="500">
<path d="M0 0 C165 0 330 0 500 0 C500 165 500 330 500 500 C335 500 170 500 0 500 C0 335 0 170 0 0 Z " fill="#FEFEFE" transform="translate(0,0)"/>
<path d="M0 0 C1.26457031 0.00757324 2.52914062 0.01514648 3.83203125 0.02294922 C19.11069848 0.29103034 31.00070934 3.58527448 44.6875 10.4375 C62.94284148 19.27954295 82.95781933 19.98155475 102.89453125 17.94140625 C109.53917929 17.28999343 116.1767543 17.17951545 122.84741211 17.14233398 C124.27720033 17.13082044 125.70694578 17.11037799 127.13647461 17.08081055 C142.91479285 16.75666055 155.86205184 19.43964335 167.8671875 30.43359375 C178.23690197 41.09679071 182.06965028 54.62867668 181.875 69.125 C181.87435547 70.04861328 181.87371094 70.97222656 181.87304688 71.92382812 C181.84500069 76.25228956 181.63086485 80.19776898 180.6875 84.4375 C181.6775 84.4375 182.6675 84.4375 183.6875 84.4375 C183.6875 85.0975 183.6875 85.7575 183.6875 86.4375 C184.97914063 86.69917969 186.27078125 86.96085937 187.6015625 87.23046875 C192.58992556 88.34148665 197.28778582 89.9447763 202.0625 91.75 C203.3151062 92.22010498 203.3151062 92.22010498 204.59301758 92.69970703 C227.42403617 101.356459 254.37151286 114.35106841 265.6875 137.4375 C268.9997228 145.67709311 269.18822154 156.50044155 266.125 164.875 C262.72737713 172.03169498 257.45748441 178.07965733 251.6875 183.4375 C251.0996875 184.01886719 250.511875 184.60023438 249.90625 185.19921875 C227.97010093 206.03037524 193.82523631 216.65576554 165.08203125 223.1875 C161.70430609 223.95584694 158.35424755 224.77854804 155.01171875 225.6875 C137.24167577 230.41990027 118.91976138 232.32929792 100.6875 234.4375 C99.89525024 234.52920471 99.10300049 234.62090942 98.28674316 234.71539307 C77.29576156 237.11273769 56.4722463 237.65199605 35.36547852 237.67773438 C32.31880435 237.68207608 29.27242026 237.69582284 26.22583008 237.71875 C9.54943935 237.84149038 -6.97978772 237.56209879 -23.59765625 236.0625 C-24.28384474 236.00081886 -24.97003323 235.93913773 -25.6770153 235.87558746 C-40.68023765 234.49436367 -55.50363536 232.1842947 -70.3125 229.4375 C-71.00426331 229.31010437 -71.69602661 229.18270874 -72.40875244 229.05145264 C-113.32343135 221.48822765 -169.44225442 210.24101126 -195.15234375 173.83203125 C-196.6502441 171.41121919 -198.00367627 168.9644369 -199.3125 166.4375 C-199.93125 165.365 -200.55 164.2925 -201.1875 163.1875 C-204.10488283 153.46289057 -202.99252205 143.39361362 -198.3125 134.4375 C-196.25339537 131.15300429 -193.90906133 128.31122237 -191.3125 125.4375 C-190.54164063 124.56222656 -189.77078125 123.68695313 -188.9765625 122.78515625 C-169.92950983 102.39394221 -139.55208042 91.12458835 -113.3125 83.4375 C-112.6525 83.4375 -111.9925 83.4375 -111.3125 83.4375 C-111.1475 82.2825 -110.9825 81.1275 -110.8125 79.9375 C-107.02264879 62.89660875 -95.22209549 47.64463701 -83.3125 35.4375 C-82.77463867 34.87337402 -82.23677734 34.30924805 -81.68261719 33.72802734 C-60.89253339 12.29815835 -29.64061716 -0.2509891 0 0 Z " fill="#F7F2ED" transform="translate(217.3125,119.5625)"/>
<path d="M0 0 C0 1.32 0 2.64 0 4 C-0.94875 4.25652344 -1.8975 4.51304687 -2.875 4.77734375 C-25.66729614 11.114881 -50.19044591 18.76714687 -68 35 C-68.928125 35.845625 -69.85625 36.69125 -70.8125 37.5625 C-76.72414239 44.14975866 -80.66413285 50.07442498 -80.43359375 59.1875 C-78.68298804 70.54278027 -70.79568188 78.74105195 -61.90625 85.2734375 C-47.59455665 95.10709772 -31.78278488 101.11777404 -15.30615234 106.27441406 C-13.38156789 106.87994709 -11.46505802 107.51106788 -9.55078125 108.1484375 C5.08927826 112.93277067 20.22987828 115.85402447 35.4375 118.125 C37.0930188 118.3727417 37.0930188 118.3727417 38.78198242 118.62548828 C40.90003363 118.9412919 43.01811495 119.25689363 45.13623047 119.57226562 C46.08127441 119.71341797 47.02631836 119.85457031 48 120 C48.80711426 120.12052734 49.61422852 120.24105469 50.44580078 120.36523438 C58.12963753 121.55450188 64.06187471 123.12685621 70.55078125 127.44921875 C86.60701901 137.61560853 106.77009778 139.44256711 125.125 135.74609375 C149.71560017 129.36456572 170.14655942 114.41290986 187.5625 96.3125 C199.10259905 84.60417794 213.21959998 77.92550652 228.00390625 71.30078125 C229.05602295 70.82688965 230.10813965 70.35299805 231.19213867 69.86474609 C233.25655634 68.93902809 235.32551728 68.02335097 237.3996582 67.11962891 C261.7701488 56.23831732 278.88538467 35.39683981 288.82226562 10.97949219 C290.04397375 7.6980874 291.09544911 4.38194026 292 1 C297.84635366 1.60506617 302.98473575 3.193577 308.5 5.1875 C309.82547852 5.66376831 309.82547852 5.66376831 311.17773438 6.1496582 C312.96238725 6.79499566 314.74562166 7.44427068 316.52734375 8.09765625 C318.65823237 8.87527911 320.79567988 9.62826939 322.9375 10.375 C343.87496388 18.08880248 367.7101471 32.38041105 378 53 C381.31696104 61.23400539 381.49896354 72.06774775 378.4375 80.4375 C375.03987713 87.59419498 369.76998441 93.64215733 364 99 C363.4121875 99.58136719 362.824375 100.16273438 362.21875 100.76171875 C340.28260093 121.59287524 306.13773631 132.21826554 277.39453125 138.75 C274.01680609 139.51834694 270.66674755 140.34104804 267.32421875 141.25 C249.55417577 145.98240027 231.23226138 147.89179792 213 150 C212.20775024 150.09170471 211.41550049 150.18340942 210.59924316 150.27789307 C189.60826156 152.67523769 168.7847463 153.21449605 147.67797852 153.24023438 C144.63130435 153.24457608 141.58492026 153.25832284 138.53833008 153.28125 C121.86193935 153.40399038 105.33271228 153.12459879 88.71484375 151.625 C88.02865526 151.56331886 87.34246677 151.50163773 86.6354847 151.43808746 C71.63226235 150.05686367 56.80886464 147.7467947 42 145 C41.30823669 144.87260437 40.61647339 144.74520874 39.90374756 144.61395264 C-1.01093135 137.05072765 -57.12975442 125.80351126 -82.83984375 89.39453125 C-84.3377441 86.97371919 -85.69117627 84.5269369 -87 82 C-87.61875 80.9275 -88.2375 79.855 -88.875 78.75 C-91.79238283 69.02539057 -90.68002205 58.95611362 -86 50 C-83.94089537 46.71550429 -81.59656133 43.87372237 -79 41 C-78.22914062 40.12472656 -77.45828125 39.24945313 -76.6640625 38.34765625 C-60.53084024 21.07590329 -24.13507117 0 0 0 Z " fill="#DFE6D5" transform="translate(105,204)"/>
<path d="M0 0 C11.62785183 5.04796235 23.63143051 7.03714496 36.25439453 7.00170898 C37.4075415 7.00314407 37.4075415 7.00314407 38.58398438 7.00460815 C40.19742923 7.00528384 41.81087689 7.00347261 43.42431641 6.99926758 C45.87294711 6.99391059 48.32139443 6.99923349 50.77001953 7.00561523 C52.34814493 7.00495434 53.92627022 7.00367296 55.50439453 7.00170898 C56.58599854 7.00474533 56.58599854 7.00474533 57.68945312 7.00784302 C62.50258523 6.9859918 67.10808681 6.49997982 71.87939453 5.86889648 C86.80124531 5.01901544 101.39390278 4.51897083 114.13720703 13.27124023 C116.01972118 14.99758168 116.89877474 16.5285513 117.87939453 18.86889648 C111.21663657 28.74502818 103.72185369 37.46066746 92.87939453 42.86889648 C92.21939453 42.86889648 91.55939453 42.86889648 90.87939453 42.86889648 C90.28126953 41.96139648 89.68314453 41.05389648 89.06689453 40.11889648 C85.61572235 34.99144067 81.50234836 32.3037162 75.87939453 29.86889648 C68.87614412 28.96708582 61.66004539 28.83974874 55.48876953 32.61108398 C50.4662097 36.53648269 47.04613393 41.57648143 45.87939453 47.86889648 C45.97501028 50.18279771 46.10265624 52.49549693 46.25439453 54.80639648 C46.40189563 61.1221255 46.40189563 61.1221255 44.16845703 64.31420898 C42.60889187 65.75667369 41.01567076 67.1633888 39.39501953 68.53686523 C29.22829706 77.96160641 22.62294116 94.27780756 20.87939453 107.86889648 C20.96221467 109.39029564 21.07610913 110.91021256 21.21533203 112.42749023 C21.58253588 117.45914797 21.89545961 122.1435229 19.87939453 126.86889648 C14.27778233 133.2341619 6.29667078 137.01360399 -1.12060547 140.86889648 C-2.60864365 141.68728637 -4.09572804 142.5074146 -5.58154297 143.32983398 C-23.08953795 152.75007984 -43.30095614 158.94625934 -63.05810547 153.24389648 C-85.15375915 145.2241974 -101.73117362 126.62106587 -112.12060547 105.86889648 C-117.4743853 93.95813542 -119.47239534 82.33455393 -119.43310547 69.36889648 C-119.44921875 68.30541992 -119.46533203 67.24194336 -119.48193359 66.14624023 C-119.48617962 59.22521799 -118.5186284 53.36524314 -116.12060547 46.86889648 C-109.36822085 48.10515397 -103.95037344 50.09980986 -97.93310547 53.36889648 C-97.10794434 53.81249512 -96.2827832 54.25609375 -95.43261719 54.71313477 C-63.95342883 71.98733175 -40.55926966 99.86783627 -29.12841797 133.88061523 C-28.21518803 136.5884482 -27.20861606 139.22728519 -26.12060547 141.86889648 C-29.10541371 129.98468302 -32.74865987 118.89150687 -38.12060547 107.86889648 C-38.66587891 106.74870117 -39.21115234 105.62850586 -39.77294922 104.47436523 C-55.28554538 74.28867811 -81.49151862 51.94987207 -113.12060547 39.86889648 C-110.7915762 31.01858526 -105.52376215 23.99499461 -99.49560547 17.30639648 C-98.79479858 16.51918213 -98.79479858 16.51918213 -98.07983398 15.71606445 C-95.61739965 13.06933059 -93.81480497 11.22444151 -90.12060547 10.86889648 C-89.74291016 11.33038086 -89.36521484 11.79186523 -88.97607422 12.26733398 C-72.59422449 31.68001774 -48.52633141 46.90655212 -22.82177734 49.68725586 C-11.96338964 50.41742944 -0.99203386 50.07592076 9.87939453 49.86889648 C8.78606812 49.8172937 8.78606812 49.8172937 7.6706543 49.76464844 C-6.89157933 49.02489569 -20.41462792 48.00676567 -34.12060547 42.86889648 C-35.16603516 42.49893555 -36.21146484 42.12897461 -37.28857422 41.74780273 C-55.36937423 34.84509309 -75.17067321 21.74052076 -85.12060547 4.86889648 C-58.48623828 -13.18613127 -28.58684773 -12.55515076 0 0 Z " fill="#EFBF9E" transform="translate(261.12060546875,138.131103515625)"/>
<path d="M0 0 C0 1.32 0 2.64 0 4 C-0.94875 4.25652344 -1.8975 4.51304687 -2.875 4.77734375 C-25.66729614 11.114881 -50.19044591 18.76714687 -68 35 C-68.928125 35.845625 -69.85625 36.69125 -70.8125 37.5625 C-76.72414239 44.14975866 -80.66413285 50.07442498 -80.43359375 59.1875 C-78.68298804 70.54278027 -70.79568188 78.74105195 -61.90625 85.2734375 C-47.59455665 95.10709772 -31.78278488 101.11777404 -15.30615234 106.27441406 C-13.38156789 106.87994709 -11.46505802 107.51106788 -9.55078125 108.1484375 C5.08927826 112.93277067 20.22987828 115.85402447 35.4375 118.125 C37.0930188 118.3727417 37.0930188 118.3727417 38.78198242 118.62548828 C40.90003363 118.9412919 43.01811495 119.25689363 45.13623047 119.57226562 C46.08127441 119.71341797 47.02631836 119.85457031 48 120 C48.80711426 120.12052734 49.61422852 120.24105469 50.44580078 120.36523438 C58.12963753 121.55450188 64.06187471 123.12685621 70.55078125 127.44921875 C86.63351032 137.63238213 106.70828271 139.38506037 125.08984375 135.765625 C131.7942055 134.00179292 138.67174629 131.9130765 144.70092773 128.44750977 C148.55239232 126.75763087 151.88274082 126.54185273 156.01171875 126.5234375 C156.77307632 126.50831116 157.5344339 126.49318481 158.31886292 126.4776001 C159.9386658 126.44689684 161.5586 126.42255652 163.17858887 126.40411377 C165.71226286 126.37471265 168.24502797 126.32748972 170.77832031 126.27490234 C174.07724681 126.20671458 177.37619025 126.14302108 180.67529297 126.08398438 C236.91496544 125.03631287 317.53661426 117.89603917 361 78 C367.92841813 70.57212104 370.5550639 63.89510214 370.3046875 53.69921875 C369.26472844 44.4862481 362.16326882 37.45721739 355.328125 31.78125 C337.46417817 18.63782798 314.65715441 9.53892458 293 5 C292.67 3.68 292.34 2.36 292 1 C297.84635366 1.60506617 302.98473575 3.193577 308.5 5.1875 C309.82547852 5.66376831 309.82547852 5.66376831 311.17773438 6.1496582 C312.96238725 6.79499566 314.74562166 7.44427068 316.52734375 8.09765625 C318.65823237 8.87527911 320.79567988 9.62826939 322.9375 10.375 C343.87496388 18.08880248 367.7101471 32.38041105 378 53 C381.31696104 61.23400539 381.49896354 72.06774775 378.4375 80.4375 C375.03987713 87.59419498 369.76998441 93.64215733 364 99 C363.4121875 99.58136719 362.824375 100.16273438 362.21875 100.76171875 C340.28260093 121.59287524 306.13773631 132.21826554 277.39453125 138.75 C274.01680609 139.51834694 270.66674755 140.34104804 267.32421875 141.25 C249.55417577 145.98240027 231.23226138 147.89179792 213 150 C212.20775024 150.09170471 211.41550049 150.18340942 210.59924316 150.27789307 C189.60826156 152.67523769 168.7847463 153.21449605 147.67797852 153.24023438 C144.63130435 153.24457608 141.58492026 153.25832284 138.53833008 153.28125 C121.86193935 153.40399038 105.33271228 153.12459879 88.71484375 151.625 C88.02865526 151.56331886 87.34246677 151.50163773 86.6354847 151.43808746 C71.63226235 150.05686367 56.80886464 147.7467947 42 145 C41.30823669 144.87260437 40.61647339 144.74520874 39.90374756 144.61395264 C-1.01093135 137.05072765 -57.12975442 125.80351126 -82.83984375 89.39453125 C-84.3377441 86.97371919 -85.69117627 84.5269369 -87 82 C-87.61875 80.9275 -88.2375 79.855 -88.875 78.75 C-91.79238283 69.02539057 -90.68002205 58.95611362 -86 50 C-83.94089537 46.71550429 -81.59656133 43.87372237 -79 41 C-78.22914062 40.12472656 -77.45828125 39.24945313 -76.6640625 38.34765625 C-60.53084024 21.07590329 -24.13507117 0 0 0 Z " fill="#A8B198" transform="translate(105,204)"/>
<path d="M0 0 C0.66 0.33 1.32 0.66 2 1 C1.443125 1.49886719 0.88625 1.99773437 0.3125 2.51171875 C-15.35764162 17.25541619 -24.09249036 38.56534359 -25.203125 59.90234375 C-25.764121 88.71197368 -15.24870409 111.90986533 4 133 C4.66644531 133.74894531 5.33289063 134.49789062 6.01953125 135.26953125 C17.99633486 148.05319321 34.6695116 157.04809558 52.234375 158.21484375 C86.02821376 159.15356149 113.39702672 138.88914529 139.0078125 119.50390625 C142.34575826 116.98408445 145.69964365 114.48645008 149.0625 112 C149.65748291 111.55527344 150.25246582 111.11054688 150.86547852 110.65234375 C152.55753802 109.40458402 154.27290366 108.19863007 156 107 C157.52173828 105.91332031 157.52173828 105.91332031 159.07421875 104.8046875 C164.44243363 101.83087989 170.76113787 101.76829106 176.75 101.125 C194.52266 98.93756153 209.96895448 95.02069701 225 85 C222.58912841 90.32349819 218.73999579 94.56306772 215 99 C214.48695313 99.61230469 213.97390625 100.22460938 213.4453125 100.85546875 C203.55745186 111.63989706 189.5706474 117.99882524 176.375 123.6875 C154.6710955 133.16170439 137.2042219 144.28442637 120.10546875 160.79296875 C99.77599945 180.22369029 76.83247309 190.55861256 48.64453125 190.203125 C26.75961186 189.61618685 8.34634955 176.10448225 -6.38671875 160.90234375 C-10.45067572 156.3888609 -14.12028244 151.63810963 -17.70996094 146.74755859 C-19.05250818 144.9288695 -20.41877049 143.12988846 -21.7890625 141.33203125 C-37.59689165 120.42893691 -49.91015935 96.96369866 -48 70 C-43.16768243 41.0060946 -22.35661961 17.62887568 0 0 Z " fill="#FEC0BB" transform="translate(158,144)"/>
<path d="M0 0 C-0.01047363 0.60884033 -0.02094727 1.21768066 -0.03173828 1.8449707 C-0.10446685 6.71087987 -0.1382582 11.57497687 -0.109375 16.44140625 C-0.10389648 17.36638916 -0.09841797 18.29137207 -0.09277344 19.24438477 C0.06796748 24.01881307 0.67946393 28.41321045 2 33 C2.17772949 33.6379248 2.35545898 34.27584961 2.53857422 34.93310547 C7.49388259 52.34567275 16.20115919 66.62801334 27 81 C27.40863281 81.55284668 27.81726563 82.10569336 28.23828125 82.67529297 C34.34093952 90.93083346 40.91910784 98.56997294 48 106 C48.66128906 106.70253906 49.32257813 107.40507812 50.00390625 108.12890625 C53.70441506 111.96187175 57.57981718 115.02314218 62 118 C59.0507239 119.47463805 56.92772614 118.66921311 53.69140625 118.14453125 C52.39589844 117.93626709 51.10039062 117.72800293 49.765625 117.51342773 C48.36448474 117.28037716 46.96344484 117.04672248 45.5625 116.8125 C44.50748291 116.63885422 44.50748291 116.63885422 43.43115234 116.46170044 C27.83845239 113.89414821 12.37372666 110.97561785 -2.83251953 106.62011719 C-4.40734201 106.16955973 -5.98411185 105.72579159 -7.56201172 105.28613281 C-32.08225626 98.41580942 -63.44289388 88.38437873 -77.18359375 64.984375 C-80.01685648 59.37667161 -81.10737116 54.2337359 -80 48 C-73.56656334 30.14984992 -56.3526994 20.7831733 -40.1796875 12.9921875 C-36.41419294 11.27814517 -32.5792557 9.96341512 -28.6171875 8.7890625 C-26.01551881 8.00467881 -23.56800901 7.04863157 -21.0625 6 C-6.39583333 0 -6.39583333 0 0 0 Z " fill="#DFE6D5" transform="translate(104,208)"/>
<path d="M0 0 C4.80725505 0.57334235 8.8006276 2.03836346 13.125 4.125 C13.7751709 4.4341333 14.4253418 4.7432666 15.09521484 5.06176758 C27.04110548 10.83332847 38.70881222 16.76908744 45 29 C46.30280196 34.76707001 45.33035328 39.99710175 42.359375 45.07421875 C34.02481898 56.88150645 20.26632078 63.21037239 6.96484375 67.9296875 C3.90575486 68.99076099 3.90575486 68.99076099 0.66796875 70.50390625 C-3.39354774 72.16052054 -7.35019479 73.14485189 -11.625 74.0625 C-17.11052449 75.21271113 -17.11052449 75.21271113 -22.4140625 76.9765625 C-37.08458872 82.78272242 -54.2549217 83.84552076 -69.8125 85.75 C-70.66992798 85.85663971 -71.52735596 85.96327942 -72.4107666 86.07315063 C-84.59547881 87.57433675 -96.73385467 88.5029939 -109 89 C-107.49544495 85.81378697 -106.11047622 83.9950522 -103.375 81.75 C-100.50415413 79.33622977 -97.87797698 76.85933003 -95.3125 74.125 C-84.2675505 63.01571099 -70.08530177 56.61403875 -55.99609375 50.30078125 C-54.4179187 49.58994385 -54.4179187 49.58994385 -52.80786133 48.86474609 C-50.74344366 47.93902809 -48.67448272 47.02335097 -46.6003418 46.11962891 C-25.79661345 36.8308602 -10.0056634 20.29604079 0 0 Z " fill="#A7B097" transform="translate(389,225)"/>
<path d="M0 0 C3 1 3 1 4.7890625 4.203125 C5.41183191 5.54713592 6.02339293 6.89638409 6.625 8.25 C6.93695313 8.91902344 7.24890625 9.58804688 7.5703125 10.27734375 C11.85782939 19.68400796 12.97105797 31.99035805 9.8046875 41.98828125 C4.85796082 54.35509796 -1.82175741 64.45530821 -14.3984375 69.984375 C-15.68621094 70.48710937 -15.68621094 70.48710937 -17 71 C-17.87914062 71.35578125 -18.75828125 71.7115625 -19.6640625 72.078125 C-30.8829173 76.21952044 -42.83373489 78.01340126 -54.75 78.125 C-63.57756705 78.62219559 -69.22915106 82.8410898 -76 88 C-77.43031427 89.06601087 -78.86133059 90.13108026 -80.29296875 91.1953125 C-82.42965436 92.78834014 -84.55968951 94.3872258 -86.67163086 96.01293945 C-87.62694702 96.74710083 -87.62694702 96.74710083 -88.6015625 97.49609375 C-89.16182129 97.93107178 -89.72208008 98.3660498 -90.29931641 98.81420898 C-92.1238269 100.08633754 -93.99076579 101.05191147 -96 102 C-97.2095855 81.54456516 -90.23818635 64.803238 -76.91796875 49.14453125 C-75.65062711 47.72748327 -74.34428044 46.34428044 -73 45 C-72.01 45 -71.02 45 -70 45 C-69.46375 45.721875 -68.9275 46.44375 -68.375 47.1875 C-64.25888513 52.06184656 -59.95896384 54.60772594 -53.58203125 55.453125 C-46.64369211 55.66134954 -40.57616699 55.43499794 -35 51 C-31.34168032 47.53854057 -28.2942921 43.94184257 -27 39 C-27.02964844 38.36578125 -27.05929687 37.7315625 -27.08984375 37.078125 C-27.160076 32.67690371 -26.56969689 30.6305736 -23.55078125 27.2890625 C-20.94369582 24.88216398 -18.22656331 22.60363154 -15.51416016 20.31689453 C-8.88472898 14.55114933 -4.21094565 7.64031427 0 0 Z " fill="#EFBF9E" transform="translate(381,159)"/>
<path d="M0 0 C1.62356294 2.91442856 2.31076078 5.33070584 2.75 8.625 C6.64871068 30.97562383 18.17689613 49.07021351 31.85546875 66.69140625 C32.31896729 67.28864502 32.78246582 67.88588379 33.26000977 68.5012207 C34.15175358 69.6436927 35.04915715 70.78177562 35.95288086 71.91479492 C39 75.78496176 39 75.78496176 39 78 C15.01014224 75.21048166 -18.31321389 66.21092864 -33.95703125 46.5390625 C-37.77907666 41.00739023 -39.56336385 36.87303901 -39 30 C-35.84463009 19.95105125 -26.85437872 12.98648421 -18 8 C-12.10776412 5.07139762 -6.12450183 2.40443405 0 0 Z " fill="#B9BFAD" transform="translate(102,226)"/>
<path d="M0 0 C5.21888518 2.98520232 8.79965773 7.13649708 10.54296875 12.92578125 C11.52449613 19.17451494 10.47662753 24.31080317 6.8125 29.5 C1.67775864 34.4079054 -2.81489732 36.83459344 -10.06640625 36.71484375 C-16.16734879 36.09688456 -20.35105703 33.08241799 -24.1875 28.5 C-27.64835635 23.36838541 -28.0041669 18.50435774 -27.1875 12.5 C-25.54732883 6.88631892 -22.7099982 3.58939191 -17.87109375 0.41015625 C-12.29143675 -2.60622445 -5.74874143 -2.50954674 0 0 Z " fill="#FEFEFE" transform="translate(339.1875,173.5)"/>
<path d="M0 0 C0.16491943 0.52207031 0.32983887 1.04414063 0.49975586 1.58203125 C5.71017915 17.83414023 12.45051029 31.75593853 22.72583008 45.39794922 C25.0353305 48.48381899 26.75858028 51.34357798 28 55 C14.3504572 53.75707806 -1.98646092 44.07575557 -10.8828125 33.83203125 C-15.00924151 28.563637 -16.44874461 24.84335528 -16 18 C-14.58204421 10.91022107 -10.36348974 6.60654562 -5 2 C-2 0 -2 0 0 0 Z " fill="#A8B097" transform="translate(105,239)"/>
<path d="M0 0 C0.99 0 1.98 0 3 0 C3 0.99 3 1.98 3 3 C5.97 3 8.94 3 12 3 C12 3.66 12 4.32 12 5 C13.01964844 5.08765625 14.03929687 5.1753125 15.08984375 5.265625 C25.42504053 7.20670092 36.4463798 15.94210797 42.4765625 24.4609375 C48.97128307 35.28547178 51.47884955 45.4013394 50 58 C48.96875 60.9609375 48.96875 60.9609375 48 63 C47.67 63 47.34 63 47 63 C47 55.74 47 48.48 47 41 C46.34 41 45.68 41 45 41 C44.67 41.99 44.34 42.98 44 44 C39.67524742 42.55841581 38.05743958 39.66915608 35.65625 35.87890625 C32.66417884 31.16002807 29.78455273 27.58306928 25.3203125 24.19140625 C24.88460938 23.79824219 24.44890625 23.40507812 24 23 C24 22.34 24 21.68 24 21 C23.278125 20.7525 22.55625 20.505 21.8125 20.25 C18.74086887 18.88483061 16.5895248 17.1247383 14 15 C11.31182756 13.29749079 9.67797161 12.96045265 6.4375 12.5625 C2.85055309 11.97554505 2.25313948 11.59111041 0 9 C-0.99 9 -1.98 9 -3 9 C-3 8.34 -3 7.68 -3 7 C-2.34 6.67 -1.68 6.34 -1 6 C-0.34227572 2.97065509 -0.34227572 2.97065509 0 0 Z " fill="#FBFCFA" transform="translate(415,218)"/>
<path d="M0 0 C0 1.32 0 2.64 0 4 C-0.94875 4.25652344 -1.8975 4.51304687 -2.875 4.77734375 C-27.00568373 11.48702785 -52.65543195 19.65543195 -70.75 37.75 C-73.28493905 40.28493905 -75.97299102 42.09166825 -79 44 C-79.99 44.66 -80.98 45.32 -82 46 C-74.44833654 27.6850461 -47.95465742 17.01287011 -31.00390625 9.8671875 C-7.06232853 0 -7.06232853 0 0 0 Z " fill="#B1B9A2" transform="translate(105,204)"/>
<path d="M0 0 C1.3271261 3.9813783 1.06915913 7.85045227 1 12 C1.763125 12.020625 2.52625 12.04125 3.3125 12.0625 C4.199375 12.371875 5.08625 12.68125 6 13 C6.71042477 14.58999829 7.40394014 16.1903973 7.99609375 17.828125 C10.97111384 24.26435524 16.31175497 29.8755651 22 34 C23.485 34.495 23.485 34.495 25 35 C25.6875 37.0625 25.6875 37.0625 26 39 C25.01 39.66 24.02 40.32 23 41 C12.53270104 36.30776253 4.98734552 31.55015399 0 21 C-0.96173372 16.53299995 -1.13463444 12.24940788 -1.125 7.6875 C-1.12757812 6.45386719 -1.13015625 5.22023437 -1.1328125 3.94921875 C-1 1 -1 1 0 0 Z " fill="#FBFCFA" transform="translate(38,249)"/>
<path d="M0 0 C5.84635366 0.60506617 10.98473575 2.193577 16.5 4.1875 C17.38365234 4.50501221 18.26730469 4.82252441 19.17773438 5.1496582 C20.96238725 5.79499566 22.74562166 6.44427068 24.52734375 7.09765625 C26.65823237 7.87527911 28.79567988 8.62826939 30.9375 9.375 C45.0960005 14.59128966 58.12631368 22.74873551 70 32 C69.01 32.66 68.02 33.32 67 34 C66.40058594 33.47792969 65.80117188 32.95585937 65.18359375 32.41796875 C47.46429681 18.02576597 23.24375061 8.6618639 1 4 C0.67 2.68 0.34 1.36 0 0 Z " fill="#AEB69F" transform="translate(397,205)"/>
<path d="M0 0 C-3.75591372 2.50394248 -7.2187935 2.74328198 -11.59375 3.25390625 C-12.8848468 3.41257423 -12.8848468 3.41257423 -14.20202637 3.57444763 C-16.03411526 3.7975954 -17.86669697 4.01672766 -19.69970703 4.23217773 C-22.43534308 4.55487308 -25.16879808 4.89252869 -27.90234375 5.23242188 C-39.59174876 6.65424593 -51.23437846 7.53961346 -63 8 C-62.34 6.68 -61.68 5.36 -61 4 C-60.0095166 4.02501587 -60.0095166 4.02501587 -58.99902344 4.05053711 C-50.46328047 4.16664514 -42.07150824 3.54094364 -33.58056641 2.77319336 C-31.24034293 2.56162696 -28.89957259 2.35731852 -26.55859375 2.15429688 C-25.0442342 2.0212496 -23.52990993 1.88780015 -22.015625 1.75390625 C-20.98565399 1.66321617 -20.98565399 1.66321617 -19.93487549 1.57069397 C-16.51954624 1.26093046 -13.11819629 0.89761698 -9.71777344 0.45678711 C-6.42635244 0.05238412 -3.31005548 -0.08275139 0 0 Z " fill="#BAC1AE" transform="translate(343,306)"/>
<path d="M0 0 C2.17512014 3.26268022 3.30335384 6.497352 4.5 10.1875 C4.72067139 10.86224365 4.94134277 11.5369873 5.16870117 12.23217773 C9.34337656 25.13246886 9.34337656 25.13246886 9 32 C6.56062214 27.6495888 5.3574263 22.85815145 3.94335938 18.10742188 C2.90623197 14.69233258 1.79080335 11.42695456 0.3203125 8.171875 C-1.08625356 4.79278729 -1.13738848 3.41216544 0 0 Z " fill="#F5E5D9" transform="translate(227,254)"/>
<path d="M0 0 C0.66 0.33 1.32 0.66 2 1 C2.05384521 3.29141286 2.09272087 5.58318188 2.125 7.875 C2.14820313 9.15117187 2.17140625 10.42734375 2.1953125 11.7421875 C2 15 2 15 0 17 C-1.56674775 11.28978713 -2.33258509 6.81491675 -1 1 C-0.67 0.67 -0.34 0.34 0 0 Z " fill="#E6EDDF" transform="translate(35,249)"/>
<path d="M0 0 C2.27141109 0.11402064 4.54214552 0.24158505 6.8125 0.375 C8.07707031 0.44460938 9.34164063 0.51421875 10.64453125 0.5859375 C14 1 14 1 17 3 C7.595 3.495 7.595 3.495 -2 4 C-1.34 2.68 -0.68 1.36 0 0 Z " fill="#C0C7B5" transform="translate(282,310)"/>
<path d="M0 0 C0.66 0 1.32 0 2 0 C2.33 2.97 2.66 5.94 3 9 C2.01 9.495 2.01 9.495 1 10 C0.67 9.01 0.34 8.02 0 7 C-0.33 9.97 -0.66 12.94 -1 16 C-1.33 16 -1.66 16 -2 16 C-2.05384521 13.70858714 -2.09272087 11.41681812 -2.125 9.125 C-2.14820313 7.84882813 -2.17140625 6.57265625 -2.1953125 5.2578125 C-2 2 -2 2 0 0 Z " fill="#EAEFE4" transform="translate(467,259)"/>
<path d="M0 0 C0.99 0 1.98 0 3 0 C3 0.99 3 1.98 3 3 C4.32 3.33 5.64 3.66 7 4 C5.68 4 4.36 4 3 4 C2.67 5.65 2.34 7.3 2 9 C0.35 9 -1.3 9 -3 9 C-3 8.34 -3 7.68 -3 7 C-2.34 6.67 -1.68 6.34 -1 6 C-0.34227572 2.97065509 -0.34227572 2.97065509 0 0 Z " fill="#EEF2E8" transform="translate(415,218)"/>
<path d="M0 0 C3.45925163 1.2491742 6.14693203 2.67527795 9 5 C8.34 5.66 7.68 6.32 7 7 C4.36 5.68 1.72 4.36 -1 3 C-0.67 2.01 -0.34 1.02 0 0 Z " fill="#B6BDA7" transform="translate(437,219)"/>
<path d="M0 0 C2.39854906 2.08905886 3.83687696 3.52228253 4.875 6.5625 C5 9 5 9 3 12 C2 8 1 4 0 0 Z " fill="#EDF2E7" transform="translate(456,250)"/>
<path d="M0 0 C0.66 0.33 1.32 0.66 2 1 C1.67 2.32 1.34 3.64 1 5 C1.66 5.33 2.32 5.66 3 6 C2.67 6.99 2.34 7.98 2 9 C1.34 9 0.68 9 0 9 C-0.84454356 5.62182575 -1.10844919 3.32534757 0 0 Z " fill="#E5ECDE" transform="translate(464,251)"/>
<path d="M0 0 C0.33 0 0.66 0 1 0 C1.309375 0.94875 1.61875 1.8975 1.9375 2.875 C2.87394742 5.86080408 2.87394742 5.86080408 4 8 C3.34 8 2.68 8 2 8 C1.67 9.32 1.34 10.64 1 12 C-0.3271261 8.0186217 -0.06915913 4.14954773 0 0 Z " fill="#EBF0E5" transform="translate(38,253)"/>
</svg>
