<?xml version="1.0" encoding="UTF-8"?>
<svg version="1.1" xmlns="http://www.w3.org/2000/svg" width="500" height="500">
<path d="M0 0 C165 0 330 0 500 0 C500 165 500 330 500 500 C335 500 170 500 0 500 C0 335 0 170 0 0 Z " fill="#FEFEFE" transform="translate(0,0)"/>
<path d="M0 0 C0.33 0 0.66 0 1 0 C1.02578125 0.66644531 1.0515625 1.33289063 1.078125 2.01953125 C2.20868006 20.39105103 11.72307564 32.36823083 24.375 44.6875 C25.48525021 45.78622569 26.59463071 46.88583093 27.703125 47.98632812 C32.70954342 52.93598042 37.78256951 57.76163645 43.13134766 62.34301758 C47.51507251 66.23017992 51.54120391 70.50552456 55.64453125 74.68359375 C59.6268712 78.70961568 63.69896285 82.52181528 67.99121094 86.21386719 C71.61463487 89.43566707 74.97983631 92.91613718 78.375 96.375 C79.77632747 97.80175991 81.1798635 99.22635507 82.5859375 100.6484375 C83.1948584 101.26895996 83.8037793 101.88948242 84.43115234 102.52880859 C85.95123461 104.09461962 85.95123461 104.09461962 88 105 C88 105.66 88 106.32 88 107 C93.59568982 102.23771079 98.85618137 97.24428384 104 92 C105.3307321 90.64327703 106.6640602 89.28909535 108 87.9375 C108.5775 87.34839844 109.155 86.75929688 109.75 86.15234375 C111.71452179 84.27308766 113.72247542 82.49634441 115.77954102 80.72045898 C119.87473022 77.15857364 123.71593707 73.39647669 127.52734375 69.53515625 C128.20172989 68.85698349 128.87611603 68.17881073 129.57093811 67.48008728 C131.69560354 65.34333508 133.81694741 63.2033334 135.9375 61.0625 C138.75628311 58.21722279 141.57830241 55.37521339 144.40234375 52.53515625 C145.37408791 51.55096458 145.37408791 51.55096458 146.36546326 50.54689026 C147.89152706 49.01235069 149.44308684 47.50323113 151 46 C151.33 46 151.66 46 152 46 C152.01675781 46.96035156 152.03351563 47.92070312 152.05078125 48.91015625 C152.61923177 59.88656774 156.09355098 68.01472879 161.09643555 77.72827148 C164.85050177 85.18563095 166.23339315 90.62377929 166 99 C166.05373217 101.68904884 166.05373217 101.68904884 167 104 C169.27359773 105.26531455 169.27359773 105.26531455 172 106 C182.49823047 110.74167303 188.52871849 116.34038038 195.63720703 125.29150391 C198.23406432 128.54711253 200.87097015 131.7703646 203.5 135 C204.6121249 136.36837115 205.72410606 137.73685914 206.8359375 139.10546875 C207.37057617 139.76337402 207.90521484 140.4212793 208.45605469 141.09912109 C209.44162897 142.31254319 210.42670614 143.52636934 211.41113281 144.74072266 C212.64758728 146.26586675 213.88621986 147.78924429 215.125 149.3125 C215.80820312 150.15425781 216.49140625 150.99601563 217.1953125 151.86328125 C220.19181061 155.41108312 222.94014041 157.69575537 227 160 C226.55499249 163.5600601 225.81451951 166.91306614 224.6875 170.3125 C224.46449219 170.98925781 224.24148438 171.66601562 224.01171875 172.36328125 C223 174 223 174 220.89453125 174.73046875 C220.26933594 174.81941406 219.64414062 174.90835938 219 175 C218.97421875 176.05058594 218.9484375 177.10117187 218.921875 178.18359375 C218.50596812 189.81928201 216.36375748 197.74809957 209 207 C206 209 206 209 203.875 208.6875 C202 208 202 208 201 207 C201.00755612 203.90198882 201.07769865 200.81736529 201.21484375 197.72265625 C201.31031143 193.30510652 200.9244834 190.39872395 198 187 C194.42693997 186.89991665 194.42693997 186.89991665 192.1328125 187.3125 C185.99271925 186.41285264 181.1312911 177.08863487 177.6875 172.5 C176.25666876 170.60665116 174.82567459 168.71342544 173.39453125 166.8203125 C172.66572754 165.85383789 171.93692383 164.88736328 171.18603516 163.89160156 C168.42948371 160.24534343 165.6513734 156.61587281 162.87255859 152.98657227 C131.51280884 111.98739809 131.51280884 111.98739809 124 94 C123.6596875 93.19175781 123.319375 92.38351562 122.96875 91.55078125 C121.59630318 88.11331028 121 85.75455905 121 82 C120.34 82 119.68 82 119 82 C117.84740454 86.92219512 117.50678701 89.82449207 120.02734375 94.296875 C120.97566674 95.79522532 121.94683933 97.27929894 122.9375 98.75 C123.43733398 99.53133301 123.93716797 100.31266602 124.45214844 101.11767578 C126.75149965 104.69011825 129.12938371 108.20471389 131.55078125 111.6953125 C132.27652344 112.74460937 133.00226563 113.79390625 133.75 114.875 C134.73226562 116.23238281 134.73226562 116.23238281 135.734375 117.6171875 C137 120 137 120 136.953125 122.0625 C135.69972311 124.61039893 134.06631445 126.18414035 132 128.125 C128.24774669 131.39610581 128.24774669 131.39610581 126.86628723 135.95028687 C126.86247543 136.74963654 126.85866364 137.54898621 126.85473633 138.37255859 C126.84844208 139.28395599 126.84214783 140.19535339 126.83566284 141.1343689 C126.83446442 142.12901154 126.83326599 143.12365417 126.83203125 144.1484375 C126.82793243 145.18102692 126.82383362 146.21361633 126.8196106 147.27749634 C126.81000508 150.6433642 126.81008712 154.00912037 126.8125 157.375 C126.81191086 159.0765625 126.81191086 159.0765625 126.81130981 160.8125 C125.04011351 188.06477279 125.04011351 188.06477279 130 214 C130.48320315 219.19443385 129.20155845 222.4134199 127 227 C124.75006641 227.02707139 122.50003905 227.04642829 120.25 227.0625 C118.99703125 227.07410156 117.7440625 227.08570313 116.453125 227.09765625 C113 227 113 227 110.94140625 226.37109375 C107.89380418 225.78855412 105.58156678 226.98524071 102.6875 228 C92.40592319 231.09196222 82.75805955 230.21142884 72.6640625 226.68359375 C69.22083255 225.800067 65.9239023 225.70599605 62.375 225.5625 C56.14006954 225.2535904 52.19413197 224.46275464 47 221 C44.16950436 216.75425655 44.9034078 212.71424073 45.078125 207.8046875 C45.16337735 203.95412297 45.19428236 202.29142354 43 199 C42.01 199 41.02 199 40 199 C38.06306255 201.61485148 38.06306255 201.61485148 36.3125 204.875 C35.68988281 205.96554687 35.06726563 207.05609375 34.42578125 208.1796875 C32.84961179 210.77077627 32.84961179 210.77077627 33 213 C33.845625 213.969375 34.69125 214.93875 35.5625 215.9375 C36.366875 216.948125 37.17125 217.95875 38 219 C37.67 219.99 37.34 220.98 37 222 C28.37322245 223.03063272 22.32151451 220.47168449 15 216 C14.34 215.34 13.68 214.68 13 214 C13.17399457 210.1721195 13.87660358 208.17948569 16.0625 205 C18.24951536 201.61365363 18.62866877 199.95163226 18 196 C16.515 195.01 16.515 195.01 15 194 C14.7525 194.825 14.505 195.65 14.25 196.5 C12.81295189 200.52373471 10.97645485 204.21979024 9 208 C7.68 207.67 6.36 207.34 5 207 C4.54374066 202.30579333 6.03558613 199.52672225 8.25 195.4375 C10.70356744 190.84420765 12.52252868 186.56228752 13.875 181.5 C15.57268497 175.91240208 17.91710594 174.26061438 22.8828125 171.4765625 C26.61643957 168.87266761 27.62870105 165.19085749 29 161 C29.27328125 160.30003906 29.5465625 159.60007812 29.828125 158.87890625 C31.90274482 153.33641701 32.73771088 147.77653331 33.47265625 141.91796875 C33.95980588 139.22240749 34.62998623 137.34778294 36 135 C31.65899769 136.68816757 27.49393636 138.65263572 23.3046875 140.68359375 C14.70698883 144.10844535 6.79771444 145.48353689 -2.4375 145.3125 C-3.44159912 145.3012207 -4.44569824 145.28994141 -5.48022461 145.27832031 C-25.93582275 144.90028056 -25.93582275 144.90028056 -32 139 C-33.125 136.1875 -33.125 136.1875 -33 133 C-31.86518597 130.49504183 -30.48128127 128.33414018 -29 126 C-29 125.34 -29 124.68 -29 124 C-29.95253662 123.99383667 -29.95253662 123.99383667 -30.92431641 123.98754883 C-33.82546477 123.95447902 -36.72455014 123.88382254 -39.625 123.8125 C-40.62402344 123.80669922 -41.62304688 123.80089844 -42.65234375 123.79492188 C-50.99935165 123.54616998 -50.99935165 123.54616998 -54.54296875 120.7578125 C-56.80375756 118.22026576 -58.30061362 116.14284764 -59.6875 113.0625 C-60.1 112.19367188 -60.5125 111.32484375 -60.9375 110.4296875 C-61.76116825 108.54615203 -62.49376171 106.62266471 -63.1875 104.6875 C-65.65769137 101.02480245 -68.63403037 99.90401363 -72.625 98.17578125 C-74.99285846 97.00353553 -76.39039036 96.08121501 -78 94 C-78.69141623 89.92064425 -78.90859132 87.53179178 -76.78125 83.9453125 C-69.39357349 74.98949711 -58.70408338 69.49549688 -48.6875 64 C-47.53701172 63.3620752 -46.38652344 62.72415039 -45.20117188 62.06689453 C-38.82463314 58.54738272 -32.39488823 55.15235242 -25.89453125 51.8671875 C-25.23144455 51.53068176 -24.56835785 51.19417603 -23.88517761 50.84747314 C-20.66780124 49.21629437 -17.44407998 47.60102237 -14.20581055 46.01171875 C-12.46424683 45.13580078 -12.46424683 45.13580078 -10.6875 44.2421875 C-9.66011719 43.7354248 -8.63273437 43.22866211 -7.57421875 42.70654297 C-4.69396204 40.79711634 -3.52660856 39.06428894 -2 36 C-2.62567871 36.36351562 -3.25135742 36.72703125 -3.89599609 37.1015625 C-6.71977077 38.73883754 -9.54731402 40.36949016 -12.375 42 C-13.35984375 42.57234375 -14.3446875 43.1446875 -15.359375 43.734375 C-16.30039063 44.27578125 -17.24140625 44.8171875 -18.2109375 45.375 C-19.08024902 45.87773437 -19.94956055 46.38046875 -20.84521484 46.8984375 C-23 48 -23 48 -25 48 C-23.53514636 43.83552081 -21.47103299 40.5434279 -18.9375 36.9375 C-18.35174194 36.1007373 -18.35174194 36.1007373 -17.75415039 35.24707031 C-14.17188019 30.16366512 -10.43273423 25.20275035 -6.65234375 20.265625 C-4.90179201 18.33270079 -4.90179201 18.33270079 -5 17 C-7.31 18.32 -9.62 19.64 -12 21 C-10.63927961 16.09248385 -8.40341004 12.32636924 -5.4375 8.25 C-2.49814037 4.26198325 -2.49814037 4.26198325 0 0 Z " fill="#808A6C" transform="translate(162,233)"/>
<path d="M0 0 C5.54160124 4.06689413 10.22305509 9.06369653 12.42578125 15.671875 C12.96343299 21.54197432 13.18380935 26.85073245 10.42578125 32.171875 C6.71704911 39.37965831 8.01743864 47.92599063 9.42578125 55.671875 C10.49828125 55.81625 11.57078125 55.960625 12.67578125 56.109375 C15.26672715 56.83400574 16.18661422 57.29274527 17.640625 59.59765625 C18.27344879 61.10982554 18.86472494 62.64028556 19.40625 64.1875 C21.72509924 69.83802919 25.41397161 73.83718101 29.80078125 77.984375 C48.16660925 95.82581349 49.02132037 120.67029113 49.58984375 144.9296875 C49.62219729 147.19786681 49.6508142 149.46610236 49.67578125 151.734375 C49.70792725 153.37780884 49.70792725 153.37780884 49.74072266 155.05444336 C49.74507324 156.09479736 49.74942383 157.13515137 49.75390625 158.20703125 C49.76325195 159.139104 49.77259766 160.07117676 49.78222656 161.03149414 C49.34969888 164.23545775 48.32351342 166.07235992 46.42578125 168.671875 C42.63769832 171.19726362 39.79101436 170.99888724 35.42578125 170.671875 C34.68585938 170.62675781 33.9459375 170.58164063 33.18359375 170.53515625 C26.85974487 169.69270579 24.36764299 166.80246778 20.4375 161.984375 C14.06993591 154.66476735 3.64550833 149.45759478 -5.95214844 148.41308594 C-21.03790904 147.49512347 -32.24407502 149.51290242 -44.57421875 158.671875 C-45.21617187 159.40535156 -45.858125 160.13882813 -46.51953125 160.89453125 C-48.57421875 162.671875 -48.57421875 162.671875 -51.54296875 163.1484375 C-55.17865225 162.57684808 -56.41591457 161.54605534 -59.07421875 159.046875 C-66.5508155 152.68837958 -76.52863105 147.55021563 -86.57421875 147.671875 C-87.75242188 147.77371094 -88.930625 147.87554687 -90.14453125 147.98046875 C-100.15051977 148.72509469 -100.15051977 148.72509469 -103.67578125 146.1171875 C-105.5749943 143.41338172 -107.03374911 140.5971109 -108.57421875 137.671875 C-109.5505316 136.14811616 -110.54281682 134.63452738 -111.546875 133.12890625 C-112.6396359 131.47676947 -113.73208117 129.82442389 -114.82421875 128.171875 C-115.34459717 127.38965576 -115.86497559 126.60743652 -116.40112305 125.80151367 C-122.66342223 116.00527757 -124.93782144 106.28774976 -123.57421875 94.671875 C-122.02379356 89.20847196 -119.73508729 84.17534549 -117.3515625 79.03515625 C-116.99191406 78.25527344 -116.63226563 77.47539063 -116.26171875 76.671875 C-115.77251953 75.681875 -115.77251953 75.681875 -115.2734375 74.671875 C-114.42854375 72.25519566 -114.45508232 70.21345214 -114.57421875 67.671875 C-115.1775 67.38054687 -115.78078125 67.08921875 -116.40234375 66.7890625 C-122.73888547 63.53902981 -126.08681511 60.55565118 -128.69921875 53.734375 C-131.19223521 49.66244812 -134.42242342 47.74346504 -138.39453125 45.1875 C-140.57421875 43.671875 -140.57421875 43.671875 -141.57421875 41.671875 C-141.80755208 35.13854167 -141.80755208 35.13854167 -140.57421875 32.671875 C-140.58304945 29.35594684 -140.70615779 26.05171485 -140.83203125 22.73828125 C-140.57421875 19.671875 -140.57421875 19.671875 -139.2421875 17.7890625 C-136.5683611 15.99816238 -134.71910468 16.24022399 -131.57421875 16.671875 C-129.56806741 17.99593488 -127.56752717 19.32855846 -125.57421875 20.671875 C-123.45379119 20.8295335 -123.45379119 20.8295335 -121.57421875 19.671875 C-120.91421875 19.011875 -120.25421875 18.351875 -119.57421875 17.671875 C-116.21879678 15.43492702 -114.82578865 15.40081457 -110.88671875 15.234375 C-106.28149796 15.02478931 -103.23651372 14.27624363 -99.19921875 12.046875 C-96.08260959 10.32598648 -94.77774524 9.67927596 -91.13671875 9.546875 C-87.86626473 10.98268408 -86.99261855 12.44107546 -85.57421875 15.671875 C-85.57421875 16.331875 -85.57421875 16.991875 -85.57421875 17.671875 C-84.60484375 17.94 -83.63546875 18.208125 -82.63671875 18.484375 C-81.62609375 18.87625 -80.61546875 19.268125 -79.57421875 19.671875 C-79.07921875 21.156875 -79.07921875 21.156875 -78.57421875 22.671875 C-79.04859375 23.21972656 -79.52296875 23.76757812 -80.01171875 24.33203125 C-82.32569243 27.79720683 -81.84009955 31.11775431 -81.57421875 35.109375 C-81.55488281 35.86025391 -81.53554687 36.61113281 -81.515625 37.38476562 C-81.26569987 41.69029406 -80.89960265 43.28647364 -78.01171875 46.70703125 C-77.20734375 47.35542969 -76.40296875 48.00382812 -75.57421875 48.671875 C-76.57421875 50.671875 -77.57421875 52.671875 -78.57421875 54.671875 C-78.85232125 58.2739645 -79.02154099 61.87584321 -79.1953125 65.484375 C-79.57421875 68.671875 -79.57421875 68.671875 -81.57421875 70.671875 C-84.17578125 71.0859375 -84.17578125 71.0859375 -87.19921875 71.296875 C-88.70355469 71.40902344 -88.70355469 71.40902344 -90.23828125 71.5234375 C-91.00914062 71.57242188 -91.78 71.62140625 -92.57421875 71.671875 C-94.25650099 77.96333703 -94.09771284 82.9727858 -90.9609375 88.70703125 C-88.94925496 91.55738707 -86.50734683 93.60445724 -83.8125 95.796875 C-79.80969108 99.15001336 -76.22544594 102.94458058 -72.57421875 106.671875 C-68.8538238 105.43174335 -68.06657013 104.0128319 -65.69921875 100.921875 C-55.12995149 87.68011765 -43.119833 73.73991626 -26.1171875 70.55078125 C-22.52881929 69.66061273 -19.70702264 68.6351614 -16.57421875 66.671875 C-15.59548337 63.07802446 -15.59548337 63.07802446 -15.57421875 59.671875 C-17.05921875 60.166875 -17.05921875 60.166875 -18.57421875 60.671875 C-22.66016708 61.8583876 -26.33764269 61.82052679 -30.57421875 61.671875 C-31.02861328 60.45951172 -31.02861328 60.45951172 -31.4921875 59.22265625 C-34.69232619 51.00101871 -34.69232619 51.00101871 -40.57421875 44.671875 C-40.22359375 43.764375 -39.87296875 42.856875 -39.51171875 41.921875 C-37.30595421 34.17018817 -38.79280395 25.65294848 -42.57421875 18.671875 C-43.13109375 17.99125 -43.68796875 17.310625 -44.26171875 16.609375 C-46.18512444 13.77006184 -46.12187126 12.02624661 -45.57421875 8.671875 C-43.40158375 6.09901776 -41.59428037 4.18190581 -38.57421875 2.671875 C-36.96915716 2.7040347 -35.36475201 2.77253425 -33.76171875 2.859375 C-29.12342373 2.92598237 -25.51816747 2.17634836 -21.13671875 0.671875 C-14.1035698 -1.63913598 -6.91205004 -3.56615632 0 0 Z " fill="#808A6C" transform="translate(302.57421875,40.328125)"/>
<path d="M0 0 C10.24589969 6.29440937 17.2706005 16.64506009 24.4375 26.0625 C27.98523025 22.66414787 30.94546349 19.17237024 33.8125 15.1875 C40.08491513 6.7306617 45.57130492 -0.13437593 56.4375 -1.9375 C66.64880823 -2.66989728 74.28844847 -1.35271078 82.4375 5.0625 C89.60923046 11.83409099 92.47582955 18.2329276 92.875 28.0625 C92.42572106 42.8325453 80.97829989 52.84460811 71.0949707 62.61083984 C69.50085909 64.18665078 67.91494074 65.77036129 66.33007812 67.35546875 C62.14239414 71.52822156 57.96348529 75.68599787 53.46484375 79.52734375 C47.64032606 84.51224375 42.33350864 90.06148416 36.9375 95.5 C35.81794368 96.6245833 34.69815371 97.74893405 33.578125 98.87304688 C30.86188466 101.60019344 28.14881708 104.33045907 25.4375 107.0625 C18.51155523 102.31989319 12.78804054 96.61403971 6.9375 90.625 C1.55480776 85.13805189 -3.80841029 79.74777973 -9.65039062 74.74975586 C-13.83024867 71.06142606 -17.66107837 67.00105877 -21.5625 63.0234375 C-25.4943979 59.04546267 -29.51846693 55.26431167 -33.77636719 51.63598633 C-40.40746277 45.79435005 -44.70028962 39.22114557 -45.9453125 30.328125 C-46.32847878 21.2854007 -43.63127947 14.22315097 -37.9375 7.25 C-28.19659031 -2.77531581 -13.04962502 -5.86109919 0 0 Z " fill="#EBA988" transform="translate(226.5625,207.9375)"/>
<path d="M0 0 C1.4540625 0.0309375 1.4540625 0.0309375 2.9375 0.0625 C3.58584654 1.332053 4.23107815 2.60319706 4.875 3.875 C5.23464844 4.58269531 5.59429687 5.29039062 5.96484375 6.01953125 C7.47431492 9.19002692 8.05505538 11.73499204 8.078125 15.203125 C8.27756642 25.25656008 9.33299931 33.5129548 12.8515625 42.9296875 C14.28727472 47.07156231 14.46141091 49.72152389 13.9375 54.0625 C13.90011719 54.82175781 13.86273438 55.58101563 13.82421875 56.36328125 C13.42781517 59.97824522 12.86081196 62.23368478 10.10546875 64.70703125 C3.08289112 68.74821606 -5.0671765 69.86114497 -13.0625 69.0625 C-16.30799739 67.53466242 -18.65891064 65.71182374 -21.0625 63.0625 C-20.386817 58.76417921 -18.92623953 55.0685003 -17.25 51.0625 C-10.9774388 35.70502329 -6.84289954 19.59870621 -4.45703125 3.1875 C-3.83336735 -0.17164021 -3.55181049 0.07248593 0 0 Z " fill="#FCFDFC" transform="translate(242.0625,383.9375)"/>
<path d="M0 0 C0.66 0 1.32 0 2 0 C2.82546771 5.78487768 3.18263271 11.40925198 3.1875 17.25 C3.19974609 18.03890625 3.21199219 18.8278125 3.22460938 19.640625 C3.2438873 27.24898027 3.2438873 27.24898027 1 30 C-1.0234375 30.90625 -1.0234375 30.90625 -3.375 31.5 C-7.36199036 32.51341561 -9.41818677 33.74882778 -12 37 C-13.12150292 39.59067174 -14.09652617 42.0881656 -15 44.75 C-17.00519674 50.38953617 -19.14255533 55.72471753 -22 61 C-22.66 60.67 -23.32 60.34 -24 60 C-22.689804 53.44902002 -20.85681147 47.40867108 -18.4375 41.1875 C-18.09033936 40.28604248 -17.74317871 39.38458496 -17.38549805 38.45581055 C-12.27209579 25.36317805 -6.52247505 12.45497747 0 0 Z " fill="#F8F8F7" transform="translate(214,382)"/>
<path d="M0 0 C0.99 0 1.98 0 3 0 C3.14533755 3.582906 3.23407931 7.16505417 3.3125 10.75 C3.35439453 11.76578125 3.39628906 12.7815625 3.43945312 13.828125 C3.563445 21.36683104 3.563445 21.36683104 0.6640625 24.625 C-4.1254386 27.09700057 -8.55348437 28.84723577 -14 28 C-16.59381578 25.23884126 -16.96461684 23.38213812 -17.3125 19.625 C-15.54842187 14.75278422 -12.79263694 13.53575163 -8.51953125 10.83984375 C-4.85564989 8.16435829 -3.07088039 4.94912074 -1 1 C-0.67 0.67 -0.34 0.34 0 0 Z " fill="#FAFAF9" transform="translate(252,162)"/>
<path d="M0 0 C0.66 0 1.32 0 2 0 C2.3403125 1.05316406 2.680625 2.10632813 3.03125 3.19140625 C7.06374267 15.31575811 12.37185576 26.08305655 19 37 C18.01 37.495 18.01 37.495 17 38 C14.9552718 34.87699361 12.91480541 31.75122351 10.875 28.625 C10.30523437 27.75488281 9.73546875 26.88476562 9.1484375 25.98828125 C7.41837796 23.33421263 5.70655799 20.66923173 4 18 C3.41637695 17.10249023 2.83275391 16.20498047 2.23144531 15.28027344 C1.40918457 13.97751465 1.40918457 13.97751465 0.5703125 12.6484375 C0.07547363 11.87419434 -0.41936523 11.09995117 -0.92919922 10.30224609 C-2.17845514 7.61631739 -2.34922207 5.9304806 -2 3 C-1.34 2.01 -0.68 1.02 0 0 Z " fill="#F2F3EF" transform="translate(281,315)"/>
</svg>
