<?xml version="1.0" encoding="UTF-8"?>
<svg version="1.1" xmlns="http://www.w3.org/2000/svg" width="500" height="500">
<path d="M0 0 C165 0 330 0 500 0 C500 165 500 330 500 500 C335 500 170 500 0 500 C0 335 0 170 0 0 Z " fill="#FEFEFE" transform="translate(0,0)"/>
<path d="M0 0 C0.33 0 0.66 0 1 0 C1.03963867 0.55349121 1.07927734 1.10698242 1.12011719 1.67724609 C1.60712443 18.63688919 1.60712443 18.63688919 9.875 32.5 C16.8313138 35.83903062 23.26169575 36.55306458 30.875 37.125 C31.94492187 37.21136719 33.01484375 37.29773438 34.1171875 37.38671875 C36.74433699 37.59782898 39.37183211 37.80204403 42 38 C42 38.33 42 38.66 42 39 C40.92363281 39.03738281 39.84726562 39.07476562 38.73828125 39.11328125 C22.74627653 39.32412844 22.74627653 39.32412844 8.375 45.25 C2.61781172 51.916218 2.3614179 58.95193426 1.8125 67.4375 C1.73064453 68.55060547 1.64878906 69.66371094 1.56445312 70.81054688 C1.36532343 73.53979509 1.17962625 76.26942042 1 79 C1.7494136 78.69403397 2.49882721 78.38806793 3.27095032 78.0728302 C12.13712871 74.54736777 21.11063915 71.81456193 30.29296875 69.26171875 C31.86637647 68.81931791 33.4396352 68.37638691 35.01275635 67.93296814 C39.20361641 66.75349127 43.39663435 65.5818813 47.59028244 64.41236115 C51.07334945 63.44026702 54.55533945 62.46434591 58.03734684 61.48846436 C65.9692993 59.26550359 73.90294427 57.04867417 81.83789062 54.83642578 C89.03322935 52.83029433 96.22578852 50.81452777 103.41614056 48.79060078 C109.50761179 47.07627772 115.60161622 45.37117141 121.69692993 43.67056274 C124.17720341 42.97727763 126.65668734 42.28116122 129.13534546 41.5821228 C132.54492002 40.62162322 135.95747384 39.67256732 139.37109375 38.7265625 C140.35603821 38.44642807 141.34098267 38.16629364 142.35577393 37.87767029 C147.40735765 36.49180722 151.76023867 35.68511809 157 36 C157.15534328 42.08228695 156.77290175 47.46389175 155.375 53.375 C155.19461182 54.15625244 155.01422363 54.93750488 154.82836914 55.74243164 C152.9599728 63.57559518 150.52644329 71.19344279 148.0234375 78.84228516 C146.03148043 84.98827102 144.10077922 91.1537401 142.16360474 97.31716919 C141.45990604 99.55378526 140.75349621 101.78952952 140.04663086 104.02514648 C135.48721099 118.47641323 131.1954355 132.99327282 127.25 147.625 C126.94707031 148.72972656 126.64414062 149.83445313 126.33203125 150.97265625 C119.45793194 176.42209949 126.05137334 197.92546507 133.37890625 222.45703125 C134.71752874 226.96925047 135.9039922 231.48560906 137 236.0625 C138.52349219 242.35013304 140.33562066 248.50826784 142.25 254.6875 C145.11279715 263.93774627 147.79418511 273.23047194 150.375 282.5625 C150.72079102 283.80539795 151.06658203 285.0482959 151.42285156 286.32885742 C151.74479492 287.50037354 152.06673828 288.67188965 152.3984375 289.87890625 C152.68380371 290.9160376 152.96916992 291.95316895 153.26318359 293.02172852 C154 296 154 296 154.35009766 299.25756836 C154.56456543 300.1625708 154.7790332 301.06757324 155 302 C156.85566792 303.14515456 156.85566792 303.14515456 159 304 C160.17148751 305.50844855 161.30681948 307.045345 162.4140625 308.6015625 C164.91648183 311.49306693 166.25415189 312.83014862 170.01464844 313.68652344 C173.5048558 313.77785788 176.89369719 313.63838804 180.375 313.375 C190.17971055 312.82307921 198.40556618 312.68900855 207.0625 317.8125 C209 320 209 320 210.25 322.75 C209.91687067 327.08068132 208.43649325 328.83842087 205.46484375 331.921875 C184.01519098 350.00620983 147.8946276 358.87398789 120.4375 359.4375 C119.71103271 359.46005859 118.98456543 359.48261719 118.23608398 359.50585938 C111.92793759 359.47673253 106.5070172 357.5070172 102 353 C101.37107241 349.50595784 101.329844 347.09896965 103.21484375 344.0078125 C111.01144893 334.57850648 121.98140639 328.87246949 133 324 C133.66 324 134.32 324 135 324 C134.98839844 323.30132812 134.97679687 322.60265625 134.96484375 321.8828125 C134.95582031 320.97273438 134.94679688 320.06265625 134.9375 319.125 C134.92589844 318.22007812 134.91429687 317.31515625 134.90234375 316.3828125 C135 314 135 314 136 312 C136.66832038 304.91937063 135.44280136 298.83503107 133.3125 292.125 C132.75492072 290.27821436 132.20030323 288.43053228 131.6484375 286.58203125 C131.36967773 285.65342285 131.09091797 284.72481445 130.80371094 283.76806641 C129.55844654 279.47924268 128.49270275 275.15131035 127.4375 270.8125 C125.36927391 262.39104901 123.13282518 254.03263582 120.76269531 245.69140625 C119.87432197 242.55650619 118.99622206 239.41878114 118.1171875 236.28125 C114.74613659 224.3059158 111.28934331 212.40086451 107.2265625 200.640625 C106.21795782 197.64693212 105.35949587 194.67855045 104.5625 191.625 C99.31766921 174.16209747 84.23637541 161.07088889 71.75 148.5625 C71.23075958 148.0420813 70.71151917 147.5216626 70.17654419 146.98547363 C64.29852096 141.10895744 58.35627996 135.36360059 52 130 C51.4332959 129.51684326 50.8665918 129.03368652 50.28271484 128.53588867 C49.1825735 127.5984035 48.08136078 126.66217392 46.97900391 125.72729492 C41.01751258 120.66622808 35.19860448 115.48124773 29.47607422 110.15185547 C26.66639755 107.53553289 23.83974324 104.9507828 20.9375 102.4375 C17.52686278 99.47677663 14.15891456 96.4704903 10.8125 93.4375 C10.31290771 92.99011475 9.81331543 92.54272949 9.29858398 92.08178711 C7.83773386 90.75128752 6.4185529 89.37550715 5 88 C4.07832031 87.14148438 3.15664062 86.28296875 2.20703125 85.3984375 C-1.31426895 81.04463886 -0.92165392 75.54993292 -1.125 70.1875 C-1.65930503 55.85830989 -1.65930503 55.85830989 -9 44 C-19.01132812 38.74714265 -30.9960029 39.21942168 -42 39 C-42 38.67 -42 38.34 -42 38 C-41.38592285 37.95512451 -40.7718457 37.91024902 -40.13916016 37.86401367 C-37.30011352 37.64995222 -34.46269109 37.41881372 -31.625 37.1875 C-30.65949219 37.11724609 -29.69398438 37.04699219 -28.69921875 36.97460938 C-20.83933832 36.31522343 -12.91759073 35.02376659 -6 31 C-4.77227173 28.76740335 -4.77227173 28.76740335 -4 26 C-3.67515625 24.99195312 -3.3503125 23.98390625 -3.015625 22.9453125 C-1.71723391 18.38419024 -1.31185171 13.77118848 -0.875 9.0625 C-0.78863281 8.18787109 -0.70226562 7.31324219 -0.61328125 6.41210938 C-0.40310303 4.27529746 -0.20074482 2.13771878 0 0 Z " fill="#FDFDFC" transform="translate(239,34)"/>
<path d="M0 0 C11.72531614 -0.77449046 23.10676664 1.52431045 34.625 3.4375 C36.8379201 3.79833278 39.05089314 4.15884108 41.26391602 4.51904297 C59.97936125 7.58583528 78.64449968 10.92575072 97.30032349 14.33399963 C98.3059433 14.517686 99.31156311 14.70137238 100.34765625 14.890625 C101.83252029 15.1618644 101.83252029 15.1618644 103.34738159 15.43858337 C109.72364344 16.59871732 116.1057125 17.71730021 122.49609375 18.796875 C123.30676804 18.93398895 124.11744232 19.07110291 124.9526825 19.21237183 C128.64948709 19.8359429 132.34724369 20.45298176 136.04663086 21.06103516 C155.70118756 24.35059378 155.70118756 24.35059378 161 27 C159.56915116 33.20034498 155.97944996 37.2260915 152 42 C151.18015625 42.99386719 150.3603125 43.98773438 149.515625 45.01171875 C143.41321654 52.35143539 137.03319995 59.4033303 130.51611328 66.375 C127.99919912 69.07267805 125.50049978 71.78711672 123 74.5 C122.00139677 75.58211863 121.0026988 76.66414985 120.00390625 77.74609375 C119.50906738 78.28218262 119.01422852 78.81827148 118.50439453 79.37060547 C116.48632791 81.55635305 114.4673744 83.74128071 112.44848633 85.92626953 C110.94644841 87.55280987 109.44578254 89.1806071 107.9453125 90.80859375 C106.00809743 92.91012046 104.06491599 95.00587286 102.1171875 97.09765625 C96.94240514 102.67228782 91.95370257 108.35293627 87.1875 114.28515625 C85.70758567 116.12183564 84.2068328 117.94188605 82.6875 119.74609375 C80.40804787 122.460644 78.19556872 125.21733781 76 128 C75.35804688 128.76828125 74.71609375 129.5365625 74.0546875 130.328125 C67.18213199 139.55103499 66.02965153 150.96088435 64 162 C63.62286504 163.94826038 63.24397211 165.89618132 62.86328125 167.84375 C57.50935299 195.63340112 52.87305257 223.60259153 48.5 251.5625 C48.34007568 252.57062744 48.18015137 253.57875488 48.01538086 254.61743164 C46.56134621 264.01667527 46.56134621 264.01667527 49 273.0625 C50.60343865 276.58672453 51.22147036 279.11734768 51 283 C51.81984375 283.0928125 52.6396875 283.185625 53.484375 283.28125 C57.73537961 284.15034428 61.33572 285.66429239 65.25 287.5 C65.99709229 287.85022217 66.74418457 288.20044434 67.51391602 288.5612793 C75.02802705 292.24798406 81.30009458 296.95014187 86 304 C86.375 306.9375 86.375 306.9375 86 310 C81.63679483 315.28542808 76.57572252 316.10360797 70 317 C52.36514464 318.13465395 35.45007629 315.97004595 18.1875 312.625 C17.16164795 312.42817627 16.1357959 312.23135254 15.07885742 312.02856445 C5.2936141 310.04790845 -4.19097568 307.33038442 -13 302.5625 C-14.051875 302.00691406 -15.10375 301.45132812 -16.1875 300.87890625 C-20.38588168 298.07415405 -22.54360339 295.32114807 -24.1875 290.5625 C-23.98295755 286.67619339 -23.80824925 286.25893144 -21.125 283.75 C-13.42995324 277.3792171 -3.9096575 277.60806495 5.5625 277.8125 C7.36170898 277.83280273 7.36170898 277.83280273 9.19726562 277.85351562 C12.13198879 277.888592 15.06574882 277.93774573 18 278 C18.29962646 277.22043945 18.59925293 276.44087891 18.90795898 275.63769531 C20.01364509 272.96704192 21.29538917 271.02510092 23.0625 268.75 C23.85333984 267.72132813 23.85333984 267.72132813 24.66015625 266.671875 C26 265 26 265 27 264 C27.31563877 262.51177685 27.57672421 261.01191534 27.81445312 259.50927734 C27.96845581 258.55542145 28.1224585 257.60156555 28.28112793 256.61880493 C28.52868835 255.05566055 28.52868835 255.05566055 28.78125 253.4609375 C30.17048621 244.90642378 31.62991608 236.37132228 33.21875 227.8515625 C33.49742165 226.35490051 33.49742165 226.35490051 33.78172302 224.82800293 C34.16081961 222.79520307 34.54037344 220.76248842 34.92037964 218.7298584 C38.08888755 201.75707925 41.16076324 184.79520233 43.60888672 167.70117188 C44.07063518 164.51216754 44.55018445 161.32618035 45.03515625 158.140625 C45.19508057 157.08907227 45.35500488 156.03751953 45.51977539 154.95410156 C45.82615062 153.06943439 46.16551196 151.18963337 46.54760742 149.31884766 C47.14955755 146.23340655 47.20944856 143.26773661 47.25 140.125 C47.27578125 138.95195312 47.3015625 137.77890625 47.328125 136.5703125 C46.85354007 124.72388856 43.06423032 113.01508125 39.3125 101.875 C39.08068024 101.17946014 38.84886047 100.48392029 38.61001587 99.76730347 C33.35586673 84.10530011 26.76204909 69.08015381 20.06784058 53.9924469 C16.29147801 45.45259142 12.72894723 36.82684475 9.1875 28.1875 C8.8928183 27.47103302 8.5981366 26.75456604 8.29452515 26.01638794 C6.51298658 21.68423406 4.75063819 17.34475971 3 13 C2.65404785 12.16162598 2.3080957 11.32325195 1.95166016 10.45947266 C0.48105565 6.78253315 -0.11964298 3.93730352 0 0 Z " fill="#FDFDFC" transform="translate(76,87)"/>
<path d="M0 0 C0.33 0 0.66 0 1 0 C1.03963867 0.55349121 1.07927734 1.10698242 1.12011719 1.67724609 C1.60712443 18.63688919 1.60712443 18.63688919 9.875 32.5 C16.8313138 35.83903062 23.26169575 36.55306458 30.875 37.125 C31.94492187 37.21136719 33.01484375 37.29773438 34.1171875 37.38671875 C36.74433699 37.59782898 39.37183211 37.80204403 42 38 C42 38.33 42 38.66 42 39 C40.92363281 39.03738281 39.84726562 39.07476562 38.73828125 39.11328125 C22.74627653 39.32412844 22.74627653 39.32412844 8.375 45.25 C2.61781172 51.916218 2.3614179 58.95193426 1.8125 67.4375 C1.73064453 68.55060547 1.64878906 69.66371094 1.56445312 70.81054688 C1.36532343 73.53979509 1.17962625 76.26942042 1 79 C1.7494136 78.69403397 2.49882721 78.38806793 3.27095032 78.0728302 C12.13712871 74.54736777 21.11063915 71.81456193 30.29296875 69.26171875 C31.86637647 68.81931791 33.4396352 68.37638691 35.01275635 67.93296814 C39.20361641 66.75349127 43.39663435 65.5818813 47.59028244 64.41236115 C51.07334945 63.44026702 54.55533945 62.46434591 58.03734684 61.48846436 C65.9692993 59.26550359 73.90294427 57.04867417 81.83789062 54.83642578 C89.03322935 52.83029433 96.22578852 50.81452777 103.41614056 48.79060078 C109.50761179 47.07627772 115.60161622 45.37117141 121.69692993 43.67056274 C124.17720341 42.97727763 126.65668734 42.28116122 129.13534546 41.5821228 C132.54492002 40.62162322 135.95747384 39.67256732 139.37109375 38.7265625 C140.35603821 38.44642807 141.34098267 38.16629364 142.35577393 37.87767029 C147.40735765 36.49180722 151.76023867 35.68511809 157 36 C157.15534328 42.08228695 156.77290175 47.46389175 155.375 53.375 C155.19461182 54.15625244 155.01422363 54.93750488 154.82836914 55.74243164 C152.9599728 63.57559518 150.52644329 71.19344279 148.0234375 78.84228516 C146.03148043 84.98827102 144.10077922 91.1537401 142.16360474 97.31716919 C141.45990604 99.55378526 140.75349621 101.78952952 140.04663086 104.02514648 C135.48721099 118.47641323 131.1954355 132.99327282 127.25 147.625 C126.94707031 148.72972656 126.64414062 149.83445313 126.33203125 150.97265625 C119.45793194 176.42209949 126.05137334 197.92546507 133.37890625 222.45703125 C134.71752874 226.96925047 135.9039922 231.48560906 137 236.0625 C138.52349219 242.35013304 140.33562066 248.50826784 142.25 254.6875 C145.11279715 263.93774627 147.79418511 273.23047194 150.375 282.5625 C150.72079102 283.80539795 151.06658203 285.0482959 151.42285156 286.32885742 C151.74479492 287.50037354 152.06673828 288.67188965 152.3984375 289.87890625 C152.68380371 290.9160376 152.96916992 291.95316895 153.26318359 293.02172852 C154 296 154 296 154.35009766 299.25756836 C154.56456543 300.1625708 154.7790332 301.06757324 155 302 C156.85566792 303.14515456 156.85566792 303.14515456 159 304 C160.17148751 305.50844855 161.30681948 307.045345 162.4140625 308.6015625 C164.91648183 311.49306693 166.25415189 312.83014862 170.01464844 313.68652344 C173.5048558 313.77785788 176.89369719 313.63838804 180.375 313.375 C190.17971055 312.82307921 198.40556618 312.68900855 207.0625 317.8125 C209 320 209 320 210.25 322.75 C209.91687067 327.08068132 208.43649325 328.83842087 205.46484375 331.921875 C184.01519098 350.00620983 147.8946276 358.87398789 120.4375 359.4375 C119.71103271 359.46005859 118.98456543 359.48261719 118.23608398 359.50585938 C111.92793759 359.47673253 106.5070172 357.5070172 102 353 C101.37107241 349.50595784 101.329844 347.09896965 103.21484375 344.0078125 C111.01144893 334.57850648 121.98140639 328.87246949 133 324 C133.66 324 134.32 324 135 324 C134.98839844 323.30132812 134.97679687 322.60265625 134.96484375 321.8828125 C134.95582031 320.97273438 134.94679688 320.06265625 134.9375 319.125 C134.92589844 318.22007812 134.91429687 317.31515625 134.90234375 316.3828125 C135 314 135 314 136 312 C136.66832038 304.91937063 135.44280136 298.83503107 133.3125 292.125 C132.75492072 290.27821436 132.20030323 288.43053228 131.6484375 286.58203125 C131.36967773 285.65342285 131.09091797 284.72481445 130.80371094 283.76806641 C129.55844654 279.47924268 128.49270275 275.15131035 127.4375 270.8125 C125.36927391 262.39104901 123.13282518 254.03263582 120.76269531 245.69140625 C119.87432197 242.55650619 118.99622206 239.41878114 118.1171875 236.28125 C114.74613659 224.3059158 111.28934331 212.40086451 107.2265625 200.640625 C106.21795782 197.64693212 105.35949587 194.67855045 104.5625 191.625 C99.31766921 174.16209747 84.23637541 161.07088889 71.75 148.5625 C71.23075958 148.0420813 70.71151917 147.5216626 70.17654419 146.98547363 C64.29852096 141.10895744 58.35627996 135.36360059 52 130 C51.4332959 129.51684326 50.8665918 129.03368652 50.28271484 128.53588867 C49.1825735 127.5984035 48.08136078 126.66217392 46.97900391 125.72729492 C41.01751258 120.66622808 35.19860448 115.48124773 29.47607422 110.15185547 C26.66639755 107.53553289 23.83974324 104.9507828 20.9375 102.4375 C17.52686278 99.47677663 14.15891456 96.4704903 10.8125 93.4375 C10.31290771 92.99011475 9.81331543 92.54272949 9.29858398 92.08178711 C7.83773386 90.75128752 6.4185529 89.37550715 5 88 C4.07832031 87.14148438 3.15664062 86.28296875 2.20703125 85.3984375 C-1.31426895 81.04463886 -0.92165392 75.54993292 -1.125 70.1875 C-1.65930503 55.85830989 -1.65930503 55.85830989 -9 44 C-19.01132812 38.74714265 -30.9960029 39.21942168 -42 39 C-42 38.67 -42 38.34 -42 38 C-41.38592285 37.95512451 -40.7718457 37.91024902 -40.13916016 37.86401367 C-37.30011352 37.64995222 -34.46269109 37.41881372 -31.625 37.1875 C-30.65949219 37.11724609 -29.69398438 37.04699219 -28.69921875 36.97460938 C-20.83933832 36.31522343 -12.91759073 35.02376659 -6 31 C-4.77227173 28.76740335 -4.77227173 28.76740335 -4 26 C-3.67515625 24.99195312 -3.3503125 23.98390625 -3.015625 22.9453125 C-1.71723391 18.38419024 -1.31185171 13.77118848 -0.875 9.0625 C-0.78863281 8.18787109 -0.70226562 7.31324219 -0.61328125 6.41210938 C-0.40310303 4.27529746 -0.20074482 2.13771878 0 0 Z M146.4375 41.0625 C139.31583745 43.33700524 132.14327309 45.38459609 124.9375 47.375 C116.70918778 49.6495029 108.52851396 52.03325812 100.375 54.5625 C90.78597215 57.52794067 81.12866083 60.11739469 71.40625 62.60546875 C66.64930907 63.82393378 61.91471705 65.10886839 57.1875 66.4375 C49.80540501 68.51040919 42.40583256 70.51360215 35 72.5 C24.65058888 75.27694735 14.31763564 78.10732954 4 81 C7.93634453 85.83309891 7.93634453 85.83309891 12.4375 90.125 C13.12328125 90.71023437 13.8090625 91.29546875 14.515625 91.8984375 C15.33546875 92.59195313 16.1553125 93.28546875 17 94 C18.05805201 94.90796889 19.11528397 95.8168939 20.171875 96.7265625 C25.46281677 101.27885082 30.7691924 105.8117071 36.109375 110.30615234 C42.18296356 115.41989699 48.12760642 120.65621795 54 126 C55.62436435 127.45904132 57.24937427 128.91736421 58.875 130.375 C60.58420917 131.91569559 62.29249794 133.4574127 64 135 C64.96035156 135.86625 65.92070312 136.7325 66.91015625 137.625 C75.25832546 145.19073986 83.53270921 152.87413709 90.875 161.4375 C94.60082107 165.77542025 98.33223921 169.51558646 104 171 C108.23643477 170.92434938 110.34289158 170.5195741 113.6875 167.875 C119.29546325 160.90293758 121.07416001 154.41288726 123.0625 145.8125 C127.67445313 126.65664227 133.90065561 107.96674843 139.94555664 89.2277832 C145.30769178 72.57001217 150.30869643 55.85805365 155 39 C151.94334959 39 149.34232917 40.12047511 146.4375 41.0625 Z " fill="#879074" transform="translate(239,34)"/>
<path d="M0 0 C11.72531614 -0.77449046 23.10676664 1.52431045 34.625 3.4375 C36.8379201 3.79833278 39.05089314 4.15884108 41.26391602 4.51904297 C59.97936125 7.58583528 78.64449968 10.92575072 97.30032349 14.33399963 C98.3059433 14.517686 99.31156311 14.70137238 100.34765625 14.890625 C101.83252029 15.1618644 101.83252029 15.1618644 103.34738159 15.43858337 C109.72364344 16.59871732 116.1057125 17.71730021 122.49609375 18.796875 C123.30676804 18.93398895 124.11744232 19.07110291 124.9526825 19.21237183 C128.64948709 19.8359429 132.34724369 20.45298176 136.04663086 21.06103516 C155.70118756 24.35059378 155.70118756 24.35059378 161 27 C159.56915116 33.20034498 155.97944996 37.2260915 152 42 C151.18015625 42.99386719 150.3603125 43.98773438 149.515625 45.01171875 C143.41321654 52.35143539 137.03319995 59.4033303 130.51611328 66.375 C127.99919912 69.07267805 125.50049978 71.78711672 123 74.5 C122.00139677 75.58211863 121.0026988 76.66414985 120.00390625 77.74609375 C119.50906738 78.28218262 119.01422852 78.81827148 118.50439453 79.37060547 C116.48632791 81.55635305 114.4673744 83.74128071 112.44848633 85.92626953 C110.94644841 87.55280987 109.44578254 89.1806071 107.9453125 90.80859375 C106.00809743 92.91012046 104.06491599 95.00587286 102.1171875 97.09765625 C96.94240514 102.67228782 91.95370257 108.35293627 87.1875 114.28515625 C85.70758567 116.12183564 84.2068328 117.94188605 82.6875 119.74609375 C80.40804787 122.460644 78.19556872 125.21733781 76 128 C75.35804688 128.76828125 74.71609375 129.5365625 74.0546875 130.328125 C67.18213199 139.55103499 66.02965153 150.96088435 64 162 C63.62286504 163.94826038 63.24397211 165.89618132 62.86328125 167.84375 C57.50935299 195.63340112 52.87305257 223.60259153 48.5 251.5625 C48.34007568 252.57062744 48.18015137 253.57875488 48.01538086 254.61743164 C46.56134621 264.01667527 46.56134621 264.01667527 49 273.0625 C50.60343865 276.58672453 51.22147036 279.11734768 51 283 C51.81984375 283.0928125 52.6396875 283.185625 53.484375 283.28125 C57.73537961 284.15034428 61.33572 285.66429239 65.25 287.5 C65.99709229 287.85022217 66.74418457 288.20044434 67.51391602 288.5612793 C75.02802705 292.24798406 81.30009458 296.95014187 86 304 C86.375 306.9375 86.375 306.9375 86 310 C81.63679483 315.28542808 76.57572252 316.10360797 70 317 C52.36514464 318.13465395 35.45007629 315.97004595 18.1875 312.625 C17.16164795 312.42817627 16.1357959 312.23135254 15.07885742 312.02856445 C5.2936141 310.04790845 -4.19097568 307.33038442 -13 302.5625 C-14.051875 302.00691406 -15.10375 301.45132812 -16.1875 300.87890625 C-20.38588168 298.07415405 -22.54360339 295.32114807 -24.1875 290.5625 C-23.98295755 286.67619339 -23.80824925 286.25893144 -21.125 283.75 C-13.42995324 277.3792171 -3.9096575 277.60806495 5.5625 277.8125 C7.36170898 277.83280273 7.36170898 277.83280273 9.19726562 277.85351562 C12.13198879 277.888592 15.06574882 277.93774573 18 278 C18.29962646 277.22043945 18.59925293 276.44087891 18.90795898 275.63769531 C20.01364509 272.96704192 21.29538917 271.02510092 23.0625 268.75 C23.85333984 267.72132813 23.85333984 267.72132813 24.66015625 266.671875 C26 265 26 265 27 264 C27.31563877 262.51177685 27.57672421 261.01191534 27.81445312 259.50927734 C27.96845581 258.55542145 28.1224585 257.60156555 28.28112793 256.61880493 C28.52868835 255.05566055 28.52868835 255.05566055 28.78125 253.4609375 C30.17048621 244.90642378 31.62991608 236.37132228 33.21875 227.8515625 C33.49742165 226.35490051 33.49742165 226.35490051 33.78172302 224.82800293 C34.16081961 222.79520307 34.54037344 220.76248842 34.92037964 218.7298584 C38.08888755 201.75707925 41.16076324 184.79520233 43.60888672 167.70117188 C44.07063518 164.51216754 44.55018445 161.32618035 45.03515625 158.140625 C45.19508057 157.08907227 45.35500488 156.03751953 45.51977539 154.95410156 C45.82615062 153.06943439 46.16551196 151.18963337 46.54760742 149.31884766 C47.14955755 146.23340655 47.20944856 143.26773661 47.25 140.125 C47.27578125 138.95195312 47.3015625 137.77890625 47.328125 136.5703125 C46.85354007 124.72388856 43.06423032 113.01508125 39.3125 101.875 C39.08068024 101.17946014 38.84886047 100.48392029 38.61001587 99.76730347 C33.35586673 84.10530011 26.76204909 69.08015381 20.06784058 53.9924469 C16.29147801 45.45259142 12.72894723 36.82684475 9.1875 28.1875 C8.8928183 27.47103302 8.5981366 26.75456604 8.29452515 26.01638794 C6.51298658 21.68423406 4.75063819 17.34475971 3 13 C2.65404785 12.16162598 2.3080957 11.32325195 1.95166016 10.45947266 C0.48105565 6.78253315 -0.11964298 3.93730352 0 0 Z M3 2 C4.59571263 7.15375533 6.6899523 11.9895975 8.89453125 16.90234375 C9.68718456 18.68265785 10.47974253 20.4630144 11.2722168 22.2434082 C11.6869223 23.17255035 12.10162781 24.1016925 12.52890015 25.05899048 C41.32331481 89.63129199 41.32331481 89.63129199 47.125 111.875 C49.00923575 118.85923386 51.93452464 123.95634976 58 128 C63.59159952 128.57530898 68.11531408 127.38212991 72.625 124.0625 C76.53102384 120.69500301 79.66755937 116.93178275 82.796875 112.84765625 C91.25953396 101.90921941 100.77650101 91.87425827 110.27050781 81.83837891 C112.68644406 79.27033826 115.06290465 76.66885016 117.4375 74.0625 C120.5320346 70.66864286 123.65052581 67.30379917 126.8125 63.97265625 C134.65870467 55.70653763 142.32051525 47.35180676 149.63769531 38.61230469 C151.68860824 36.18502351 153.78305115 33.79545696 155.87646484 31.40478516 C157.10409929 30.16964525 157.10409929 30.16964525 157 29 C156.25610519 28.87995605 155.51221039 28.75991211 154.74577332 28.63623047 C121.11768708 23.20512985 87.52056474 17.7219586 54.059021 11.33087158 C43.98300621 9.41346101 33.87837037 7.65708086 23.77319336 5.90112305 C16.82862808 4.69091593 9.90225812 3.43336657 3 2 Z " fill="#879074" transform="translate(76,87)"/>
<path d="M0 0 C0.99 0 1.98 0 3 0 C2.4250684 4.53683651 1.60359065 8.80214991 0.3125 13.1875 C-0.04714844 14.40953125 -0.40679687 15.6315625 -0.77734375 16.890625 C-0.97440918 17.55126953 -1.17147461 18.21191406 -1.37451172 18.89257812 C-2.03199859 21.10781102 -2.67463365 23.32704193 -3.31640625 25.546875 C-6.06875863 34.98474003 -9.05283633 44.32806114 -12.25 53.625 C-12.76191895 55.12824829 -12.76191895 55.12824829 -13.28417969 56.66186523 C-13.60805664 57.59071533 -13.93193359 58.51956543 -14.265625 59.4765625 C-14.55211914 60.30236816 -14.83861328 61.12817383 -15.13378906 61.97900391 C-16 64 -16 64 -18 66 C-18.36665854 68.30180086 -18.64424038 70.61813032 -18.875 72.9375 C-20.08614881 83.06357783 -21.81701291 91.11422533 -30.09765625 97.7578125 C-34.10538283 100.37476743 -38.3734014 100.91207985 -43 100 C-49.73621566 96.86045775 -56.55794357 93.21331314 -60.38069153 86.61787415 C-61.97017847 84.04821132 -63.59942756 82.15893031 -65.73706055 80.03588867 C-66.47760178 79.2954985 -67.21814301 78.55510834 -67.98112488 77.7922821 C-69.17189384 76.61699699 -69.17189384 76.61699699 -70.38671875 75.41796875 C-71.20372757 74.60378983 -72.02073639 73.7896109 -72.86250305 72.95075989 C-75.46616908 70.35826485 -78.07671242 67.77282117 -80.6875 65.1875 C-82.45683854 63.42819521 -84.22572415 61.66843476 -85.99414062 59.90820312 C-90.32419036 55.60017292 -94.65990347 51.29790719 -99 47 C-96.81193173 44.81193173 -95.95313985 44.56679346 -93.02734375 43.88671875 C-91.81582642 43.59692139 -91.81582642 43.59692139 -90.57983398 43.30126953 C-89.27187866 42.99745361 -89.27187866 42.99745361 -87.9375 42.6875 C-81.551153 41.15096092 -75.22074931 39.54071107 -68.9375 37.625 C-61.51061157 35.37390786 -54.01775686 33.42364003 -46.5 31.5 C-37.4587307 29.18617108 -28.47924472 26.75952098 -19.55078125 24.04296875 C-16 23 -16 23 -13.88964844 22.71484375 C-11.68824784 22.37663131 -9.98513699 22.01752562 -8 21 C-6.20845043 18.4005779 -5.44453746 15.65175797 -4.625 12.625 C-4.16060206 11.09582226 -3.69450875 9.56715816 -3.2265625 8.0390625 C-2.94159912 7.02126709 -2.94159912 7.02126709 -2.65087891 5.98291016 C-1.95543549 3.86423371 -1.04049245 1.9692874 0 0 Z " fill="#EAA988" transform="translate(380,93)"/>
<path d="M0 0 C10.76937757 0.41059246 21.21524976 2.59654173 31.76815796 4.63748169 C37.1189063 5.67158634 42.47374128 6.68413725 47.828125 7.69921875 C48.87981369 7.89909897 49.93150238 8.09897919 51.01506042 8.30491638 C59.72790262 9.95777792 68.44974902 11.54709033 77.1875 13.0625 C78.3417749 13.26584961 79.4960498 13.46919922 80.68530273 13.67871094 C82.25453491 13.94796387 82.25453491 13.94796387 83.85546875 14.22265625 C84.73871826 14.37484619 85.62196777 14.52703613 86.53198242 14.68383789 C91.31182218 15.50801571 91.31182218 15.50801571 95.58984375 13.82250977 C96.03457031 13.28424561 96.47929687 12.74598145 96.9375 12.19140625 C97.69160156 11.31838867 97.69160156 11.31838867 98.4609375 10.42773438 C98.96882813 9.81220703 99.47671875 9.19667969 100 8.5625 C105.25272113 2.23657062 105.25272113 2.23657062 108.875 1.08984375 C109.926875 1.04537109 109.926875 1.04537109 111 1 C109.57918195 5.35665202 107.44390457 7.99886975 104.3125 11.3125 C103.48363281 12.19550781 102.65476562 13.07851562 101.80078125 13.98828125 C101.35573242 14.46144775 100.91068359 14.93461426 100.45214844 15.42211914 C98.82014235 17.19543039 97.23953979 19.00780717 95.66015625 20.828125 C89.33391562 28.09285968 82.63929946 35.02275656 76 42 C75.48453613 42.5455957 74.96907227 43.09119141 74.43798828 43.65332031 C73.19627538 44.96443476 71.94256289 46.26415908 70.6875 47.5625 C70.03136719 48.24441406 69.37523437 48.92632812 68.69921875 49.62890625 C67 51 67 51 64 51 C63.731875 51.598125 63.46375 52.19625 63.1875 52.8125 C62 55 62 55 60.53125 56.40234375 C58.87533692 58.13006938 58.21465298 59.54962687 57.3125 61.75 C54.47462044 67.68872866 49.15174791 72.57379662 43 75 C40.37890625 75.30078125 40.37890625 75.30078125 37.5625 75.3125 C36.63566406 75.32925781 35.70882812 75.34601563 34.75390625 75.36328125 C30.36080255 74.78376544 27.88746048 73.04930197 25.05078125 69.6953125 C24.47714844 68.84710938 23.90351562 67.99890625 23.3125 67.125 C22.73113281 66.28195313 22.14976563 65.43890625 21.55078125 64.5703125 C19.15915259 60.60635367 17.97739814 57.02888558 17.17358398 52.49658203 C16.06508236 46.8701143 14.27552147 41.62554358 12.3046875 36.25 C11.77622726 34.7801062 11.77622726 34.7801062 11.23709106 33.28051758 C10.12301483 30.18457397 8.99962819 27.09212443 7.875 24 C6.7446177 20.87883817 5.61627042 17.75697254 4.4914856 14.63378906 C3.7939476 12.69825294 3.09294163 10.76396245 2.38815308 8.83105469 C1.9173381 7.5282959 1.9173381 7.5282959 1.43701172 6.19921875 C1.15880585 5.43440186 0.88059998 4.66958496 0.59396362 3.8815918 C0 2 0 2 0 0 Z " fill="#EAA988" transform="translate(104,128)"/>
<path d="M0 0 C1.175625 0.495 1.175625 0.495 2.375 1 C6.99361869 2.27410171 11.24249356 2.16923936 16 2 C15.62488281 3.03253906 15.24976563 4.06507813 14.86328125 5.12890625 C10.46733875 17.55926125 7.55091429 30.07815547 5 43 C4.81115234 43.93134766 4.62230469 44.86269531 4.42773438 45.82226562 C-0.08579485 68.20378683 -3.28834529 90.83000434 -6.68136597 113.4019165 C-7.58435675 119.38141355 -8.56271022 125.34093936 -9.62471008 131.29444885 C-10.24524503 135.76802767 -10.37839662 138.91099573 -8.125 142.875 C-6.59803381 145.57829571 -5.97011632 147.22902003 -5.55859375 150.3828125 C-3.10476176 156.0776707 1.62157281 157.476867 7.0625 160 C25.0396332 168.5594498 25.0396332 168.5594498 30 176 C30 176.99 30 177.98 30 179 C18.20660373 186.86226418 -11.40836843 183.10371517 -25.0625 180.4375 C-28.40385208 179.72092648 -31.70090494 178.89001451 -35 178 C-36.45237061 177.61400635 -36.45237061 177.61400635 -37.93408203 177.22021484 C-65.43454315 169.7534919 -65.43454315 169.7534919 -72 162 C-71.9375 160 -71.9375 160 -71 158 C-63.39199702 151.09971823 -50.22893962 151.58718967 -40.48608398 151.55419922 C-36.64773501 151.47148137 -34.50902734 151.31146286 -31.171875 149.26953125 C-28.98787881 146.98733379 -27.1119444 144.72105237 -25.3125 142.125 C-24.73113281 141.30257812 -24.14976563 140.48015625 -23.55078125 139.6328125 C-20.07652505 133.73445311 -19.12668905 127.14199323 -17.875 120.5 C-17.66762207 119.40921143 -17.46024414 118.31842285 -17.24658203 117.19458008 C-15.02778122 105.37602116 -12.94892112 93.53218648 -10.875 81.6875 C-10.62021881 80.23996338 -10.62021881 80.23996338 -10.36029053 78.76318359 C-7.19077505 60.7207962 -4.41995668 42.64458587 -2.375 24.4375 C-2.19324219 22.87032227 -2.19324219 22.87032227 -2.0078125 21.27148438 C-1.20008704 14.19071718 -0.5534314 7.10501254 0 0 Z " fill="#FBFBFA" transform="translate(128,217)"/>
<path d="M0 0 C0.06316406 0.95132813 0.12632812 1.90265625 0.19140625 2.8828125 C2.35774216 29.44979044 10.88077862 55.43407602 18.38076782 80.8968811 C19.02513123 83.08535404 19.66740993 85.27443115 20.30932617 87.46362305 C22.7818335 95.89094834 25.25736991 104.3174213 27.83886719 112.7121582 C28.98776602 116.47722863 30.08518453 120.21386774 30.91796875 124.0625 C32.75638039 132.07210566 35.21729335 136.15525879 41.7578125 141.23046875 C44 143 44 143 46 146 C48.67866522 146.47769901 48.67866522 146.47769901 51.8125 146.44140625 C52.97007812 146.46783203 54.12765625 146.49425781 55.3203125 146.52148438 C56.53460938 146.53501953 57.74890625 146.54855469 59 146.5625 C61.39597259 146.59683719 63.79184613 146.63938481 66.1875 146.69140625 C67.78658203 146.70989624 67.78658203 146.70989624 69.41796875 146.72875977 C72 147 72 147 74 149 C70.535 149.99 70.535 149.99 67 151 C67 152.32 67 153.64 67 155 C69.97 155 72.94 155 76 155 C66.87037922 162.43007324 53.73353489 165.59320878 42.7331543 169.19604492 C41.77578369 169.51677979 40.81841309 169.83751465 39.83203125 170.16796875 C38.97327393 170.44922607 38.1145166 170.7304834 37.22973633 171.02026367 C34.91468123 172.03748869 33.64128061 173.10184075 32 175 C39.07479988 174.09617094 45.69557939 172.25818313 52.4375 170 C53.21851074 169.73880371 53.99952148 169.47760742 54.80419922 169.20849609 C59.03996084 167.77957162 59.03996084 167.77957162 63.05883789 165.84765625 C65 165 65 165 68 166 C64.35432376 170.57496626 59.63084795 172.04125891 54.3125 174 C53.37857422 174.34885254 52.44464844 174.69770508 51.48242188 175.05712891 C43.10720152 178.10590296 34.74012305 180.30548635 26 182 C24.41445313 182.33644531 24.41445313 182.33644531 22.796875 182.6796875 C12.19907505 184.66337826 -1.48457255 185.99778644 -12 183 C-12 179.35538217 -11.94429263 177.07645994 -9.49291992 174.28198242 C-4.42431266 169.92413517 0.82204866 166.56002804 6.6875 163.375 C16.15246562 158.6252948 16.15246562 158.6252948 21.9609375 150.23828125 C22.09757812 149.27277344 22.23421875 148.30726563 22.375 147.3125 C22.60316406 145.88357422 22.60316406 145.88357422 22.8359375 144.42578125 C23.22125075 136.38007363 21.67327629 128.71224329 19.75 120.9375 C19.52965088 120.02846924 19.30930176 119.11943848 19.08227539 118.18286133 C17.50053471 111.76100539 15.71898942 105.41651343 13.80126953 99.08789062 C12.43634833 94.56585659 11.23548907 90.03067183 10.125 85.4375 C7.73696813 75.61593463 4.86082201 65.93807316 1.97070312 56.25439453 C1.31493849 54.05586773 0.66268209 51.85629191 0.01367188 49.65576172 C-3.9908932 36.10019138 -8.31818248 22.94533019 -14 10 C-14.67425787 8.3363899 -15.34432329 6.67102073 -16 5 C-15.12988281 4.96132812 -15.12988281 4.96132812 -14.2421875 4.921875 C-9.30052622 4.56307451 -3.81596565 0 0 0 Z " fill="#FBFBFA" transform="translate(357,204)"/>
<path d="M0 0 C0.33 0 0.66 0 1 0 C1.03963867 0.55349121 1.07927734 1.10698242 1.12011719 1.67724609 C1.60712443 18.63688919 1.60712443 18.63688919 9.875 32.5 C16.8313138 35.83903062 23.26169575 36.55306458 30.875 37.125 C31.94492187 37.21136719 33.01484375 37.29773438 34.1171875 37.38671875 C36.74433699 37.59782898 39.37183211 37.80204403 42 38 C42 38.33 42 38.66 42 39 C40.92363281 39.03738281 39.84726562 39.07476562 38.73828125 39.11328125 C22.74627653 39.32412844 22.74627653 39.32412844 8.375 45.25 C2.50132878 52.05109299 2.34888179 59.28157728 1.8125 67.9375 C1.73064453 69.09830078 1.64878906 70.25910156 1.56445312 71.45507812 C1.36522843 74.30281939 1.17741612 77.1508309 1 80 C0.67 80 0.34 80 0 80 C-0.04487549 79.38068604 -0.08975098 78.76137207 -0.13598633 78.12329102 C-0.34963748 75.2686669 -0.5809602 72.41572669 -0.8125 69.5625 C-0.88275391 68.58861328 -0.95300781 67.61472656 -1.02539062 66.61132812 C-1.71640251 58.34682597 -2.75999407 50.01391876 -9 44 C-19.01132812 38.74714265 -30.9960029 39.21942168 -42 39 C-42 38.67 -42 38.34 -42 38 C-41.38592285 37.95512451 -40.7718457 37.91024902 -40.13916016 37.86401367 C-37.30011352 37.64995222 -34.46269109 37.41881372 -31.625 37.1875 C-30.65949219 37.11724609 -29.69398438 37.04699219 -28.69921875 36.97460938 C-20.83933832 36.31522343 -12.91759073 35.02376659 -6 31 C-4.77227173 28.76740335 -4.77227173 28.76740335 -4 26 C-3.67515625 24.99195312 -3.3503125 23.98390625 -3.015625 22.9453125 C-1.71723391 18.38419024 -1.31185171 13.77118848 -0.875 9.0625 C-0.78863281 8.18787109 -0.70226562 7.31324219 -0.61328125 6.41210938 C-0.40310303 4.27529746 -0.20074482 2.13771878 0 0 Z " fill="#AFB89D" transform="translate(239,34)"/>
<path d="M0 0 C-0.75058848 4.21414739 -2.45475673 5.7615369 -5.6796875 8.40625 C-10.15631094 11.48110246 -15.08243575 13.72290128 -20 16 C-20.495 15.01 -20.495 15.01 -21 14 C-25.5272207 15.49299822 -30.04417087 17.00638347 -34.53515625 18.60546875 C-36.04427083 19.1328125 -37.55338542 19.66015625 -39.0625 20.1875 C-39.81337891 20.46013672 -40.56425781 20.73277344 -41.33789062 21.01367188 C-46.44008393 22.77320094 -50.60372429 23.2756327 -56 23 C-55.505 21.515 -55.505 21.515 -55 20 C-52.578125 18.89453125 -52.578125 18.89453125 -49.25 17.8125 C-47.98352904 17.38662208 -46.71796104 16.95805305 -45.453125 16.52734375 C-44.75123047 16.28999512 -44.04933594 16.05264648 -43.32617188 15.80810547 C-38.85082361 14.25338226 -34.42774481 12.55953528 -30 10.875 C-29.10442383 10.53831299 -28.20884766 10.20162598 -27.28613281 9.85473633 C-22.71774778 8.11862984 -18.31984708 6.28781375 -14 4 C-16.31 3.67 -18.62 3.34 -21 3 C-21.495 1.02 -21.495 1.02 -22 -1 C-13.69364213 -4.70819548 -8.17090386 -4.69826972 0 0 Z " fill="#F8F9F7" transform="translate(445,356)"/>
<path d="M0 0 C0.99 0 1.98 0 3 0 C2.4250684 4.53683651 1.60359065 8.80214991 0.3125 13.1875 C-0.04714844 14.40953125 -0.40679687 15.6315625 -0.77734375 16.890625 C-0.97440918 17.55126953 -1.17147461 18.21191406 -1.37451172 18.89257812 C-2.03199859 21.10781102 -2.67463365 23.32704193 -3.31640625 25.546875 C-6.07023918 34.99405187 -9.03628102 44.36526486 -12.1875 53.6875 C-12.68685059 55.20331665 -12.68685059 55.20331665 -13.19628906 56.74975586 C-13.51694336 57.68182861 -13.83759766 58.61390137 -14.16796875 59.57421875 C-14.44922607 60.40526123 -14.7304834 61.23630371 -15.02026367 62.0925293 C-16 64 -16 64 -19 65 C-19.20465912 59.85181428 -18.57636324 55.75015307 -17.05859375 50.8359375 C-16.75381859 49.83624687 -16.75381859 49.83624687 -16.44288635 48.81636047 C-15.78426102 46.666064 -15.11142395 44.52054587 -14.4375 42.375 C-13.97926845 40.89315476 -13.52158936 39.41113858 -13.06445312 37.92895508 C-3.27232737 6.30429949 -3.27232737 6.30429949 0 0 Z " fill="#899073" transform="translate(380,93)"/>
<path d="M0 0 C-1.42081805 4.35665202 -3.55609543 6.99886975 -6.6875 10.3125 C-7.51636719 11.19550781 -8.34523437 12.07851562 -9.19921875 12.98828125 C-9.64426758 13.46144775 -10.08931641 13.93461426 -10.54785156 14.42211914 C-12.17985765 16.19543039 -13.76046021 18.00780717 -15.33984375 19.828125 C-21.66608438 27.09285968 -28.36070054 34.02275656 -35 41 C-35.51546387 41.5455957 -36.03092773 42.09119141 -36.56201172 42.65332031 C-37.80372462 43.96443476 -39.05743711 45.26415908 -40.3125 46.5625 C-41.29669922 47.58537109 -41.29669922 47.58537109 -42.30078125 48.62890625 C-44 50 -44 50 -47 50 C-45.57918195 45.64334798 -43.44390457 43.00113025 -40.3125 39.6875 C-39.40043177 38.71150709 -38.48897542 37.73494203 -37.578125 36.7578125 C-36.72734375 35.84773438 -35.8765625 34.93765625 -35 34 C-33.84677131 32.69399316 -32.70000391 31.3822254 -31.5625 30.0625 C-27.31138311 25.17570208 -22.9164215 20.4216542 -18.52636719 15.66015625 C-16.9108831 13.90307183 -15.30271707 12.13947688 -13.6953125 10.375 C-12.60943899 9.18744149 -11.52350299 7.99994011 -10.4375 6.8125 C-9.92485596 6.24764893 -9.41221191 5.68279785 -8.8840332 5.10083008 C-4.20531906 0 -4.20531906 0 0 0 Z " fill="#868E71" transform="translate(215,129)"/>
<path d="M0 0 C1 3 1 3 0.0625 6.1875 C-1.39249724 11.40837246 -2.18206147 15.73866502 0.4375 20.75 C3.91677365 23.80497198 7.70563784 25.35749823 12 27 C8.98968256 27.93423645 8.13349732 28.04449911 5 27 C-0.07636867 26.62397269 -2.94090554 26.8869622 -7 30 C-8.88488485 33.13988951 -8.88488485 33.13988951 -10.3125 36.6875 C-10.82425781 37.86699219 -11.33601563 39.04648438 -11.86328125 40.26171875 C-12.23839844 41.16535156 -12.61351562 42.06898437 -13 43 C-14 40 -14 40 -13.0625 37.375 C-11.72304079 33.12024721 -11.25409275 29.41806602 -12 25 C-15.7190296 19.15581063 -22.76591132 17.33654041 -29 15 C-25.5851611 13.86172037 -24.34794425 14.48812718 -21.03125 15.5 C-17.31764902 16.41411716 -13.77539563 16.66833746 -10 16 C-4.97331362 12.5371716 -3.19669298 7.48096435 -1 2 C-0.67 1.34 -0.34 0.68 0 0 Z " fill="#B1BAA0" transform="translate(170,32)"/>
<path d="M0 0 C0.66 0 1.32 0 2 0 C1.4167964 8.01904955 -0.34949985 15.00944173 -6.5625 20.5 C-10.23994848 23.44851103 -13.77784581 24.51973769 -18.54296875 24.484375 C-25.358152 23.14084126 -32.5587436 18.28721 -37 13 C-37 12.01 -37 11.02 -37 10 C-32.70614945 10.5493034 -30.18056043 12.06023529 -26.6875 14.5625 C-21.6600273 17.85776138 -18.94033272 19.0241953 -13 18 C-8.06000226 16.09136451 -6.24819475 12.55013121 -4 8 C-3.62488281 7.26265625 -3.24976563 6.5253125 -2.86328125 5.765625 C-1.89550122 3.85043927 -0.94609945 1.92598816 0 0 Z " fill="#868E70" transform="translate(358,169)"/>
<path d="M0 0 C1.7890625 0.13671875 1.7890625 0.13671875 4 1 C5.7109375 3.58203125 5.7109375 3.58203125 7.375 6.8125 C10.9026872 13.34396518 10.9026872 13.34396518 17 17 C21.60395361 17.63104383 24.80517076 16.80532543 28.66015625 14.20703125 C30.38442178 12.81289019 32.07967418 11.38180278 33.73828125 9.91015625 C35.77726895 8.18810965 37.56930905 7.06238438 40 6 C38.45601294 13.03371883 33.93421588 16.93271154 28.25 20.9375 C22.74609799 22.73685258 16.7310961 23.27560177 11.390625 20.78125 C8.73343867 18.80138567 7.16539941 16.86479284 5.3125 14.125 C4.73113281 13.28195313 4.14976563 12.43890625 3.55078125 11.5703125 C1.09100789 7.49340854 0 4.808034 0 0 Z " fill="#868D70" transform="translate(122,181)"/>
<path d="M0 0 C-1.18385102 3.68309207 -3.29079257 5.10604007 -6.6328125 6.8671875 C-31.88253747 18.95038922 -31.88253747 18.95038922 -44 18 C-43.505 16.515 -43.505 16.515 -43 15 C-40.578125 13.89453125 -40.578125 13.89453125 -37.25 12.8125 C-35.99960937 12.3896875 -34.74921875 11.966875 -33.4609375 11.53125 C-32.75936523 11.2940625 -32.05779297 11.056875 -31.33496094 10.8125 C-26.81365988 9.23921582 -22.34726959 7.51914588 -17.875 5.8125 C-16.96266602 5.46743408 -16.05033203 5.12236816 -15.11035156 4.7668457 C-14.24635742 4.43773193 -13.38236328 4.10861816 -12.4921875 3.76953125 C-11.33759033 3.33024292 -11.33759033 3.33024292 -10.15966797 2.88208008 C-7.98400005 2.04069544 -7.98400005 2.04069544 -5.96923828 0.8894043 C-4 0 -4 0 0 0 Z " fill="#879074" transform="translate(433,361)"/>
<path d="M0 0 C5.70010818 -0.20727666 11.16183846 0.20812939 16.8125 0.9375 C26.51614228 2.18262844 36.2297965 2.61606232 46 3 C45 6 45 6 43 7 C10.75839051 9.17226034 10.75839051 9.17226034 0 2 C0 1.34 0 0.68 0 0 Z " fill="#858F72" transform="translate(99,389)"/>
<path d="M0 0 C1.4731994 2.74997221 2.22404875 4.89619499 3 8 C8.94 8.99 8.94 8.99 15 10 C11 12 11 12 7.4375 12.75 C3.7453131 13.69130786 3.7453131 13.69130786 2.0625 17.125 C1.5365625 18.548125 1.5365625 18.548125 1 20 C0.34 20 -0.32 20 -1 20 C-1.433125 18.824375 -1.433125 18.824375 -1.875 17.625 C-2.84912254 14.90328368 -2.84912254 14.90328368 -5 13 C-7.88717605 12.3162387 -7.88717605 12.3162387 -11.125 11.875 C-12.22070312 11.70742188 -13.31640625 11.53984375 -14.4453125 11.3671875 C-15.28835938 11.24601562 -16.13140625 11.12484375 -17 11 C-17 10.67 -17 10.34 -17 10 C-16.16855469 9.89042969 -15.33710938 9.78085937 -14.48046875 9.66796875 C-13.39378906 9.50941406 -12.30710937 9.35085937 -11.1875 9.1875 C-10.10855469 9.03667969 -9.02960938 8.88585938 -7.91796875 8.73046875 C-4.88896637 7.97220443 -3.83273404 7.459722 -2 5 C-0.80972016 2.40084462 -0.80972016 2.40084462 0 0 Z " fill="#B1BAA0" transform="translate(272,27)"/>
<path d="M0 0 C1.45880109 0.14107747 2.91703551 0.28802415 4.375 0.4375 C5.59316406 0.55931641 5.59316406 0.55931641 6.8359375 0.68359375 C9 1 9 1 11 2 C13.0374763 2.22858114 15.08040303 2.41024278 17.125 2.5625 C18.76855469 2.68818359 18.76855469 2.68818359 20.4453125 2.81640625 C21.28835937 2.87699219 22.13140625 2.93757813 23 3 C23.33 4.32 23.66 5.64 24 7 C16.03936732 8.28397301 9.28486466 7.97103774 1.875 4.5625 C1.25625 4.046875 0.6375 3.53125 0 3 C0 2.01 0 1.02 0 0 Z " fill="#8A9378" transform="translate(97,368)"/>
<path d="M0 0 C-1.46886238 3.87245536 -3.31621784 5.19903983 -7 7 C-12.45564828 8.99340995 -17.27974992 9.23347959 -23 9 C-23 7.68 -23 6.36 -23 5 C-21.86820312 4.72285156 -20.73640625 4.44570313 -19.5703125 4.16015625 C-18.08851098 3.79439512 -16.60674182 3.42850289 -15.125 3.0625 C-14.37863281 2.88009766 -13.63226563 2.69769531 -12.86328125 2.50976562 C-2.47053417 -0.06501406 -2.47053417 -0.06501406 0 0 Z " fill="#899277" transform="translate(403,353)"/>
<path d="M0 0 C0 1.32 0 2.64 0 4 C-0.99 4.33 -1.98 4.66 -3 5 C-0.36 6.32 2.28 7.64 5 9 C5 9.66 5 10.32 5 11 C-0.47040997 11.28295224 -4.39308327 11.37091468 -9 8 C-9.875 4.8125 -9.875 4.8125 -10 2 C-6.3558226 -0.4294516 -4.28758728 -0.16179575 0 0 Z " fill="#899276" transform="translate(72,373)"/>
<path d="M0 0 C-0.875 3.875 -0.875 3.875 -2 5 C1.3 5.33 4.6 5.66 8 6 C6.6875 8 6.6875 8 4 10 C0.30243261 10.46970575 -3.30511027 10.50438177 -7 10 C-7.66 9.34 -8.32 8.68 -9 8 C-8.83865586 4.85378923 -8.43283786 3.43283786 -6.1875 1.1875 C-4 0 -4 0 0 0 Z " fill="#869074" transform="translate(359,375)"/>
<path d="M0 0 C0.33 0 0.66 0 1 0 C1.33 2.64 1.66 5.28 2 8 C3.32 8.33 4.64 8.66 6 9 C6 9.66 6 10.32 6 11 C4.68 11.33 3.36 11.66 2 12 C1.67 13.65 1.34 15.3 1 17 C0.773125 16.38125 0.54625 15.7625 0.3125 15.125 C-1.37929835 12.38589791 -2.99244161 11.94975528 -6 11 C-6 10.34 -6 9.68 -6 9 C-4.68 8.67 -3.36 8.34 -2 8 C-1.34 5.36 -0.68 2.72 0 0 Z " fill="#B3BCA3" transform="translate(196,84)"/>
<path d="M0 0 C0.80566406 0.00257813 1.61132812 0.00515625 2.44140625 0.0078125 C3.64603516 0.00394531 3.64603516 0.00394531 4.875 0 C7.00390625 0.1328125 7.00390625 0.1328125 9.00390625 1.1328125 C8.34390625 2.4528125 7.68390625 3.7728125 7.00390625 5.1328125 C4.03390625 5.1328125 1.06390625 5.1328125 -1.99609375 5.1328125 C-2.32609375 3.8128125 -2.65609375 2.4928125 -2.99609375 1.1328125 C-1.99609375 0.1328125 -1.99609375 0.1328125 0 0 Z " fill="#8E977C" transform="translate(425.99609375,353.8671875)"/>
<path d="M0 0 C7.57142857 1.85714286 7.57142857 1.85714286 10 5 C9.67 5.99 9.34 6.98 9 8 C5.04179141 7.43454163 2.3340947 6.19097652 -1 4 C-0.67 2.68 -0.34 1.36 0 0 Z " fill="#8B9479" transform="translate(140,383)"/>
<path d="M0 0 C0.33 0 0.66 0 1 0 C1.309375 1.11375 1.61875 2.2275 1.9375 3.375 C2.82326483 6.7945155 2.82326483 6.7945155 4 9 C3.236875 9.268125 2.47375 9.53625 1.6875 9.8125 C-0.87380884 10.94424112 -2.19692938 11.91223401 -4 14 C-4.144375 12.88625 -4.28875 11.7725 -4.4375 10.625 C-4.78372035 7.17857953 -4.78372035 7.17857953 -6 5 C-4.35 4.67 -2.7 4.34 -1 4 C-0.67 2.68 -0.34 1.36 0 0 Z " fill="#B6BFA6" transform="translate(140,60)"/>
<path d="M0 0 C1.32 0.66 2.64 1.32 4 2 C2.700625 2.61875 2.700625 2.61875 1.375 3.25 C-1.95819144 4.97832149 -4.91627901 6.87076408 -8 9 C-6.4169423 4.7257442 -3.49431596 2.73468206 0 0 Z " fill="#E8E9E4" transform="translate(354,373)"/>
<path d="M0 0 C0.28875 0.61875 0.5775 1.2375 0.875 1.875 C1.93720042 4.13325765 1.93720042 4.13325765 4 6 C2.02 6.66 0.04 7.32 -2 8 C-2.33 7.01 -2.66 6.02 -3 5 C-3.66 4.34 -4.32 3.68 -5 3 C-4.360625 2.87625 -3.72125 2.7525 -3.0625 2.625 C-2.0415625 2.315625 -2.0415625 2.315625 -1 2 C-0.67 1.34 -0.34 0.68 0 0 Z " fill="#BAC3AB" transform="translate(192,45)"/>
</svg>
